<svg width="80" height="80" viewBox="0 0 80 80" fill="none" xmlns="http://www.w3.org/2000/svg">
<path d="M73.75 19.9999H72.1266C73.577 18.3821 74.5279 16.3788 74.8643 14.2322C75.2008 12.0856 74.9084 9.88742 74.0225 7.90339C73.1366 5.91936 71.695 4.23433 69.8721 3.05189C68.0492 1.86946 65.9228 1.24023 63.75 1.24023C61.5772 1.24023 59.4508 1.86946 57.6279 3.05189C55.805 4.23433 54.3635 5.91936 53.4775 7.90339C52.5916 9.88742 52.2992 12.0856 52.6357 14.2322C52.9721 16.3788 53.923 18.3821 55.3734 19.9999H40V7.49994C40 7.16842 39.8683 6.85048 39.6339 6.61606C39.3995 6.38164 39.0815 6.24994 38.75 6.24994H33.75C33.4185 6.24994 33.1005 6.38164 32.8661 6.61606C32.6317 6.85048 32.5 7.16842 32.5 7.49994V19.9999H31.25V2.49994C31.25 2.16842 31.1183 1.85048 30.8839 1.61606C30.6495 1.38164 30.3315 1.24994 30 1.24994H25C24.6685 1.24994 24.3505 1.38164 24.1161 1.61606C23.8817 1.85048 23.75 2.16842 23.75 2.49994V19.9999H22.5V11.2499C22.5 10.9184 22.3683 10.6005 22.1339 10.3661C21.8995 10.1316 21.5815 9.99994 21.25 9.99994H16.25C15.9185 9.99994 15.6005 10.1316 15.3661 10.3661C15.1317 10.6005 15 10.9184 15 11.2499V19.9999H6.25C4.92437 20.0014 3.65347 20.5287 2.71611 21.4661C1.77875 22.4034 1.25149 23.6743 1.25 24.9999V62.5C1.25149 63.8256 1.77875 65.0965 2.71611 66.0338C3.65347 66.9712 4.92437 67.4985 6.25 67.4999H32.0156L30.3484 72.4999H26.25C25.9185 72.4999 25.6005 72.6316 25.3661 72.8661C25.1317 73.1005 25 73.4184 25 73.7499V76.2499H12.5C12.1685 76.2499 11.8505 76.3816 11.6161 76.6161C11.3817 76.8505 11.25 77.1684 11.25 77.4999C11.25 77.8315 11.3817 78.1494 11.6161 78.3838C11.8505 78.6183 12.1685 78.7499 12.5 78.7499H67.5C67.8315 78.7499 68.1495 78.6183 68.3839 78.3838C68.6183 78.1494 68.75 77.8315 68.75 77.4999C68.75 77.1684 68.6183 76.8505 68.3839 76.6161C68.1495 76.3816 67.8315 76.2499 67.5 76.2499H55V73.7499C55 73.4184 54.8683 73.1005 54.6339 72.8661C54.3995 72.6316 54.0815 72.4999 53.75 72.4999H49.6516L47.9844 67.4999H73.75C75.0756 67.4985 76.3465 66.9712 77.2839 66.0338C78.2212 65.0965 78.7485 63.8256 78.75 62.5V24.9999C78.7485 23.6743 78.2212 22.4034 77.2839 21.4661C76.3465 20.5287 75.0756 20.0014 73.75 19.9999ZM65 3.84057C66.8682 4.11318 68.5984 4.98156 69.9334 6.31654C71.2684 7.65152 72.1368 9.38178 72.4094 11.2499H65V3.84057ZM64.2672 13.7499H72.4094C72.1935 15.252 71.5904 16.672 70.6594 17.8703C69.7285 19.0686 68.5017 20.0041 67.0997 20.5847C65.6977 21.1652 64.1687 21.371 62.6631 21.1816C61.1575 20.9922 59.7271 20.4143 58.5125 19.5046L64.2672 13.7499ZM55 12.4999C55.003 10.3968 55.7623 8.36487 57.1392 6.7751C58.5161 5.18534 60.4188 4.14378 62.5 3.84057V11.9828L56.7453 17.7374C55.6107 16.2272 54.9981 14.3889 55 12.4999ZM35 8.74994H37.5V32.4999H35V8.74994ZM31.25 22.4999H32.5V32.4999H31.25V22.4999ZM26.25 3.74994H28.75V32.4999H26.25V3.74994ZM22.5 22.4999H23.75V32.4999H22.5V22.4999ZM17.5 12.4999H20V32.4999H17.5V12.4999ZM52.5 74.9999V76.2499H27.5V74.9999H52.5ZM32.9844 72.4999L34.6516 67.4999H45.3484L47.0156 72.4999H32.9844ZM76.25 62.5C76.2491 63.1627 75.9855 63.7981 75.5168 64.2668C75.0482 64.7354 74.4128 64.9991 73.75 65H6.25C5.58723 64.9991 4.95184 64.7354 4.48319 64.2668C4.01454 63.7981 3.75087 63.1627 3.75 62.5V59.9999H76.25V62.5ZM76.25 57.4999H3.75V24.9999C3.75087 24.3372 4.01454 23.7018 4.48319 23.2331C4.95184 22.7645 5.58723 22.5008 6.25 22.4999H15V32.4999H13.75V24.9999C13.75 24.6684 13.6183 24.3505 13.3839 24.1161C13.1495 23.8816 12.8315 23.7499 12.5 23.7499H7.5C7.16848 23.7499 6.85054 23.8816 6.61612 24.1161C6.3817 24.3505 6.25 24.6684 6.25 24.9999V33.7499C6.25 34.0815 6.3817 34.3994 6.61612 34.6338C6.85054 34.8682 7.16848 34.9999 7.5 34.9999H47.5C47.8315 34.9999 48.1495 34.8682 48.3839 34.6338C48.6183 34.3994 48.75 34.0815 48.75 33.7499V24.9999C48.75 24.6684 48.6183 24.3505 48.3839 24.1161C48.1495 23.8816 47.8315 23.7499 47.5 23.7499H42.5C42.1685 23.7499 41.8505 23.8816 41.6161 24.1161C41.3817 24.3505 41.25 24.6684 41.25 24.9999V32.4999H40V22.4999H58.6062C60.1964 23.3213 61.9602 23.7499 63.75 23.7499C65.5398 23.7499 67.3036 23.3213 68.8938 22.4999H73.75C74.4128 22.5008 75.0482 22.7645 75.5168 23.2331C75.9855 23.7018 76.2491 24.3372 76.25 24.9999V57.4999ZM11.25 26.2499V32.4999H8.75V26.2499H11.25ZM43.75 32.4999V26.2499H46.25V32.4999H43.75Z" fill="#C33923"/>
<path d="M15 61.25H7.5C7.16848 61.25 6.85054 61.3817 6.61612 61.6161C6.3817 61.8505 6.25 62.1685 6.25 62.5C6.25 62.8315 6.3817 63.1495 6.61612 63.3839C6.85054 63.6183 7.16848 63.75 7.5 63.75H15C15.3315 63.75 15.6495 63.6183 15.8839 63.3839C16.1183 63.1495 16.25 62.8315 16.25 62.5C16.25 62.1685 16.1183 61.8505 15.8839 61.6161C15.6495 61.3817 15.3315 61.25 15 61.25Z" fill="#C33923"/>
<path d="M20 61.25H18.75C18.4185 61.25 18.1005 61.3817 17.8661 61.6161C17.6317 61.8505 17.5 62.1685 17.5 62.5C17.5 62.8315 17.6317 63.1495 17.8661 63.3839C18.1005 63.6183 18.4185 63.75 18.75 63.75H20C20.3315 63.75 20.6495 63.6183 20.8839 63.3839C21.1183 63.1495 21.25 62.8315 21.25 62.5C21.25 62.1685 21.1183 61.8505 20.8839 61.6161C20.6495 61.3817 20.3315 61.25 20 61.25Z" fill="#C33923"/>
<path d="M53.75 32.5C53.9142 32.5002 54.0768 32.468 54.2285 32.4052C54.3802 32.3423 54.518 32.2502 54.634 32.1339L59.2677 27.5H70C70.3316 27.5 70.6495 27.3683 70.8839 27.1339C71.1183 26.8995 71.25 26.5815 71.25 26.25C71.25 25.9185 71.1183 25.6005 70.8839 25.3661C70.6495 25.1317 70.3316 25 70 25H58.75C58.5859 25 58.4233 25.0323 58.2717 25.0951C58.12 25.158 57.9822 25.25 57.8661 25.3661L52.8661 30.3661C52.6913 30.5409 52.5723 30.7636 52.524 31.0061C52.4758 31.2486 52.5005 31.4999 52.5952 31.7284C52.6898 31.9568 52.85 32.152 53.0556 32.2894C53.2611 32.4267 53.5028 32.5 53.75 32.5Z" fill="#C33923"/>
<path d="M70.0005 46.25C69.3436 46.2505 68.6983 46.4235 68.1293 46.7517C67.5603 47.08 67.0875 47.5519 66.7583 48.1203L53.6723 40.4859C53.495 39.6341 53.0271 38.8704 52.3486 38.3257C51.6701 37.781 50.8233 37.4892 49.9532 37.5003C49.0832 37.5114 48.2441 37.8247 47.5797 38.3865C46.9153 38.9482 46.4669 39.7236 46.3114 40.5797L33.1426 50.4562C32.7844 49.9046 32.2872 49.4569 31.7011 49.1583C31.115 48.8597 30.4606 48.7207 29.8037 48.7552C29.1468 48.7897 28.5105 48.9966 27.959 49.355C27.4074 49.7134 26.9598 50.2107 26.6614 50.7969L13.6458 45.3734C13.4404 44.5172 12.9404 43.7604 12.2333 43.2357C11.5261 42.7109 10.6569 42.4517 9.7779 42.5032C8.89886 42.5548 8.06597 42.914 7.42506 43.5178C6.78415 44.1216 6.37607 44.9317 6.27226 45.8061C6.16845 46.6805 6.37554 47.5636 6.85726 48.3007C7.33897 49.0378 8.06462 49.582 8.90716 49.8379C9.74969 50.0939 10.6554 50.0453 11.4658 49.7007C12.2761 49.3562 12.9394 48.7375 13.3395 47.9531L26.3551 53.3766C26.5561 54.2128 27.0385 54.9546 27.7214 55.4775C28.4043 56.0003 29.2462 56.2725 30.106 56.2483C30.9657 56.2242 31.791 55.9051 32.4435 55.3447C33.096 54.7843 33.5359 54.0166 33.6895 53.1703L46.8583 43.2937C47.2071 43.8312 47.688 44.2701 48.2549 44.5686C48.8218 44.8672 49.4559 45.0153 50.0964 44.9988C50.7369 44.9824 51.3625 44.8019 51.9133 44.4746C52.4642 44.1474 52.9219 43.6843 53.2426 43.1297L66.3286 50.7641C66.473 51.4581 66.8112 52.097 67.304 52.6066C67.7968 53.1163 68.4239 53.4758 69.1127 53.6435C69.8015 53.8113 70.5238 53.7803 71.1957 53.5542C71.8676 53.3282 72.4617 52.9163 72.909 52.3663C73.3564 51.8164 73.6387 51.1509 73.7232 50.447C73.8077 49.7432 73.6909 49.0298 73.3865 48.3895C73.0821 47.7493 72.6024 47.2085 72.0031 46.8298C71.4037 46.4511 70.7094 46.2501 70.0005 46.25ZM11.2505 46.2562C11.2496 46.5883 11.117 46.9065 10.8818 47.1409C10.6465 47.3752 10.3279 47.5067 9.99578 47.5062C9.6637 47.5058 9.34536 47.3736 9.11069 47.1387C8.87603 46.9037 8.74422 46.5852 8.74422 46.2531C8.74422 45.921 8.87603 45.6025 9.11069 45.3676C9.34536 45.1326 9.6637 45.0004 9.99578 45C10.3279 44.9996 10.6465 45.131 10.8818 45.3654C11.117 45.5997 11.2496 45.9179 11.2505 46.25V46.2562ZM30.0005 53.75C29.6691 53.7495 29.3514 53.6177 29.1171 53.3834C28.8828 53.149 28.7509 52.8314 28.7505 52.5V52.4937C28.7517 52.2468 28.8261 52.0057 28.9642 51.801C29.1023 51.5963 29.2979 51.437 29.5264 51.3434C29.7549 51.2497 30.0061 51.2258 30.2481 51.2748C30.4902 51.3237 30.7123 51.4433 30.8865 51.6183C31.0607 51.7934 31.1791 52.0161 31.2269 52.2584C31.2746 52.5007 31.2495 52.7517 31.1547 52.9798C31.0599 53.2078 30.8997 53.4027 30.6943 53.5398C30.4888 53.6768 30.2474 53.75 30.0005 53.75ZM50.0005 42.5C49.7532 42.5 49.5116 42.4267 49.306 42.2893C49.1004 42.152 48.9402 41.9568 48.8456 41.7283C48.751 41.4999 48.7262 41.2486 48.7745 41.0061C48.8227 40.7637 48.9418 40.5409 49.1166 40.3661C49.2914 40.1913 49.5141 40.0722 49.7566 40.024C49.9991 39.9758 50.2504 40.0005 50.4788 40.0951C50.7072 40.1898 50.9024 40.35 51.0398 40.5555C51.1771 40.7611 51.2505 41.0028 51.2505 41.25C51.25 41.5814 51.1182 41.899 50.8838 42.1334C50.6495 42.3677 50.3318 42.4995 50.0005 42.5ZM70.0005 51.25C69.7532 51.25 69.5116 51.1767 69.306 51.0393C69.1004 50.902 68.9402 50.7068 68.8456 50.4783C68.751 50.2499 68.7262 49.9986 68.7745 49.7561C68.8227 49.5137 68.9418 49.2909 69.1166 49.1161C69.2914 48.9413 69.5141 48.8222 69.7566 48.774C69.9991 48.7258 70.2504 48.7505 70.4788 48.8451C70.7072 48.9398 70.9024 49.1 71.0398 49.3055C71.1771 49.5111 71.2505 49.7528 71.2505 50C71.25 50.3314 71.1182 50.649 70.8838 50.8834C70.6495 51.1177 70.3318 51.2495 70.0005 51.25Z" fill="#C33923"/>
<path d="M60 53.75H51.25C50.9185 53.75 50.6005 53.8817 50.3661 54.1161C50.1317 54.3505 50 54.6685 50 55C50 55.3315 50.1317 55.6495 50.3661 55.8839C50.6005 56.1183 50.9185 56.25 51.25 56.25H60C60.3315 56.25 60.6495 56.1183 60.8839 55.8839C61.1183 55.6495 61.25 55.3315 61.25 55C61.25 54.6685 61.1183 54.3505 60.8839 54.1161C60.6495 53.8817 60.3315 53.75 60 53.75Z" fill="#C33923"/>
<path d="M60 50H56.25C55.9185 50 55.6005 50.1317 55.3661 50.3661C55.1317 50.6005 55 50.9185 55 51.25C55 51.5815 55.1317 51.8995 55.3661 52.1339C55.6005 52.3683 55.9185 52.5 56.25 52.5H60C60.3315 52.5 60.6495 52.3683 60.8839 52.1339C61.1183 51.8995 61.25 51.5815 61.25 51.25C61.25 50.9185 61.1183 50.6005 60.8839 50.3661C60.6495 50.1317 60.3315 50 60 50Z" fill="#C33923"/>
<path d="M7.5 38.75H21.25C21.5815 38.75 21.8995 38.6183 22.1339 38.3839C22.3683 38.1495 22.5 37.8315 22.5 37.5C22.5 37.1685 22.3683 36.8505 22.1339 36.6161C21.8995 36.3817 21.5815 36.25 21.25 36.25H7.5C7.16848 36.25 6.85054 36.3817 6.61612 36.6161C6.3817 36.8505 6.25 37.1685 6.25 37.5C6.25 37.8315 6.3817 38.1495 6.61612 38.3839C6.85054 38.6183 7.16848 38.75 7.5 38.75Z" fill="#C33923"/>
<path d="M25 38.75H26.25C26.5815 38.75 26.8995 38.6183 27.1339 38.3839C27.3683 38.1495 27.5 37.8315 27.5 37.5C27.5 37.1685 27.3683 36.8505 27.1339 36.6161C26.8995 36.3817 26.5815 36.25 26.25 36.25H25C24.6685 36.25 24.3505 36.3817 24.1161 36.6161C23.8817 36.8505 23.75 37.1685 23.75 37.5C23.75 37.8315 23.8817 38.1495 24.1161 38.3839C24.3505 38.6183 24.6685 38.75 25 38.75Z" fill="#C33923"/>
</svg>
