<svg width="80" height="80" viewBox="0 0 80 80" fill="none" xmlns="http://www.w3.org/2000/svg">
<path d="M15.514 72.606H2.42306C1.69579 72.606 1.21094 72.1211 1.21094 71.3938V50.0605C1.21094 49.3332 1.69579 48.8484 2.42306 48.8484H15.514C16.2412 48.8484 16.7261 49.3332 16.7261 50.0605V71.3938C16.7261 72.1211 16.2412 72.606 15.514 72.606ZM3.63518 70.1817H14.3018V51.2726H3.63518V70.1817Z" fill="#5131B0"/>
<path d="M43.3917 67.3939C42.422 67.3939 41.5735 67.1515 40.6038 66.7879L30.3008 61.4545C29.6947 61.0909 29.4523 60.3636 29.8159 59.8788C30.1796 59.2727 30.9068 59.0303 31.3917 59.3939L41.6947 64.7273C43.2705 65.4545 45.4523 64.9697 46.0584 63.6363C46.5432 62.5454 45.8159 61.8182 45.0887 61.3333L34.7856 54.5454C33.9371 53.9394 32.8462 53.6969 31.6341 53.6969H15.5129C14.7856 53.6969 14.3008 53.2121 14.3008 52.4848C14.3008 51.7576 14.7856 51.2727 15.5129 51.2727H31.6341C33.2099 51.2727 34.7856 51.7576 36.119 52.606L46.6644 59.2727C48.6038 60.606 49.3311 62.6666 48.4826 64.606C47.5129 66.4242 45.4523 67.3939 43.3917 67.3939Z" fill="#5131B0"/>
<path d="M44.4824 78.5454C43.3915 78.5454 42.4218 78.4242 41.4521 78.0605L15.1491 70.3029C14.543 70.0605 14.1794 69.4545 14.3006 68.8484C14.543 68.2423 15.1491 67.8787 15.7551 67.9999L42.0581 75.7575C43.5127 76.2423 45.4521 76.2423 47.1491 75.6363L74.3006 63.7575C75.3915 63.2726 76.1187 62.5454 76.1187 61.6969C76.1187 60.4848 74.7854 59.5151 73.0884 59.5151H72.7248L47.7551 64.4848C47.1491 64.606 46.4218 64.2423 46.3006 63.5151C46.1794 62.909 46.543 62.1817 47.2703 62.0605L72.3612 57.0908H72.6036H73.3309C76.3612 57.0908 78.7854 59.1514 78.7854 61.6969C78.7854 63.5151 77.5733 65.212 75.5127 65.9393L48.24 77.8181C47.0278 78.4242 45.6945 78.5454 44.4824 78.5454Z" fill="#5131B0"/>
<path d="M72.6075 11.0302H27.759C27.0317 11.0302 26.5469 10.5454 26.5469 9.81808C26.5469 9.09081 27.0317 8.60596 27.759 8.60596H72.6075C73.3348 8.60596 73.8196 9.09081 73.8196 9.81808C73.8196 10.5454 73.3348 11.0302 72.6075 11.0302Z" fill="#5131B0"/>
<path d="M44.0004 48.2424H27.7579C25.5761 48.2424 23.6367 46.3031 23.6367 44.1212V25.9394C23.6367 25.2121 24.1216 24.7273 24.8488 24.7273C25.5761 24.7273 26.061 25.2121 26.061 25.9394V44.1212C26.061 44.9697 26.9094 45.8182 27.7579 45.8182H44.0004C44.7276 45.8182 45.2125 46.3031 45.2125 47.0303C45.2125 47.7576 44.7276 48.2424 44.0004 48.2424Z" fill="#5131B0"/>
<path d="M72.4864 48.2424H63.6379C62.9106 48.2424 62.4258 47.7575 62.4258 47.0303C62.4258 46.303 62.9106 45.8181 63.6379 45.8181H72.4864C73.3349 45.8181 74.1834 44.9696 74.1834 44.1212V23.5151C74.1834 22.7878 74.6682 22.303 75.3955 22.303C76.1228 22.303 76.6076 22.7878 76.6076 23.5151V44.1212C76.6076 46.303 74.6682 48.2424 72.4864 48.2424Z" fill="#5131B0"/>
<path d="M26.6682 11.1515C26.1833 11.1515 25.8197 10.9091 25.5773 10.4243C25.3348 9.8182 25.5773 9.09092 26.1833 8.72729C26.6682 8.48486 27.2742 8.48486 27.6379 8.48486C28.3652 8.48486 28.85 8.96971 28.85 9.69698C28.85 10.4243 28.3652 10.9091 27.6379 10.9091C27.5167 10.9091 27.2742 10.9091 27.153 10.9091C27.0318 11.1515 26.7894 11.1515 26.6682 11.1515Z" fill="#5131B0"/>
<path d="M40.7259 26.1817L26.4229 24.8483C25.8169 24.7271 25.2108 24.2423 25.332 23.515C25.4532 22.7877 25.9381 22.3029 26.6653 22.4241L40.8472 23.7574C41.4532 23.8786 42.0593 24.3635 41.9381 25.0907C41.8169 25.6968 41.332 26.1817 40.7259 26.1817Z" fill="#5131B0"/>
<path d="M59.5168 26.0605C58.9107 26.0605 58.3047 25.5757 58.3047 24.9696C58.3047 24.2423 58.7895 23.7575 59.3956 23.6363L75.1532 22.3029C75.8804 22.0605 76.4865 21.5757 76.3653 20.606L74.7895 12.7272C74.6683 11.7575 73.6986 11.0302 72.6077 11.0302C71.8805 11.0302 71.3956 10.5454 71.3956 9.81808C71.3956 9.09081 71.8805 8.60596 72.6077 8.60596C74.7895 8.60596 76.8501 10.1817 77.2138 12.2423L78.7895 20.1211C79.1532 22.3029 77.8198 24.1211 75.7592 24.7272C75.638 24.7272 75.5168 24.7272 75.5168 24.7272H75.032L59.5168 26.0605Z" fill="#5131B0"/>
<path d="M62.183 11.0302C61.4557 11.0302 60.9709 10.5454 60.9709 9.81811C60.9709 6.66659 58.9103 3.99993 56.2436 3.99993H41.9406C39.3951 3.99993 37.2133 6.66659 37.2133 9.81811C37.2133 10.5454 36.7285 11.0302 36.0012 11.0302C35.2739 11.0302 34.7891 10.5454 34.7891 9.81811C34.7891 5.33326 37.9406 1.57568 41.9406 1.57568H56.2436C60.2436 1.57568 63.3951 5.33326 63.3951 9.81811C63.3951 10.5454 62.9103 11.0302 62.183 11.0302Z" fill="#5131B0"/>
<path d="M56.6065 30.6666H43.6368C41.455 30.6666 39.5156 28.7272 39.5156 26.5454V24.7272C39.5156 22.5454 41.455 20.606 43.6368 20.606H56.6065C58.7884 20.606 60.7277 22.5454 60.7277 24.7272V26.5454C60.7277 28.7272 58.7884 30.6666 56.6065 30.6666ZM43.6368 23.0302C42.7884 23.0302 41.9399 23.8787 41.9399 24.7272V26.5454C41.9399 27.3938 42.7884 28.2423 43.6368 28.2423H56.6065C57.455 28.2423 58.3035 27.3938 58.3035 26.5454V24.7272C58.3035 23.8787 57.455 23.0302 56.6065 23.0302H43.6368Z" fill="#5131B0"/>
<path d="M15.5122 18.0605C12.9667 18.0605 11.0273 15.9999 11.0273 13.4544C11.0273 10.909 12.9667 8.84839 15.5122 8.84839C18.0576 8.84839 19.997 10.909 19.997 13.4544C19.997 14.1817 19.5122 14.6666 18.7849 14.6666C18.0576 14.6666 17.5728 14.1817 17.5728 13.4544C17.5728 12.2423 16.7243 11.2726 15.5122 11.2726C14.3001 11.2726 13.4516 12.2423 13.4516 13.4544C13.4516 14.6666 14.3001 15.6363 15.5122 15.6363C16.2395 15.6363 16.7243 16.1211 16.7243 16.8484C16.7243 17.5757 16.2395 18.0605 15.5122 18.0605Z" fill="#5131B0"/>
<path d="M15.5122 24.8484C12.9667 24.8484 11.0273 22.7877 11.0273 20.2423C11.0273 19.515 11.5122 19.0302 12.2395 19.0302C12.9667 19.0302 13.4516 19.515 13.4516 20.2423C13.4516 21.4544 14.3001 22.4241 15.5122 22.4241C16.6031 22.4241 17.5728 21.4544 17.5728 20.2423C17.5728 19.0302 16.7243 18.0605 15.5122 18.0605C14.7849 18.0605 14.3001 17.5756 14.3001 16.8484C14.3001 16.1211 14.7849 15.6362 15.5122 15.6362C18.0576 15.6362 19.997 17.6968 19.997 20.2423C19.997 22.7877 17.9364 24.8484 15.5122 24.8484Z" fill="#5131B0"/>
<path d="M15.5129 11.3938C14.7856 11.3938 14.3008 10.909 14.3008 10.1817V8.60592C14.3008 7.87865 14.7856 7.3938 15.5129 7.3938C16.2402 7.3938 16.725 7.87865 16.725 8.60592V10.1817C16.725 10.909 16.2402 11.3938 15.5129 11.3938Z" fill="#5131B0"/>
<path d="M15.5129 26.303C14.7856 26.303 14.3008 25.8181 14.3008 25.0909V23.5151C14.3008 22.7878 14.7856 22.303 15.5129 22.303C16.2402 22.303 16.725 22.7878 16.725 23.5151V25.0909C16.725 25.8181 16.2402 26.303 15.5129 26.303Z" fill="#5131B0"/>
<path d="M15.5139 31.0301C7.63506 31.0301 1.33203 24.7271 1.33203 16.8483C1.33203 8.96953 7.63506 2.6665 15.5139 2.6665C23.3926 2.6665 29.6957 8.96953 29.6957 16.8483C29.6957 24.7271 23.3926 31.0301 15.5139 31.0301ZM15.5139 5.09075C9.08961 5.09075 3.75627 10.4241 3.75627 16.8483C3.75627 23.2726 9.08961 28.6059 15.5139 28.6059C21.9381 28.6059 27.2714 23.2726 27.2714 16.8483C27.2714 10.4241 21.9381 5.09075 15.5139 5.09075Z" fill="#5131B0"/>
<path d="M51.3918 57.4545C51.2706 57.4545 51.2706 57.4545 51.1494 57.4545C49.6948 57.2121 48.3615 56.606 47.1494 55.8788C46.6645 55.5151 46.4221 54.9091 46.6645 54.4242C46.907 53.8182 46.907 53.0909 46.5433 52.7273C46.0585 52.2424 45.3312 52.3636 44.8463 52.606C44.3615 52.8485 43.6342 52.606 43.3918 52.1212C42.5433 50.7879 42.0585 49.4545 41.816 48.1212C41.6948 47.6363 41.9373 47.1515 42.4221 46.9091C43.0282 46.5454 43.2706 46.303 43.513 46.0606L43.6342 45.9394C43.7554 45.8182 43.7554 45.8182 43.7554 45.5757C43.7554 45.2121 43.3918 44.606 42.5433 44.2424C42.0585 44 41.6948 43.3939 41.816 42.9091C42.0585 41.4545 42.6645 40.1212 43.3918 38.9091C43.7554 38.4242 44.3615 38.1818 44.8463 38.4242C45.4524 38.6666 46.1797 38.6666 46.5433 38.303C47.0282 37.8182 46.907 37.0909 46.6645 36.606C46.4221 36.1212 46.6645 35.3939 47.1494 35.1515C48.4827 34.303 49.816 33.8182 51.1494 33.5757C51.7554 33.4545 52.2403 33.8182 52.4827 34.303C52.8463 35.1515 53.3312 35.5151 53.816 35.5151C54.3009 35.5151 54.7857 35.1515 55.1494 34.303C55.3918 33.8182 55.8767 33.4545 56.4827 33.5757C57.9373 33.8182 59.2706 34.4242 60.4827 35.1515C60.9676 35.5151 61.21 36.1212 60.9676 36.606C60.7251 37.2121 60.7251 37.9394 61.0888 38.303C61.5736 38.7879 62.3009 38.6666 62.7857 38.4242C63.2706 38.1818 63.8767 38.4242 64.2403 38.7879C65.0888 39.8788 65.5736 41.2121 65.9373 42.7879C66.0585 43.3939 65.6948 43.8788 65.21 44.1212C64.3615 44.4848 63.9979 44.9697 63.9979 45.4545C63.9979 45.4545 64.1191 45.697 64.2403 45.9394C64.4827 46.1818 64.8464 46.5454 65.3312 46.7879C65.8161 47.0303 65.9373 47.5151 65.9373 48.1212C65.4524 49.5757 64.9676 50.9091 64.1191 52.1212C63.7554 52.606 63.1494 52.8485 62.6645 52.606C62.0585 52.3636 61.3312 52.3636 60.9676 52.7273C60.4827 53.2121 60.6039 53.9394 60.8464 54.4242C61.0888 54.9091 60.8464 55.5151 60.4827 55.8788C59.3918 56.7273 58.0585 57.3333 56.4827 57.5757C55.8767 57.697 55.3918 57.3333 55.1494 56.8485C54.7857 56 54.3009 55.6364 53.816 55.6364C53.4524 55.6364 52.8463 56 52.4827 56.8485C52.3615 57.2121 51.8767 57.4545 51.3918 57.4545ZM53.816 53.0909C55.0282 53.0909 56.1191 53.8182 56.8464 54.9091C57.3312 54.7879 57.816 54.5454 58.3009 54.303C58.0585 52.9697 58.4221 51.7576 59.2706 50.9091C60.1191 50.0606 61.3312 49.697 62.5433 49.9394C62.7857 49.4545 63.0282 48.9697 63.1494 48.3636C62.7857 48.1212 62.4221 47.7576 62.0585 47.3939C61.6948 46.9091 61.3312 46.1818 61.3312 45.4545C61.3312 44.2424 61.9373 43.1515 63.1494 42.4242C63.0282 41.9394 62.7857 41.4545 62.5433 40.9697C61.21 41.2121 59.9979 40.9697 59.1494 40C58.3009 39.1515 57.9373 37.9394 58.1797 36.7273C57.6948 36.4848 57.21 36.2424 56.7251 36.1212C55.9979 37.2121 54.907 37.8182 53.6948 37.8182C52.4827 37.8182 51.3918 37.2121 50.6645 36.1212C50.1797 36.2424 49.6948 36.4848 49.21 36.7273C49.4524 38.0606 49.0888 39.1515 48.2403 40C47.3918 40.8485 46.1797 41.2121 44.9676 40.9697C44.7251 41.4545 44.4827 41.9394 44.3615 42.4242C45.4524 43.1515 46.0585 44.2424 46.0585 45.4545C46.0585 46.303 45.816 46.9091 45.3312 47.5151C45.0888 47.8788 44.7251 48.2424 44.3615 48.4848C44.4827 48.9697 44.7251 49.4545 44.9676 50.0606C46.3009 49.8182 47.3918 50.1818 48.2403 51.0303C49.0888 51.8788 49.4524 53.0909 49.21 54.303C49.6948 54.5454 50.1797 54.7879 50.6645 54.9091C51.513 53.697 52.6039 53.0909 53.816 53.0909Z" fill="#5131B0"/>
<path d="M53.8144 51.3939C50.5417 51.3939 47.875 48.7273 47.875 45.4545C47.875 42.1818 50.5417 39.5151 53.8144 39.5151C57.0871 39.5151 59.7538 42.1818 59.7538 45.4545C59.7538 48.7273 57.0871 51.3939 53.8144 51.3939ZM53.8144 41.9394C51.875 41.9394 50.2992 43.5151 50.2992 45.4545C50.2992 47.3939 51.875 48.9697 53.8144 48.9697C55.7538 48.9697 57.3295 47.3939 57.3295 45.4545C57.3295 43.5151 55.7538 41.9394 53.8144 41.9394Z" fill="#5131B0"/>
</svg>
