<svg width="65" height="68" viewBox="0 0 65 68" fill="none" xmlns="http://www.w3.org/2000/svg">
<g clip-path="url(#clip0_6452_447)">
<path d="M36.2886 0.661008C36.404 0.662945 36.5185 0.680018 36.6288 0.71172C39.2448 1.35174 40.7971 3.31903 40.8009 5.85814C40.8096 12.8716 40.8096 19.8862 40.8009 26.902V27.8515C41.2726 27.7728 41.7086 27.799 42.0093 27.6242C42.4678 27.3584 42.7291 26.9807 42.5073 26.3616C42.1314 25.3299 41.9228 24.2509 41.6165 23.1982C41.4455 22.6107 41.6315 22.2364 42.2386 22.0021C43.192 21.6349 44.136 21.2519 45.0707 20.8532C45.6345 20.6084 46.0536 20.7518 46.3975 21.2152C47.2075 22.3099 48.0269 23.3976 48.7861 24.4136C49.8235 24.6811 50.3422 24.2684 50.7463 23.5112C51.1935 22.6736 51.7667 21.8937 52.2648 21.077C52.5805 20.5524 52.9921 20.3776 53.6047 20.6119C54.5575 20.9739 55.5179 21.3219 56.4763 21.6611C57.074 21.878 57.2788 22.2434 57.1491 22.845C56.8804 24.1075 56.6661 25.3788 56.4143 26.7201L57.3972 27.5297C58.662 27.2325 60.0283 26.9369 61.372 26.5854C62.0767 26.4001 62.4845 26.5977 62.7533 27.2097C63.1291 28.0578 63.505 28.9007 63.9316 29.7296C64.2229 30.3154 64.0575 30.7211 63.5069 31.0691C62.3492 31.8071 61.2047 32.5642 60.0922 33.2882V34.4983C61.2573 35.1436 62.4244 35.7853 63.5877 36.4341C64.3921 36.8818 64.4729 37.1109 64.1289 37.9362C63.8001 38.7284 63.4373 39.5101 63.1367 40.3127C62.8886 40.9755 62.4357 41.1766 61.7253 41.0472C60.5526 40.8338 59.3761 40.6502 58.2015 40.4509C58.0171 40.4191 57.8271 40.4307 57.6487 40.4846C57.4703 40.5384 57.3091 40.6328 57.1798 40.7592C57.0505 40.8856 56.9571 41.04 56.9081 41.2085C56.8591 41.3769 56.856 41.5541 56.8992 41.7239C57.1924 42.8011 57.5006 43.8766 57.79 44.9555C57.9967 45.7232 57.8614 45.9733 57.0928 46.2898C56.2358 46.6395 55.3769 46.9892 54.5162 47.339C53.6987 47.6642 53.4581 47.5978 52.9282 46.8948C52.3775 46.1639 51.778 45.4556 51.2969 44.6845C50.8402 43.9518 50.2896 43.5705 49.2503 43.8975C48.6245 44.8803 47.9348 45.9663 47.2432 47.0452C46.7602 47.8006 46.5009 47.8863 45.642 47.5698C44.7268 47.2358 43.8153 46.8931 42.9001 46.5591C42.3626 46.3615 42.1483 46.0205 42.263 45.4766C42.5261 44.1703 42.7648 42.8536 43.0147 41.57C42.0751 40.603 42.0751 40.603 40.8065 41.0664V41.8079C40.8065 48.4529 40.7163 55.098 40.846 61.743C40.9099 65.0236 39.2279 67.2077 36.1477 67.8127H5.48081C5.44699 67.7848 5.41692 67.7428 5.37557 67.7323C2.2916 66.8999 0.936606 65.2299 0.932847 62.2484C0.932847 60.1966 0.932847 58.1448 0.932847 56.093C0.932847 41.5205 0.932847 26.948 0.932847 12.3755C0.932847 10.0847 0.900894 7.79045 0.957274 5.49965C1.00426 3.6233 2.00218 2.22259 3.73868 1.30278C4.27591 0.998281 4.86412 0.779589 5.47894 0.655762L36.2886 0.661008ZM38.3164 55.8954V12.2269H3.59961V55.8954H38.3164ZM37.9856 9.19115C37.9856 7.51415 38.0082 7.27808 37.9856 5.64479C37.9518 3.74046 36.3487 2.94481 34.289 2.94131C24.5842 2.92907 17.1345 2.92732 7.42967 2.94131C5.43195 2.94131 3.84204 3.68451 3.77814 5.54162C3.72176 7.13469 3.76311 7.33229 3.76311 8.92885C3.77681 9.01749 3.79946 9.10473 3.83077 9.1894L37.9856 9.19115ZM38.3427 58.2439H3.56202C3.56202 59.7425 3.56202 59.8037 3.56202 61.2621C3.56202 63.8205 5.03165 65.1879 7.76983 65.1879H34.1387C34.3717 65.1879 34.6066 65.1879 34.8415 65.1879C36.6325 65.097 38.2243 63.7767 38.322 62.1365C38.4179 60.3895 38.3427 60.0398 38.3427 58.2369V58.2439ZM40.8479 29.2662V39.4454C42.2198 38.6742 43.1651 39.2075 43.9638 40.1868C43.9928 40.2217 44.0285 40.2513 44.069 40.2742C44.7738 40.6607 44.8339 41.229 44.6779 41.9163C44.428 43.0215 44.2438 44.1389 44.0258 45.2843L45.954 45.9837C46.467 45.1811 47.0064 44.4816 47.3804 43.7104C47.9254 42.5948 48.6734 41.9303 50.0753 42.2136C50.1917 42.2334 50.3115 42.2274 50.4249 42.1961C51.1522 42.0212 51.6089 42.3062 52.0017 42.8676C52.6876 43.8503 53.4318 44.7911 54.1554 45.7652L56.0497 44.9835C55.7866 44.0235 55.6062 43.0949 55.2736 42.2171C54.8977 41.1958 54.924 40.3599 55.9783 39.7164C56.1808 39.5661 56.3554 39.3859 56.4951 39.1831C56.6261 39.002 56.8156 38.8644 57.0363 38.7902C57.2569 38.716 57.4972 38.709 57.7223 38.7704C59.0247 39.0134 60.3402 39.2023 61.6877 39.4191L62.4394 37.6267C61.6558 37.1948 60.9867 36.7314 60.2425 36.4306C58.8405 35.864 58.0399 35.0317 58.3763 33.5225C58.3809 33.5006 58.3809 33.478 58.3763 33.4561C58.2034 32.7566 58.5455 32.3247 59.1713 31.9522C60.2087 31.3332 61.1972 30.6442 62.2102 29.9832L61.3757 28.217C60.3534 28.46 59.3611 28.6367 58.4139 28.9374C57.3314 29.2872 56.4143 29.2872 55.7359 28.2887C55.6434 28.1601 55.5199 28.0534 55.375 27.9774C54.6609 27.5927 54.6045 27.0226 54.7567 26.3371C55.0029 25.2302 55.1946 24.1145 55.4164 22.9656L53.4826 22.2662C52.8906 23.1982 52.2779 24.0551 51.7912 24.9679C51.3476 25.7933 50.7726 26.234 49.7465 26.0346C49.5136 25.9996 49.2755 26.0103 49.0474 26.0661C48.2956 26.227 47.822 25.9244 47.4199 25.3421C46.7508 24.3751 46.0179 23.4483 45.2962 22.483L43.3887 23.2629C43.6838 24.3471 43.9112 25.3946 44.2663 26.4106C44.5539 27.229 44.3584 27.7641 43.6856 28.3639C42.87 29.0791 42.2254 29.9569 40.8479 29.2662Z" fill="#1D3E81"/>
<path d="M20.8129 39.1955H33.395C33.6524 39.1955 33.9588 39.1343 34.1467 39.2392C34.4004 39.3721 34.7199 39.6362 34.7349 39.8617C34.7537 40.1205 34.5263 40.4528 34.3008 40.6487C34.1486 40.7816 33.8141 40.7641 33.5622 40.7641C25.1053 40.7641 16.6483 40.7641 8.19132 40.7641C8.00339 40.7641 7.75532 40.8183 7.64444 40.7291C7.36818 40.507 7.00547 40.2377 6.9566 39.9474C6.88519 39.5277 7.23099 39.22 7.73465 39.2007C8.23831 39.1815 8.76451 39.192 9.28133 39.192L20.8129 39.1955Z" fill="#1D3E81"/>
<path d="M31.2668 23.7877C30.2125 23.7877 29.16 23.8 28.1057 23.7877C27.354 23.7772 27.0834 23.5377 27.0796 22.8347C27.0646 20.8715 27.0646 18.9077 27.0796 16.9433C27.0796 16.2578 27.3766 16.0078 28.1245 16.0043C30.2068 15.9973 32.2898 15.9973 34.3733 16.0043C35.1476 16.0043 35.4351 16.2736 35.4389 16.9905C35.4489 18.9328 35.4489 20.875 35.4389 22.8172C35.4389 23.5044 35.157 23.7755 34.4259 23.7877C33.3735 23.7877 32.3192 23.7877 31.2668 23.7877ZM33.0672 21.5809V18.1919H29.457V21.5721L33.0672 21.5809Z" fill="#1D3E81"/>
<path d="M20.8781 23.7877C19.8257 23.7877 18.7714 23.8 17.719 23.7877C16.9672 23.7772 16.6966 23.5377 16.691 22.8347C16.6759 20.8715 16.6759 18.9077 16.691 16.9433C16.691 16.2578 16.9879 16.0078 17.7359 16.0043C19.8194 15.9973 21.903 15.9973 23.9865 16.0043C24.7589 16.0043 25.0483 16.2736 25.0502 16.9905C25.0602 18.9328 25.0602 20.875 25.0502 22.8172C25.0502 23.5044 24.7683 23.7755 24.0373 23.7877C22.9848 23.7877 21.9305 23.7877 20.8781 23.7877ZM22.6785 21.5809V18.1919H19.0777V21.5721L22.6785 21.5809Z" fill="#1D3E81"/>
<path d="M10.4904 23.7877C9.43802 23.7877 8.38372 23.8 7.3313 23.7877C6.57957 23.7772 6.30894 23.5377 6.30331 22.8347C6.28952 20.8715 6.28952 18.9077 6.30331 16.9433C6.30331 16.2578 6.60024 16.0078 7.34633 16.0043C9.43113 15.9973 11.5147 15.9973 13.597 16.0043C14.3694 16.0043 14.6588 16.2736 14.6625 16.9905C14.6701 18.9328 14.6701 20.875 14.6625 22.8172C14.6625 23.5044 14.3788 23.7755 13.6496 23.7877C12.5972 23.7877 11.5447 23.7877 10.4904 23.7877ZM12.2908 21.5809V18.1919H8.68066V21.5721L12.2908 21.5809Z" fill="#1D3E81"/>
<path d="M31.2707 52.4121C30.2183 52.4121 29.164 52.4226 28.1115 52.4121C27.3598 52.4016 27.0892 52.1638 27.0835 51.459C27.0685 49.4958 27.0685 47.5321 27.0835 45.5677C27.0835 44.8822 27.3824 44.6321 28.1284 44.6304C30.2132 44.6222 32.2968 44.6222 34.3791 44.6304C35.1515 44.6304 35.4409 44.8997 35.4428 45.6167C35.4516 47.5589 35.4516 49.5011 35.4428 51.4433C35.4428 52.1323 35.1609 52.4016 34.4298 52.4138C33.3774 52.4243 32.325 52.4103 31.2707 52.4121ZM33.0711 50.2035V46.8233H29.4609V50.2035H33.0711Z" fill="#1D3E81"/>
<path d="M20.8821 52.4121C19.8297 52.4121 18.7754 52.4226 17.7229 52.4121C16.9712 52.4016 16.7006 52.1638 16.6949 51.459C16.6824 49.4958 16.6824 47.5321 16.6949 45.5677C16.6949 44.8822 16.9919 44.6321 17.738 44.6304C19.8228 44.6222 21.9063 44.6222 23.9886 44.6304C24.761 44.6304 25.0504 44.8997 25.0542 45.6167C25.0617 47.5589 25.0617 49.5011 25.0542 51.4433C25.0542 52.1323 24.7704 52.4016 24.0412 52.4138C22.9888 52.4243 21.9364 52.4103 20.8821 52.4121ZM22.6825 50.2035V46.8233H19.0779V50.2035H22.6825Z" fill="#1D3E81"/>
<path d="M10.4953 52.4121C9.44098 52.4121 8.38857 52.4226 7.33426 52.4121C6.58253 52.4016 6.31191 52.1638 6.30627 51.459C6.29374 49.4958 6.29374 47.5321 6.30627 45.5677C6.30627 44.8822 6.6032 44.6321 7.35118 44.6304C9.43347 44.6222 11.5164 44.6222 13.5999 44.6304C14.3742 44.6304 14.6618 44.8997 14.6655 45.6167C14.6755 47.5589 14.6755 49.5011 14.6655 51.4433C14.6655 52.1323 14.3836 52.4016 13.6526 52.4138C12.602 52.4243 11.5477 52.4103 10.4953 52.4121ZM12.2957 50.2035V46.8233H8.68362V50.2035H12.2957Z" fill="#1D3E81"/>
<path d="M20.8781 33.2761C19.8257 33.2761 18.7714 33.2884 17.719 33.2761C16.9672 33.2639 16.6966 33.0261 16.691 32.3231C16.6759 30.3576 16.6759 28.3932 16.691 26.43C16.691 25.7445 16.9879 25.4944 17.7359 25.4927C19.8194 25.4845 21.903 25.4845 23.9865 25.4927C24.7589 25.4927 25.0483 25.762 25.0502 26.479C25.0602 28.42 25.0602 30.3622 25.0502 32.3056C25.0502 32.9929 24.7683 33.2622 24.0373 33.2744C22.9848 33.2884 21.9305 33.2761 20.8781 33.2761ZM22.6785 31.0675V27.6873H19.0777V31.0675H22.6785Z" fill="#1D3E81"/>
<path d="M10.4904 33.2761C9.43802 33.2761 8.38372 33.2884 7.3313 33.2761C6.57957 33.2639 6.30894 33.0261 6.30331 32.3231C6.28952 30.3576 6.28952 28.3932 6.30331 26.43C6.30331 25.7445 6.60024 25.4944 7.34633 25.4927C9.43113 25.4845 11.5147 25.4845 13.597 25.4927C14.3694 25.4927 14.6588 25.762 14.6625 26.479C14.6701 28.42 14.6701 30.3622 14.6625 32.3056C14.6625 32.9929 14.3788 33.2622 13.6496 33.2744C12.5972 33.2884 11.5447 33.2761 10.4904 33.2761ZM12.2908 31.0675V27.6873H8.68066V31.0675H12.2908Z" fill="#1D3E81"/>
<path d="M20.8326 7.2136C19.6844 7.2136 18.538 7.2136 17.3916 7.2136C16.7038 7.2136 16.3223 6.91632 16.3223 6.42669C16.3223 5.93705 16.6981 5.64677 17.3916 5.64502C19.7094 5.64502 22.0273 5.64502 24.3451 5.64502C25.0254 5.64502 25.4201 5.94405 25.4201 6.42669C25.4201 6.90933 25.0179 7.21185 24.3451 7.21535C23.1743 7.21885 22.0035 7.2136 20.8326 7.2136Z" fill="#1D3E81"/>
<path d="M20.8829 62.8326C19.7121 62.8326 18.5413 62.8326 17.3704 62.8326C16.6939 62.8326 16.2861 62.5196 16.3293 62.0317C16.3782 61.4686 16.7728 61.2605 17.3423 61.2605C19.6839 61.2605 22.0255 61.2605 24.3672 61.2605C25.0306 61.2605 25.4628 61.5893 25.4121 62.0666C25.3501 62.663 24.9197 62.8431 24.324 62.8361C23.1776 62.8221 22.0312 62.8326 20.8829 62.8326Z" fill="#1D3E81"/>
<path d="M49.6803 39.9212C48.0304 39.9119 46.4516 39.295 45.2894 38.2053C44.1271 37.1157 43.476 35.642 43.4785 34.1068C43.4827 33.3421 43.6493 32.5857 43.9688 31.8811C44.2883 31.1766 44.7544 30.5378 45.3402 30.0015C45.926 29.4651 46.62 29.0419 47.3823 28.7561C48.1445 28.4703 48.96 28.3275 49.7818 28.3361C51.4175 28.3594 52.9783 28.9783 54.1293 30.0601C55.2803 31.1418 55.9298 32.6003 55.9385 34.1225C55.9405 34.8866 55.7798 35.6435 55.4656 36.3494C55.1515 37.0554 54.6902 37.6965 54.1083 38.2356C53.5265 38.7748 52.8356 39.2013 52.0756 39.4906C51.3155 39.7799 50.5014 39.9263 49.6803 39.9212ZM49.716 37.3856C50.6413 37.3888 51.5303 37.0508 52.1883 36.4454C52.8463 35.84 53.2196 35.0167 53.2266 34.1557C53.2288 33.7253 53.1398 33.2987 52.9648 32.9003C52.7897 32.5019 52.5319 32.1395 52.2063 31.8339C51.8806 31.5282 51.4933 31.2853 51.0667 31.119C50.64 30.9527 50.1823 30.8663 49.7198 30.8647C48.7935 30.8651 47.9049 31.2057 47.2472 31.8125C46.5894 32.4193 46.2157 33.2432 46.2073 34.105C46.2046 34.5348 46.2932 34.9608 46.468 35.3586C46.6428 35.7564 46.9003 36.1181 47.2259 36.4229C47.5514 36.7278 47.9385 36.9698 48.3649 37.135C48.7912 37.3002 49.2485 37.3853 49.7104 37.3856H49.716Z" fill="#1D3E81"/>
</g>
<defs>
<clipPath id="clip0_6452_447">
<rect width="63.4009" height="67.15" fill="white" transform="translate(0.925781 0.661133)"/>
</clipPath>
</defs>
</svg>
