<svg width="70" height="70" viewBox="0 0 70 70" fill="none" xmlns="http://www.w3.org/2000/svg">
<g clip-path="url(#clip0_6452_439)">
<path d="M15.8677 69.5469C15.0714 68.9439 14.9949 68.6288 15.4415 67.7198C15.8594 66.8684 16.2856 66.0211 16.7059 65.1697C17.327 63.9111 18.3273 63.2884 19.7422 63.2949C22.4997 63.3089 25.2538 63.2949 28.0721 63.2949L29.4969 59.0683H28.6529C20.4453 59.0683 12.238 59.0683 4.03094 59.0683C1.57376 59.0683 0.402344 57.9051 0.402344 55.4693C0.402344 40.9961 0.402344 26.5228 0.402344 12.0496C0.402344 9.72734 1.58857 8.52878 3.89603 8.52466C5.97617 8.52137 8.05631 8.52137 10.1364 8.52466C10.3174 8.51844 10.4985 8.52504 10.6786 8.5444C11.2782 8.63325 11.6418 8.99438 11.6131 9.5949C11.5843 10.1954 11.2083 10.5458 10.5905 10.5516C9.19208 10.5639 7.78704 10.5582 6.38528 10.5598C5.50343 10.5598 4.62158 10.5508 3.73973 10.5598C2.78219 10.573 2.43916 10.9226 2.43834 11.8834C2.43505 15.8183 2.43505 19.7532 2.43834 23.6881V55.4414C2.43834 56.7576 2.70816 57.0331 4.02189 57.0331H66.2205C67.5696 57.0331 67.8287 56.7691 67.8287 55.3978V12.1895C67.8287 10.8181 67.5819 10.5681 66.2089 10.5681H49.355V11.3084C50.9476 11.3907 52.4423 11.7428 53.7816 12.6296C53.9634 12.7505 54.262 12.7168 54.5063 12.7168C57.742 12.7217 60.9754 12.7231 64.2067 12.7209C65.3394 12.7209 65.6528 13.0359 65.6528 14.1728C65.6528 18.7861 65.6528 23.3993 65.6528 28.0126C65.6528 28.1483 65.6602 28.2849 65.6471 28.4198C65.5879 29.0467 65.1659 29.4481 64.5777 29.407C63.9582 29.3625 63.6366 28.9907 63.621 28.3886C63.5996 27.5297 63.6136 26.6701 63.6136 25.8105V14.7914H56.0347C56.3638 15.7358 56.7957 16.6604 57.0178 17.6328C58.009 21.9696 55.3199 26.3386 51.1146 27.25C50.3743 27.4105 49.5895 27.4195 48.8244 27.4286C46.7465 27.4516 44.6685 27.436 42.5338 27.436V29.5748C43.1615 29.5748 43.7842 29.5641 44.4069 29.5748C45.2666 29.5937 45.6162 29.9227 45.6179 30.7676C45.6261 34.884 45.6261 38.9999 45.6179 43.1152C45.6179 43.909 45.2411 44.2825 44.4489 44.2866C42.1456 44.2997 39.8395 44.2997 37.5306 44.2866C36.7903 44.2866 36.3493 43.886 36.3469 43.2673C36.3444 42.6487 36.7738 42.2613 37.5249 42.2588C39.5099 42.2514 41.4957 42.2588 43.535 42.2588V31.6733H26.7247V42.2613H27.4469C29.2106 42.2613 30.9743 42.2613 32.7372 42.2613C33.4891 42.2613 33.9201 42.6438 33.9193 43.2673C33.9185 43.8909 33.4809 44.2866 32.738 44.2899C30.4347 44.3003 28.1286 44.3003 25.8198 44.2899C25.0243 44.2899 24.65 43.9156 24.6484 43.1217C24.639 38.9834 24.639 34.8448 24.6484 30.7059C24.6484 29.9408 25.007 29.6044 25.7852 29.5797C26.4153 29.56 27.0463 29.5756 27.7315 29.5756V27.4705C27.4848 27.459 27.2454 27.4376 27.0052 27.4376C24.97 27.4376 22.9348 27.4376 20.9005 27.4376C19.006 27.429 17.1785 26.7359 15.7546 25.4862C14.3308 24.2365 13.4065 22.5143 13.1522 20.637C12.884 18.6331 13.0329 17.8754 14.3129 14.7963H6.69953V48.5346H63.6185V47.7268C63.6185 42.9325 63.6185 38.1383 63.6185 33.344C63.6076 33.1408 63.612 32.937 63.6317 32.7345C63.7139 32.1973 64.043 31.8732 64.5826 31.8436C65.1223 31.814 65.4817 32.1183 65.6158 32.639C65.6701 32.8521 65.6512 33.0874 65.6512 33.3128C65.6512 38.5825 65.6512 43.8517 65.6512 49.1203C65.6512 50.3411 65.3551 50.6413 64.1293 50.6413C44.7977 50.6413 25.466 50.6413 6.13439 50.6413C4.90785 50.6413 4.61089 50.3419 4.61089 49.1228C4.61089 37.4964 4.61089 25.8724 4.61089 14.2509C4.61089 12.9948 4.89963 12.711 6.17881 12.7102C9.38704 12.7102 12.6002 12.7184 15.8109 12.6978C16.1635 12.6893 16.5083 12.5931 16.8145 12.4181C18.0912 11.6778 19.1137 11.3989 21.2526 11.306C21.3153 11.1953 21.3718 11.0814 21.422 10.9646C21.4593 10.8341 21.4882 10.7014 21.5084 10.5672H20.1815C18.5313 10.5672 16.8803 10.5738 15.2301 10.5631C14.475 10.5582 14.0414 10.1757 14.0406 9.56199C14.0398 8.94831 14.4791 8.54276 15.2227 8.53782C17.5261 8.52384 19.836 8.55099 22.141 8.5115C22.526 8.4868 22.891 8.33156 23.1759 8.0714C24.7972 6.54461 26.6778 5.70471 28.9243 5.74995C29.2838 5.75736 29.6425 5.7845 30.002 5.80342C32.3975 1.75282 35.804 -0.575201 40.5998 0.261407C45.1325 1.04784 47.6826 4.19766 49.0811 8.53289H49.8149C55.1965 8.53289 60.5781 8.57484 65.958 8.51068C67.8501 8.48847 69.1967 9.09721 69.8639 10.9308V56.6555C69.2058 58.4925 67.8698 59.1061 65.9761 59.0946C57.8692 59.0453 49.7622 59.0732 41.6545 59.0732H40.7701C41.2637 60.5474 41.7301 61.9228 42.1933 63.2999C45.047 63.2999 47.8241 63.2999 50.6005 63.2999C51.9241 63.2999 52.8931 63.8757 53.4936 65.0578C53.9434 65.9424 54.3873 66.83 54.8255 67.7207C55.2705 68.6255 55.1924 68.9447 54.3977 69.5469H15.8677ZM42.5067 25.4008H43.2956C45.2625 25.4008 47.231 25.3523 49.1963 25.4107C53.5027 25.539 55.8768 21.3724 55.0048 17.9248C54.2389 14.9008 52.1339 13.3716 48.6895 13.3617C47.4745 13.3617 47.1422 13.0203 47.2318 11.8209C47.3435 10.3501 47.1009 8.87388 46.5244 7.51613C45.1054 4.12774 42.097 1.96177 38.8024 2.12959C35.4346 2.30069 33.1263 4.11046 31.704 7.10728C31.2466 8.06975 30.99 8.13803 29.9551 7.96446C29.1473 7.82955 28.2663 7.73906 27.4872 7.91921C25.2225 8.44322 23.8274 9.95685 23.1931 12.173C22.9011 13.1931 22.707 13.3559 21.6301 13.3666C21.0436 13.3724 20.4464 13.3378 19.8722 13.4333C16.9519 13.9227 14.8649 16.695 15.0886 19.7403C15.3264 22.993 17.7079 25.3621 20.8092 25.3959C22.9348 25.4189 25.0597 25.4016 27.1853 25.3959C27.377 25.3959 27.5687 25.3597 27.7612 25.3407C27.3449 20.1837 31.3379 16.973 35.108 16.9566C38.9867 16.9417 42.9575 20.275 42.5067 25.4008ZM17.828 67.4821H52.4078C52.2737 67.1892 52.1388 66.9589 52.059 66.7113C51.7086 65.6254 51.0036 65.3013 49.8527 65.3079C40.701 65.3573 31.5502 65.3351 22.3985 65.3351C21.4936 65.3351 20.5887 65.2947 19.6888 65.3564C19.3474 65.3803 18.9114 65.5572 18.7148 65.8138C18.3561 66.2844 18.1439 66.8668 17.8296 67.4821H17.828ZM40.4411 29.5402C40.4411 27.7963 40.4567 26.0852 40.4411 24.3758C40.409 21.3428 38.0982 19.0115 35.1426 19.0057C32.1869 19 29.8621 21.3354 29.8268 24.3643C29.8095 25.9273 29.8218 27.4828 29.8268 29.0417C29.8365 29.2072 29.8557 29.372 29.8844 29.5353H31.9327C31.9697 29.453 32.0043 29.416 32.0043 29.3757C32.0108 27.7263 32.0043 26.077 32.0215 24.4284C32.0388 22.603 33.3542 21.24 35.0907 21.2243C36.8734 21.2079 38.2233 22.5627 38.243 24.4136C38.2578 25.882 38.243 27.3512 38.243 28.8196V29.5402H40.4411ZM31.639 59.1012C31.175 60.4906 30.7152 61.8652 30.2405 63.2801H40.0298L38.6313 59.1012H31.639ZM34.0847 29.5353H36.1774V27.4902H34.0814L34.0847 29.5353ZM36.2136 25.3555C36.1659 24.6325 36.4514 23.8444 35.6666 23.4306C35.3819 23.2809 34.881 23.2809 34.5972 23.4306C33.8247 23.8493 34.0847 24.6275 34.0773 25.3523L36.2136 25.3555Z" fill="#33336A"/>
<path d="M36.2118 38.8664C35.9872 39.7047 36.5787 41.0554 35.1539 41.0719C33.6625 41.09 34.3016 39.6849 34.0598 38.8886C32.3043 37.8192 31.6742 36.5466 32.125 35.0091C32.5363 33.6156 33.7529 32.7255 35.2139 32.751C36.6404 32.7765 37.8381 33.7472 38.1894 35.163C38.5538 36.6346 37.8545 37.9591 36.2118 38.8664ZM35.1613 36.9744C35.3082 36.9707 35.4529 36.9374 35.5866 36.8765C35.7204 36.8156 35.8405 36.7284 35.9398 36.6201C36.0391 36.5117 36.1155 36.3845 36.1645 36.2459C36.2135 36.1073 36.234 35.9603 36.2249 35.8136C36.2064 35.5321 36.0797 35.2686 35.8713 35.0784C35.6629 34.8882 35.3889 34.786 35.1069 34.7932C34.8248 34.8005 34.5564 34.9166 34.358 35.1172C34.1597 35.3178 34.0466 35.5875 34.0425 35.8696C34.0399 36.0167 34.0671 36.1629 34.1226 36.2992C34.178 36.4355 34.2605 36.5592 34.3651 36.6628C34.4696 36.7663 34.5941 36.8476 34.7309 36.9017C34.8678 36.9559 35.0142 36.9817 35.1613 36.9777V36.9744Z" fill="#33336A"/>
<path d="M35.1338 52.8271C36.4672 52.8271 37.8007 52.8214 39.1342 52.8271C39.9009 52.8271 40.3328 53.185 40.3509 53.7954C40.369 54.4263 39.9099 54.8516 39.1301 54.8549C36.4631 54.8664 33.7962 54.8664 31.1292 54.8549C30.3502 54.8549 29.8953 54.4239 29.9126 53.7921C29.9348 53.1792 30.3626 52.8271 31.1342 52.8271C32.4677 52.8173 33.8019 52.8271 35.1338 52.8271Z" fill="#33336A"/>
</g>
<defs>
<clipPath id="clip0_6452_439">
<rect width="69.4615" height="69.4574" fill="white" transform="translate(0.402344 0.0895996)"/>
</clipPath>
</defs>
</svg>
