<svg width="60" height="73" viewBox="0 0 60 73" fill="none" xmlns="http://www.w3.org/2000/svg">
<g clip-path="url(#clip0_2793_222)">
<path d="M15.9477 72.5976C15.8227 72.5976 15.6878 72.5661 15.5941 72.4393L11.582 67.1629V72.5449H10.667V65.9177C10.667 65.654 10.8853 65.4429 11.135 65.4429C11.2803 65.4429 11.4052 65.485 11.4985 65.6117L15.5005 70.8777V65.5167H16.4154V72.1333C16.4154 72.4078 16.1971 72.5976 15.9477 72.5976Z" fill="#1A1918"/>
<path d="M23.5156 72.6609C22.601 72.6609 21.6445 72.4708 20.7505 72.1333L20.9689 71.3733C21.7901 71.6372 22.684 71.8272 23.5156 71.8272C24.6695 71.8272 25.2723 71.4156 25.2723 70.8353C25.2723 70.3075 24.8044 70.0438 23.1932 69.2839C21.5821 68.5241 20.9482 68.0388 20.9482 67.0888C20.9482 65.8966 21.8628 65.4109 23.5882 65.4109C24.3055 65.4109 25.4073 65.5588 26.0416 65.7488L25.896 66.5296C25.1994 66.3608 24.3264 66.2448 23.6091 66.2448C22.3931 66.2448 21.8941 66.4768 21.8941 67.0573C21.8941 67.6271 22.2577 67.8698 23.9625 68.6614C25.7609 69.4951 26.2182 69.9172 26.2182 70.7824C26.2182 72.0384 25.033 72.6609 23.5156 72.6609Z" fill="#1A1918"/>
<path d="M30.5527 65.5166H31.4986V72.5448H30.5527V65.5166Z" fill="#1A1918"/>
<path d="M39.5448 69.3581H37.1953V71.7432H39.5448C40.3451 71.7432 40.8337 71.2365 40.8337 70.5294C40.8337 69.8645 40.3244 69.3581 39.5448 69.3581ZM39.0872 66.3188H37.1953V68.5666H39.0872C39.8462 68.5666 40.397 68.0811 40.397 67.4058C40.397 66.7409 39.9188 66.3188 39.0872 66.3188ZM39.5551 72.545H36.7278C36.4574 72.545 36.2495 72.3338 36.2495 72.0701V65.9917C36.2495 65.7383 36.4574 65.5168 36.7278 65.5168H39.0666C40.5011 65.5168 41.3534 66.2238 41.3534 67.332C41.3534 67.9334 40.9999 68.4927 40.4593 68.8198C41.26 69.0626 41.8002 69.7274 41.8002 70.5294C41.8002 71.648 40.8753 72.545 39.5551 72.545Z" fill="#1A1918"/>
<path d="M46.343 72.545C46.0835 72.545 45.8755 72.3234 45.8755 72.0701V65.5168H46.8212V71.6903H50.5842V72.545L46.343 72.545Z" fill="#1A1918"/>
<path d="M57.0328 72.6609C55.0993 72.6609 53.9351 71.9433 53.9351 70.4976C53.9351 69.8116 54.3198 69.1574 55.0683 68.8513C54.4653 68.4714 54.1536 67.9332 54.1536 67.3422C54.1536 66.0338 55.1621 65.4109 57.0538 65.4109C57.6879 65.4109 58.5817 65.4849 59.3303 65.6538L59.2262 66.4346C58.4364 66.3079 57.6981 66.2343 56.9809 66.2343C55.7542 66.2343 55.0993 66.5718 55.0993 67.3845C55.0993 68.0283 55.7023 68.5348 56.5029 68.5348H58.1243C58.353 68.5348 58.5296 68.7142 58.5296 68.9357C58.5296 69.1678 58.353 69.3472 58.1243 69.3472H56.3783C55.4632 69.3472 54.8814 69.8009 54.8814 70.4976C54.8814 71.5212 55.8273 71.8272 57.0123 71.8272C57.6568 71.8272 58.5296 71.743 59.2364 71.5741L59.3719 72.3443C58.696 72.5344 57.8123 72.6609 57.0328 72.6609Z" fill="#1A1918"/>
<path d="M3.62798 66.8348L5.28461 70.9856L2.78258 68.9847L3.62798 66.8348ZM6.57103 71.9419L4.023 65.7161C3.95028 65.5367 3.80468 65.4417 3.62796 65.4417C3.45124 65.4417 3.29533 65.5367 3.22261 65.7161L0.425781 72.5449H1.38235L2.48964 69.7295L5.79338 72.4393C5.92626 72.5483 6.0221 72.5976 6.147 72.5976C6.39634 72.5976 6.61466 72.4077 6.61466 72.1334C6.61466 72.0889 6.599 72.0181 6.57103 71.9419Z" fill="#1A1918"/>
<path d="M59.422 29.6693C59.422 45.9304 46.2409 59.1115 29.9796 59.1115C13.7196 59.1115 0.537109 45.9305 0.537109 29.6693C0.537109 13.4093 13.7196 0.226807 29.9796 0.226807C46.241 0.226807 59.422 13.4093 59.422 29.6693Z" fill="#1A1918"/>
<path d="M30.475 18.2127L38.0941 37.0176L26.5856 27.9522L30.475 18.2127ZM44.0103 41.3494L32.2905 13.145C31.9559 12.3315 31.2869 11.9011 30.475 11.9011C29.6616 11.9011 28.9439 12.3315 28.6093 13.145L15.7461 44.0816H20.1464L25.2384 31.3263L40.4341 43.6026C41.0453 44.0968 41.4863 44.3203 42.0595 44.3203C43.2075 44.3203 44.2109 43.4597 44.2109 42.2175C44.2109 42.0153 44.1395 41.6945 44.0103 41.3494Z" fill="white"/>
</g>
<defs>
<clipPath id="clip0_2793_222">
<rect width="60" height="73" fill="white"/>
</clipPath>
</defs>
</svg>
