<svg width="69" height="70" viewBox="0 0 69 70" fill="none" xmlns="http://www.w3.org/2000/svg">
<path d="M34.6049 50.0453C26.0756 50.0453 19.1352 43.081 19.1352 34.5206C19.1352 25.9589 26.0756 18.9932 34.6049 18.9932C41.6465 18.9932 47.5987 23.7399 49.4646 30.211H55.4501C53.4576 20.4917 44.8697 13.1611 34.6049 13.1611C22.8711 13.1611 13.3242 22.7428 13.3242 34.5206C13.3242 46.2971 22.8711 55.8787 34.6049 55.8787C44.8697 55.8787 53.4576 48.5495 55.4501 38.8302H49.4646C47.5987 45.2999 41.6465 50.0453 34.6049 50.0453Z" fill="#435363"/>
<path d="M24.1763 44.9859C26.848 47.6674 30.5373 49.3289 34.6048 49.3289V43.1386C32.2341 43.1386 30.0871 42.1721 28.5328 40.6135L24.1763 44.9859Z" fill="#435363"/>
<path d="M19.8501 34.5194C19.8501 36.6381 20.3003 38.6539 21.1021 40.4785L26.7439 37.9882C26.2777 36.9268 26.0167 35.7545 26.0167 34.5194C26.0167 29.7593 29.8618 25.9015 34.6033 25.9015V19.7112C26.4682 19.7112 19.8501 26.3547 19.8501 34.5194Z" fill="#F38B00"/>
<path d="M39.9534 20.7202L37.7158 26.4908C39.5432 27.206 41.0682 28.5253 42.0378 30.2096H48.7184C47.3999 25.8639 44.1395 22.3604 39.9534 20.7202Z" fill="#435363"/>
<path d="M37.7188 42.5477L39.955 48.3184C44.141 46.6782 47.4015 43.1733 48.7214 38.8276H42.0407C41.0684 40.5132 39.5447 41.8339 37.7188 42.5477Z" fill="#F38B00"/>
<path d="M7.30815 42.8031C7.21092 42.4796 7.11769 42.1534 7.03112 41.8246C7.0258 41.8045 7.02046 41.7845 7.01514 41.7644C6.93522 41.4597 6.86197 41.1549 6.79138 40.8474C6.77673 40.7846 6.76341 40.7218 6.75009 40.659C6.69149 40.3956 6.63822 40.1296 6.58627 39.8636C6.56363 39.7446 6.54365 39.6257 6.52367 39.5067C6.48638 39.2942 6.44909 39.083 6.41579 38.8678C6.38782 38.6846 6.36385 38.5028 6.33988 38.3197C6.17206 37.0712 6.08149 35.8027 6.08282 34.5181H0.255874C0.254541 35.9189 0.342445 37.3025 0.506266 38.6686C0.508932 38.698 0.514256 38.7274 0.518253 38.7568C0.563537 39.1284 0.614147 39.5 0.671418 39.8676C0.687401 39.9692 0.704716 40.0708 0.72203 40.1737C0.772642 40.4758 0.824584 40.7779 0.883187 41.0787C0.912488 41.2391 0.947118 41.3968 0.980415 41.5559C1.02969 41.7952 1.0803 42.0345 1.13491 42.2724C1.18286 42.4809 1.2348 42.6894 1.28808 42.898C1.33469 43.0838 1.37998 43.2696 1.42926 43.4554C1.49585 43.7013 1.56644 43.9446 1.63703 44.1892C1.66633 44.2908 1.69297 44.3951 1.7236 44.4954H1.72627C2.12849 45.8307 2.6053 47.134 3.15936 48.3959L8.49885 46.0393C8.03935 44.994 7.64245 43.9112 7.30815 42.8031Z" fill="#435363"/>
<path d="M34.6045 63.1466C26.7411 63.1466 19.6129 59.9331 14.4493 54.7493L10.3218 58.8918C16.5376 65.1303 25.1202 68.9934 34.6045 68.9934C52.12 68.9934 66.5708 55.8348 68.6845 38.8303H62.8043C60.7266 52.5758 48.8729 63.1466 34.6045 63.1466Z" fill="#F38B00"/>
<path d="M34.6046 5.89467C40.9936 5.89467 46.8951 8.01337 51.6552 11.5891L55.1461 6.8932C49.4164 2.59431 42.3068 0.0478516 34.6046 0.0478516C20.0299 0.0478516 7.57687 9.15894 2.59033 22.0169L8.02571 24.1396C12.1745 13.4712 22.5245 5.89467 34.6046 5.89467Z" fill="#F38B00"/>
<path d="M62.8046 30.211H68.6848C68.0548 25.1382 66.326 20.4075 63.7449 16.2664L58.793 19.3676C60.8148 22.6064 62.2092 26.2784 62.8046 30.211Z" fill="#435363"/>
<path d="M56.1797 30.211H62.0799C60.5403 20.2818 53.765 12.0717 44.6856 8.51465L42.5786 13.9524C49.4831 16.658 54.7053 22.7628 56.1797 30.211Z" fill="#F38B00"/>
<path d="M34.6048 12.4433L34.6062 6.61255H34.6048C22.8271 6.61255 12.7381 13.9993 8.69189 24.4003L14.106 26.515C17.3078 18.2875 25.2884 12.4433 34.6048 12.4433Z" fill="#435363"/>
<path d="M12.609 34.5193H6.79932C6.79932 46.2463 14.046 56.3025 24.2802 60.4249L26.4378 55.0126C18.3413 51.751 12.609 43.7961 12.609 34.5193Z" fill="#F38B00"/>
<path d="M34.6045 56.5953V62.4274C48.4773 62.4274 60.0087 52.1775 62.0797 38.8276H56.1782C54.1764 48.9466 45.2648 56.5953 34.6045 56.5953Z" fill="#435363"/>
</svg>
