<svg width="97" height="56" viewBox="0 0 97 56" fill="none" xmlns="http://www.w3.org/2000/svg">
<g clip-path="url(#clip0_2788_200)">
<path d="M16.6726 40.8219C16.6726 44.0238 14.9925 45.387 11.537 45.387H6.4013C2.94581 45.387 1.26562 44.0555 1.26562 40.8219V28.5851C1.26562 25.3832 2.94581 24.02 6.4013 24.02H11.5687C14.9925 24.02 16.7043 25.3832 16.7043 28.5851V29.4727C16.7043 29.6946 16.5458 29.9165 16.3239 29.9799L14.1999 30.5506C13.8829 30.6457 13.5342 30.3921 13.5342 30.0433V29.1557C13.5342 27.6023 13.0269 26.9366 11.1566 26.9366H6.81342C4.94302 26.9366 4.40409 27.6023 4.40409 29.1557V40.2513C4.40409 41.8047 4.94302 42.4704 6.81342 42.4704H11.1248C12.9952 42.4704 13.5025 41.8047 13.5025 40.2513V39.2051C13.5025 38.8564 13.8512 38.6028 14.1682 38.6979L16.2922 39.3319C16.5141 39.3953 16.6726 39.5855 16.6726 39.8392V40.8219Z" fill="#251B3F"/>
<path d="M21.175 42.4387H26.5959V26.9049H21.5554C21.2701 26.9049 21.0481 26.683 21.0481 26.3976V24.5272C21.0481 24.2419 21.2701 24.02 21.5554 24.02H34.8067C35.092 24.02 35.3139 24.2419 35.3139 24.5272V26.3976C35.3139 26.683 35.092 26.9049 34.8067 26.9049H29.7344V42.4387H35.1554C35.4407 42.4387 35.6626 42.6606 35.6626 42.9459V44.848C35.6626 45.1333 35.4407 45.3553 35.1554 45.3553H21.175C20.8896 45.3553 20.6677 45.1333 20.6677 44.848V42.9459C20.636 42.6923 20.8896 42.4387 21.175 42.4387Z" fill="#251B3F"/>
<path d="M76.97 40.8219C76.97 44.0238 75.2898 45.387 71.8343 45.387H66.6669C63.2431 45.387 61.5312 44.0555 61.5312 40.8219V28.5851C61.5312 25.3832 63.2114 24.02 66.6669 24.02H71.8343C75.2581 24.02 76.97 25.3832 76.97 28.5851V29.4727C76.97 29.6946 76.8115 29.9165 76.5896 29.9799L74.4655 30.5506C74.1485 30.6457 73.7998 30.3921 73.7998 30.0433V29.1557C73.7998 27.6023 73.2926 26.9366 71.4222 26.9366H67.1107C65.2403 26.9366 64.7014 27.6023 64.7014 29.1557V40.2513C64.7014 41.8047 65.2403 42.4704 67.1107 42.4704H71.4222C73.2926 42.4704 73.7998 41.8047 73.7998 40.2513V39.2051C73.7998 38.8564 74.1485 38.6028 74.4655 38.6979L76.5896 39.3319C76.8115 39.3953 76.97 39.5855 76.97 39.8392V40.8219Z" fill="#251B3F"/>
<path d="M96.3708 40.8222C96.3708 44.0241 94.7857 45.3872 91.3302 45.3872H81.4076C81.1223 45.3872 80.9004 45.1653 80.9004 44.88V24.5592C80.9004 24.2739 81.1223 24.052 81.4076 24.052H91.3302C94.754 24.052 96.3708 25.3835 96.3708 28.617V40.8222ZM93.2006 29.156C93.2006 27.6026 92.6934 26.9369 90.823 26.9369H84.0389V42.4707H90.823C92.6934 42.4707 93.2006 41.8049 93.2006 40.2516V29.156Z" fill="#251B3F"/>
<path d="M52.9404 11.7518C52.7501 11.6884 52.5599 11.7518 52.4648 11.9103L42.352 30.3607C42.0033 31.0265 42.0984 31.819 42.6056 32.3579L47.456 37.4936L53.1623 12.164C53.2257 12.0054 53.0989 11.8152 52.9404 11.7518Z" fill="#D72D20"/>
<path d="M54.176 34.3866L49.3257 29.251L43.6194 54.5806C43.5877 54.7708 43.6828 54.961 43.8413 55.0244C43.873 55.0561 43.9364 55.0561 43.9681 55.0561C44.0949 55.0561 44.2217 54.9927 44.2851 54.8659L54.3979 36.4156C54.8101 35.7498 54.7149 34.9256 54.176 34.3866Z" fill="#F8911E"/>
<path d="M31.5732 6.77467C31.7951 6.77467 31.9536 6.74297 32.1121 6.71127C32.2706 6.67957 32.4291 6.61617 32.5559 6.58446V5.60171H31.9219C31.8268 5.60171 31.7634 5.57001 31.7 5.53831C31.6366 5.47491 31.6049 5.4115 31.6049 5.3481V4.52386H33.9191V7.2502C33.7606 7.37701 33.5704 7.47211 33.4119 7.56722C33.2217 7.66232 33.0315 7.72573 32.8413 7.78913C32.6511 7.85253 32.4291 7.88423 32.2072 7.91594C31.9853 7.94764 31.7317 7.94764 31.4781 7.94764C31.0026 7.94764 30.5587 7.85253 30.1466 7.69402C29.7345 7.53552 29.3858 7.2819 29.1005 6.99659C28.8151 6.71127 28.5615 6.36255 28.403 5.95043C28.2445 5.53831 28.1494 5.09449 28.1494 4.61896C28.1494 4.14344 28.2445 3.69961 28.403 3.28749C28.5615 2.87537 28.7834 2.52665 29.1005 2.24133C29.3858 1.95602 29.7662 1.73411 30.1783 1.5439C30.5904 1.38539 31.066 1.29028 31.6049 1.29028C31.8902 1.29028 32.1121 1.32198 32.3657 1.35369C32.5876 1.38539 32.8096 1.44879 33.0315 1.5439C33.2217 1.6073 33.4119 1.70241 33.5704 1.82921C33.7289 1.92432 33.8874 2.05112 34.0142 2.17793L33.5704 2.84367C33.5387 2.90707 33.4753 2.97047 33.4119 3.00217C33.3485 3.03388 33.2851 3.06558 33.2217 3.06558C33.1266 3.06558 33.0315 3.03388 32.9364 2.97047C32.8096 2.90707 32.7145 2.84367 32.5877 2.78026C32.4925 2.71686 32.3657 2.68516 32.2706 2.65346C32.1755 2.62175 32.0487 2.59005 31.9219 2.59005C31.7951 2.59005 31.6683 2.55835 31.5098 2.55835C31.2245 2.55835 30.9709 2.62175 30.749 2.71686C30.527 2.81196 30.3368 2.93877 30.1783 3.12898C30.0198 3.31919 29.893 3.5411 29.7979 3.79472C29.7028 4.04833 29.6711 4.33365 29.6711 4.65066C29.6711 4.99938 29.7028 5.2847 29.7979 5.57001C29.893 5.82362 30.0198 6.07724 30.1783 6.23575C30.3368 6.42596 30.5587 6.55276 30.7807 6.64787C31.0343 6.74297 31.2879 6.77467 31.5732 6.77467Z" fill="#251B3F"/>
<path d="M38.1994 7.85264H36.6777V1.3855H38.1994V7.85264Z" fill="#251B3F"/>
<path d="M45.6493 1.3855V2.59016H43.8423V7.88434H42.3524V2.59016H40.5137V1.3855H45.6493Z" fill="#251B3F"/>
<path d="M49.3894 6.67968H51.7987V7.88434H47.8994V1.3855H49.3894V6.67968Z" fill="#251B3F"/>
<path d="M60.3894 7.85264H59.2164C59.0896 7.85264 58.9628 7.82094 58.8994 7.75754C58.836 7.69413 58.7409 7.63073 58.7092 7.53562L58.3288 6.39436H55.8561L55.4756 7.53562C55.4439 7.63073 55.3805 7.69413 55.3171 7.75754C55.222 7.82094 55.1269 7.85264 55.0001 7.85264H53.8271L56.3316 1.3855H57.885L60.3894 7.85264ZM56.2365 5.37991H58.0118L57.4094 3.60462C57.3777 3.47781 57.3143 3.351 57.2826 3.19249C57.2192 3.03399 57.1875 2.87548 57.1241 2.68527C57.0924 2.87548 57.029 3.03399 56.9656 3.19249C56.9022 3.351 56.8705 3.47781 56.8388 3.60462L56.2365 5.37991Z" fill="#251B3F"/>
<path d="M62.5781 7.85264V1.3855H64.9558C65.3996 1.3855 65.78 1.4172 66.097 1.5123C66.414 1.60741 66.6676 1.70251 66.8579 1.86102C67.0481 2.01953 67.2066 2.20974 67.3017 2.39995C67.3968 2.59016 67.4285 2.84378 67.4285 3.12909C67.4285 3.2876 67.3968 3.41441 67.3651 3.54121C67.3334 3.66802 67.27 3.79483 67.1749 3.92163C67.0798 4.04844 66.9847 4.14354 66.8262 4.23865C66.6676 4.33375 66.5091 4.42886 66.3189 4.49226C66.731 4.58737 67.0481 4.77758 67.27 4.99949C67.4602 5.2214 67.587 5.53842 67.587 5.88714C67.587 6.17245 67.5236 6.42607 67.4285 6.64798C67.3334 6.86989 67.1749 7.0918 66.953 7.28201C66.7627 7.47222 66.4774 7.59903 66.1921 7.69413C65.9068 7.78924 65.5581 7.85264 65.146 7.85264H62.5781ZM64.0681 4.11184H64.8607C65.0192 4.11184 65.1777 4.11184 65.3045 4.08014C65.4313 4.04844 65.5581 4.01674 65.6532 3.95333C65.7483 3.88993 65.8117 3.82653 65.8751 3.69972C65.9385 3.57291 65.9385 3.47781 65.9385 3.3193C65.9385 3.16079 65.9068 3.03399 65.8751 2.93888C65.8434 2.84378 65.78 2.74867 65.6849 2.68527C65.5898 2.62186 65.4947 2.59016 65.3679 2.55846C65.2411 2.52676 65.1143 2.52676 64.9241 2.52676H64.0364V4.11184H64.0681ZM64.0681 5.1263V6.74308H65.1143C65.3045 6.74308 65.463 6.71138 65.5898 6.67968C65.7166 6.61628 65.8117 6.55287 65.8751 6.48947C65.9385 6.39436 66.0019 6.33096 66.0336 6.20415C66.0653 6.10905 66.0653 6.01394 66.0653 5.88714C66.0653 5.76033 66.0653 5.66523 66.0336 5.57012C66.0019 5.47502 65.9385 5.37991 65.8751 5.31651C65.8117 5.2531 65.6849 5.1897 65.5898 5.158C65.463 5.1263 65.3045 5.09459 65.1143 5.09459H64.0681V5.1263Z" fill="#251B3F"/>
</g>
<defs>
<clipPath id="clip0_2788_200">
<rect width="96.3731" height="54.5269" fill="white" transform="translate(0.631836 0.909668)"/>
</clipPath>
</defs>
</svg>
