<svg width="74" height="74" viewBox="0 0 74 74" fill="none" xmlns="http://www.w3.org/2000/svg">
<g clip-path="url(#clip0_2795_258)">
<path d="M27.8825 37.2609C27.8825 32.4626 31.7721 28.6124 36.531 28.6124C41.2931 28.6124 45.1826 32.5019 45.1826 37.2609C45.1826 42.023 41.2931 45.9125 36.531 45.9125C31.7751 45.9125 27.8825 42.023 27.8825 37.2609ZM36.531 0.909668C19.558 0.909668 5.34165 12.5421 1.30666 28.2488C1.27637 28.3579 1.27637 28.4609 1.27637 28.6124C1.27637 29.5605 2.03974 30.3572 3.0182 30.3572H17.6647C18.3615 30.3572 18.9764 29.9634 19.2309 29.3485C22.251 22.8052 28.864 18.225 36.5341 18.225C47.0335 18.225 55.5761 26.7675 55.5761 37.27C55.5761 47.7816 47.0335 56.3241 36.5219 56.3241C28.8579 56.3241 22.242 51.7802 19.2248 45.1976C18.931 44.6221 18.3463 44.1798 17.6587 44.1798H3.0182C2.07307 44.1798 1.27637 44.9462 1.27637 45.9247C1.27637 46.0367 1.31878 46.1428 1.31878 46.2882C5.31742 61.9798 19.555 73.6122 36.531 73.6122C56.5969 73.6122 72.8823 57.3299 72.8823 37.2609C72.8823 17.1981 56.5969 0.909668 36.531 0.909668Z" fill="black"/>
</g>
<defs>
<clipPath id="clip0_2795_258">
<rect width="72.7025" height="72.7025" fill="white" transform="translate(0.730469 0.909668)"/>
</clipPath>
</defs>
</svg>
