<svg width="61" height="65" viewBox="0 0 61 65" fill="none" xmlns="http://www.w3.org/2000/svg">
<g clip-path="url(#clip0_2780_93)">
<path d="M42.2216 42.3964C41.3578 41.3659 40.5588 40.4129 39.76 39.4597C35.7865 34.7177 31.8137 29.9753 27.8368 25.2362C27.6806 25.0501 27.6247 24.8963 27.7165 24.6442C30.1773 17.8883 32.6276 11.1283 35.0803 4.36932C35.1046 4.30237 35.1367 4.23826 35.2224 4.04077C43.5824 18.5276 51.8916 32.9265 60.2298 47.3756C44.8905 47.3756 29.623 47.3756 14.3555 47.3756C14.3532 47.3603 14.3509 47.3449 14.3486 47.3296C23.6097 45.6905 32.8708 44.0514 42.2216 42.3964Z" fill="#0189D5"/>
<path d="M33.1011 0.968844C32.4847 2.29632 15.5342 38.6792 14.0239 41.935C13.9141 42.1716 13.8041 42.3042 13.5072 42.3035C9.18894 42.2925 4.87065 42.2959 0.552358 42.294C0.408916 42.294 0.265475 42.2752 0.12515 42.2653C0.0959452 42.0686 0.214367 41.9599 0.28444 41.8381C5.24969 33.2116 10.2177 24.5868 15.1839 15.9609C15.2745 15.8037 15.3888 15.6731 15.5269 15.5571C21.2907 10.7232 27.0536 5.88832 32.8171 1.05397C32.8824 0.999117 32.9528 0.950324 33.0207 0.898682C33.0475 0.922099 33.0743 0.945427 33.1011 0.968844Z" fill="#0189D5"/>
<path d="M7.42201 59.4315C6.38381 59.4315 5.34535 59.4444 4.30752 59.4239C3.97727 59.4174 3.80961 59.5044 3.69778 59.8358C3.25232 61.1548 2.76412 62.4594 2.31492 63.7771C2.2079 64.0911 2.07024 64.2378 1.72032 64.2107C1.29267 64.1775 0.859583 64.1809 0.43095 64.2057C0.0377552 64.2284 -0.0261746 64.1027 0.111568 63.7478C0.695573 62.2426 1.26052 60.73 1.83429 59.2208C3.30833 55.3438 4.78877 51.4693 6.24839 47.5869C6.37785 47.2424 6.54426 47.1294 6.89383 47.1578C7.26218 47.1878 7.6373 47.1912 8.00494 47.1569C8.3611 47.1237 8.526 47.2536 8.65172 47.5872C9.54504 49.9579 10.4585 52.321 11.3665 54.6862C12.5294 57.7149 13.6865 60.7458 14.8648 63.7685C15.0142 64.1518 14.9234 64.2301 14.5562 64.2048C14.2611 64.1845 13.9632 64.2027 13.6666 64.2029C12.811 64.2034 12.8119 64.2028 12.5209 63.4209C12.0663 62.1992 11.6022 60.9809 11.161 59.7543C11.0676 59.4946 10.928 59.4239 10.6701 59.4266C9.58752 59.4381 8.50472 59.4316 7.42201 59.4315ZM7.42477 49.4472C7.26334 49.9515 7.15418 50.335 7.01875 50.709C6.23823 52.8654 5.46022 55.0228 4.65904 57.1715C4.50928 57.5731 4.61355 57.6428 4.99908 57.6396C6.65788 57.6255 8.31693 57.6269 9.97564 57.6415C10.3266 57.6446 10.3622 57.5561 10.2445 57.2412C9.478 55.1906 8.72705 53.1341 7.97707 51.0772C7.79303 50.5724 7.63142 50.0595 7.42477 49.4472Z" fill="#068BD6"/>
<path d="M59.2069 61.5317C59.2069 62.123 59.2048 62.6238 59.2083 63.1244C59.2093 63.2576 59.153 63.3445 59.0455 63.4172C57.196 64.6681 53.6343 64.994 51.715 63.5147C50.7084 62.7389 50.0651 61.7405 49.7615 60.5241C49.2243 58.3721 49.3431 56.2837 50.4927 54.3331C51.9715 51.8239 55.1988 50.9231 57.6418 52.3784C58.9952 53.1847 59.7911 54.3859 59.7747 56.0295C59.7674 56.756 59.7544 57.4835 59.7819 58.2091C59.7948 58.5504 59.6858 58.6253 59.3589 58.6236C56.8973 58.611 54.4355 58.6282 51.974 58.6102C51.5639 58.6072 51.4302 58.714 51.471 59.127C51.6742 61.1786 52.9815 62.8259 55.3065 62.8264C56.6278 62.8268 57.8145 62.4611 58.8957 61.7177C58.9675 61.6682 59.0455 61.6277 59.2069 61.5317ZM54.7651 56.955C55.6246 56.955 56.4842 56.9621 57.3436 56.953C58.1338 56.9446 58.1036 57.1103 57.9875 56.2148C57.7058 54.0416 55.9142 52.8997 53.9103 53.5998C52.7463 54.0064 51.5751 55.5419 51.5044 56.7373C51.4872 57.028 51.6899 56.951 51.8309 56.9519C52.809 56.9578 53.7871 56.955 54.7651 56.955Z" fill="#068BD6"/>
<path d="M36.079 62.437C35.8265 62.4952 35.8008 62.6642 35.721 62.7776C34.7177 64.2037 32.9934 64.8033 31.0909 64.3807C29.4558 64.0176 28.4098 62.8399 28.0958 61.075C27.9278 60.1306 27.9696 59.182 27.9561 58.235C27.929 56.3216 27.9421 54.4075 27.921 52.4939C27.9174 52.1612 27.9786 52.0033 28.3541 52.0392C28.7217 52.0743 29.0975 52.0726 29.4654 52.0396C29.8355 52.0065 29.9055 52.1596 29.9045 52.4947C29.8976 54.8239 29.91 57.153 29.9143 59.4822C29.9154 60.1142 30.0363 60.7231 30.2936 61.2977C30.7365 62.2869 31.507 62.8023 32.5955 62.8181C34.573 62.8469 36.011 61.4179 36.0215 59.4282C36.0338 57.1146 36.0585 54.801 36.0605 52.4873C36.0608 52.1694 36.1558 52.076 36.4633 52.095C36.8624 52.1197 37.2652 52.1192 37.6643 52.095C37.9614 52.0769 38.0447 52.1807 38.0406 52.4712C38.0255 53.5391 38.0346 54.6074 38.0346 55.6756C38.0346 58.346 38.023 61.0165 38.0459 63.6867C38.0497 64.1318 37.9175 64.2531 37.4987 64.2105C37.1463 64.1747 36.7865 64.1888 36.4315 64.2078C36.1629 64.2223 36.0621 64.1355 36.0736 63.8579C36.0931 63.3917 36.079 62.9241 36.079 62.437Z" fill="#068BD6"/>
<path d="M18.6468 62.4662C18.8072 62.5718 18.958 62.5277 19.0986 62.528C21.1303 62.533 23.1621 62.5415 25.1937 62.5265C25.5429 62.5239 25.6767 62.6153 25.6396 62.9708C25.612 63.2349 25.6105 63.5067 25.6398 63.7705C25.6808 64.1379 25.5248 64.2112 25.1861 64.2099C22.2053 64.198 19.2245 64.2048 16.2437 64.1985C16.0658 64.1981 15.8018 64.3097 15.7238 64.1009C15.634 63.8607 15.6552 63.5874 15.8398 63.3459C16.2628 62.7925 16.6656 62.2236 17.075 61.6597C18.9037 59.1406 20.732 56.6212 22.5592 54.1011C22.6266 54.008 22.6817 53.9061 22.7451 53.8041C22.5901 53.6605 22.42 53.7248 22.2685 53.7241C20.4741 53.716 18.6796 53.7079 16.8853 53.718C16.5131 53.7201 16.2962 53.6558 16.3548 53.2139C16.403 52.85 16.1989 52.3735 16.4203 52.1382C16.6629 51.8804 17.1483 52.0524 17.5262 52.0511C20.0769 52.0426 22.6277 52.0442 25.1783 52.0523C25.3517 52.0528 25.6015 51.9283 25.6914 52.1652C25.7759 52.3879 25.7198 52.6175 25.5631 52.8311C24.7388 53.9544 23.9274 55.0871 23.1125 56.2171C21.6643 58.2251 20.2167 60.2334 18.7702 62.2426C18.7217 62.3101 18.689 62.3889 18.6468 62.4662Z" fill="#068BD6"/>
<path d="M43.8859 54.2728C44.3262 53.4948 44.7757 52.7958 45.4921 52.2946C46.2574 51.7591 47.1075 51.7826 47.9727 51.8858C48.1774 51.9102 48.2683 52.0255 48.2623 52.2495C48.2474 52.7967 48.2574 53.3444 48.2574 53.9528C47.767 53.7951 47.3244 53.6027 46.8273 53.6224C45.9467 53.6574 45.2451 54.0102 44.7694 54.7449C44.2284 55.5805 43.9106 56.5004 43.9055 57.5078C43.8951 59.5841 43.8835 61.6605 43.8937 63.7368C43.8955 64.1002 43.8055 64.2456 43.4262 64.2096C43.0881 64.1774 42.7418 64.1732 42.4043 64.2076C41.9937 64.2495 41.918 64.0787 41.919 63.7026C41.9284 59.9652 41.9235 56.2278 41.9092 52.4904C41.9079 52.1509 41.9837 52.0058 42.3496 52.0397C42.7025 52.0723 43.0627 52.0694 43.4163 52.0404C43.7764 52.0108 43.9152 52.116 43.8945 52.4995C43.8623 53.089 43.8859 53.6815 43.8859 54.2728Z" fill="#068BD6"/>
</g>
<defs>
<clipPath id="clip0_2780_93">
<rect width="60.1845" height="63.6147" fill="white" transform="translate(0.0454102 0.898682)"/>
</clipPath>
</defs>
</svg>
