<svg width="77" height="47" viewBox="0 0 77 47" fill="none" xmlns="http://www.w3.org/2000/svg">
<g clip-path="url(#clip0_2780_85)">
<path d="M38.3521 46.3815C24.3072 46.2687 11.9252 41.7131 1.29012 32.4914C1.10415 32.3306 0.858189 32.189 0.764604 31.9826C0.647023 31.7247 0.528242 31.3227 0.649422 31.1404C0.770603 30.958 1.20133 30.8764 1.46649 30.9208C1.79884 30.9772 2.10839 31.1956 2.41554 31.3659C13.7957 37.6925 26.0133 40.9056 39.0156 40.9464C48.5961 40.9764 57.8406 39.0699 66.7324 35.4849C67.0587 35.3529 67.3851 35.2233 67.7162 35.1069C68.4373 34.8526 69.15 34.7962 69.5375 35.6061C69.9203 36.4039 69.3527 36.8671 68.7624 37.2246C67.1079 38.23 65.475 39.2835 63.7617 40.1785C55.8105 44.3322 47.3351 46.3911 38.3521 46.3815Z" fill="#FE9502"/>
<path d="M39.2036 6.96533C38.7945 8.66306 38.3829 10.3596 37.9774 12.0573C37.1339 15.5835 36.2689 19.105 35.465 22.6396C35.2274 23.6834 34.6887 24.1034 33.6281 24.095C30.3202 24.065 30.7282 24.3073 29.8199 21.2922C28.0442 15.3952 26.2781 9.49572 24.524 3.59267C24.374 3.08876 24.344 2.54884 24.2324 1.87575C25.5582 1.87575 26.644 1.82896 27.7239 1.89015C28.5841 1.93814 28.6981 2.70842 28.8613 3.34791C29.7947 6.99653 30.7102 10.6487 31.6352 14.2997C32.0552 15.9579 32.4835 17.6124 32.9874 19.5741C34.336 13.911 35.6294 8.57667 36.8592 3.22913C37.0932 2.2105 37.5719 1.82176 38.5989 1.83856C42.0771 1.89615 41.554 1.47981 42.3747 4.80688C43.4881 9.31695 44.5427 13.8426 45.6262 18.3599C45.7042 18.685 45.8109 19.003 45.9993 19.6485C46.3977 18.1691 46.7216 17.0005 47.0275 15.8259C48.1002 11.7046 49.1668 7.58203 50.2358 3.4595C50.6654 1.80256 50.8033 1.69578 52.5563 1.69458C53.2198 1.69458 53.882 1.69458 54.7663 1.69458C54.7195 2.34128 54.7843 2.90039 54.6283 3.38871C52.5611 9.85806 50.453 16.3142 48.3809 22.7824C48.0882 23.6954 47.5447 24.089 46.6016 24.0902C43.133 24.0926 43.5817 24.2485 42.8426 21.2142C41.6884 16.4726 40.545 11.7298 39.398 6.98693C39.3308 6.97733 39.2672 6.97133 39.2036 6.96533Z" fill="black"/>
<path d="M17.9349 21.2888C15.9096 23.5589 13.4824 24.6663 10.5825 24.7263C7.28539 24.7947 4.60982 22.8954 3.80835 19.9174C2.93249 16.66 4.28348 13.5285 7.2242 11.9207C9.7294 10.5517 12.387 10.7329 15.0649 11.0953C15.8928 11.2068 16.7111 11.3928 17.6253 11.562C17.6253 10.4906 17.7141 9.49952 17.6085 8.53007C17.3206 5.9001 15.4753 4.45913 12.7025 4.53112C10.5921 4.58631 8.59678 5.08663 6.6507 5.8629C6.24516 6.02368 5.80003 6.08007 5.4077 6.17725C4.52344 4.45913 4.92777 3.10335 6.47792 2.41946C9.55543 1.06248 12.7757 0.546561 16.0728 1.27004C19.7826 2.08351 21.8738 4.85387 21.8798 8.67165C21.8846 11.4216 21.9038 14.1728 21.8546 16.9215C21.8259 18.4705 22.0202 19.9486 22.8061 21.2996C23.2932 22.1359 23.1312 22.6842 22.3034 23.2217C20.1269 24.6339 19.779 24.5787 18.5072 22.3267C18.3356 22.0219 18.1688 21.7124 17.9349 21.2888ZM17.5917 14.5087C15.4201 13.8308 12.261 13.6688 10.748 14.1584C8.79115 14.7919 7.8361 16.294 8.13486 18.2665C8.40721 20.0638 10.0497 21.386 11.9682 21.3548C16.0044 21.2864 18.1892 18.6264 17.5917 14.5087Z" fill="black"/>
<path d="M56.7894 19.7868C57.3161 19.92 57.8332 19.986 58.2988 20.1779C60.5628 21.109 62.9036 21.4521 65.3344 21.1786C65.578 21.151 65.8204 21.097 66.0567 21.0322C67.9176 20.5223 68.8187 19.6032 68.8595 18.1827C68.8979 16.8269 68.0712 15.819 66.3027 15.2155C64.7381 14.6816 63.14 14.2437 61.567 13.7326C58.1536 12.6228 56.2339 9.78642 56.793 6.60213C57.2357 4.08253 58.9383 2.58278 61.2071 1.77291C64.2798 0.676282 67.3825 0.887448 70.4048 2.05846C71.7534 2.58158 72.3161 3.97095 71.8002 5.26794C71.5254 5.95663 71.0071 5.70827 70.5596 5.5127C68.8223 4.75323 67.0178 4.2949 65.1173 4.46047C64.2882 4.53246 63.4327 4.70403 62.6685 5.02078C60.8436 5.77666 60.5244 8.20267 62.1681 9.30169C63.2576 10.03 64.5582 10.4559 65.7928 10.9454C66.8378 11.3594 67.956 11.5945 68.9843 12.0421C71.0719 12.9515 72.5801 14.4237 72.8764 16.7933C73.2016 19.3945 72.2909 21.5289 70.1193 23.0215C67.3477 24.9268 64.245 25.0144 61.0763 24.4373C60.0781 24.2549 59.081 23.9813 58.1344 23.619C56.3791 22.9459 55.9843 21.8613 56.7894 19.7868Z" fill="black"/>
<path d="M61.7329 32.3342C62.0365 32.0138 62.2896 31.6119 62.652 31.3863C65.4163 29.661 68.489 29.1847 71.6721 29.3611C72.8527 29.4258 74.0285 29.7078 75.1875 29.9766C75.9554 30.1541 76.325 30.7048 76.289 31.5423C76.1042 35.9624 74.554 39.7658 71.2522 42.7773C70.9606 43.0424 70.5359 43.1612 70.1724 43.3472C70.0896 43.2656 70.0068 43.184 69.9252 43.1024C70.0248 42.7209 70.1088 42.3334 70.2275 41.9578C70.9306 39.749 71.7465 37.5701 72.3212 35.3301C72.8671 33.2004 72.2624 32.4038 70.0452 32.3678C67.6948 32.3294 65.3395 32.5549 62.9867 32.6593C62.6484 32.6749 62.3088 32.6617 61.9705 32.6617C61.8901 32.5525 61.8109 32.4434 61.7329 32.3342Z" fill="#FE9502"/>
</g>
<defs>
<clipPath id="clip0_2780_85">
<rect width="75.691" height="45.4391" fill="white" transform="translate(0.599121 0.942627)"/>
</clipPath>
</defs>
</svg>
