<svg width="124" height="124" viewBox="0 0 124 124" fill="none" xmlns="http://www.w3.org/2000/svg">
<rect x="-0.471688" y="0.471688" width="121.695" height="121.695" rx="60.8477" transform="matrix(-1 0 0 1 122.548 0.686523)" fill="#F1FFFF" stroke="#4AADDE" stroke-width="0.943376"/>
<g clip-path="url(#clip0_1_2805)">
<path d="M69.7451 77.8587H83.1111V81.6255H69.7451V77.8587ZM73.564 85.3923H79.2923V89.1591H73.564V85.3923ZM83.1111 74.092H79.2923C79.2923 72.0202 80.056 70.3252 81.5836 68.8185L82.5383 67.8768C84.0658 66.3701 85.0205 64.11 85.0205 61.8499C85.0205 57.1415 81.2017 53.3747 76.4281 53.3747C71.6546 53.3747 67.8357 57.1415 67.8357 61.8499C67.8357 64.11 68.7904 66.1817 70.318 67.8768L71.2727 68.8185C72.8002 70.3252 73.564 72.0202 73.564 74.092H69.7451C69.7451 73.1503 69.3633 72.2086 68.5995 71.4552L67.6448 70.5135C65.3535 68.2535 64.0169 65.0517 64.0169 61.8499C64.0169 55.0697 69.5542 49.6079 76.4281 49.6079C83.3021 49.6079 88.8394 55.0697 88.8394 61.8499C88.8394 65.0517 87.5028 68.2535 85.2115 70.5135L84.2568 71.4552C83.493 72.2086 83.1111 73.1503 83.1111 74.092ZM43.0132 72.2086H58.2886V75.9753H43.0132V72.2086Z" fill="#0074BD"/>
<path d="M54.4696 68.4419C55.5243 68.4419 56.3792 67.5986 56.3792 66.5583C56.3792 65.5181 55.5243 64.6748 54.4696 64.6748C53.415 64.6748 52.5601 65.5181 52.5601 66.5583C52.5601 67.5986 53.415 68.4419 54.4696 68.4419Z" fill="#0074BD"/>
<path d="M43.0132 64.675H48.7415V68.4418H43.0132V64.675ZM43.0132 57.1415H56.3792V60.9082H43.0132V57.1415ZM50.6509 49.6079H64.0169V53.3747H50.6509V49.6079Z" fill="#0074BD"/>
<path d="M44.9228 53.375C45.9774 53.375 46.8323 52.5317 46.8323 51.4915C46.8323 50.4512 45.9774 49.6079 44.9228 49.6079C43.8681 49.6079 43.0132 50.4512 43.0132 51.4915C43.0132 52.5317 43.8681 53.375 44.9228 53.375Z" fill="#0074BD"/>
<path d="M62.1069 42.0742H69.7453V45.8413H62.1069V42.0742Z" fill="#0074BD"/>
<path d="M56.3788 45.8413C57.4335 45.8413 58.2884 44.998 58.2884 43.9578C58.2884 42.9175 57.4335 42.0742 56.3788 42.0742C55.3242 42.0742 54.4692 42.9175 54.4692 43.9578C54.4692 44.998 55.3242 45.8413 56.3788 45.8413Z" fill="#0074BD"/>
<path d="M43.0132 42.0742H50.6515V45.8413H43.0132V42.0742Z" fill="#0074BD"/>
<path d="M65.9253 83.5091H39.1934V38.3078H73.563V45.8413H77.3819V38.3078C77.3819 36.2361 75.6634 34.541 73.563 34.541H39.1934C37.093 34.541 35.3745 36.2361 35.3745 38.3078V83.5091C35.3745 85.5808 37.093 87.2759 39.1934 87.2759H65.9253V83.5091Z" fill="#0074BD"/>
</g>
<defs>
<clipPath id="clip0_1_2805">
<rect width="55" height="56" fill="white" transform="translate(34.6729 34.0059)"/>
</clipPath>
</defs>
</svg>
