<svg width="95" height="95" viewBox="0 0 95 95" fill="none" xmlns="http://www.w3.org/2000/svg">
<g filter="url(#filter0_d_1_2877)">
<rect width="86.9268" height="86.9268" rx="43.4634" transform="matrix(-1 0 0 1 90.5718 0.471191)" fill="#14A95F"/>
<rect x="-2.73811" y="2.73811" width="81.4506" height="81.4506" rx="40.7253" transform="matrix(-1 0 0 1 85.0956 0.471191)" stroke="white" stroke-width="5.47622"/>
</g>
<path d="M52.5411 56.1591H62.0487V58.8756H52.5411V56.1591ZM55.2576 61.592H59.3323V64.3085H55.2576V61.592ZM62.0487 53.4427H59.3323C59.3323 51.9486 59.8756 50.7262 60.9622 49.6396L61.6413 48.9605C62.7279 47.8739 63.407 46.244 63.407 44.6141C63.407 41.2186 60.6905 38.5021 57.2949 38.5021C53.8994 38.5021 51.1829 41.2186 51.1829 44.6141C51.1829 46.244 51.862 47.7381 52.9486 48.9605L53.6277 49.6396C54.7143 50.7262 55.2576 51.9486 55.2576 53.4427H52.5411C52.5411 52.7635 52.2695 52.0844 51.7262 51.5411L51.0471 50.862C49.4172 49.2321 48.4664 46.9231 48.4664 44.6141C48.4664 39.7245 52.4053 35.7856 57.2949 35.7856C62.1846 35.7856 66.1234 39.7245 66.1234 44.6141C66.1234 46.9231 65.1727 49.2321 63.5428 50.862L62.8637 51.5411C62.3204 52.0844 62.0487 52.7635 62.0487 53.4427ZM33.5259 52.0844H44.3917V54.8009H33.5259V52.0844Z" fill="white"/>
<path d="M41.6753 49.3673C42.4253 49.3673 43.0333 48.7593 43.0333 48.0093C43.0333 47.2593 42.4253 46.6514 41.6753 46.6514C40.9254 46.6514 40.3174 47.2593 40.3174 48.0093C40.3174 48.7593 40.9254 49.3673 41.6753 49.3673Z" fill="white"/>
<path d="M33.5259 46.6515H37.6006V49.368H33.5259V46.6515ZM33.5259 41.2186H43.0335V43.935H33.5259V41.2186ZM38.9588 35.7856H48.4664V38.5021H38.9588V35.7856Z" fill="white"/>
<path d="M34.8838 38.5015C35.6338 38.5015 36.2418 37.8936 36.2418 37.1436C36.2418 36.3936 35.6338 35.7856 34.8838 35.7856C34.1339 35.7856 33.5259 36.3936 33.5259 37.1436C33.5259 37.8936 34.1339 38.5015 34.8838 38.5015Z" fill="white"/>
<path d="M47.1089 30.3525H52.5418V33.069H47.1089V30.3525Z" fill="white"/>
<path d="M43.0332 33.0684C43.7832 33.0684 44.3912 32.4605 44.3912 31.7105C44.3912 30.9605 43.7832 30.3525 43.0332 30.3525C42.2833 30.3525 41.6753 30.9605 41.6753 31.7105C41.6753 32.4605 42.2833 33.0684 43.0332 33.0684Z" fill="white"/>
<path d="M33.5259 30.3525H38.9588V33.069H33.5259V30.3525Z" fill="white"/>
<path d="M49.825 60.2335H30.8097V27.6359H55.2579V33.0688H57.9744V27.6359C57.9744 26.1418 56.7519 24.9194 55.2579 24.9194H30.8097C29.3157 24.9194 28.0933 26.1418 28.0933 27.6359V60.2335C28.0933 61.7275 29.3157 62.9499 30.8097 62.9499H49.825V60.2335Z" fill="white"/>
<defs>
<filter id="filter0_d_1_2877" x="-0.00579572" y="0.471191" width="94.2284" height="94.2284" filterUnits="userSpaceOnUse" color-interpolation-filters="sRGB">
<feFlood flood-opacity="0" result="BackgroundImageFix"/>
<feColorMatrix in="SourceAlpha" type="matrix" values="0 0 0 0 0 0 0 0 0 0 0 0 0 0 0 0 0 0 127 0" result="hardAlpha"/>
<feOffset dy="3.65082"/>
<feGaussianBlur stdDeviation="1.82541"/>
<feComposite in2="hardAlpha" operator="out"/>
<feColorMatrix type="matrix" values="0 0 0 0 0 0 0 0 0 0 0 0 0 0 0 0 0 0 0.25 0"/>
<feBlend mode="normal" in2="BackgroundImageFix" result="effect1_dropShadow_1_2877"/>
<feBlend mode="normal" in="SourceGraphic" in2="effect1_dropShadow_1_2877" result="shape"/>
</filter>
</defs>
</svg>
