<svg width="95" height="95" viewBox="0 0 95 95" fill="none" xmlns="http://www.w3.org/2000/svg">
<g filter="url(#filter0_d_1_2896)">
<rect width="86.9268" height="86.9268" rx="43.4634" transform="matrix(-1 0 0 1 91.2876 0.471191)" fill="#FE873C"/>
<rect x="-2.73811" y="2.73811" width="81.4506" height="81.4506" rx="40.7253" transform="matrix(-1 0 0 1 85.8114 0.471191)" stroke="white" stroke-width="5.47622"/>
</g>
<path d="M53.2574 56.1591H62.765V58.8756H53.2574V56.1591ZM55.9739 61.592H60.0486V64.3085H55.9739V61.592ZM62.765 53.4427H60.0486C60.0486 51.9486 60.5919 50.7262 61.6785 49.6396L62.3576 48.9605C63.4442 47.8739 64.1233 46.244 64.1233 44.6141C64.1233 41.2186 61.4068 38.5021 58.0112 38.5021C54.6157 38.5021 51.8992 41.2186 51.8992 44.6141C51.8992 46.244 52.5783 47.7381 53.6649 48.9605L54.344 49.6396C55.4306 50.7262 55.9739 51.9486 55.9739 53.4427H53.2574C53.2574 52.7635 52.9858 52.0844 52.4425 51.5411L51.7634 50.862C50.1335 49.2321 49.1827 46.9231 49.1827 44.6141C49.1827 39.7245 53.1216 35.7856 58.0112 35.7856C62.9009 35.7856 66.8397 39.7245 66.8397 44.6141C66.8397 46.9231 65.889 49.2321 64.2591 50.862L63.58 51.5411C63.0367 52.0844 62.765 52.7635 62.765 53.4427ZM34.2422 52.0844H45.108V54.8009H34.2422V52.0844Z" fill="white"/>
<path d="M42.3907 49.3673C43.1406 49.3673 43.7486 48.7593 43.7486 48.0093C43.7486 47.2593 43.1406 46.6514 42.3907 46.6514C41.6407 46.6514 41.0327 47.2593 41.0327 48.0093C41.0327 48.7593 41.6407 49.3673 42.3907 49.3673Z" fill="white"/>
<path d="M34.2422 46.6515H38.3169V49.368H34.2422V46.6515ZM34.2422 41.2186H43.7498V43.935H34.2422V41.2186ZM39.6751 35.7856H49.1827V38.5021H39.6751V35.7856Z" fill="white"/>
<path d="M35.6001 38.5015C36.3501 38.5015 36.9581 37.8936 36.9581 37.1436C36.9581 36.3936 36.3501 35.7856 35.6001 35.7856C34.8502 35.7856 34.2422 36.3936 34.2422 37.1436C34.2422 37.8936 34.8502 38.5015 35.6001 38.5015Z" fill="white"/>
<path d="M47.8242 30.3525H53.2571V33.069H47.8242V30.3525Z" fill="white"/>
<path d="M43.7495 33.0684C44.4995 33.0684 45.1075 32.4605 45.1075 31.7105C45.1075 30.9605 44.4995 30.3525 43.7495 30.3525C42.9996 30.3525 42.3916 30.9605 42.3916 31.7105C42.3916 32.4605 42.9996 33.0684 43.7495 33.0684Z" fill="white"/>
<path d="M34.2422 30.3525H39.6751V33.069H34.2422V30.3525Z" fill="white"/>
<path d="M50.5413 60.2335H31.526V27.6359H55.9742V33.0688H58.6907V27.6359C58.6907 26.1418 57.4683 24.9194 55.9742 24.9194H31.526C30.032 24.9194 28.8096 26.1418 28.8096 27.6359V60.2335C28.8096 61.7275 30.032 62.9499 31.526 62.9499H50.5413V60.2335Z" fill="white"/>
<defs>
<filter id="filter0_d_1_2896" x="0.710025" y="0.471191" width="94.2284" height="94.2284" filterUnits="userSpaceOnUse" color-interpolation-filters="sRGB">
<feFlood flood-opacity="0" result="BackgroundImageFix"/>
<feColorMatrix in="SourceAlpha" type="matrix" values="0 0 0 0 0 0 0 0 0 0 0 0 0 0 0 0 0 0 127 0" result="hardAlpha"/>
<feOffset dy="3.65082"/>
<feGaussianBlur stdDeviation="1.82541"/>
<feComposite in2="hardAlpha" operator="out"/>
<feColorMatrix type="matrix" values="0 0 0 0 0 0 0 0 0 0 0 0 0 0 0 0 0 0 0.25 0"/>
<feBlend mode="normal" in2="BackgroundImageFix" result="effect1_dropShadow_1_2896"/>
<feBlend mode="normal" in="SourceGraphic" in2="effect1_dropShadow_1_2896" result="shape"/>
</filter>
</defs>
</svg>
