<svg width="61" height="83" viewBox="0 0 61 83" fill="none" xmlns="http://www.w3.org/2000/svg">
<g clip-path="url(#clip0_2788_132)">
<path d="M59.12 39.9709C59.12 55.9984 46.4125 69.0035 30.7285 69.0035C15.0444 69.0035 2.33691 55.9984 2.33691 39.9709C2.33691 23.9434 15.0444 10.9382 30.7285 10.9382C46.4125 10.9382 59.12 23.9434 59.12 39.9709Z" fill="#D33833"/>
<path d="M3.50487 47.1602C3.50487 47.1602 1.44419 16.8911 29.3549 16.0211L27.4087 12.7698L12.2742 17.8528L7.94677 22.8213L4.16886 30.0566L2.0166 38.4824L2.6577 44.115" fill="#EF3D3A"/>
<path d="M11.2903 20.1654C6.32181 25.2713 3.2308 32.3005 3.2308 40.0853C3.2308 47.8701 6.32181 54.8992 11.2903 60.0051C16.2817 65.111 23.1278 68.2479 30.7294 68.2479C38.331 68.2479 45.177 65.111 50.1684 60.0051C55.137 54.8992 58.228 47.8701 58.228 40.0853C58.228 32.3005 55.137 25.2713 50.1684 20.1654C45.177 15.0824 38.331 11.9227 30.7294 11.9227C23.1507 11.9227 16.2817 15.0595 11.2903 20.1654ZM10.031 61.2187C4.74196 55.8151 1.46777 48.328 1.46777 40.0853C1.46777 31.8426 4.74196 24.3554 10.031 18.929C15.3201 13.5254 22.6469 10.1597 30.7294 10.1597C38.8118 10.1597 46.1387 13.5254 51.4277 18.929C56.7168 24.3325 59.991 31.8197 59.991 40.0853C59.991 48.328 56.7168 55.8151 51.4277 61.2187C46.1387 66.6451 38.8118 69.988 30.7294 69.988C22.6469 69.988 15.3201 66.6451 10.031 61.2187Z" fill="#231F20"/>
<path d="M42.6816 40.131L38.3542 40.7721L32.5156 41.4361L28.7377 41.5277L25.0514 41.4132L22.2351 40.5432L19.7394 37.8414L17.7932 32.3234L17.3582 31.1327L14.7709 30.2627L13.2597 27.767L12.1836 24.1951L13.3742 21.0583L16.1905 20.0738L18.4572 21.1499L19.5333 23.5311L20.8384 23.3251L21.2735 22.7756L20.8384 20.2798L20.724 17.143L21.3651 12.8156L21.3422 10.3428L23.3112 7.1831L26.7686 4.68739L32.8133 2.1001L39.5219 3.08464L45.3605 7.29758L48.0623 11.625L49.8024 14.7618L50.2374 22.5466L48.9323 29.2552L46.5511 35.2083L44.3073 38.3909" fill="#F0D6B7"/>
<path d="M39.018 58.8376L23.5629 59.4787V62.066L24.868 71.1559L24.2269 71.9114L13.4198 68.2251L12.6642 66.92L11.5881 54.6933L9.04658 47.3665L8.49707 45.6264L17.1519 39.6733L19.8537 38.5972L22.2349 41.5279L24.2956 43.3596L26.6768 44.1152L27.7529 44.4358L29.058 50.0683L30.0426 51.2589L32.5383 50.3888L30.7982 53.7546L40.1857 58.1965L39.018 58.8376Z" fill="#335061"/>
<path d="M13.3735 21.1043L16.1898 20.1197L18.4565 21.1959L19.5326 23.5771L20.8377 23.371L21.1583 22.0659L20.5172 19.5702L21.1583 13.6172L20.6088 10.3659L22.555 8.09914L26.7679 4.75626L25.5773 3.13062L19.6242 6.06136L17.1285 8.00755L15.7318 11.0299L13.5796 13.9606L12.9385 17.418L13.3735 21.1043Z" fill="#6D6B6D"/>
<path d="M17.816 10.9384C17.816 10.9384 19.4417 6.93154 25.9213 4.98535C32.401 3.03915 26.2419 3.58866 26.2419 3.58866L19.2127 6.29044L16.5109 8.99222L15.3203 11.1445L17.816 10.9384Z" fill="#DCD9D8"/>
<path d="M14.5641 20.3489C14.5641 20.3489 12.2974 12.7701 20.9522 11.694L20.6317 10.3889L14.6786 11.7856L12.9385 17.4181L13.3735 21.1044L14.5641 20.3489Z" fill="#DCD9D8"/>
<path d="M18.0215 30.4002L19.4411 29.0264C19.4411 29.0264 20.0822 29.0951 20.1966 29.8506C20.3111 30.6062 20.6317 37.4293 25.2796 41.0928C25.7147 41.4362 21.8223 40.5433 21.8223 40.5433L18.3649 35.1397" fill="#F7E4CD"/>
<path d="M37.9194 28.3396C37.9194 28.3396 38.1713 25.0654 39.0643 25.3173C39.9572 25.5691 39.9572 26.4621 39.9572 26.4621C39.9572 26.4621 37.805 27.8359 37.9194 28.3396Z" fill="#F7E4CD"/>
<path d="M46.8934 16.3418C46.8934 16.3418 45.1074 16.7081 44.9472 18.288C44.7869 19.8678 46.8934 18.6085 47.2139 18.4941" fill="#F7E4CD"/>
<path d="M33.8197 16.4563C33.8197 16.4563 31.4385 16.7768 31.4385 18.288C31.4385 19.7992 34.1403 19.6847 34.8958 19.0436" fill="#F7E4CD"/>
<path d="M19.121 23.4857C19.121 23.4857 15.0225 20.99 14.5875 23.3712C14.1525 25.7524 13.1908 27.4697 15.2286 29.9654L13.8319 29.5303L12.5268 26.1875L12.0918 22.9362L14.5875 20.3489L17.4038 20.5549L19.0294 21.86L19.121 23.4857Z" fill="#F7E4CD"/>
<path d="M21.0677 16.6624C21.0677 16.6624 22.8994 7.13747 32.1953 5.30576C39.8427 3.79459 43.8725 5.6263 45.3837 7.36643C45.3837 7.36643 38.5605 -0.738896 32.0808 1.73392C25.6012 4.22962 20.8387 8.76311 20.9532 11.671C21.1364 16.6624 21.0677 16.6624 21.0677 16.6624Z" fill="#F7E4CD"/>
<path d="M46.138 8.44254C46.138 8.44254 43.0012 8.32806 42.8867 11.1443C42.8867 11.1443 42.8867 11.5793 43.0928 12.0144C43.0928 12.0144 45.5885 9.19812 47.0997 10.7093" fill="#F7E4CD"/>
<path d="M32.4235 12.3122C32.4235 12.3122 31.874 8.0077 28.2106 10.5034C25.8294 12.1291 26.0583 14.3958 26.4705 14.8308C26.9055 15.2659 26.791 16.1359 27.1116 15.5406C27.4321 14.9453 27.3405 12.9991 28.5312 12.4496C29.6989 11.9001 31.668 11.3048 32.4235 12.3122Z" fill="#F7E4CD"/>
<path d="M22.2584 41.5277L12.0923 46.0612C12.0923 46.0612 16.3053 62.8214 14.153 68.0188L12.6419 67.4693L12.5274 61.0812L9.71112 48.9919L8.52051 45.649L19.1215 38.5054L22.2584 41.5277Z" fill="#49728B"/>
<path d="M23.2884 50.801L24.7309 52.5641V59.0437H23.0137C23.0137 59.0437 22.8076 54.5102 22.8076 53.9607C22.8076 53.4112 23.0137 51.465 23.0137 51.465" fill="#49728B"/>
<path d="M23.334 60.0281L18.457 60.2341L19.8537 61.2187L23.3111 61.7682" fill="#49728B"/>
<path d="M39.9795 58.9521L43.9864 58.8376L44.9709 68.7747L40.8725 69.3242L39.9795 58.9521Z" fill="#335061"/>
<path d="M41.0557 58.952L47.1003 58.6315C47.1003 58.6315 49.596 52.3579 49.596 52.0373C49.596 51.7168 51.7483 42.9474 51.7483 42.9474L46.8713 37.8644L45.8868 36.9944L43.2995 39.5817V49.6332L41.0557 58.952Z" fill="#335061"/>
<path d="M43.7574 58.1963L39.9795 58.9519L40.529 61.9742C41.9257 62.6153 44.3069 60.8981 44.3069 60.8981" fill="#49728B"/>
<path d="M43.8721 39.2612L51.4508 44.8937L51.6568 42.3064L45.9327 37.0173L43.8721 39.2612Z" fill="#49728B"/>
<path d="M27.089 80.2458L24.8451 71.1559L23.7232 64.4472L23.54 59.4787L33.6831 58.9292H39.9797L39.4073 70.2858L40.3918 79.0551L40.2773 80.6808L32.0575 81.3219L27.089 80.2458Z" fill="white"/>
<path d="M38.5827 58.8374C38.5827 58.8374 38.0332 70.0795 39.6588 78.0933C39.6588 78.0933 36.4075 80.1539 31.668 80.6806L40.7578 80.36L41.834 79.7189L40.5289 61.9971L40.1854 58.1963" fill="#DCD9D8"/>
<path d="M45.1311 67.9274L49.3441 66.7367L57.3349 66.3017L58.5255 62.6154L56.3733 56.2273L53.8776 55.9067L50.4202 56.9829L47.1231 58.6085L45.3601 58.288L43.9863 58.8375" fill="white"/>
<path d="M45.0625 65.7523C45.0625 65.7523 47.8788 64.4472 48.3138 64.5617L47.1232 58.6086L48.5199 58.0591C48.5199 58.0591 49.5044 63.6916 49.5044 64.3327C49.5044 64.3327 55.5491 64.6532 56.0986 64.6532C56.0986 64.6532 57.4037 62.1575 57.0831 59.5702L58.2737 63.0276L58.3882 64.9738L56.6481 67.5611L54.7019 67.9961L51.4506 67.8816L50.3745 66.485L46.5966 67.0345L45.4059 67.4695" fill="#DCD9D8"/>
<path d="M40.8037 58.082L38.4225 52.0373L35.9268 48.4655C35.9268 48.4655 36.4763 46.9543 37.2319 46.9543H39.7276L42.1088 47.8244L41.9027 51.8313L40.8037 58.082Z" fill="white"/>
<path d="M41.2846 56.021C41.2846 56.021 38.2623 50.1824 38.2623 49.3123C38.2623 49.3123 38.8118 48.0072 39.5674 48.3278C40.323 48.6483 41.9486 49.5184 41.9486 49.5184V47.4577L38.2623 46.7021L35.7666 47.0227L39.9795 57.0055L40.8496 57.12" fill="#DCD9D8"/>
<path d="M28.0501 41.7568L25.0506 41.4362L22.2344 40.5662V41.5507L23.6082 43.0619L27.9356 45.0081" fill="white"/>
<path d="M23.2195 42.0774C23.2195 42.0774 26.5624 43.4741 27.6614 43.1535L27.7759 44.4586L24.7536 43.8175L22.9219 42.5124L23.2195 42.0774Z" fill="#DCD9D8"/>
<path d="M45.1316 47.3209C43.2999 47.2751 41.6285 47.0461 40.186 46.634C40.2776 46.0387 40.0944 45.4663 40.2547 45.0313C40.6668 44.7336 41.3308 44.7336 41.949 44.6649C41.4224 44.413 40.6668 44.2986 40.0715 44.4588C40.0486 44.0467 39.8655 43.7948 39.751 43.4743C40.7813 43.108 43.2083 40.7038 44.5821 41.4823C45.2461 41.8715 45.5209 44.0238 45.5667 45.0999C45.6125 45.97 45.4751 46.8401 45.1316 47.3209Z" fill="#D33833"/>
<path d="M45.1316 47.3209C43.2999 47.2751 41.6285 47.0461 40.186 46.634C40.2776 46.0387 40.0944 45.4663 40.2547 45.0313C40.6668 44.7336 41.3308 44.7336 41.949 44.6649C41.4224 44.413 40.6668 44.2986 40.0715 44.4588C40.0486 44.0467 39.8655 43.7948 39.751 43.4743C40.7813 43.108 43.2083 40.7038 44.5821 41.4823C45.2461 41.8715 45.5209 44.0238 45.5667 45.0999C45.6125 45.97 45.4751 46.8401 45.1316 47.3209Z" fill="black" stroke="#D33833" stroke-width="3.48693"/>
<path d="M36.362 44.3213C36.362 44.4586 36.362 44.596 36.3391 44.7334C35.7667 45.0997 34.8509 45.0997 34.2098 45.4203C35.1256 45.4661 35.8583 45.695 36.4994 45.9927C36.4765 46.3361 36.4765 46.7025 36.4536 47.0459C35.4004 47.7557 34.4387 48.8319 33.2023 49.5187C32.607 49.8393 30.5692 50.6636 29.951 50.5033C29.6076 50.4117 29.5618 49.9767 29.4244 49.5645C29.1268 48.6945 28.4399 47.2749 28.3712 45.9469C28.3025 44.2755 28.1193 41.4592 29.9281 41.8027C31.3935 42.0774 33.0878 42.7414 34.2098 43.3596C34.9196 43.7717 35.3088 44.2297 36.362 44.3213Z" fill="#D33833"/>
<path d="M36.362 44.3213C36.362 44.4586 36.362 44.596 36.3391 44.7334C35.7667 45.0997 34.8509 45.0997 34.2098 45.4203C35.1256 45.4661 35.8583 45.695 36.4994 45.9927C36.4765 46.3361 36.4765 46.7025 36.4536 47.0459C35.4004 47.7557 34.4387 48.8319 33.2023 49.5187C32.607 49.8393 30.5692 50.6636 29.951 50.5033C29.6076 50.4117 29.5618 49.9767 29.4244 49.5645C29.1268 48.6945 28.4399 47.2749 28.3712 45.9469C28.3025 44.2755 28.1193 41.4592 29.9281 41.8027C31.3935 42.0774 33.0878 42.7414 34.2098 43.3596C34.9196 43.7717 35.3088 44.2297 36.362 44.3213Z" fill="black" stroke="#D33833" stroke-width="3.48693"/>
<path d="M37.3921 46.3134C37.2319 45.3976 37.0487 45.1457 37.1174 44.3443C39.5673 42.7187 40.0023 47.1377 37.3921 46.3134Z" fill="#D33833"/>
<path d="M37.3921 46.3134C37.2319 45.3976 37.0487 45.1457 37.1174 44.3443C39.5673 42.7187 40.0023 47.1377 37.3921 46.3134Z" fill="black" stroke="#D33833" stroke-width="3.48693"/>
<path d="M40.9189 47.0458C40.9189 47.0458 40.1634 45.9697 40.7129 45.6491C41.2624 45.3286 41.789 45.6491 42.1095 45.0996C42.4301 44.5501 42.1095 44.2295 42.224 43.5884C42.3385 42.9473 42.8651 42.8329 43.4146 42.7184C43.9642 42.6039 45.4753 42.3978 45.6814 42.9244L45.0403 40.9782L43.7352 40.5432L39.6367 42.9244L39.4307 44.1151V46.4963" fill="#EF3D3A"/>
<path d="M29.5615 50.6178C29.4241 48.9235 29.2868 47.2521 29.1494 45.5577C28.9204 43.0391 29.7447 43.4741 31.9427 43.4741C32.2862 43.4741 34.0034 43.8634 34.1179 44.1152C34.7132 45.3288 33.1333 45.054 34.8048 45.9699C36.2015 46.7254 38.6972 45.5119 38.1248 43.7947C37.8042 43.4055 36.4762 43.6802 35.9954 43.4284C35.1482 42.9933 34.3011 42.5583 33.4539 42.1233C32.3778 41.5737 29.905 40.7495 28.7601 41.528C25.8523 43.497 28.9433 48.4427 29.9736 50.5033" fill="#EF3D3A"/>
<path d="M32.423 12.312C29.4694 11.6251 28.004 13.5484 27.1111 15.5404C26.3097 15.3572 26.6302 14.2582 26.8363 13.7087C27.3629 12.2662 29.4923 10.32 31.2324 10.5948C31.9651 10.6864 32.9725 11.3733 32.423 12.312Z" fill="#231F20"/>
<path d="M46.7795 15.655H46.9169C47.5809 17.0288 48.1533 18.4942 49.0005 19.7306C48.4281 21.0586 44.7417 22.2034 44.7875 19.868C45.5889 19.5245 46.9627 19.7993 47.6725 19.3414C47.2603 18.2194 46.6879 17.2578 46.7795 15.655Z" fill="#231F20"/>
<path d="M33.9114 15.7009C34.5525 16.8686 34.7586 18.0822 35.6515 18.9522C36.0637 19.3415 36.8421 19.8223 36.4529 20.9213C36.3613 21.1732 35.6973 21.7456 35.3081 21.8601C33.9114 22.2722 30.6372 21.9516 31.7362 20.1886C32.904 20.2344 34.4609 20.9442 35.331 20.097C34.667 19.0438 33.4764 16.9373 33.9114 15.7009Z" fill="#231F20"/>
<path d="M46.2534 27.4696C44.1469 28.8205 41.7886 30.3088 38.3083 29.9653C37.5756 29.3242 37.278 27.8817 38.0107 26.943C38.377 27.5841 38.148 28.7747 39.2013 28.9579C41.1704 29.3013 43.46 27.7444 44.8796 27.2178C45.7496 25.7295 44.8109 25.2029 44.0095 24.2412C42.3839 22.295 40.2316 19.868 40.3003 16.9602C40.9643 16.4793 41.0101 17.6928 41.1017 17.8989C41.9488 19.868 44.0782 22.4095 45.6123 24.1038C46.0015 24.516 46.6197 24.9281 46.6884 25.2029C46.8945 25.9813 46.1618 26.943 46.2534 27.4696Z" fill="#231F20"/>
<path d="M18.365 26.05C17.701 25.6607 17.5407 24.0122 16.7622 23.9664C15.6403 23.8977 15.8463 26.1187 15.8463 27.4238C15.0908 26.7369 14.9534 24.5846 15.5029 23.4856C14.8618 23.165 14.587 23.829 14.2207 24.058C14.7015 20.738 19.0976 22.5239 18.365 26.05Z" fill="#231F20"/>
<path d="M47.581 28.8662C46.5965 30.7437 45.1998 32.8044 42.3148 32.8731C42.2462 32.2778 42.2004 31.339 42.3148 30.9727C44.5358 30.7437 45.9096 29.6218 47.581 28.8662Z" fill="#231F20"/>
<path d="M33.752 30.0796C35.5837 31.0412 38.9723 31.1557 41.4909 31.087C41.6283 31.6365 41.6283 32.3234 41.6283 32.9874C38.3999 33.1248 34.5991 32.3234 33.752 30.0796Z" fill="#231F20"/>
<path d="M33.4088 31.8655C34.691 35.071 39.0642 34.7046 42.7505 34.613C42.5902 35.0252 42.2468 35.5289 41.7888 35.6892C40.5982 36.17 37.3469 36.5363 35.6984 35.6663C34.6681 35.1168 33.9812 33.8575 33.4088 33.1248C33.1569 32.7813 31.7831 31.8884 33.4088 31.8655Z" fill="#231F20"/>
<path d="M46.0932 49.5185C44.6049 52.0829 43.1624 54.716 41.3994 56.9598C42.1321 54.7847 42.4527 51.1212 42.5671 48.3279C44.1241 47.5952 45.4521 48.4881 46.0932 49.5185Z" fill="#81B0C4"/>
<path d="M54.1303 58.7231C52.4588 59.0666 51.2911 60.6922 49.6426 60.5778C50.5584 59.3184 52.1154 58.7689 54.1303 58.7231Z" fill="#231F20"/>
<path d="M54.862 61.3333C53.4883 61.4706 51.8855 61.6996 50.5117 61.5851C51.1757 60.5777 53.6943 60.944 54.862 61.3333Z" fill="#231F20"/>
<path d="M55.3432 63.6C53.8091 63.6229 51.9087 63.6 50.4434 63.4855C51.3134 62.5468 54.3586 63.1421 55.3432 63.6Z" fill="#231F20"/>
<path d="M43.2087 69.7821C43.4377 71.7054 44.1932 73.6516 44.1017 75.758C43.2545 76.0328 42.7737 76.2846 41.6288 76.2846C41.5602 74.4987 41.3083 71.7512 41.377 70.0339C41.9265 70.0797 42.7508 69.6447 43.2087 69.7821Z" fill="#DCD9D8"/>
<path d="M40.7354 41.3906C39.9569 41.8943 39.3158 42.5125 38.5602 43.0621C36.9117 43.1536 36.0187 42.9476 34.8281 42.0088C34.851 41.9401 34.9655 41.963 34.9655 41.8715C36.7285 42.6499 38.9724 41.5509 40.7354 41.3906Z" fill="#F0D6B7"/>
<path d="M31.5303 53.3653C32.0111 51.2817 33.9115 50.1827 35.6287 49.0378C37.3918 51.2817 38.4679 54.1666 39.6585 56.96C36.8422 56.1128 33.9802 54.7619 31.5303 53.3653Z" fill="#81B0C4"/>
<path d="M41.3767 70.0569C41.3081 71.7741 41.537 74.4988 41.6286 76.3076C42.7734 76.3076 43.2542 76.0557 44.1014 75.781C44.193 73.6745 43.4374 71.7283 43.2085 69.805C42.7505 69.6447 41.9263 70.0798 41.3767 70.0569ZM23.7007 60.3488C24.4563 67.2406 25.5324 73.0105 27.5244 79.1239C31.9434 80.4747 37.2554 80.5892 41.1707 79.3757C40.4609 75.9413 40.7585 71.7512 40.3464 68.0649C40.0259 65.2944 40.1861 62.524 39.7511 59.7077C35.0115 58.7232 28.3258 59.4787 23.7007 60.3488ZM40.873 59.7535C40.8272 62.7071 41.0104 65.6379 41.2394 68.5915C42.3842 68.4312 43.1398 68.3167 44.193 68.0649C43.8496 65.2257 43.8954 61.9973 43.1856 59.4787C42.3842 59.5016 41.6744 59.4787 40.873 59.7535ZM46.62 59.2727C46.0705 59.1582 45.4523 59.2727 44.9486 59.2727C45.2004 61.6768 45.7729 64.3328 45.9789 66.8743C46.7803 66.8972 47.2153 66.5079 47.8793 66.3935C47.9251 64.1725 47.6962 61.1044 46.62 59.2727ZM55.3436 67.2406C57.0379 66.8285 58.0911 64.7678 57.6103 62.6384C57.2897 61.2189 56.7402 58.5171 56.122 57.6012C55.687 56.9372 54.4735 56.0443 53.4889 56.6625C51.9091 57.6699 49.1386 57.9676 47.9938 59.1811C48.5662 61.1044 48.7494 63.7146 48.9784 66.1416C50.9474 66.2561 53.3516 65.5921 55.0001 66.3019C53.8553 66.6682 52.3899 66.6682 51.4054 67.2177C52.2296 67.607 54.1071 67.5383 55.3436 67.2406ZM39.6366 56.9601C38.446 54.1668 37.3699 51.2818 35.6068 49.038C33.8896 50.1828 32.0121 51.2818 31.5084 53.3654C33.9812 54.7621 36.8433 56.113 39.6366 56.9601ZM42.5674 48.3282C42.4529 51.1215 42.1323 54.785 41.3996 56.9601C43.1627 54.6934 44.6051 52.0832 46.0934 49.5188C45.4523 48.4885 44.1243 47.5955 42.5674 48.3282ZM39.2474 47.1605C38.5834 47.0918 38.011 47.9389 37.1409 47.5726C36.9348 47.8016 36.7517 48.0305 36.5456 48.2595C38.4689 50.5949 39.3619 53.892 40.8501 56.6167C41.6515 53.9836 41.5599 51.1215 41.7431 48.2595C40.6441 48.3053 40.0259 47.2292 39.2474 47.1605ZM37.118 44.3442C37.0493 45.1456 37.2325 45.3974 37.3928 46.3133C40.003 47.1376 39.5679 42.7186 37.118 44.3442ZM34.2102 43.3826C33.0882 42.7644 31.3939 42.1004 29.9285 41.8256C28.1197 41.4822 28.3029 44.2984 28.3716 45.9699C28.4403 47.2978 29.1272 48.6945 29.4248 49.5875C29.5622 49.9996 29.608 50.4347 29.9514 50.5262C30.5696 50.6636 32.6303 49.8622 33.2027 49.5417C34.4391 48.8777 35.4008 47.8016 36.454 47.0689C36.4769 46.7254 36.4769 46.3591 36.4998 46.0156C35.8587 45.6951 35.1489 45.489 34.2102 45.4432C34.8284 45.1227 35.7671 45.1227 36.3395 44.7563C36.3395 44.619 36.3395 44.4816 36.3624 44.3442C35.3092 44.2297 34.92 43.7718 34.2102 43.3826ZM23.4489 41.4364C22.5101 42.398 26.0819 43.6802 27.2039 43.7489C27.2039 43.1536 27.5473 42.5812 27.4786 42.1462C26.1277 41.9172 24.3647 42.0775 23.4489 41.4364ZM34.9886 41.8714C34.9886 41.963 34.8742 41.9401 34.8513 42.0088C36.0648 42.9475 36.9577 43.1536 38.5834 43.062C39.3161 42.5354 39.9801 41.8943 40.7585 41.3906C38.9726 41.5508 36.7288 42.6499 34.9886 41.8714ZM45.5668 45.0769C45.521 44.0237 45.2462 41.8485 44.5822 41.4593C43.2085 40.6579 40.7814 43.0849 39.7511 43.4513C39.8656 43.7718 40.0488 44.0237 40.0717 44.4358C40.6899 44.2755 41.4225 44.39 41.9492 44.6419C41.331 44.7106 40.667 44.7106 40.2548 45.0082C40.1174 45.4432 40.3006 46.0157 40.1861 46.611C41.6286 47.0231 43.3 47.2292 45.1318 47.2978C45.4752 46.8399 45.6126 45.9699 45.5668 45.0769ZM21.869 42.3522C21.5714 42.1462 19.5794 39.5589 19.3046 39.6733C15.7099 41.0929 12.3441 43.5428 9.34467 45.8783C12.2067 52.0374 13.3744 59.5703 13.5805 66.8285C16.8547 68.3625 19.7396 70.5835 24.2044 70.8125C23.6778 67.1719 23.2199 63.8977 22.9222 60.4633C21.8003 59.9825 20.1976 60.4862 19.1443 60.3259C19.1443 59.0666 20.7471 59.7764 20.8845 58.9292C20.976 58.2881 19.9915 58.2423 20.312 57.2349C21.1363 57.5325 21.5714 58.1965 22.4414 58.4484C23.2428 56.7083 22.4414 53.6173 22.5559 52.1519C22.5788 51.8771 22.6933 50.6407 23.3115 50.8468C23.861 51.03 23.2886 54.1668 23.3344 55.5406C23.3802 56.8228 23.1741 58.0363 23.7007 58.8376C28.0052 58.2423 32.3785 57.876 37.0493 57.7386C36.019 57.3036 34.8055 56.8914 33.4775 56.1359C32.7448 55.7237 30.4781 54.8766 30.272 54.1897C29.9285 53.0906 31.142 52.5182 31.3481 51.5795C29.173 52.7701 28.7608 50.4347 28.2342 48.809C27.7763 47.3207 27.5015 46.1988 27.387 45.3517C25.4866 44.39 23.4718 43.497 21.869 42.3522ZM43.6664 39.971C46.6658 38.5285 47.2153 45.3974 46.0247 47.6184C46.2079 48.2824 46.8261 48.5343 47.078 49.1296C45.4065 52.129 43.5519 54.9224 41.8347 57.876C43.094 57.0746 44.9257 57.7386 46.414 57.1433C46.9635 56.9372 47.3527 55.6779 47.7648 54.6705C48.9097 51.9229 50.1003 48.4427 50.6269 45.8325C50.7414 45.2372 51.0848 43.9321 50.9932 43.4055C50.8559 42.4438 49.5737 41.734 48.9097 41.1616C47.6962 40.0626 46.9406 39.1238 45.6584 38.0935C45.1775 38.8491 44.0785 39.3528 43.6664 39.971ZM15.023 13.3883C13.6034 14.9681 13.9011 17.8989 14.0613 20.0053C16.6486 18.3797 20.0602 20.1427 20.0373 22.8903C21.2737 22.8674 20.4952 21.3562 20.2663 20.3717C19.5336 17.1891 21.5027 13.7546 20.3578 10.8468C18.1369 11.0299 16.3281 11.9229 15.023 13.3883ZM25.2348 4.2526C22.0064 5.16846 17.8621 7.52679 16.5341 10.4346C17.5645 10.2744 18.2743 9.77064 19.2817 9.70195C19.6709 9.67905 20.1747 9.86222 20.6097 9.74774C21.4798 9.51877 22.2353 7.54968 22.8993 6.817C23.5404 6.10721 24.3189 5.78666 24.8455 5.14556C25.189 4.98529 25.6927 4.98529 25.7156 4.48157C25.5782 4.32129 25.4179 4.20681 25.2348 4.2526ZM42.0636 5.12266C38.6979 3.22226 33.0196 1.80269 29.4477 3.58861C26.5628 5.03108 22.6704 7.41231 21.3424 10.4117C22.5788 13.3196 20.976 15.9756 20.8616 18.9292C20.8158 20.509 21.5942 21.8599 21.6629 23.5772C21.2279 24.287 19.9457 24.3556 19.0527 24.3099C18.7551 22.7987 18.2285 21.1044 16.6715 20.9212C14.4735 20.6693 12.8478 22.501 12.7562 24.4014C12.6418 26.6453 14.4735 30.3545 17.0837 30.1026C18.0911 30.0111 18.343 29.0036 19.442 29.0036C20.0373 30.1942 18.5261 30.5606 18.3659 31.4077C18.3201 31.6367 18.4803 32.4839 18.5948 32.896C19.0756 34.8422 20.1289 37.3837 21.1592 38.872C22.4872 40.7724 25.0745 41.0471 27.8679 41.2303C28.3716 40.1542 30.2033 40.2458 31.3939 40.5205C29.9514 39.9481 28.6234 38.5743 27.5244 37.3608C26.2651 35.9641 24.9829 34.4759 24.9142 32.6441C27.3183 35.9641 29.2874 38.872 33.6378 40.3373C36.9348 41.4364 40.7814 39.8336 43.3229 38.0477C44.3762 37.315 44.9944 36.1244 45.75 35.0712C48.5433 31.0414 49.8484 25.3173 49.5737 19.7535C49.4592 17.4638 49.4592 15.1742 48.6807 13.6401C47.8793 12.0374 45.1547 10.572 43.5519 12.0374C43.2543 10.4575 44.8799 9.49588 46.7803 10.0683C45.4294 8.30527 44.0098 6.22169 42.0636 5.12266ZM48.3373 56.8914C50.9703 55.5863 55.8702 53.3883 57.4958 56.8914C58.114 58.1965 58.8238 60.3717 59.1215 61.7226C59.5565 63.6001 58.6406 67.5841 56.6944 68.2023C54.9772 68.7518 52.9852 68.7289 50.9245 68.3167C50.6727 68.1107 50.4208 67.7672 50.2148 67.4009C48.7494 67.3551 47.3527 67.4696 46.2079 68.0878C46.3224 69.1868 45.5897 69.3471 44.8799 69.576C44.3762 71.6138 45.9102 74.2698 45.5439 76.1015C45.292 77.4295 43.6664 77.6356 42.4758 77.8645C42.43 78.5972 42.5216 79.2154 42.6132 79.8336C42.3384 80.8411 41.1249 81.4135 39.9572 81.5509C36.1335 82.0088 30.3407 82.2149 26.6773 80.8869C25.6469 78.3683 24.8455 75.3231 23.9984 72.461C20.4265 72.8502 17.5187 70.9269 14.794 69.6447C13.8553 69.2097 12.5502 68.9578 12.1838 68.2023C11.8404 67.4696 11.9778 66.0729 11.8862 64.7678C11.6801 61.402 11.474 58.1507 10.604 54.7163C10.2147 53.1593 9.50494 51.8084 9.02412 50.3202C8.56619 48.9464 7.78771 47.2292 7.58165 45.8554C7.28399 43.8176 9.20729 43.7031 10.4208 42.8102C12.3212 41.4364 13.8095 40.6808 15.8701 39.4444C16.4883 39.078 18.3201 38.1622 18.5261 37.7271C18.9383 36.88 17.8163 35.6894 17.5187 35.0254C17.0379 33.9721 16.786 33.0792 16.7173 32.0488C15.0001 31.7741 13.6721 30.7437 12.8936 29.5989C11.5885 27.6756 10.6727 24.1267 11.8175 21.4478C11.9091 21.2417 12.3441 20.8067 12.4128 20.4862C12.5502 19.8451 12.1609 18.9979 12.138 18.311C12.0235 14.8078 12.7333 11.7855 15.0917 10.7323C16.0533 6.90858 19.4878 5.64928 22.7162 3.74888C23.9297 3.03909 25.2577 2.58116 26.6315 2.07744C31.5542 0.268626 39.1329 0.612073 43.2314 3.70309C44.9715 5.00818 47.7419 7.77865 48.7265 9.79353C51.3596 15.0826 51.1535 23.9435 49.3218 30.4003C49.0699 31.2704 48.7265 32.5297 48.2228 33.5829C47.8793 34.3156 46.8032 35.7581 46.9177 36.3992C47.0551 37.0632 49.3905 38.8262 49.8942 39.307C50.7872 40.1771 52.5044 41.3219 52.6418 42.4209C52.8021 43.5886 52.1381 45.1914 51.7946 46.3133C50.6956 50.0683 49.5966 53.5257 48.3373 56.8914Z" fill="#231F20"/>
<path d="M30.8209 30.8812C30.9583 30.698 31.7367 30.4004 32.8358 30.927C32.8358 30.927 31.5307 31.1331 31.6452 33.3082L31.0956 33.1938C31.1185 33.2167 30.5461 31.2476 30.8209 30.8812Z" fill="#F7E4CD"/>
<path d="M40.3 49.4727C40.3 49.7933 40.0252 50.0681 39.7047 50.0681C39.3841 50.0681 39.1094 49.7933 39.1094 49.4727C39.1094 49.1522 39.3841 48.8774 39.7047 48.8774C40.0481 48.8774 40.3 49.1522 40.3 49.4727Z" fill="#1D1919"/>
<path d="M40.8957 52.2433C40.8957 52.5638 40.6209 52.8386 40.3004 52.8386C39.9798 52.8386 39.7051 52.5638 39.7051 52.2433C39.7051 51.9227 39.9798 51.6479 40.3004 51.6479C40.6438 51.6479 40.8957 51.8998 40.8957 52.2433Z" fill="#1D1919"/>
</g>
<defs>
<clipPath id="clip0_2788_132">
<rect width="60.14" height="81.7904" fill="white" transform="translate(0.729492 0.909668)"/>
</clipPath>
</defs>
</svg>
