<svg width="64" height="65" viewBox="0 0 64 65" fill="none" xmlns="http://www.w3.org/2000/svg">
<g clip-path="url(#clip0_1_3296)">
<path d="M61.2544 0.675781H30.6279C30.6279 8.30955 36.8065 14.4908 44.4423 14.4908H50.0748V19.9418C50.0748 27.5755 56.256 33.7568 63.8898 33.7568V3.31115C63.8893 2.61237 63.6115 1.94236 63.1174 1.44825C62.6232 0.954132 61.9532 0.676308 61.2544 0.675781Z" fill="#2684FF"/>
<path d="M46.0788 15.943H15.4517C15.4517 23.5761 21.6309 29.7574 29.264 29.7574H34.8992V35.2084C34.8992 42.8421 41.0804 49.0234 48.7142 49.0234V18.5778C48.7132 17.8791 48.4352 17.2094 47.9412 16.7154C47.4472 16.2214 46.7775 15.9441 46.0788 15.943Z" fill="url(#paint0_linear_1_3296)"/>
<path d="M30.9026 31.209H0.275391C0.275391 38.8454 6.45397 45.024 14.0904 45.024H19.7229V50.4776C19.7229 58.1114 25.9042 64.29 33.5373 64.29V33.847C33.5366 33.1482 33.2589 32.4782 32.765 31.9838C32.2711 31.4894 31.6014 31.2104 30.9026 31.209Z" fill="url(#paint1_linear_1_3296)"/>
</g>
<defs>
<linearGradient id="paint0_linear_1_3296" x1="48.0767" y1="15.9775" x2="35.0463" y2="29.4135" gradientUnits="userSpaceOnUse">
<stop offset="0.176" stop-color="#0052CC"/>
<stop offset="1" stop-color="#2684FF"/>
</linearGradient>
<linearGradient id="paint1_linear_1_3296" x1="33.7818" y1="31.3269" x2="18.7157" y2="45.9848" gradientUnits="userSpaceOnUse">
<stop offset="0.176" stop-color="#0052CC"/>
<stop offset="1" stop-color="#2684FF"/>
</linearGradient>
<clipPath id="clip0_1_3296">
<rect width="63.6147" height="63.6147" fill="white" transform="translate(0.274902 0.675781)"/>
</clipPath>
</defs>
</svg>
