<svg width="192" height="200" viewBox="0 0 192 200" fill="none" xmlns="http://www.w3.org/2000/svg">
<g opacity="0.5">
<path opacity="0.7" d="M16.2755 62.2928C16.2755 62.2928 3.6882 94.7994 21.3772 127.532C39.0662 160.264 75.5008 177.556 104.662 192.342C133.823 207.128 164.104 199.927 178.493 175.709C192.881 151.492 173.147 134.205 173.12 99.6709C173.093 65.1371 178.289 55.9946 159.576 26.8199C140.862 -2.35477 94.9867 -8.81546 60.2949 12.824C25.6031 34.4635 16.2755 62.2928 16.2755 62.2928Z" fill="#00A1E4" fill-opacity="0.2"/>
<path d="M168.077 196.026C168.077 196.026 208.44 140.769 183.428 98.2981C158.416 55.8273 108.748 84.9749 99.2898 45.3394C89.8313 5.70385 55.3065 -0.797469 22.5651 48.7706C-10.1762 98.3387 -2.34306 167.262 14.9938 196.026H168.077Z" fill="#2EB7F0" fill-opacity="0.3"/>
</g>
<path d="M8.92578 196.025H188.868" stroke="#304956" stroke-linecap="round" stroke-linejoin="round"/>
<path d="M26.802 51.6055H38.0664V47.0816H26.802V51.6055Z" stroke="#304956" stroke-linecap="round" stroke-linejoin="round"/>
<path d="M35.8186 56.7798H47.083V52.2559H35.8186V56.7798Z" stroke="#304956" stroke-linecap="round" stroke-linejoin="round"/>
<path d="M61.6779 86.1167H72.9424V81.5929H61.6779V86.1167Z" stroke="#304956" stroke-linecap="round" stroke-linejoin="round"/>
<path d="M56.0471 92.0898H67.3115V87.566H56.0471V92.0898Z" stroke="#304956" stroke-linecap="round" stroke-linejoin="round"/>
<path d="M21.1643 128.61H32.4287V124.086H21.1643V128.61Z" stroke="#304956" stroke-linecap="round" stroke-linejoin="round"/>
<path d="M27.3361 134.24H38.6006V129.716H27.3361V134.24Z" stroke="#304956" stroke-linecap="round" stroke-linejoin="round"/>
<path d="M92.9543 139.618H104.219V135.094H92.9543V139.618Z" stroke="#304956" stroke-linecap="round" stroke-linejoin="round"/>
<path d="M86.9973 145.641H98.2617V141.117H86.9973V145.641Z" stroke="#304956" stroke-linecap="round" stroke-linejoin="round"/>
<path d="M24.7316 169.285H35.9961V164.761H24.7316V169.285Z" stroke="#304956" stroke-linecap="round" stroke-linejoin="round"/>
<path d="M33.7873 128.61H45.0518V124.086H33.7873V128.61Z" stroke="#304956" stroke-linecap="round" stroke-linejoin="round"/>
<path d="M87.3351 110.939C76.3822 111.061 65.0952 111.061 54.4854 110.939" stroke="#304956" stroke-linecap="round" stroke-linejoin="round"/>
<path d="M91.8429 110.939H89.0889" stroke="#304956" stroke-linecap="round" stroke-linejoin="round"/>
<path d="M181.287 174.901C170.334 175.023 159.047 175.023 148.438 174.901" stroke="#304956" stroke-linecap="round" stroke-linejoin="round"/>
<path d="M185.794 174.901H183.04" stroke="#304956" stroke-linecap="round" stroke-linejoin="round"/>
<path d="M134.484 37.1045C123.531 37.2264 112.244 37.2264 101.634 37.1045" stroke="#304956" stroke-linecap="round" stroke-linejoin="round"/>
<path d="M138.991 37.1045H136.237" stroke="#304956" stroke-linecap="round" stroke-linejoin="round"/>
<path d="M37.1961 70.3237C32.3803 70.405 27.575 70.4216 22.7803 70.3734" stroke="#304956" stroke-linecap="round" stroke-linejoin="round"/>
<path d="M129.985 165.826C125.169 165.907 120.365 165.924 115.573 165.876" stroke="#304956" stroke-linecap="round" stroke-linejoin="round"/>
<path d="M35.4883 157.641H37.0414" stroke="#304956" stroke-linecap="round" stroke-linejoin="round"/>
<path d="M19.1211 157.641H33.722" stroke="#304956" stroke-linecap="round" stroke-linejoin="round"/>
<path d="M74.2188 25H75.7718" stroke="#304956" stroke-linecap="round" stroke-linejoin="round"/>
<path d="M57.8516 25H72.4525" stroke="#304956" stroke-linecap="round" stroke-linejoin="round"/>
<path d="M173.283 152.566H162.019V157.09H173.283V152.566Z" stroke="#304956" stroke-linecap="round" stroke-linejoin="round"/>
<path d="M164.265 147.392H153.001V151.915H164.265V147.392Z" stroke="#304956" stroke-linecap="round" stroke-linejoin="round"/>
<path d="M138.406 118.055H127.142V122.579H138.406V118.055Z" stroke="#304956" stroke-linecap="round" stroke-linejoin="round"/>
<path d="M144.038 112.082H132.773V116.605H144.038V112.082Z" stroke="#304956" stroke-linecap="round" stroke-linejoin="round"/>
<path d="M178.921 75.5615H167.656V80.0854H178.921V75.5615Z" stroke="#304956" stroke-linecap="round" stroke-linejoin="round"/>
<path d="M172.749 69.9316H161.484V74.4555H172.749V69.9316Z" stroke="#304956" stroke-linecap="round" stroke-linejoin="round"/>
<path d="M107.137 64.5542H95.8721V69.078H107.137V64.5542Z" stroke="#304956" stroke-linecap="round" stroke-linejoin="round"/>
<path d="M113.088 58.5312H101.823V63.0551H113.088V58.5312Z" stroke="#304956" stroke-linecap="round" stroke-linejoin="round"/>
<path d="M149.07 25.1807H137.806V29.7045H149.07V25.1807Z" stroke="#304956" stroke-linecap="round" stroke-linejoin="round"/>
<path d="M166.297 75.5615H155.032V80.0854H166.297V75.5615Z" stroke="#304956" stroke-linecap="round" stroke-linejoin="round"/>
<path d="M112.754 93.2325C123.702 93.1106 134.989 93.1106 145.604 93.2325" stroke="#304956" stroke-linecap="round" stroke-linejoin="round"/>
<path d="M108.242 93.2324H110.992" stroke="#304956" stroke-linecap="round" stroke-linejoin="round"/>
<path d="M162.884 133.848C167.7 133.767 172.505 133.749 177.3 133.794" stroke="#304956" stroke-linecap="round" stroke-linejoin="round"/>
<path d="M164.6 46.5308H163.047" stroke="#304956" stroke-linecap="round" stroke-linejoin="round"/>
<path d="M180.966 46.5308H166.36" stroke="#304956" stroke-linecap="round" stroke-linejoin="round"/>
<path d="M145.3 79.8602L137.752 74.1264C137.752 74.1264 128.614 56.8347 128.094 56.2026L125.358 59.7377C125.358 59.7377 130.514 74.7946 131.277 76.894C132.04 78.9934 135.178 81.3637 136.695 82.9754C138.212 84.5872 144.23 88.8221 144.23 88.8221L145.3 79.8602Z" fill="white" stroke="#304956" stroke-linecap="round" stroke-linejoin="round"/>
<path d="M107.707 130.557H100.75C98.6547 130.557 96.639 129.755 95.1161 128.316C93.5933 126.877 92.6787 124.91 92.5599 122.819L92.1807 116.137H116.272L115.892 122.819C115.775 124.91 114.861 126.877 113.339 128.316C111.817 129.755 109.802 130.557 107.707 130.557Z" fill="#304956"/>
<path d="M140.484 67.7511C140.484 62.9165 139.518 58.1306 137.642 53.6751C135.765 49.2196 133.016 45.1844 129.557 41.8071C126.098 38.4298 121.998 35.7786 117.498 34.0096C112.999 32.2405 108.191 31.3894 103.358 31.5062C83.7549 31.9577 67.9305 48.211 67.9757 67.8369C67.9868 77.1056 71.5607 86.0154 77.9579 92.7225C81.6792 96.5736 84.3068 101.347 85.5699 106.551L85.8092 107.572H122.655L122.794 106.971C124.108 101.548 126.825 96.5653 130.673 92.5238C136.984 85.8206 140.494 76.958 140.484 67.7511Z" fill="white"/>
<mask id="mask0_1_5757" style="mask-type:luminance" maskUnits="userSpaceOnUse" x="67" y="31" width="74" height="77">
<path d="M140.477 67.7511C140.477 62.9165 139.511 58.1306 137.635 53.6751C135.758 49.2196 133.009 45.1844 129.55 41.8071C126.091 38.4298 121.991 35.7786 117.492 34.0096C112.992 32.2405 108.185 31.3894 103.351 31.5062C83.7481 31.9577 67.9237 48.211 67.9688 67.8369C67.9799 77.1056 71.5538 86.0154 77.9511 92.7225C81.6724 96.5736 84.2999 101.347 85.5631 106.551L85.8023 107.572H122.648L122.788 106.971C124.101 101.548 126.818 96.5653 130.666 92.5238C136.977 85.8206 140.487 76.958 140.477 67.7511Z" fill="white"/>
</mask>
<g mask="url(#mask0_1_5757)">
<path opacity="0.4" d="M103.351 31.5068C83.7481 31.9583 67.9237 48.2116 67.9688 67.8375C67.9799 77.1062 71.5538 86.016 77.9511 92.7231C81.6724 96.5742 84.2999 101.348 85.5631 106.552L85.8023 107.572H122.648L122.788 106.972C124.101 101.547 126.82 96.5645 130.671 92.5244C135.552 87.3118 138.785 80.7733 139.964 73.7297C141.143 66.6861 140.215 59.4512 137.297 52.9331C134.379 46.415 129.6 40.9042 123.561 37.0923C117.522 33.2804 110.491 31.3372 103.351 31.5068ZM104.105 97.0167C97.704 97.0158 91.4467 95.1168 86.1247 91.5597C80.8026 88.0027 76.6548 82.9474 74.2057 77.0331C71.7566 71.1188 71.1163 64.611 72.3657 58.3328C73.6151 52.0546 76.6981 46.2878 81.2248 41.7617C85.7515 37.2356 91.5187 34.1534 97.7971 32.9049C104.076 31.6564 110.583 32.2977 116.497 34.7475C122.411 37.1974 127.466 41.346 131.022 46.6685C134.578 51.9911 136.477 58.2487 136.477 64.65C136.477 68.9008 135.639 73.11 134.012 77.0372C132.386 80.9644 130.001 84.5327 126.995 87.5383C123.989 90.5439 120.42 92.9279 116.493 94.5542C112.566 96.1805 108.356 97.0173 104.105 97.0167Z" fill="#249782"/>
</g>
<path d="M140.484 67.7511C140.484 62.9165 139.518 58.1306 137.642 53.6751C135.765 49.2196 133.016 45.1844 129.557 41.8071C126.098 38.4298 121.998 35.7786 117.498 34.0096C112.999 32.2405 108.191 31.3894 103.358 31.5062C83.7549 31.9577 67.9305 48.211 67.9757 67.8369C67.9868 77.1056 71.5607 86.0154 77.9579 92.7225C81.6792 96.5736 84.3068 101.347 85.5699 106.551L85.8092 107.572H122.655L122.794 106.971C124.108 101.548 126.825 96.5653 130.673 92.5238C136.984 85.8206 140.494 76.958 140.484 67.7511Z" stroke="#304956" stroke-miterlimit="10"/>
<path d="M91.8556 125.875H116.601C118.616 124.761 120.315 123.154 121.54 121.204C122.764 119.255 123.474 117.027 123.604 114.728L124.231 103.635H84.2256L84.8486 114.728C84.9796 117.027 85.691 119.255 86.9164 121.204C88.1417 123.153 89.841 124.761 91.8556 125.875Z" fill="#249782" stroke="#304956" stroke-linecap="round" stroke-linejoin="round"/>
<path d="M124.05 107.662L85.1553 110.8C84.7633 110.833 84.3744 110.708 84.0739 110.454C83.7734 110.2 83.5859 109.838 83.5526 109.446C83.5213 109.054 83.6461 108.666 83.8998 108.365C84.1535 108.065 84.5155 107.877 84.907 107.843L123.811 104.692C124.203 104.659 124.592 104.783 124.893 105.037C125.193 105.291 125.381 105.654 125.414 106.046C125.431 106.242 125.41 106.439 125.35 106.627C125.291 106.814 125.195 106.988 125.069 107.138C124.942 107.288 124.787 107.412 124.612 107.502C124.437 107.592 124.246 107.646 124.05 107.662Z" fill="#249782" stroke="#304956" stroke-linecap="round" stroke-linejoin="round"/>
<path d="M124.039 113.549L85.5596 116.655C85.1681 116.685 84.7805 116.56 84.4805 116.307C84.1806 116.053 83.9925 115.692 83.9569 115.301C83.9256 114.909 84.0504 114.521 84.3041 114.221C84.5578 113.92 84.9198 113.733 85.3113 113.698L123.8 110.56C124.192 110.529 124.58 110.654 124.88 110.908C125.181 111.161 125.368 111.523 125.403 111.915C125.423 112.112 125.404 112.312 125.346 112.501C125.288 112.691 125.193 112.867 125.066 113.02C124.939 113.172 124.783 113.297 124.606 113.388C124.43 113.479 124.237 113.534 124.039 113.549Z" fill="#249782" stroke="#304956" stroke-linecap="round" stroke-linejoin="round"/>
<path d="M122.855 119.563L87.3959 122.426C87.0044 122.456 86.6168 122.331 86.3168 122.077C86.0169 121.824 85.8288 121.462 85.7932 121.071C85.7606 120.679 85.8849 120.289 86.1387 119.988C86.3925 119.687 86.7553 119.498 87.1476 119.464L122.607 116.602C122.998 116.571 123.386 116.697 123.686 116.95C123.986 117.204 124.174 117.565 124.21 117.956C124.241 118.348 124.116 118.737 123.863 119.038C123.609 119.339 123.247 119.528 122.855 119.563Z" fill="#249782" stroke="#304956" stroke-linecap="round" stroke-linejoin="round"/>
<path d="M132.417 188.667C132.417 188.667 133.239 193.687 132.417 196.031H115.812C115.812 196.031 115.112 194.274 115.812 193.164C116.512 192.053 121.776 191.426 123.415 189.927C124.669 188.681 125.805 187.32 126.806 185.863L132.417 188.667Z" fill="#304956" stroke="#304956" stroke-miterlimit="10"/>
<path d="M115.501 195.142H132.639L132.784 196.027H115.501V195.142Z" fill="white" stroke="#304956" stroke-linecap="round" stroke-linejoin="round"/>
<path d="M128.43 188.052C128.43 188.052 126.867 188.427 126.691 188.504C126.515 188.58 124.998 190.901 123.477 191.312C121.955 191.723 120.434 191.642 120.669 192.382" stroke="white" stroke-linecap="round" stroke-linejoin="round"/>
<path d="M124.968 188.052L126.747 189.362" stroke="white" stroke-linecap="round" stroke-linejoin="round"/>
<path d="M124.141 189.2L125.856 190.459" stroke="white" stroke-linecap="round" stroke-linejoin="round"/>
<path d="M123.047 190.207L124.537 191.647" stroke="white" stroke-linecap="round" stroke-linejoin="round"/>
<path d="M121.543 190.942L122.189 192.365" stroke="white" stroke-linecap="round" stroke-linejoin="round"/>
<path d="M132.688 190.924C130.757 190.763 128.814 191.004 126.981 191.633C123.997 192.68 122.967 193.592 123.044 193.868C123.121 194.143 123.473 194.956 123.473 194.956H124.967C124.967 194.956 124.426 194.003 124.516 193.868C124.606 193.732 129.721 191.741 132.67 192.093L132.688 190.924Z" fill="white"/>
<path d="M156.678 196.026C156.678 196.026 157.319 193.584 156.569 192.676C155.215 191.051 156.732 189.688 155.382 189.123L154.818 189.778C154.709 189.114 155.025 187.092 152.524 186.825C149.499 186.509 149.441 188.708 149.278 189.435L149.328 188.419C148.037 188.419 148.705 189.706 146.75 191.814C146.238 192.382 145.848 193.049 145.606 193.773C145.364 194.498 145.273 195.265 145.341 196.026H156.678Z" fill="#304956" stroke="#304956" stroke-miterlimit="10"/>
<path d="M145.325 195.142H156.928L156.675 196.027H145.339L145.325 195.142Z" fill="white" stroke="#304956" stroke-linecap="round" stroke-linejoin="round"/>
<path d="M149.036 191.71C149.036 191.71 152.847 190.45 154.684 192.026" stroke="white" stroke-linecap="round" stroke-linejoin="round"/>
<path d="M149.036 190.879C149.036 190.879 152.386 189.818 154.684 191.236" stroke="white" stroke-linecap="round" stroke-linejoin="round"/>
<path d="M149.251 190.057C149.251 190.057 152.411 188.87 154.7 190.509" stroke="white" stroke-linecap="round" stroke-linejoin="round"/>
<path d="M146.752 191.827L147.131 192.197C147.182 192.248 147.214 192.314 147.222 192.386C147.229 192.458 147.211 192.53 147.172 192.59C146.667 193.35 146.397 194.242 146.395 195.154H145.84C145.964 194.264 146.236 193.4 146.643 192.599L146.359 192.31L146.752 191.827Z" fill="white"/>
<path d="M135.409 165.059C135.409 165.059 132.944 169.248 128.776 168.354" stroke="#304956" stroke-linecap="round" stroke-linejoin="round"/>
<path d="M138.012 117.369L136.396 120.787C131.956 130.319 128.355 140.22 125.633 150.377C125.534 150.752 123.421 158.233 125.114 176.865L124.148 180.134L125.204 185.552C125.204 185.552 123.615 187.846 123.673 188.599C123.673 188.599 127.592 189.331 128.902 190.031C129.917 190.577 132.965 193.597 132.965 193.597C133.832 193.417 133.904 189.913 133.904 189.913C133.904 189.913 135.71 158.815 136.238 157.47C136.766 156.124 139.94 150.355 144.902 137.131C144.902 137.131 145.015 155.601 146.342 160.274C147.521 164.432 146.126 176.075 146.126 176.075L146.92 189.024C146.92 189.024 144.13 191.922 146.392 192.703C146.392 192.703 147.904 189.791 152.216 189.132C154.406 188.794 157.137 192.685 157.137 192.685C158.094 192.378 156.731 187.489 156.731 187.489C159.783 164.441 157.53 168.612 158.14 157.343C158.532 150.12 160.582 119.175 158.176 116.665L138.012 117.369Z" fill="#000612"/>
<mask id="mask1_1_5757" style="mask-type:luminance" maskUnits="userSpaceOnUse" x="123" y="116" width="37" height="78">
<path d="M138.012 117.369L136.396 120.787C131.956 130.319 128.355 140.22 125.633 150.377C125.534 150.752 123.421 158.233 125.114 176.865L124.148 180.134L125.204 185.552C125.204 185.552 123.615 187.846 123.673 188.599C123.673 188.599 127.592 189.331 128.902 190.031C129.917 190.577 132.965 193.597 132.965 193.597C133.832 193.417 133.904 189.913 133.904 189.913C133.904 189.913 135.71 158.815 136.238 157.47C136.766 156.124 139.94 150.355 144.902 137.131C144.902 137.131 145.015 155.601 146.342 160.274C147.521 164.432 146.126 176.075 146.126 176.075L146.92 189.024C146.92 189.024 144.13 191.922 146.392 192.703C146.392 192.703 147.904 189.791 152.216 189.132C154.406 188.794 157.137 192.685 157.137 192.685C158.094 192.378 156.731 187.489 156.731 187.489C159.783 164.441 157.53 168.612 158.14 157.343C158.532 150.12 160.582 119.175 158.176 116.665L138.012 117.369Z" fill="white"/>
</mask>
<g mask="url(#mask1_1_5757)">
<path opacity="0.2" d="M159.341 128.02C148.551 128.869 139.205 125.338 135.155 123.505C135.923 121.776 136.397 120.796 136.397 120.796L138.013 117.378L158.185 116.647C159.057 117.545 159.341 122.155 159.341 128.02Z" fill="#0E7CCC"/>
<path opacity="0.2" d="M144.824 137.348C139.912 150.405 136.76 156.12 136.246 157.452C135.948 158.224 135.225 168.785 134.666 177.652C134.015 169.588 133.352 161.078 133.311 159.407C133.189 156.084 135.591 151.524 135.952 150.346C136.313 149.168 135.501 147.895 135.501 147.895L139.821 142.45C139.677 140.599 141.961 132.517 141.961 132.517C143.302 133.822 144.521 136.558 144.824 137.348Z" fill="#0E7CCC"/>
</g>
<path d="M138.012 117.369L136.396 120.787C131.956 130.319 128.355 140.22 125.633 150.377C125.534 150.752 123.421 158.233 125.114 176.865L124.148 180.134L125.204 185.552C125.204 185.552 123.615 187.846 123.673 188.599C123.673 188.599 127.592 189.331 128.902 190.031C129.917 190.577 132.965 193.597 132.965 193.597C133.832 193.417 133.904 189.913 133.904 189.913C133.904 189.913 135.71 158.815 136.238 157.47C136.766 156.124 139.94 150.355 144.902 137.131C144.902 137.131 145.015 155.601 146.342 160.274C147.521 164.432 146.126 176.075 146.126 176.075L146.92 189.024C146.92 189.024 144.13 191.922 146.392 192.703C146.392 192.703 147.904 189.791 152.216 189.132C154.406 188.794 157.137 192.685 157.137 192.685C158.094 192.378 156.731 187.489 156.731 187.489C159.783 164.441 157.53 168.612 158.14 157.343C158.532 150.12 160.582 119.175 158.176 116.665L138.012 117.369Z" stroke="#304956" stroke-linecap="round" stroke-linejoin="round"/>
<path d="M144.914 137.112C144.914 137.112 142.449 132.353 140.345 131.026" stroke="#304956" stroke-linecap="round" stroke-linejoin="round"/>
<path d="M139.421 129.486C139.421 129.486 146.911 131.744 149.507 132.195" stroke="#304956" stroke-linecap="round" stroke-linejoin="round"/>
<path d="M143.254 121.848C142.929 128.088 140.73 129.149 142.856 130.508C142.856 130.508 142.798 133.424 143.854 135.275" stroke="#304956" stroke-linecap="round" stroke-linejoin="round"/>
<path d="M156.379 119.459C156.379 119.459 155.476 129.044 158.443 130.846" stroke="#304956" stroke-linecap="round" stroke-linejoin="round"/>
<path d="M158.441 122.548C158.441 122.548 158.662 128.927 158.441 134.07C158.441 134.07 157.705 155.799 156.969 158.531C156.233 161.262 158.102 165.375 157.94 177.177" stroke="#304956" stroke-linecap="round" stroke-linejoin="round"/>
<path d="M151.36 186.409C152.061 186.259 152.792 186.356 153.428 186.685" stroke="#304956" stroke-linecap="round" stroke-linejoin="round"/>
<path d="M146.927 188.996C147.85 188.098 148.918 187.362 150.087 186.82" stroke="#304956" stroke-linecap="round" stroke-linejoin="round"/>
<path d="M148.164 138.621C149.821 140.472 152.44 143.971 155.126 144.269" stroke="#304956" stroke-linecap="round" stroke-linejoin="round"/>
<path d="M145.618 135.596C146.124 136.241 146.652 136.869 147.185 137.492" stroke="#304956" stroke-linecap="round" stroke-linejoin="round"/>
<path d="M147.976 157.316C147.976 157.316 151.736 162.436 153.8 162.734" stroke="#304956" stroke-linecap="round" stroke-linejoin="round"/>
<path d="M143.548 136.187C143.548 136.187 136.852 154.842 134.518 156.684C134.518 156.684 134.252 170.4 134.179 175.194C134.107 179.989 133.001 186.355 133.001 186.355" stroke="#304956" stroke-linecap="round" stroke-linejoin="round"/>
<path d="M125.853 186.216C125.853 186.216 128.431 187.119 129.686 187.674C130.455 188.046 131.06 188.689 131.383 189.48" stroke="#304956" stroke-linecap="round" stroke-linejoin="round"/>
<path d="M132.376 149.957C135.988 147.7 140.715 144.882 142.625 140.905" stroke="#304956" stroke-linecap="round" stroke-linejoin="round"/>
<path d="M129.245 151.817C129.927 151.442 130.6 151.049 131.259 150.647" stroke="#304956" stroke-linecap="round" stroke-linejoin="round"/>
<path d="M140.579 124.362C142.511 124.335 144.642 124.078 146.281 123.008" stroke="#304956" stroke-linecap="round" stroke-linejoin="round"/>
<path d="M137.5 124.182C138.055 124.259 138.611 124.309 139.17 124.336" stroke="#304956" stroke-linecap="round" stroke-linejoin="round"/>
<path d="M147.518 83.7381C147.518 83.7381 158.886 80.51 165.424 84.0089C167.049 84.8758 170.765 87.6976 170.634 91.0791C170.503 94.4607 159.744 110.204 159.875 112.299C160.006 114.394 159.875 119.811 159.08 120.182C158.286 120.552 141.021 121.053 136.759 119.956C135.057 119.504 138.403 111.464 138.403 111.464C138.403 111.464 141.662 94.0138 147.518 83.7381Z" fill="#249782" stroke="#304956" stroke-linecap="round" stroke-linejoin="round"/>
<path d="M163.704 83.1378C163.704 83.1378 156.517 86.0138 154.16 83.0069C154.56 83.03 154.96 82.9514 155.321 82.7785C155.683 82.6056 155.995 82.3441 156.228 82.0182C156.599 81.4464 156.801 80.7811 156.81 80.0994C156.846 79.5666 155.79 72.7312 156.228 72.1172C162.851 62.8618 164.314 76.4514 164.314 76.4514C164.314 76.4514 161.971 82.2846 163.704 83.1378Z" fill="white" stroke="#304956" stroke-linecap="round" stroke-linejoin="round"/>
<path d="M158.666 79.4312C158.666 79.4312 158.215 81.5667 156.224 82.0181C156.595 81.4463 156.797 80.7811 156.806 80.0993C157.445 79.9333 158.068 79.7097 158.666 79.4312Z" fill="#304956"/>
<path d="M164.992 80.7266L157.561 82.6995V86.5597C157.561 86.5597 155.403 91.9549 155.47 92.8308C155.538 93.7066 157.561 128.877 157.561 128.877C157.561 128.877 163.597 128.426 165.778 124.678C165.778 124.678 164.902 111.044 165.778 108.8C166.347 107.122 166.678 105.373 166.762 103.603C166.762 103.603 172.446 92.9798 171.182 89.7381C169.918 86.4965 165.972 83.3406 165.972 83.3406L164.992 80.7266Z" fill="#304956"/>
<path d="M158.418 83.251C158.418 83.251 159.641 87.2511 159.795 87.1698C159.948 87.0886 164.197 85.3639 165.344 83.6573" stroke="white" stroke-linecap="round" stroke-linejoin="round"/>
<path d="M155.867 82.4196C155.759 82.2661 151.135 79.4308 151.135 79.4308L148.756 80.0628L145.244 77.8687C145.244 77.8687 141.686 88.7042 141.79 91.2099C141.894 93.7156 138.101 107.59 137.546 113.066C137.546 113.066 142.061 104.163 142.706 102.61C143.352 101.057 145.447 90.6004 147.181 88.1624C148.914 85.7244 152.968 82.695 152.968 82.695L155.867 82.4196Z" fill="#304956"/>
<path d="M164.567 75.5297C164.908 74.6243 165.044 73.6543 164.964 72.6899C164.476 65.8409 162.86 64.2472 160.192 64.6942C150.228 66.3556 153.18 71.4122 152.801 73.0917C152.422 74.7712 150.995 74.8976 151.198 75.6606C151.275 75.9631 152.449 75.9947 152.449 75.9947L152.521 77.5749L152.973 77.6833C152.973 77.6833 153.334 81.2951 154.25 81.697C155.411 82.2252 158.878 80.1303 158.869 78.83" fill="white"/>
<path d="M164.567 75.5297C164.908 74.6243 165.044 73.6543 164.964 72.6899C164.476 65.8409 162.86 64.2472 160.192 64.6942C150.228 66.3556 153.18 71.4122 152.801 73.0917C152.422 74.7712 150.995 74.8976 151.198 75.6606C151.275 75.9631 152.449 75.9947 152.449 75.9947L152.521 77.5749L152.973 77.6833C152.973 77.6833 153.334 81.2951 154.25 81.697C155.411 82.2252 158.878 80.1303 158.869 78.83" stroke="#304956" stroke-linecap="round" stroke-linejoin="round"/>
<path d="M153.581 70.6319C153.581 70.6319 154.981 70.3475 155.68 71.4671" stroke="#304956" stroke-linecap="round" stroke-linejoin="round"/>
<path d="M154.16 72.7038C154.21 73.0379 154.395 73.2817 154.567 73.2546C154.738 73.2275 154.837 72.9386 154.788 72.609C154.738 72.2794 154.553 72.0311 154.381 72.0582C154.21 72.0853 154.111 72.3742 154.16 72.7038Z" fill="#304956"/>
<path d="M152.969 77.6842C153.704 77.6857 154.436 77.5792 155.14 77.3682" stroke="#304956" stroke-linecap="round" stroke-linejoin="round"/>
<path d="M154.838 77.4673C154.838 77.4673 154.26 78.2709 153.741 78.2709C153.222 78.2709 153.19 77.8691 153.19 77.8691" stroke="#304956" stroke-linecap="round" stroke-linejoin="round"/>
<path d="M165.171 65.7737C165.171 65.7737 165.667 63.6472 160.71 63.3628C156.841 63.1415 153.306 63.4801 152.001 65.9859C150.696 68.4916 150.832 70.7445 152.696 71.0334C152.858 70.1033 153.206 69.2154 153.719 68.4227C154.232 67.6299 154.899 66.9486 155.681 66.4193C155.681 66.4193 154.597 69.2185 156.227 70.6C156.585 70.9079 156.992 71.1522 157.432 71.3224C157.552 71.5618 157.704 71.7836 157.884 71.9815C158.669 72.8845 158.701 74.7536 158.701 74.7536L159.459 74.3021C159.459 74.3021 158.358 71.3856 161.559 72.0718C163.202 72.424 162.913 74.4105 163.153 75.6476C163.392 76.8846 164.056 77.2232 164.056 77.2232C164.799 76.3851 165.384 75.4181 165.78 74.3699C165.78 74.3699 167.415 73.205 167.415 71.4939C167.415 69.7828 166.954 67.0017 165.171 65.7737Z" fill="#304956"/>
<path d="M159.792 72.122C159.792 72.122 160.83 70.5237 161.751 70.4876C162.672 70.4515 163.291 73.648 162.447 74.8895C161.602 76.1311 160.772 76.5465 160.388 76.1763C160.277 76.0562 160.195 75.9125 160.148 75.7561C160.101 75.5996 160.091 75.4345 160.117 75.2733" fill="white"/>
<path d="M159.792 72.122C159.792 72.122 160.83 70.5237 161.751 70.4876C162.672 70.4515 163.291 73.648 162.447 74.8895C161.602 76.1311 160.772 76.5465 160.388 76.1763C160.277 76.0562 160.195 75.9125 160.148 75.7561C160.101 75.5996 160.091 75.4345 160.117 75.2733" stroke="#304956" stroke-linecap="round" stroke-linejoin="round"/>
<path d="M147.683 84.7267C148.806 83.4851 149.816 82.1465 150.703 80.7266" stroke="white" stroke-linecap="round" stroke-linejoin="round"/>
<path d="M147.683 80.7266C148.319 80.9697 148.852 81.426 149.191 82.0178" stroke="white" stroke-linecap="round" stroke-linejoin="round"/>
<path d="M145.247 77.8686L141.527 76.3065L140.267 74.3877C138.235 77.6198 137.287 81.4153 137.558 85.2232L139.626 86.5416L142.448 92.9526L145.247 77.8686Z" fill="#304956"/>
<path d="M158.724 92.9529C158.724 92.9529 162.462 98.2262 160.624 100.457C159.762 101.509 152.146 104.037 152.146 104.037L129.301 102.682L121.698 104.037L120.849 104.105C120.773 104.009 120.717 103.899 120.686 103.781C120.655 103.663 120.649 103.54 120.669 103.419C120.688 103.299 120.733 103.184 120.8 103.082C120.866 102.98 120.954 102.893 121.057 102.827C121.057 102.827 120.646 101.834 120.817 101.612C121.336 100.949 123.702 99.8606 123.702 99.8606C123.702 99.8606 120.971 100.542 122.095 99.075C122.862 98.0773 125.779 97.8696 127.124 96.9892C128.231 96.2623 127.264 92.2306 129.666 92.9529C129.257 94.046 129.103 95.218 129.215 96.3797C129.251 96.6731 129.314 98.1179 129.314 98.1179C130.533 99.513 143.604 97.707 144.728 97.6664C145.852 97.6258 151.328 96.7996 151.328 96.7996L158.724 92.9529Z" fill="white" stroke="#304956" stroke-linecap="round" stroke-linejoin="round"/>
<path d="M125.721 98.2397C125.855 98.5221 125.926 98.8302 125.929 99.1427C125.87 99.4407 125.067 100.005 125.067 100.005C125.02 100.291 125.02 100.582 125.067 100.867C125.157 101.075 124.204 101.815 124.204 102.082C124.122 102.393 123.981 102.686 123.789 102.944" stroke="#304956" stroke-linecap="round" stroke-linejoin="round"/>
<path d="M121.048 102.84C121.405 103.111 122.926 101.608 123.779 101.536" stroke="#304956" stroke-linecap="round" stroke-linejoin="round"/>
<path d="M123.053 103.048C122.427 103.441 121.759 103.76 121.062 104.001" stroke="#304956" stroke-linecap="round" stroke-linejoin="round"/>
<path d="M158.066 92.8808L158.649 91.8875C158.649 91.8875 160.184 92.5422 160.599 91.8875C161.015 91.2329 165.66 89.0929 166.554 89.1516" stroke="white" stroke-linecap="round" stroke-linejoin="round"/>
<path d="M159.968 101.531C159.968 101.531 161.096 102.692 161.394 102.199C161.692 101.707 165.729 101.495 167.413 100.1" stroke="white" stroke-linecap="round" stroke-linejoin="round"/>
<path d="M158.894 106.235C158.894 106.416 161.873 115.762 163.061 117.071" stroke="white" stroke-linecap="round" stroke-linejoin="round"/>
<path d="M152.814 107.188C152.457 107.427 145.532 113.202 142.624 113.26" stroke="#304956" stroke-linecap="round" stroke-linejoin="round"/>
<path d="M147.683 91.0161C147.683 91.3547 149.732 94.1539 150.703 94.9259" stroke="#304956" stroke-linecap="round" stroke-linejoin="round"/>
<path d="M120.477 121.645C121.683 121.645 119.836 123.595 119.836 123.595C119.795 125.017 119.518 126.422 119.015 127.753L122.753 133.532L119.538 136.087L116.274 129.46C116.274 129.46 113.425 128.439 114.112 126.751C114.536 125.685 115.917 125.568 115.917 125.568C117.276 124.084 118.807 122.766 120.477 121.645Z" fill="white" stroke="#304956" stroke-linecap="round" stroke-linejoin="round"/>
<path d="M117.306 132.638C117.306 132.638 119.27 129.613 121.369 129.812L122.159 131.618C122.159 131.618 123.455 131.685 124.236 133.527C125.017 135.369 129.347 140.489 129.347 140.489L123.076 146.995C123.076 146.995 117.838 135.988 118.109 134.2L117.306 132.638Z" fill="white"/>
<mask id="mask2_1_5757" style="mask-type:luminance" maskUnits="userSpaceOnUse" x="117" y="129" width="13" height="18">
<path d="M117.312 132.638C117.312 132.638 119.275 129.613 121.375 129.812L122.165 131.618C122.165 131.618 123.461 131.685 124.242 133.527C125.023 135.369 129.353 140.489 129.353 140.489L123.081 146.995C123.081 146.995 117.844 135.988 118.115 134.2L117.312 132.638Z" fill="white"/>
</mask>
<g mask="url(#mask2_1_5757)">
<path opacity="0.2" d="M117.312 132.638C117.312 132.638 119.275 129.613 121.375 129.812L122.165 131.618C122.165 131.618 123.461 131.685 124.242 133.527C125.023 135.369 129.353 140.489 129.353 140.489L123.081 146.995C123.081 146.995 117.844 135.988 118.115 134.2L117.312 132.638Z" fill="#0E7CCC"/>
</g>
<path d="M117.306 132.638C117.306 132.638 119.27 129.613 121.369 129.812L122.159 131.618C122.159 131.618 123.455 131.685 124.236 133.527C125.017 135.369 129.347 140.489 129.347 140.489L123.076 146.995C123.076 146.995 117.838 135.988 118.109 134.2L117.306 132.638Z" stroke="#304956" stroke-linecap="round" stroke-linejoin="round"/>
<path d="M132.691 117.147C132.691 117.147 124.758 118.317 126.172 127.477C127.585 136.638 126.7 137.925 126.781 141.699C126.862 145.473 129.345 146.999 129.345 146.999L131.282 140.457C131.282 140.457 130.316 141.699 130.637 136.877C130.957 132.055 131.039 125.87 131.039 125.87" fill="#249782"/>
<mask id="mask3_1_5757" style="mask-type:luminance" maskUnits="userSpaceOnUse" x="125" y="117" width="8" height="30">
<path d="M132.685 117.147C132.685 117.147 124.753 118.317 126.166 127.477C127.579 136.638 126.694 137.925 126.775 141.699C126.856 145.473 129.34 146.999 129.34 146.999L131.276 140.457C131.276 140.457 130.31 141.699 130.631 136.877C130.951 132.055 131.033 125.87 131.033 125.87" fill="white"/>
</mask>
<g mask="url(#mask3_1_5757)">
<path opacity="0.2" d="M132.685 117.147C132.685 117.147 124.753 118.317 126.166 127.477C127.579 136.638 126.694 137.925 126.775 141.699C126.856 145.473 129.34 146.999 129.34 146.999L131.276 140.457C131.276 140.457 130.31 141.699 130.631 136.877C130.951 132.055 131.033 125.87 131.033 125.87" fill="#0E7CCC"/>
</g>
<path d="M132.691 117.147C132.691 117.147 124.758 118.317 126.172 127.477C127.585 136.638 126.7 137.925 126.781 141.699C126.862 145.473 129.345 146.999 129.345 146.999L131.282 140.457C131.282 140.457 130.316 141.699 130.637 136.877C130.957 132.055 131.039 125.87 131.039 125.87" stroke="#304956" stroke-linecap="round" stroke-linejoin="round"/>
<path d="M127.819 131.229C127.819 131.229 128.722 136.196 128.063 139.636" stroke="#304956" stroke-linecap="round" stroke-linejoin="round"/>
<path d="M110.325 137.83C109.65 136.746 109.177 135.548 108.93 134.295C109.431 133.64 109.146 130.597 109.164 130.29C109.183 129.983 107.544 128.448 106.907 126.304C106.491 126.687 106.239 127.216 106.203 127.78C106.243 128.683 106.681 129.365 106.519 129.518C105.656 130.331 103.395 129.374 102.708 129.13C101.191 128.597 100.451 129.387 101.218 130.232C101.489 130.53 102.072 130.313 102.022 131.044C101.972 131.776 101.855 131.144 102.243 132.322C102.632 133.5 102.492 133.875 103.377 134.466L105.666 136.002L107.503 139.907L110.325 137.83Z" fill="white" stroke="#304956" stroke-linecap="round" stroke-linejoin="round"/>
<path d="M128.982 167.063C128.982 167.063 132.143 162.391 140.012 162.129C147.881 161.867 147.493 166.567 147.493 166.567C147.493 166.567 151.584 172.567 151.105 177.258C150.626 181.949 144.477 186.129 144.477 186.129C144.477 186.129 157.037 189.069 158.473 188.459C159.909 187.85 162.825 194.089 161.701 195.489C160.577 196.888 125.064 194.495 125.064 194.495C125.064 194.495 121.528 190.337 121.37 187.43C121.212 184.522 129.195 173.371 128.978 172.838C128.761 172.305 128.982 167.063 128.982 167.063Z" fill="#304956"/>
<path d="M142.289 172.363C142.289 172.363 143.341 181.068 138.867 182.58L124.126 188.508C124.126 188.508 144.637 190.282 147.761 189.65C150.886 189.018 155.27 195.357 155.27 195.357H117.842C111.462 195.357 107.819 190.305 109.106 186.237C110.392 182.169 127.856 170.187 127.856 170.187C127.856 170.187 126.953 165.794 136.529 162.562C145.17 159.645 142.289 172.363 142.289 172.363Z" fill="#304956"/>
<path d="M145.317 160.363C145.317 160.363 147.574 163.862 146.771 164.657C146.771 164.657 137.696 161.42 128.404 168.86C128.233 168.996 128.066 169.136 127.894 169.28L127.221 166.896L128.86 165.542C128.86 165.542 128.562 164.359 128.328 162.869C128.093 161.379 127.899 159.456 128.169 158.21C128.197 158.079 127.835 157.537 127.411 156.566C126.883 155.348 126.525 154.063 126.346 152.747C126.024 150.224 126.188 147.664 126.829 145.203C127.177 143.769 127.629 142.362 128.183 140.995C129.501 137.69 136.17 136.137 143.931 138.155C144.865 138.393 145.686 138.95 146.251 139.731C150.166 144.995 145.317 160.363 145.317 160.363Z" fill="white"/>
<mask id="mask4_1_5757" style="mask-type:luminance" maskUnits="userSpaceOnUse" x="126" y="137" width="22" height="33">
<path d="M145.318 160.363C145.318 160.363 147.575 163.862 146.771 164.657C146.771 164.657 137.697 161.42 128.405 168.86C128.234 168.996 128.067 169.136 127.895 169.28L127.222 166.896L128.861 165.542C128.861 165.542 128.563 164.359 128.328 162.869C128.094 161.379 127.9 159.456 128.17 158.21C128.198 158.079 127.836 157.537 127.412 156.566C126.884 155.348 126.526 154.063 126.347 152.747C126.025 150.224 126.189 147.664 126.83 145.203C127.178 143.769 127.63 142.362 128.184 140.995C129.502 137.69 136.171 136.137 143.932 138.155C144.866 138.393 145.687 138.95 146.252 139.731C150.167 144.995 145.318 160.363 145.318 160.363Z" fill="white"/>
</mask>
<g mask="url(#mask4_1_5757)">
<path opacity="0.2" d="M126.34 152.755C126.018 150.233 126.182 147.672 126.823 145.211L128.466 144.688C128.466 144.688 129.536 147.758 126.34 152.755Z" fill="#0E7CCC"/>
<path opacity="0.2" d="M128.327 162.878C128.078 161.334 127.898 159.465 128.169 158.219C128.196 158.088 127.835 157.546 127.41 156.576C127.41 156.576 131.198 159.546 132.692 159.285C133.595 159.122 130.738 161.203 128.327 162.878Z" fill="#0E7CCC"/>
<path opacity="0.2" d="M145.319 160.363C145.319 160.363 147.576 163.862 146.772 164.657C146.772 164.657 137.698 161.42 128.406 168.86C130.185 166.603 132.921 163.993 136.28 163.217C142.492 161.785 144.917 161.989 144.917 161.989L142.903 159.379C142.903 159.379 136.131 159.379 132.695 154.237C134.476 154.824 136.333 155.15 138.208 155.203C140.736 155.257 143.72 153.14 144.628 152.444C143.856 152.95 141.468 153.871 137.495 149.907C132.582 144.995 132.339 135.843 142.903 138.403C144.076 138.697 145.202 139.153 146.249 139.758C150.168 144.995 145.319 160.363 145.319 160.363Z" fill="#0E7CCC"/>
</g>
<path d="M145.317 160.363C145.317 160.363 147.574 163.862 146.771 164.657C146.771 164.657 137.696 161.42 128.404 168.86C128.233 168.996 128.066 169.136 127.894 169.28L127.221 166.896L128.86 165.542C128.86 165.542 128.562 164.359 128.328 162.869C128.093 161.379 127.899 159.456 128.169 158.21C128.197 158.079 127.835 157.537 127.411 156.566C126.883 155.348 126.525 154.063 126.346 152.747C126.024 150.224 126.188 147.664 126.829 145.203C127.177 143.769 127.629 142.362 128.183 140.995C129.501 137.69 136.17 136.137 143.931 138.155C144.865 138.393 145.686 138.95 146.251 139.731C150.166 144.995 145.317 160.363 145.317 160.363Z" stroke="#304956" stroke-linecap="round" stroke-linejoin="round"/>
<path d="M145.798 175.926C145.88 179.059 141.333 182.274 138.746 182.03C138.746 182.03 134.426 185.19 129.428 186.378" stroke="white" stroke-linecap="round" stroke-linejoin="round"/>
<path d="M118.751 186.933C118.751 186.933 124.76 186.292 126.977 187.362C129.194 188.432 140.223 190.03 142.047 189.714" stroke="white" stroke-linecap="round" stroke-linejoin="round"/>
<path d="M137.977 169.28C137.977 169.28 140.921 168.662 143.119 169.28C143.119 169.28 143.44 172.576 143.119 174.4L140.618 175.682C139.721 175.408 138.84 175.087 137.977 174.721C137.814 174.558 137.833 171.186 137.611 170.544" stroke="white" stroke-linecap="round" stroke-linejoin="round"/>
<path d="M150.508 175.258L149.872 175.682L148.31 174.292C148.364 172.793 147.077 169.578 147.077 169.578C147.663 169.499 148.259 169.592 148.793 169.845" stroke="white" stroke-linecap="round" stroke-linejoin="round"/>
<path d="M144.675 181.15C145.228 181.493 145.844 181.722 146.487 181.822C147.13 181.923 147.786 181.894 148.418 181.737" stroke="white" stroke-linecap="round" stroke-linejoin="round"/>
<path d="M144.027 186.377C144.027 186.377 141.584 188.057 137.611 187.145" stroke="white" stroke-linecap="round" stroke-linejoin="round"/>
<path d="M137.612 181.682C137.612 181.682 133.906 180.463 133.048 178.743" stroke="white" stroke-linecap="round" stroke-linejoin="round"/>
<path d="M130.639 180.824C130.91 181.041 133.05 181.682 135.33 181.682" stroke="white" stroke-linecap="round" stroke-linejoin="round"/>
<path d="M117.846 185.005C117.846 185.005 119.715 185.456 120.198 186.129" stroke="white" stroke-linecap="round" stroke-linejoin="round"/>
<path d="M141.029 190.625C141.029 190.625 139.223 191.804 139.259 193.357" stroke="white" stroke-linecap="round" stroke-linejoin="round"/>
<path d="M155.392 190.689C155.491 188.102 157.879 189.177 157.879 189.177C157.879 189.177 159.627 186.608 161.32 187.208C163.013 187.809 163.451 188.698 166.142 189.646C168.832 190.594 172.489 189.849 173.483 192.409C174.476 194.969 173.207 196.405 167.135 195.935C161.062 195.466 159.46 195.272 159.46 195.272C159.46 195.272 155.189 195.89 155.392 190.689Z" fill="#249782" stroke="#304956" stroke-linecap="round" stroke-linejoin="round"/>
<path d="M157.755 190.143C157.705 190.691 157.79 191.243 158.003 191.751C158.215 192.258 158.549 192.706 158.974 193.055" stroke="#304956" stroke-linecap="round" stroke-linejoin="round"/>
<path d="M160.229 187.209C158.938 187.723 158.776 190.69 161.765 192.581C164.753 194.473 165.349 192.857 167.236 194.441C169.124 196.026 172.085 196.247 173.792 195.019C175.499 193.791 174.103 191.408 170.921 190.143C167.738 188.879 166.717 190.143 164.966 189.177C163.214 188.211 162.979 186.112 160.229 187.209Z" fill="white" stroke="#304956" stroke-linecap="round" stroke-linejoin="round"/>
<path d="M161.262 187.764C161.163 188.089 161.262 191.078 161.262 191.078" stroke="#304956" stroke-linecap="round" stroke-linejoin="round"/>
<path d="M162.768 187.921V192.409" stroke="#304956" stroke-linecap="round" stroke-linejoin="round"/>
<path d="M164.35 189.177V192.979" stroke="#304956" stroke-linecap="round" stroke-linejoin="round"/>
<path d="M166.089 190.143L165.886 193.055" stroke="#304956" stroke-linecap="round" stroke-linejoin="round"/>
<path d="M168.028 190.166V194.225" stroke="#304956" stroke-linecap="round" stroke-linejoin="round"/>
<path d="M169.923 190.576V195.019" stroke="#304956" stroke-linecap="round" stroke-linejoin="round"/>
<path d="M172.058 191.357L172.256 194.721" stroke="#304956" stroke-linecap="round" stroke-linejoin="round"/>
<path d="M149.545 188.35C147.868 188.678 146.266 189.315 144.822 190.228C144.822 190.228 143.87 188.824 142.976 190.192C142.082 191.56 142.732 196.364 144.822 195.402C144.822 195.402 147.807 196.386 153.829 195.786C159.852 195.186 154.127 191.872 154.127 191.872L149.545 188.35Z" fill="#249782" stroke="#304956" stroke-linecap="round" stroke-linejoin="round"/>
<path d="M150.095 188.382C147.752 187.904 146.433 191.899 147.54 193.8C148.646 195.701 149.58 195.714 153.752 195.714C157.924 195.714 162.086 195.863 161.829 191.863C161.572 187.863 155.869 188.879 154.51 189.385C153.151 189.89 151.346 188.64 150.095 188.382Z" fill="white" stroke="#304956" stroke-linecap="round" stroke-linejoin="round"/>
<path d="M149.35 189.268L149.584 194.645" stroke="#304956" stroke-linecap="round" stroke-linejoin="round"/>
<path d="M151.095 189.768L151.393 194.644" stroke="#304956" stroke-linecap="round" stroke-linejoin="round"/>
<path d="M152.585 190.016L152.883 194.892" stroke="#304956" stroke-linecap="round" stroke-linejoin="round"/>
<path d="M154.369 190.315L154.825 194.893" stroke="#304956" stroke-linecap="round" stroke-linejoin="round"/>
<path d="M156.166 189.768L156.586 194.892" stroke="#304956" stroke-linecap="round" stroke-linejoin="round"/>
<path d="M158.009 189.768L158.605 194.644" stroke="#304956" stroke-linecap="round" stroke-linejoin="round"/>
<path d="M159.806 190.016L160.302 193.845" stroke="#304956" stroke-linecap="round" stroke-linejoin="round"/>
<path d="M144.473 191.01C144.473 191.01 144.022 193.136 144.722 194.346" stroke="#304956" stroke-linecap="round" stroke-linejoin="round"/>
<path d="M132.144 136.859C131.692 136.945 128.582 137.049 127.272 137.487C123.945 138.588 115.484 145.731 115.484 145.731L109.669 135.464C109.669 135.464 107.136 135.013 105.886 137.27L106.549 139.18C106.337 140.005 106.177 140.844 106.071 141.69C105.917 143.749 110.364 154.467 112.527 155.099C115.913 156.088 125.227 149.045 125.227 149.045C125.227 149.045 129.132 146.44 129.53 144.011" fill="white"/>
<path d="M132.144 136.859C131.692 136.945 128.582 137.049 127.272 137.487C123.945 138.588 115.484 145.731 115.484 145.731L109.669 135.464C109.669 135.464 107.136 135.013 105.886 137.27L106.549 139.18C106.337 140.005 106.177 140.844 106.071 141.69C105.917 143.749 110.364 154.467 112.527 155.099C115.913 156.088 125.227 149.045 125.227 149.045C125.227 149.045 129.132 146.44 129.53 144.011" stroke="#304956" stroke-linecap="round" stroke-linejoin="round"/>
<path d="M128.371 120.231C130.605 115.893 134.691 117.405 134.691 117.405C142.646 115.893 142.89 125.157 143.613 130.047C144.335 134.936 146.967 136.056 147.712 140.155C147.829 141.142 147.811 142.14 147.658 143.121C147.558 142.686 147.301 142.304 146.935 142.047C147.089 147.347 143.951 149.975 143.752 150.128C145.974 147.076 145.703 145.099 145.703 145.099C144.845 148.205 141.522 151.262 141.522 151.262C141.522 151.262 138.687 150.621 137.355 146.49C136.177 142.814 134.61 141.523 134.515 141.465C135.593 143.574 136.388 145.816 136.881 148.133C135.323 145.843 133.919 143.453 132.678 140.977C127.147 130.426 127.82 126.033 127.82 126.033" fill="#249782"/>
<mask id="mask5_1_5757" style="mask-type:luminance" maskUnits="userSpaceOnUse" x="127" y="117" width="21" height="35">
<path d="M128.371 120.23C130.605 115.892 134.691 117.404 134.691 117.404C142.646 115.892 142.89 125.156 143.613 130.046C144.335 134.935 146.967 136.055 147.712 140.154C147.829 141.141 147.811 142.139 147.658 143.12C147.558 142.685 147.301 142.303 146.935 142.046C147.089 147.346 143.951 149.974 143.752 150.127C145.974 147.075 145.703 145.098 145.703 145.098C144.845 148.204 141.522 151.261 141.522 151.261C141.522 151.261 138.687 150.62 137.355 146.489C136.177 142.813 134.61 141.522 134.515 141.464C135.593 143.573 136.388 145.815 136.881 148.132C135.323 145.842 133.919 143.452 132.678 140.976C127.147 130.425 127.82 126.032 127.82 126.032" fill="white"/>
</mask>
<g mask="url(#mask5_1_5757)">
<path opacity="0.2" d="M128.371 120.23C130.605 115.892 134.691 117.404 134.691 117.404C142.646 115.892 142.89 125.156 143.613 130.046C144.335 134.935 146.967 136.055 147.712 140.154C147.829 141.141 147.811 142.139 147.658 143.12C147.558 142.685 147.301 142.303 146.935 142.046C147.089 147.346 143.951 149.974 143.752 150.127C145.974 147.075 145.703 145.098 145.703 145.098C144.845 148.204 141.522 151.261 141.522 151.261C141.522 151.261 138.687 150.62 137.355 146.489C136.177 142.813 134.61 141.522 134.515 141.464C135.593 143.573 136.388 145.815 136.881 148.132C135.323 145.842 133.919 143.452 132.678 140.976C127.147 130.425 127.82 126.032 127.82 126.032" fill="#0E7CCC"/>
</g>
<path d="M128.371 120.231C130.605 115.893 134.691 117.405 134.691 117.405C142.646 115.893 142.89 125.157 143.613 130.047C144.335 134.936 146.967 136.056 147.712 140.155C147.829 141.142 147.811 142.14 147.658 143.121C147.558 142.686 147.301 142.304 146.935 142.047C147.089 147.347 143.951 149.975 143.752 150.128C145.974 147.076 145.703 145.099 145.703 145.099C144.845 148.205 141.522 151.262 141.522 151.262C141.522 151.262 138.687 150.621 137.355 146.49C136.177 142.814 134.61 141.523 134.515 141.465C135.593 143.574 136.388 145.816 136.881 148.133C135.323 145.843 133.919 143.453 132.678 140.977C127.147 130.426 127.82 126.033 127.82 126.033" stroke="#304956" stroke-linecap="round" stroke-linejoin="round"/>
<path d="M135.268 118.267C135.268 118.267 139.331 115.639 140.839 123.486C142.347 131.333 143.57 132.136 144.32 135.992C145.069 139.848 144.27 142.958 143.141 144.119" stroke="#304956" stroke-linecap="round" stroke-linejoin="round"/>
<path d="M135.808 119.549C137.203 122.176 138.273 125.712 138.702 132.244C139.131 138.777 138.986 145.523 141.591 147.509" stroke="#304956" stroke-linecap="round" stroke-linejoin="round"/>
<path d="M131.432 118.799C131.432 118.799 127.897 120.569 130.471 125.87C133.044 131.17 135.825 135.405 135.825 138.457C135.825 141.509 136.656 143.112 138.236 143.653" stroke="#304956" stroke-linecap="round" stroke-linejoin="round"/>
<path d="M119.841 123.594C119.841 123.594 118.829 125.202 118.771 125.676" stroke="#304956" stroke-linecap="round" stroke-linejoin="round"/>
<path d="M115.487 145.73C115.487 145.73 112.805 146.814 113.135 149.121" stroke="#304956" stroke-linecap="round" stroke-linejoin="round"/>
<path d="M112.468 145.325C112.468 145.325 113.461 144.309 114.274 144.693" stroke="#304956" stroke-linecap="round" stroke-linejoin="round"/>
<path d="M107.748 137.875C107.748 137.875 109.414 136.629 110.321 136.751" stroke="#304956" stroke-linecap="round" stroke-linejoin="round"/>
<path d="M122.156 131.622C121.099 131.877 120.119 132.381 119.298 133.093" stroke="#304956" stroke-linecap="round" stroke-linejoin="round"/>
<path d="M130.256 146.426C130.171 146.426 128.103 148.02 126.681 147.938" stroke="#304956" stroke-linecap="round" stroke-linejoin="round"/>
<path d="M132.058 153.271C132.058 153.839 137.475 160.241 143.426 159.28" stroke="#304956" stroke-linecap="round" stroke-linejoin="round"/>
<path d="M54.9031 94.3076C54.9031 94.3076 59.5985 96.8224 60.6369 99.0527C61.6753 101.283 65.4542 112.787 65.4542 112.787C65.4542 112.787 68.3211 117.505 68.9893 118.462C69.6574 119.419 69.3685 123.428 66.0592 123.401C62.7498 123.374 58.9258 120.218 58.7813 118.791C58.6368 117.365 56.9347 116.534 56.8038 115.301C56.6729 114.069 52.6953 105.933 52.6953 105.933L54.9031 94.3076Z" fill="#304956"/>
<path d="M60.1978 189.453C60.1978 189.453 59.489 193.805 60.1978 195.836H74.5911C74.5911 195.836 75.2006 194.31 74.5911 193.353C73.9816 192.396 69.4216 191.845 68.0039 190.545C66.9162 189.464 65.9321 188.284 65.0648 187.019L60.1978 189.453Z" fill="white" stroke="#304956" stroke-linecap="round" stroke-linejoin="round"/>
<path d="M74.863 195.068H60.0137L59.8828 195.836H74.863V195.068Z" fill="white" stroke="#304956" stroke-linecap="round" stroke-linejoin="round"/>
<path d="M63.6592 188.924C63.6592 188.924 65.0136 189.249 65.1626 189.304C65.3116 189.358 66.6344 191.38 67.9528 191.733C69.2711 192.085 70.5849 192.021 70.3817 192.663" stroke="#304956" stroke-linecap="round" stroke-linejoin="round"/>
<path d="M66.6544 188.924L65.1104 190.062" stroke="#304956" stroke-linecap="round" stroke-linejoin="round"/>
<path d="M67.3711 189.922L65.8857 191.01" stroke="#304956" stroke-linecap="round" stroke-linejoin="round"/>
<path d="M68.318 190.793L67.0312 192.04" stroke="#304956" stroke-linecap="round" stroke-linejoin="round"/>
<path d="M69.6223 191.425L69.0625 192.662" stroke="#304956" stroke-linecap="round" stroke-linejoin="round"/>
<path d="M35.8069 195.836C35.8069 195.836 35.2516 193.719 35.9017 192.933C37.0665 191.524 35.7572 190.342 36.9266 189.854L37.4187 190.423C37.5135 189.845 37.2381 188.089 39.4097 187.863C42.0283 187.588 42.078 189.493 42.2179 190.12L42.1773 189.244C43.2924 189.244 42.7145 190.36 44.4076 192.184C44.8521 192.675 45.1902 193.254 45.4007 193.882C45.6112 194.511 45.6897 195.176 45.6311 195.836H35.8069Z" fill="white" stroke="#304956" stroke-linecap="round" stroke-linejoin="round"/>
<path d="M26.3133 115.287C25.1079 115.978 21.9836 122.637 23.8076 135.843C25.6316 149.049 31.0809 174.806 31.9974 178.734C32.914 182.662 36.115 192.165 36.115 192.165C36.115 192.165 37.3385 188.048 43.2213 190.251C43.2715 190.269 43.3256 190.273 43.3779 190.263C43.4302 190.253 43.479 190.229 43.5194 190.195C43.5597 190.16 43.5901 190.115 43.6075 190.065C43.6249 190.014 43.6287 189.96 43.6186 189.908L42.3273 183.185C42.3273 183.185 42.237 178.269 41.8126 177.036C40.2189 172.395 39.4243 154.462 38.8961 151.956C38.3678 149.451 39.4062 142.254 39.4062 142.254C39.4062 142.254 46.7699 159.862 47.0092 161.605C47.2485 163.347 51.7362 170.535 51.7362 170.535L52.5127 177.149C52.5127 177.149 58.4858 187.389 59.5378 190.445L66.6576 188.906L66.459 183.844L64.5402 183.185L61.1902 171.677C60.1308 167.689 58.8297 163.769 57.2939 159.939C55.7092 155.934 51.217 140.435 51.217 140.435C49.8219 138.918 48.5081 130.529 48.5081 130.529L46.35 119.951L26.3133 115.287Z" fill="#249782"/>
<mask id="mask6_1_5757" style="mask-type:luminance" maskUnits="userSpaceOnUse" x="23" y="115" width="44" height="78">
<path d="M26.3123 115.287C25.1069 115.978 21.9826 122.637 23.8066 135.843C25.6306 149.049 31.08 174.806 31.9965 178.734C32.913 182.662 36.114 192.165 36.114 192.165C36.114 192.165 37.3375 188.048 43.2203 190.251C43.2705 190.269 43.3246 190.273 43.3769 190.263C43.4293 190.253 43.4781 190.229 43.5184 190.195C43.5587 190.16 43.5891 190.115 43.6065 190.065C43.6239 190.014 43.6278 189.96 43.6176 189.908L42.3264 183.185C42.3264 183.185 42.2361 178.269 41.8117 177.036C40.2179 172.395 39.4233 154.462 38.8951 151.956C38.3669 149.451 39.4053 142.254 39.4053 142.254C39.4053 142.254 46.7689 159.862 47.0082 161.605C47.2475 163.347 51.7352 170.535 51.7352 170.535L52.5118 177.149C52.5118 177.149 58.4849 187.389 59.5368 190.445L66.6567 188.906L66.458 183.844L64.5392 183.185L61.1892 171.677C60.1299 167.689 58.8287 163.769 57.2929 159.939C55.7082 155.934 51.216 140.435 51.216 140.435C49.8209 138.918 48.5071 130.529 48.5071 130.529L46.349 119.951L26.3123 115.287Z" fill="white"/>
</mask>
<g mask="url(#mask6_1_5757)">
<path opacity="0.2" d="M47.3879 125.039C43.776 126.967 35.8932 130.674 32.3174 128.362C29.3151 126.421 25.92 123.301 23.8477 121.287C24.5429 117.626 25.6897 115.653 26.3173 115.287L46.354 119.964L47.3879 125.039Z" fill="#0E7CCC"/>
<path opacity="0.2" d="M66.6592 188.924L59.5394 190.472C58.4874 187.416 52.5143 177.176 52.5143 177.176L51.7378 170.562C51.7378 170.562 47.25 163.352 47.0108 161.623C46.7715 159.893 39.4078 142.272 39.4078 142.272C39.4078 142.272 39.2317 143.505 39.0557 145.134C39.1098 144.29 39.5071 138.615 39.2769 136.868L39.4575 135.811C39.4575 135.811 44.3064 132.308 44.9565 133.644C45.6067 134.981 42.4147 136.353 42.4147 136.353C42.4147 136.353 45.3629 137.256 46.794 137.301C48.2252 137.346 46.469 140.854 45.7963 141.252C45.1236 141.649 42.523 141.252 42.523 141.252C42.523 141.252 48.1033 155.035 53.2818 159.83C54.7431 161.18 56.4832 162.193 58.379 162.796C60.2798 168.002 61.1918 171.695 61.1918 171.695L64.5418 183.203L66.4606 183.862L66.6592 188.924Z" fill="#0E7CCC"/>
</g>
<path d="M26.3133 115.287C25.1079 115.978 21.9836 122.637 23.8076 135.843C25.6316 149.049 31.0809 174.806 31.9974 178.734C32.914 182.662 36.115 192.165 36.115 192.165C36.115 192.165 37.3385 188.048 43.2213 190.251C43.2715 190.269 43.3256 190.273 43.3779 190.263C43.4302 190.253 43.479 190.229 43.5194 190.195C43.5597 190.16 43.5901 190.115 43.6075 190.065C43.6249 190.014 43.6287 189.96 43.6186 189.908L42.3273 183.185C42.3273 183.185 42.237 178.269 41.8126 177.036C40.2189 172.395 39.4243 154.462 38.8961 151.956C38.3678 149.451 39.4063 142.254 39.4063 142.254C39.4063 142.254 46.7699 159.862 47.0092 161.605C47.2485 163.347 51.7362 170.535 51.7362 170.535L52.5127 177.149C52.5127 177.149 58.4858 187.389 59.5378 190.445L66.6576 188.906L66.459 183.844L64.5402 183.185L61.1902 171.677C60.1308 167.689 58.8297 163.769 57.2939 159.939C55.7092 155.934 51.217 140.435 51.217 140.435C49.8219 138.918 48.5081 130.529 48.5081 130.529L46.35 119.951L26.3133 115.287Z" stroke="#304956" stroke-linecap="round" stroke-linejoin="round"/>
<path d="M55.5891 106.099C53.1285 110.975 49.2684 117.07 49.2684 117.07L47.5663 123.865C47.5663 123.865 41.1733 127.811 33.8413 126.159C25.2631 124.217 23.8545 119.838 23.8545 119.838L26.1661 112.185C27.2812 107.075 29.7057 97.3181 34.7442 94.5776C39.7827 91.8371 48.4196 91.5843 51.9005 92.6995C55.0022 93.6972 56.7178 94.4512 57.5666 95.3722C57.5666 95.3722 58.8217 99.6793 58.5463 101.111C58.2709 102.542 55.5891 106.099 55.5891 106.099Z" fill="#304956"/>
<path d="M45.6404 195.068H35.5859L35.8072 195.836H45.6314L45.6404 195.068Z" fill="white" stroke="#304956" stroke-linecap="round" stroke-linejoin="round"/>
<path d="M42.4091 192.093C42.4091 192.093 39.1133 191.005 37.5195 192.369" stroke="#304956" stroke-linecap="round" stroke-linejoin="round"/>
<path d="M42.4091 191.375C42.4091 191.375 39.5106 190.472 37.5195 191.682" stroke="#304956" stroke-linecap="round" stroke-linejoin="round"/>
<path d="M42.242 190.662C42.242 190.662 39.5331 189.633 37.5195 191.041" stroke="#304956" stroke-linecap="round" stroke-linejoin="round"/>
<g opacity="0.96">
<path d="M41.8122 134.904C41.4194 134.995 33.83 137.762 32.3311 140.53" stroke="#304956" stroke-linecap="round" stroke-linejoin="round"/>
<path d="M39.9678 138.923C40.347 139.46 43.5796 149.551 44.9341 152.318C46.2885 155.086 50.9613 167.502 52.0313 168.215C52.0313 168.215 53.4625 175.439 54.352 176.608C55.2414 177.777 59.8645 187.019 59.8645 187.019" stroke="#304956" stroke-linecap="round" stroke-linejoin="round"/>
<path d="M65.0628 187.019L59.46 188.22" stroke="#304956" stroke-linecap="round" stroke-linejoin="round"/>
<path d="M42.2479 187.619C42.2479 187.619 37.7601 187.217 36.2432 188.924" stroke="#304956" stroke-linecap="round" stroke-linejoin="round"/>
<path d="M37.0745 140.083C36.6997 142.228 31.0743 154.106 29.7334 152.765" stroke="#304956" stroke-linecap="round" stroke-linejoin="round"/>
<path d="M39.2451 141.158C39.2451 141.158 39.9043 138.209 39.2767 136.868C39.042 136.358 44.103 138.119 45.7961 137.717" stroke="#304956" stroke-linecap="round" stroke-linejoin="round"/>
<path d="M39.9714 126.561C39.9714 126.561 39.0684 129.098 38.8698 129.902C38.6711 130.706 40.4816 133.834 39.9714 134.457" stroke="#304956" stroke-linecap="round" stroke-linejoin="round"/>
<path d="M27.6679 124.187C27.6679 124.187 26.4173 126.101 26.4173 127.514C26.4173 128.927 24.7197 129.546 24.7197 129.546" stroke="#304956" stroke-linecap="round" stroke-linejoin="round"/>
<path d="M25.0029 122.096C24.0639 126.305 23.9672 130.658 24.7184 134.904C25.969 141.961 28.0233 156.336 28.8269 159.998C29.6306 163.659 31.5087 171.876 31.5087 173.036C31.5087 174.197 33.3914 180.806 33.3914 180.806" stroke="#304956" stroke-linecap="round" stroke-linejoin="round"/>
<path d="M32.9365 170.806C33.2029 170.806 38.2053 175.627 39.4559 175.718" stroke="#304956" stroke-linecap="round" stroke-linejoin="round"/>
<path d="M54.8174 167.858C55.0883 167.949 59.2825 170.003 59.4631 169.375" stroke="#304956" stroke-linecap="round" stroke-linejoin="round"/>
</g>
<path d="M49.6474 91.851C49.6474 91.851 44.5456 92.3612 44.365 95.1965C44.1845 98.0318 46.5683 101.242 50.5594 101.422C54.5505 101.603 55.0381 97.6886 55.178 95.5531C55.318 93.4176 52.424 91.6839 49.6474 91.851Z" fill="white" stroke="#304956" stroke-linecap="round" stroke-linejoin="round"/>
<path d="M48.0206 93.5762C47.1973 91.2696 47.0686 88.7721 47.6504 86.3931C48.3593 83.4178 51.9034 79.3274 57.276 83.0476C60.0481 84.9664 60.2151 89.1246 59.3528 92.9351C59.1496 93.838 59.3032 94.741 59.0007 95.5672C57.9397 98.5018 55.9938 100.759 54.9373 100.809C53.163 100.895 49.6189 98.7501 49.7634 96.881" fill="white"/>
<path d="M48.0206 93.5762C47.1973 91.2696 47.0686 88.7721 47.6504 86.3931C48.3593 83.4178 51.9034 79.3274 57.276 83.0476C60.0481 84.9664 60.2151 89.1246 59.3528 92.9351C59.1496 93.838 59.3032 94.741 59.0007 95.5672C57.9397 98.5018 55.9938 100.759 54.9373 100.809C53.163 100.895 49.6189 98.7501 49.7634 96.881" stroke="#304956" stroke-linecap="round" stroke-linejoin="round"/>
<path d="M55.1783 91.6797C54.7104 91.545 54.2198 91.5076 53.7368 91.5697C53.2539 91.6318 52.7888 91.7921 52.3701 92.0408" stroke="#304956" stroke-linecap="round" stroke-linejoin="round"/>
<path d="M57.8838 91.5983C57.8838 91.5983 58.9673 91.0565 59.6897 91.1964" stroke="#304956" stroke-linecap="round" stroke-linejoin="round"/>
<path d="M53.4552 94.298C53.6198 94.298 53.7532 94.0837 53.7532 93.8194C53.7532 93.5551 53.6198 93.3408 53.4552 93.3408C53.2906 93.3408 53.1572 93.5551 53.1572 93.8194C53.1572 94.0837 53.2906 94.298 53.4552 94.298Z" fill="#304956"/>
<path d="M57.8829 94.0318C58.0475 94.0318 58.1809 93.8176 58.1809 93.5533C58.1809 93.289 58.0475 93.0747 57.8829 93.0747C57.7184 93.0747 57.585 93.289 57.585 93.5533C57.585 93.8176 57.7184 94.0318 57.8829 94.0318Z" fill="#304956"/>
<path d="M51.7355 88.0364L51.591 90.2306C51.591 90.2306 50.0379 91.0297 49.6496 91.8514C49.4153 92.3861 49.3295 92.9742 49.4013 93.5535C49.4013 93.5535 48.4577 91.9056 47.9521 92.0411C47.7669 92.0862 47.7669 92.777 47.7669 92.777C47.7669 92.777 45.654 88.0364 47.5638 85.5307C49.4735 83.025 51.7355 88.0364 51.7355 88.0364Z" fill="#304956"/>
<path d="M48.7374 93.0743C48.7374 93.0743 48.313 91.4851 46.8818 91.0607C45.4506 90.6363 46.4303 94.4513 47.6493 94.957C48.8683 95.4627 49.1753 95.8058 49.2475 95.3543" fill="white"/>
<path d="M48.7374 93.0743C48.7374 93.0743 48.313 91.4851 46.8818 91.0607C45.4506 90.6363 46.4303 94.4513 47.6493 94.957C48.8683 95.4627 49.1753 95.8058 49.2475 95.3543" stroke="#304956" stroke-linecap="round" stroke-linejoin="round"/>
<path d="M56.8429 93.8193C56.778 94.352 56.8941 94.8911 57.1725 95.3499C57.2678 95.486 57.3174 95.6489 57.3143 95.8151C57.3111 95.9812 57.2554 96.1421 57.155 96.2746C57.0547 96.4071 56.9149 96.5043 56.7558 96.5523C56.5966 96.6003 56.4264 96.5966 56.2695 96.5418" stroke="#304956" stroke-linecap="round" stroke-linejoin="round"/>
<path d="M56.2776 97.8784C55.4582 98.0974 54.5957 98.0974 53.7764 97.8784" stroke="#304956" stroke-linecap="round" stroke-linejoin="round"/>
<path d="M51.7376 88.0364C51.7376 88.0364 55.3855 88.9168 57.6068 88.6233C59.8281 88.3299 61.2187 87.3095 60.88 84.9754C60.5414 82.6412 57.9048 81.5622 53.5751 80.8217C49.3176 80.0949 44.857 83.2823 46.8841 87.1741C48.9113 91.0658 51.7376 88.0364 51.7376 88.0364Z" fill="#304956"/>
<path d="M56.5725 122.705C56.695 122.948 56.7599 123.215 56.7622 123.486C56.8073 124.046 54.7982 124.714 54.4416 124.493C54.0849 124.272 53.2406 123.139 54.2203 122.484C55.2 121.829 56.5725 122.705 56.5725 122.705Z" fill="white" stroke="#304956" stroke-linecap="round" stroke-linejoin="round"/>
<path d="M61.8555 122.096C61.9434 122.719 62.1165 123.326 62.3702 123.902C62.6817 124.416 64.6276 123.902 65.1603 124.177C65.6931 124.453 65.7382 123.509 65.1603 123.035C64.5824 122.561 63.842 121.509 61.8555 122.096Z" fill="white" stroke="#304956" stroke-linecap="round" stroke-linejoin="round"/>
<path d="M60.6334 121.815H58.3398V158.047H60.6334V121.815Z" fill="white" stroke="#304956" stroke-linecap="round" stroke-linejoin="round"/>
<path d="M57.584 148.033H61.3855C61.6058 148.033 61.8171 148.121 61.9729 148.277C62.1287 148.432 62.2162 148.644 62.2162 148.864V195.818H56.7578V148.864C56.7578 148.644 56.8447 148.434 56.9995 148.278C57.1543 148.122 57.3645 148.034 57.584 148.033Z" fill="#000612" stroke="#304956" stroke-linecap="round" stroke-linejoin="round"/>
<path d="M66.1305 119.319H52.848C52.5726 119.319 52.3084 119.428 52.1137 119.623C51.919 119.818 51.8096 120.082 51.8096 120.357V121.057C51.8096 121.332 51.919 121.597 52.1137 121.791C52.3084 121.986 52.5726 122.095 52.848 122.095H57.7511V124.186H61.232V122.095H66.1305C66.2669 122.095 66.4019 122.069 66.5279 122.016C66.6539 121.964 66.7684 121.888 66.8648 121.791C66.9612 121.695 67.0377 121.58 67.0899 121.454C67.1421 121.328 67.1689 121.193 67.1689 121.057V120.357C67.1689 120.221 67.1421 120.086 67.0899 119.96C67.0377 119.834 66.9612 119.719 66.8648 119.623C66.7684 119.527 66.6539 119.45 66.5279 119.398C66.4019 119.346 66.2669 119.319 66.1305 119.319Z" fill="#249782" stroke="#304956" stroke-linecap="round" stroke-linejoin="round"/>
<path d="M47.29 118.181C47.29 118.181 54.3286 117.229 55.0239 117.111C55.7192 116.994 57.8818 120.682 57.8818 120.682L56.2745 123.156C56.2745 123.156 50.1344 124.014 49.7687 123.658C49.5315 123.382 49.3588 123.056 49.263 122.705C49.263 122.705 46.1027 123.897 45.8092 121.752C45.5157 119.608 45.29 119.292 47.29 118.181Z" fill="white" stroke="#304956" stroke-linecap="round" stroke-linejoin="round"/>
<path d="M61.6143 119.319C61.6143 119.319 62.6888 117.41 63.7588 117.41C64.8288 117.41 68.9373 118.123 69.4158 118.719C69.8944 119.315 71.0231 120.268 70.8425 121.04C70.6619 121.812 69.5332 123.428 68.4632 123.157C67.3932 122.886 64.6527 123.189 64.6527 123.189C64.6527 123.189 63.1628 122.913 63.0455 122.096L64.296 121.753C64.296 121.753 64.4721 120.028 64.2328 119.789C63.9936 119.55 61.6143 119.319 61.6143 119.319Z" fill="white" stroke="#304956" stroke-linecap="round" stroke-linejoin="round"/>
<path d="M65.4492 123.117C65.4492 123.117 66.754 121.694 66.6547 121.157C66.5553 120.62 66.3612 118.954 66.0407 118.778" stroke="#304956" stroke-linecap="round" stroke-linejoin="round"/>
<path d="M67.2588 123.044C67.2588 123.044 68.225 122.647 68.225 121.753C68.1994 121.034 68.1179 120.319 67.9812 119.613" stroke="#304956" stroke-linecap="round" stroke-linejoin="round"/>
<path d="M68.9844 123.147C69.3156 122.789 69.5331 122.34 69.6094 121.858C69.6858 121.376 69.6175 120.882 69.4133 120.438" stroke="#304956" stroke-linecap="round" stroke-linejoin="round"/>
<path d="M55.1367 123.202C55.1367 123.202 56.2564 121.699 56.0758 120.945C55.828 120.196 55.5137 119.471 55.1367 118.778" stroke="#304956" stroke-linecap="round" stroke-linejoin="round"/>
<path d="M53.6424 123.487C53.6424 123.487 54.2655 121.681 54.2203 121.328C54.1752 120.976 53.3174 119.225 53.2812 119.044" stroke="#304956" stroke-linecap="round" stroke-linejoin="round"/>
<path d="M51.8073 123.654C52.2091 122.999 53.1618 122.751 52.4304 121.31C51.699 119.87 51.3604 119.595 51.3604 119.595" stroke="#304956" stroke-linecap="round" stroke-linejoin="round"/>
<path d="M49.2646 122.705C49.5897 122.394 50.2173 121.64 50.2173 121.64C50.2173 121.64 50.3482 122.258 50.6191 122.439" stroke="#304956" stroke-linecap="round" stroke-linejoin="round"/>
<path d="M52.3372 194.875H66.8749C67.0701 194.875 67.2572 194.952 67.3953 195.09C67.5333 195.228 67.6108 195.415 67.6108 195.61V196.021H51.7774V195.439C51.7768 195.365 51.7908 195.292 51.8187 195.223C51.8465 195.155 51.8877 195.093 51.9397 195.04C51.9918 194.988 52.0537 194.946 52.1219 194.918C52.1901 194.889 52.2633 194.875 52.3372 194.875Z" fill="#304956"/>
<path d="M30.3722 101.833C28.5663 106.308 26.4669 111.54 26.1644 116.407C26.0515 118.213 27.7897 118.85 29.257 119.513C32.1385 120.806 35.1593 121.762 38.2596 122.362C39.3476 122.575 40.517 122.566 41.5554 122.814C42.7337 123.107 44.3907 124.141 45.6187 123.473" stroke="white" stroke-linecap="round" stroke-linejoin="round"/>
<path d="M38.8519 104.24L36.4906 109.319L34.9736 112.366C35.5392 112.938 36.2708 113.315 37.064 113.445C37.4287 113.495 37.7785 113.623 38.09 113.819C38.4015 114.015 38.6674 114.276 38.8699 114.583C38.8699 114.583 44.8159 117.152 45.6196 117.125C46.4232 117.098 47.0733 116.326 47.7325 117.427" stroke="white" stroke-linecap="round" stroke-linejoin="round"/>
<path d="M34.9735 112.366C34.9735 112.366 31.7589 111.292 30.5986 112.366" stroke="white" stroke-linecap="round" stroke-linejoin="round"/>
<path d="M35.5078 96.5642C35.7742 96.352 39.0429 99.9232 39.2416 102.605" stroke="white" stroke-linecap="round" stroke-linejoin="round"/>
<path d="M40.0587 104.24C40.0587 104.24 39.1828 106.046 37.7471 106.61" stroke="white" stroke-linecap="round" stroke-linejoin="round"/>
<path d="M58.1868 104.579C58.1868 104.579 56.3808 107.676 54.5117 108.19" stroke="white" stroke-linecap="round" stroke-linejoin="round"/>
<path d="M58.6133 115.287C58.6133 115.287 61.1371 113.346 62.8301 113.427" stroke="white" stroke-linecap="round" stroke-linejoin="round"/>
<path d="M57.8877 107.4C57.8877 107.4 56.3211 108.682 55.1562 108.204" stroke="white" stroke-linecap="round" stroke-linejoin="round"/>
<path d="M60.6709 192.671C73.353 192.671 71.3033 195.832 84.2337 195.832C97.1641 195.832 105.002 196.021 105.002 128.299" stroke="#304956" stroke-width="3" stroke-linecap="round" stroke-linejoin="round"/>
</svg>
