<svg width="71" height="80" viewBox="0 0 71 80" fill="none" xmlns="http://www.w3.org/2000/svg">
<g clip-path="url(#clip0_3363_95)">
<path d="M39.2018 -9.79104e-05C39.3297 0.00221073 39.4566 0.0225502 39.5789 0.0603189C42.4789 0.822819 44.1997 3.16657 44.2039 6.19157C44.2136 14.5471 44.2136 22.9041 44.2039 31.2624V32.3937C44.7268 32.2999 45.2101 32.3312 45.5435 32.1228C46.0518 31.8062 46.3414 31.3562 46.0955 30.6187C45.6789 29.3895 45.4476 28.1041 45.108 26.8499C44.9185 26.1499 45.1247 25.7041 45.7976 25.4249C46.8546 24.9874 47.9011 24.5312 48.9372 24.0562C49.5622 23.7645 50.0268 23.9353 50.408 24.4874C51.306 25.7916 52.2143 27.0874 53.056 28.2978C54.206 28.6166 54.781 28.1249 55.2289 27.2228C55.7247 26.2249 56.3601 25.2957 56.9122 24.3228C57.2622 23.6978 57.7185 23.4895 58.3976 23.7687C59.4539 24.1999 60.5185 24.6145 61.581 25.0187C62.2435 25.277 62.4705 25.7124 62.3268 26.4291C62.0289 27.9332 61.7914 29.4478 61.5122 31.0457L62.6018 32.0103C64.0039 31.6562 65.5185 31.3041 67.008 30.8853C67.7893 30.6645 68.2414 30.8999 68.5393 31.6291C68.956 32.6395 69.3726 33.6437 69.8455 34.6312C70.1685 35.3291 69.9851 35.8124 69.3747 36.227C68.0914 37.1062 66.8226 38.0082 65.5893 38.8707V40.3124C66.881 41.0812 68.1747 41.8457 69.4643 42.6187C70.356 43.152 70.4455 43.4249 70.0643 44.4082C69.6997 45.352 69.2976 46.2832 68.9643 47.2395C68.6893 48.0291 68.1872 48.2687 67.3997 48.1145C66.0997 47.8603 64.7955 47.6416 63.4935 47.4041C63.289 47.3663 63.0784 47.3801 62.8806 47.4442C62.6828 47.5083 62.5042 47.6208 62.3608 47.7714C62.2175 47.922 62.1139 48.1059 62.0596 48.3066C62.0053 48.5073 62.0019 48.7184 62.0497 48.9207C62.3747 50.2041 62.7164 51.4853 63.0372 52.7707C63.2664 53.6853 63.1164 53.9832 62.2643 54.3603C61.3143 54.777 60.3622 55.1937 59.408 55.6103C58.5018 55.9978 58.2351 55.9187 57.6476 55.0812C57.0372 54.2103 56.3726 53.3666 55.8393 52.4478C55.333 51.5749 54.7226 51.1207 53.5705 51.5103C52.8768 52.6812 52.1122 53.9749 51.3455 55.2603C50.8101 56.1603 50.5226 56.2624 49.5705 55.8853C48.556 55.4874 47.5455 55.0791 46.531 54.6812C45.9351 54.4457 45.6976 54.0395 45.8247 53.3916C46.1164 51.8353 46.381 50.2666 46.658 48.7374C45.6164 47.5853 45.6164 47.5853 44.2101 48.1374V49.0207C44.2101 56.9374 44.1101 64.8541 44.2539 72.7707C44.3247 76.6791 42.4601 79.2812 39.0455 80.002H5.04971C5.01221 79.9687 4.97888 79.9187 4.93304 79.9062C1.51429 78.9145 0.012212 76.9249 0.00804532 73.3728C0.00804532 70.9284 0.00804532 68.4839 0.00804532 66.0395C0.00804532 48.6784 0.00804532 31.3173 0.00804532 13.9562C0.00804532 11.227 -0.0273767 8.49365 0.0351233 5.76449C0.0872067 3.52907 1.19346 1.86032 3.11846 0.764485C3.71401 0.401717 4.36607 0.141175 5.04763 -0.00634766L39.2018 -9.79104e-05ZM41.4497 65.8041V13.7791H2.9643V65.8041H41.4497ZM41.083 10.1624C41.083 8.16449 41.108 7.88324 41.083 5.9374C41.0455 3.66865 39.2685 2.72074 36.9851 2.71657C26.2268 2.70199 17.9685 2.6999 7.21012 2.71657C4.99554 2.71657 3.23304 3.60199 3.16221 5.81449C3.09971 7.7124 3.14555 7.94782 3.14555 9.8499C3.16073 9.9555 3.18583 10.0594 3.22054 10.1603L41.083 10.1624ZM41.4789 68.602H2.92263C2.92263 70.3874 2.92263 70.4603 2.92263 72.1978C2.92263 75.2457 4.55179 76.8749 7.58721 76.8749H36.8185C37.0768 76.8749 37.3372 76.8749 37.5976 76.8749C39.583 76.7666 41.3476 75.1937 41.456 73.2395C41.5622 71.1582 41.4789 70.7416 41.4789 68.5937V68.602ZM44.256 34.0791V46.2062C45.7768 45.2874 46.8247 45.9228 47.7101 47.0895C47.7423 47.1311 47.7819 47.1664 47.8268 47.1937C48.608 47.6541 48.6747 48.3312 48.5018 49.1499C48.2247 50.4666 48.0205 51.7978 47.7789 53.1624L49.9164 53.9957C50.4851 53.0395 51.083 52.2062 51.4976 51.2874C52.1018 49.9582 52.931 49.1666 54.4851 49.5041C54.6141 49.5277 54.7469 49.5206 54.8726 49.4832C55.6789 49.2749 56.1851 49.6145 56.6205 50.2832C57.381 51.4541 58.206 52.5749 59.008 53.7353L61.108 52.8041C60.8164 51.6603 60.6164 50.5541 60.2476 49.5082C59.831 48.2916 59.8601 47.2957 61.0289 46.5291C61.2533 46.35 61.4469 46.1354 61.6018 45.8937C61.747 45.6779 61.9571 45.514 62.2017 45.4256C62.4463 45.3372 62.7126 45.3289 62.9622 45.402C64.406 45.6916 65.8643 45.9166 67.358 46.1749L68.1914 44.0395C67.3226 43.5249 66.581 42.9728 65.756 42.6145C64.2018 41.9395 63.3143 40.9478 63.6872 39.1499C63.6923 39.1238 63.6923 39.0969 63.6872 39.0707C63.4955 38.2374 63.8747 37.7228 64.5685 37.2791C65.7185 36.5416 66.8143 35.7207 67.9372 34.9332L67.0122 32.8291C65.8789 33.1187 64.7789 33.3291 63.7289 33.6874C62.5289 34.1041 61.5122 34.1041 60.7601 32.9145C60.6577 32.7613 60.5207 32.6342 60.3601 32.5437C59.5685 32.0853 59.506 31.4062 59.6747 30.5895C59.9476 29.2707 60.1601 27.9416 60.406 26.5728L58.2622 25.7395C57.606 26.8499 56.9268 27.8707 56.3872 28.9582C55.8955 29.9416 55.258 30.4666 54.1205 30.2291C53.8624 30.1874 53.5984 30.2002 53.3455 30.2666C52.5122 30.4582 51.9872 30.0978 51.5414 29.4041C50.7997 28.252 49.9872 27.1478 49.1872 25.9978L47.0726 26.927C47.3997 28.2187 47.6518 29.4666 48.0455 30.677C48.3643 31.652 48.1476 32.2895 47.4018 33.0041C46.4976 33.8562 45.783 34.902 44.256 34.0791Z" fill="#28552F"/>
<path d="M22.0466 45.9083H35.9945C36.2799 45.9083 36.6195 45.8354 36.8278 45.9604C37.109 46.1188 37.4632 46.4334 37.4799 46.7021C37.5007 47.0104 37.2486 47.4063 36.9986 47.6396C36.8299 47.7979 36.4591 47.7771 36.1799 47.7771C26.8049 47.7771 17.4299 47.7771 8.05488 47.7771C7.84655 47.7771 7.57155 47.8417 7.44863 47.7354C7.14238 47.4709 6.7403 47.15 6.68613 46.8042C6.60697 46.3042 6.9903 45.9375 7.54864 45.9146C8.10697 45.8917 8.6903 45.9042 9.26321 45.9042L22.0466 45.9083Z" fill="#28552F"/>
<path d="M33.6346 27.5521C32.4659 27.5521 31.2992 27.5667 30.1305 27.5521C29.2971 27.5396 28.9971 27.2542 28.993 26.4167C28.9763 24.0778 28.9763 21.7382 28.993 19.3979C28.993 18.5813 29.3221 18.2834 30.1513 18.2792C32.4596 18.2709 34.7687 18.2709 37.0784 18.2792C37.9367 18.2792 38.2555 18.6 38.2596 19.4542C38.2707 21.7681 38.2707 24.082 38.2596 26.3959C38.2596 27.2146 37.9471 27.5375 37.1367 27.5521C35.9701 27.5521 34.8013 27.5521 33.6346 27.5521ZM35.6305 24.9229V20.8854H31.6284V24.9125L35.6305 24.9229Z" fill="#28552F"/>
<path d="M22.119 27.5521C20.9523 27.5521 19.7836 27.5667 18.6169 27.5521C17.7836 27.5396 17.4836 27.2542 17.4773 26.4167C17.4607 24.0778 17.4607 21.7382 17.4773 19.3979C17.4773 18.5813 17.8065 18.2834 18.6357 18.2792C20.9454 18.2709 23.2551 18.2709 25.5648 18.2792C26.4211 18.2792 26.7419 18.6 26.744 19.4542C26.7551 21.7681 26.7551 24.082 26.744 26.3959C26.744 27.2146 26.4315 27.5375 25.6211 27.5521C24.4544 27.5521 23.2857 27.5521 22.119 27.5521ZM24.1148 24.9229V20.8854H20.1232V24.9125L24.1148 24.9229Z" fill="#28552F"/>
<path d="M10.6023 27.5521C9.43568 27.5521 8.26693 27.5667 7.10026 27.5521C6.26693 27.5396 5.96693 27.2542 5.96068 26.4167C5.9454 24.0778 5.9454 21.7382 5.96068 19.3979C5.96068 18.5813 6.28985 18.2834 7.11693 18.2792C9.42804 18.2709 11.7378 18.2709 14.0461 18.2792C14.9023 18.2792 15.2232 18.6 15.2273 19.4542C15.2357 21.7681 15.2357 24.082 15.2273 26.3959C15.2273 27.2146 14.9128 27.5375 14.1044 27.5521C12.9378 27.5521 11.7711 27.5521 10.6023 27.5521ZM12.5982 24.9229V20.8854H8.5961V24.9125L12.5982 24.9229Z" fill="#28552F"/>
<path d="M33.6405 61.6541C32.4738 61.6541 31.3051 61.6666 30.1384 61.6541C29.3051 61.6416 29.0051 61.3583 28.9988 60.5187C28.9822 58.1798 28.9822 55.8402 28.9988 53.4999C28.9988 52.6833 29.3301 52.3854 30.1572 52.3833C32.4683 52.3735 34.778 52.3735 37.0863 52.3833C37.9426 52.3833 38.2634 52.7041 38.2655 53.5583C38.2752 55.8722 38.2752 58.186 38.2655 60.4999C38.2655 61.3208 37.953 61.6416 37.1426 61.6562C35.9759 61.6687 34.8092 61.652 33.6405 61.6541ZM35.6363 59.0229V54.9958H31.6342V59.0229H35.6363Z" fill="#28552F"/>
<path d="M22.1228 61.6541C20.9561 61.6541 19.7874 61.6666 18.6207 61.6541C17.7874 61.6416 17.4874 61.3583 17.4811 60.5187C17.4672 58.1798 17.4672 55.8402 17.4811 53.4999C17.4811 52.6833 17.8103 52.3854 18.6374 52.3833C20.9485 52.3735 23.2582 52.3735 25.5665 52.3833C26.4228 52.3833 26.7436 52.7041 26.7478 53.5583C26.7561 55.8722 26.7561 58.186 26.7478 60.4999C26.7478 61.3208 26.4332 61.6416 25.6249 61.6562C24.4582 61.6687 23.2915 61.652 22.1228 61.6541ZM24.1186 59.0229V54.9958H20.1228V59.0229H24.1186Z" fill="#28552F"/>
<path d="M10.6092 61.6541C9.44049 61.6541 8.27383 61.6666 7.10508 61.6541C6.27175 61.6416 5.97174 61.3583 5.96549 60.5187C5.95161 58.1798 5.95161 55.8402 5.96549 53.4999C5.96549 52.6833 6.29466 52.3854 7.12383 52.3833C9.43216 52.3735 11.7412 52.3735 14.0509 52.3833C14.9092 52.3833 15.228 52.7041 15.2322 53.5583C15.2433 55.8722 15.2433 58.186 15.2322 60.4999C15.2322 61.3208 14.9197 61.6416 14.1092 61.6562C12.9447 61.6687 11.7759 61.652 10.6092 61.6541ZM12.6051 59.0229V54.9958H8.60091V59.0229H12.6051Z" fill="#28552F"/>
<path d="M22.119 38.8561C20.9523 38.8561 19.7836 38.8707 18.6169 38.8561C17.7836 38.8416 17.4836 38.5582 17.4773 37.7207C17.4607 35.3791 17.4607 33.0388 17.4773 30.6999C17.4773 29.8832 17.8065 29.5853 18.6357 29.5832C20.9454 29.5735 23.2551 29.5735 25.5648 29.5832C26.4211 29.5832 26.7419 29.9041 26.744 30.7582C26.7551 33.0707 26.7551 35.3846 26.744 37.6999C26.744 38.5186 26.4315 38.8395 25.6211 38.8541C24.4544 38.8707 23.2857 38.8561 22.119 38.8561ZM24.1148 36.2249V32.1978H20.1232V36.2249H24.1148Z" fill="#28552F"/>
<path d="M10.6023 38.8561C9.43568 38.8561 8.26693 38.8707 7.10026 38.8561C6.26693 38.8416 5.96693 38.5582 5.96068 37.7207C5.9454 35.3791 5.9454 33.0388 5.96068 30.6999C5.96068 29.8832 6.28985 29.5853 7.11693 29.5832C9.42804 29.5735 11.7378 29.5735 14.0461 29.5832C14.9023 29.5832 15.2232 29.9041 15.2273 30.7582C15.2357 33.0707 15.2357 35.3846 15.2273 37.6999C15.2273 38.5186 14.9128 38.8395 14.1044 38.8541C12.9378 38.8707 11.7711 38.8561 10.6023 38.8561ZM12.5982 36.2249V32.1978H8.5961V36.2249H12.5982Z" fill="#28552F"/>
<path d="M22.0684 7.80625C20.7954 7.80625 19.5246 7.80625 18.2538 7.80625C17.4913 7.80625 17.0684 7.45208 17.0684 6.86875C17.0684 6.28542 17.485 5.93958 18.2538 5.9375C20.8232 5.9375 23.3927 5.9375 25.9621 5.9375C26.7163 5.9375 27.1538 6.29375 27.1538 6.86875C27.1538 7.44375 26.7079 7.80417 25.9621 7.80833C24.6642 7.8125 23.3663 7.80625 22.0684 7.80625Z" fill="#28552F"/>
<path d="M22.1237 74.0687C20.8257 74.0687 19.5278 74.0687 18.2299 74.0687C17.4799 74.0687 17.0278 73.6958 17.0757 73.1146C17.1299 72.4437 17.5674 72.1958 18.1987 72.1958C20.7945 72.1958 23.3903 72.1958 25.9862 72.1958C26.7216 72.1958 27.2007 72.5875 27.1445 73.1562C27.0757 73.8666 26.5987 74.0812 25.9382 74.0729C24.6674 74.0562 23.3966 74.0687 22.1237 74.0687Z" fill="#28552F"/>
<path d="M54.0488 46.773C52.2198 46.762 50.4697 46.0269 49.1813 44.7288C47.8928 43.4306 47.171 41.6749 47.1738 39.8459C47.1784 38.9349 47.3632 38.0337 47.7173 37.1944C48.0715 36.355 48.5882 35.5939 49.2376 34.955C49.887 34.316 50.6563 33.8118 51.5013 33.4713C52.3464 33.1308 53.2504 32.9607 54.1613 32.9709C55.9747 32.9987 57.7049 33.736 58.9808 35.0248C60.2567 36.3136 60.9767 38.0511 60.9863 39.8646C60.9886 40.7749 60.8104 41.6767 60.4622 42.5177C60.114 43.3588 59.6026 44.1225 58.9576 44.7649C58.3125 45.4072 57.5466 45.9154 56.7041 46.26C55.8616 46.6047 54.9591 46.779 54.0488 46.773ZM54.0884 43.7521C55.1142 43.756 56.0997 43.3533 56.8291 42.632C57.5585 41.9108 57.9724 40.93 57.9801 39.9042C57.9826 39.3914 57.8839 38.8832 57.6898 38.4086C57.4958 37.9339 57.21 37.5022 56.849 37.1381C56.488 36.7739 56.0587 36.4845 55.5857 36.2864C55.1127 36.0883 54.6054 35.9853 54.0926 35.9834C53.0658 35.9839 52.0808 36.3897 51.3516 37.1126C50.6225 37.8355 50.2082 38.8171 50.1988 39.8438C50.1958 40.3558 50.294 40.8633 50.4878 41.3372C50.6816 41.8112 50.9671 42.2421 51.328 42.6053C51.6889 42.9685 52.118 43.2568 52.5906 43.4536C53.0633 43.6504 53.5702 43.7519 54.0822 43.7521H54.0884Z" fill="#28552F"/>
</g>
<defs>
<clipPath id="clip0_3363_95">
<rect width="70.2833" height="80" fill="white"/>
</clipPath>
</defs>
</svg>
