<svg width="79" height="80" viewBox="0 0 79 80" fill="none" xmlns="http://www.w3.org/2000/svg">
<g clip-path="url(#clip0_3363_113)">
<path d="M72.9588 80.011C72.6271 79.7238 72.2731 79.4567 71.9636 79.1472C68.2012 75.3966 64.4432 71.6416 60.6896 67.8821C60.5071 67.6996 60.3601 67.4814 60.1753 67.2543C54.85 70.7385 49.2153 71.6935 43.271 69.6342C37.3268 67.5749 33.4508 63.3761 31.4471 57.3472H13.4141V54.7046H30.7481C30.7481 53.3332 30.6212 52.0331 30.7815 50.7663C30.9907 49.0988 31.4315 47.4625 31.7655 45.8128C31.8945 45.3418 31.9773 44.8594 32.0126 44.3723C32.0326 40.129 32.0126 35.8857 32.0126 31.6401V30.7206H34.6619V40.2225C35.519 39.4233 36.3673 38.6641 37.162 37.8582C37.3223 37.6957 37.3312 37.335 37.3335 37.0656C37.3446 34.3584 37.3335 31.649 37.3335 28.9418V28.0513H39.9605V35.8322L42.6632 34.5632V29.4027H45.317V33.744L47.9886 33.3677V24.0662H50.6601V33.3521L53.3517 33.7417V21.4036H56.0233V34.5388L58.6949 35.8055V26.7445H61.3842V27.606C61.3842 30.7563 61.3842 33.9065 61.3842 37.0589C61.3653 37.2755 61.4018 37.4933 61.4902 37.692C61.5786 37.8906 61.716 38.0634 61.8896 38.1943C62.6554 38.8066 63.3857 39.4678 64.0402 40.031V32.0676H66.7118V32.9225C66.7118 36.774 66.7118 40.627 66.7118 44.4814C66.6943 44.7914 66.732 45.1019 66.8231 45.3987C67.9188 48.283 68.2718 51.3966 67.8494 54.453C67.8494 54.4998 67.8784 54.5488 67.9117 54.6601H69.3188V57.3317H67.3329L65.7322 61.1164C65.8858 61.2789 66.0728 61.4882 66.271 61.6863C70.1522 65.5675 74.0363 69.4494 77.9234 73.3321C78.9653 74.374 78.9631 74.9595 77.9101 76.0148C76.857 77.0701 75.8174 78.1209 74.7576 79.1606C74.4437 79.4656 74.0897 79.7216 73.7402 79.9999L72.9588 80.011ZM65.3493 51.9908C65.3487 47.7483 63.6633 43.6798 60.6636 40.6797C57.664 37.6797 53.5957 35.9937 49.3533 35.9925C45.1105 35.9973 41.0432 37.6869 38.046 40.69C35.0488 43.693 33.3671 47.7635 33.3706 52.0063C33.3698 54.1068 33.7831 56.1868 34.587 58.1273C35.3908 60.0678 36.5694 61.8307 38.0554 63.3152C39.5414 64.7997 41.3055 65.9767 43.2468 66.7786C45.188 67.5806 47.2684 67.9919 49.3689 67.989C51.4695 67.991 53.5499 67.5785 55.4909 66.775C57.4318 65.9715 59.195 64.7929 60.6796 63.3067C62.1642 61.8205 63.3408 60.0559 64.1421 58.1141C64.9435 56.1723 65.3537 54.0914 65.3493 51.9908ZM75.3454 74.7369L64.0892 63.4785C63.4925 64.1464 62.8536 64.8477 62.2436 65.52L73.3751 76.6404L75.3454 74.7369Z" fill="#85502E"/>
<path d="M31.9779 64.0106V66.6532C31.6907 66.6665 31.4369 66.6888 31.1831 66.6888C25.7932 66.6888 20.4011 66.6999 15.0112 66.6888C11.5627 66.6888 8.88443 64.6161 8.18092 61.4214C8.05754 60.7827 8.00305 60.1326 8.0184 59.4823C8.00949 45.6035 8.00949 31.7262 8.0184 17.8504C8.0184 14.2883 9.93747 11.6657 13.1077 10.891C13.7409 10.7411 14.3895 10.6664 15.0402 10.6683C32.5938 10.6565 50.1475 10.6565 67.7011 10.6683C71.8354 10.6683 74.6873 13.518 74.6895 17.6344C74.6984 31.6691 74.6984 45.7029 74.6895 59.7361C74.7314 61.4456 74.1408 63.1104 73.0309 64.4113L71.0272 62.6592C72.1048 61.4859 72.0313 60.0522 72.0313 58.614C72.0224 44.9445 72.0224 31.275 72.0313 17.6055C72.0313 15.6018 71.0005 14.0723 69.2395 13.5558C68.6595 13.3971 68.0597 13.3221 67.4585 13.3332C57.17 13.3199 46.8822 13.3199 36.5952 13.3332C29.4087 13.3332 22.2207 13.3332 15.0313 13.3332C12.9252 13.3332 11.3912 14.3818 10.8681 16.2007C10.7425 16.6779 10.6834 17.1701 10.6922 17.6634C10.6833 31.6713 10.6833 45.6799 10.6922 59.6893C10.6922 62.3831 12.333 64.0106 15.0357 64.0172C20.3477 64.0284 25.6619 64.0172 30.9738 64.0172L31.9779 64.0106Z" fill="#85502E"/>
<path d="M66.64 7.95235H64.0374C64.0374 7.58723 64.0374 7.25774 64.0374 6.92602C64.0174 4.35464 62.3432 2.66933 59.774 2.66488C53.392 2.66488 47.0099 2.66488 40.6278 2.66488H7.26443C4.26115 2.66488 2.66934 4.24332 2.66934 7.22657C2.66934 21.0786 2.66563 34.9322 2.65821 48.7872C2.65821 50.9311 3.51534 52.4339 5.65259 53.2398L5.02923 55.7644C3.74476 55.4702 2.58655 54.7766 1.72094 53.783C0.514279 52.4473 -0.00221914 50.8443 7.16458e-06 49.0566C7.16458e-06 43.6645 7.16458e-06 38.2739 7.16458e-06 32.8847C7.16458e-06 24.2645 7.16458e-06 15.645 7.16458e-06 7.0262C7.16458e-06 3.70233 1.84561 1.13095 4.8667 0.287182C5.57036 0.100525 6.29604 0.00990894 7.02399 0.017799C24.5524 0.00147282 42.0816 -0.00223752 59.6115 0.0066677C64.1665 0.00221509 67.1208 3.31718 66.64 7.95235Z" fill="#85502E"/>
<path d="M21.4082 36.0371H23.9863V51.9596H21.4082V36.0371Z" fill="#85502E"/>
<path d="M26.7402 40.0378H29.3227V51.9597H26.7402V40.0378Z" fill="#85502E"/>
<path d="M18.6462 51.9886H16.1016V44.0808H18.6462V51.9886Z" fill="#85502E"/>
<path d="M7.96283 7.9524H5.38477V5.3877H7.96283V7.9524Z" fill="#85502E"/>
<path d="M13.3091 5.36548V7.95467H10.7422V5.36548H13.3091Z" fill="#85502E"/>
<path d="M16.0703 7.94355V5.3833H18.6461V7.94355H16.0703Z" fill="#85502E"/>
<path d="M26.6375 18.6275H24.0684V16.0427H26.6308L26.6375 18.6275Z" fill="#85502E"/>
<path d="M15.9991 16.0583V18.5963H13.4121V16.0583H15.9991Z" fill="#85502E"/>
<path d="M18.75 16.0315H21.3102V18.5917H18.75V16.0315Z" fill="#85502E"/>
<path d="M49.3547 38.6687C51.1086 38.669 52.8451 39.0154 54.4648 39.6882C56.0844 40.361 57.5554 41.3469 58.7932 42.5893C60.0311 43.8317 61.0116 45.3063 61.6784 46.9284C62.3452 48.5505 62.6853 50.2883 62.6792 52.0421C62.6768 53.7887 62.3303 55.5178 61.6594 57.1304C60.9885 58.7431 60.0064 60.2077 58.7691 61.4406C57.5319 62.6735 56.0638 63.6505 54.4489 64.3157C52.8339 64.9809 51.1036 65.3214 49.357 65.3176C47.6038 65.3208 45.8672 64.9772 44.2474 64.3066C42.6275 63.6359 41.1563 62.6515 39.9185 61.4099C38.6806 60.1684 37.7006 58.6942 37.0348 57.0723C36.3691 55.4505 36.0307 53.7129 36.0392 51.9597C36.0445 48.4321 37.4499 45.0509 39.9466 42.5588C42.4433 40.0667 45.8271 38.6675 49.3547 38.6687ZM42.6647 43.8493C39.2829 46.1224 37.8692 51.5011 39.1605 54.6513H59.6024C60.8714 51.0269 59.1572 45.7751 56.0158 43.876V51.9597H53.3554V42.0594L50.6838 41.3803V51.9597H48.0123V41.3625L45.3407 42.0816V51.9597H42.6692L42.6647 43.8493ZM58.5761 57.3964H40.1512C42.402 60.8271 45.4409 62.6705 49.4482 62.646C53.3777 62.6126 56.3631 60.7781 58.5761 57.3964Z" fill="#85502E"/>
</g>
<defs>
<clipPath id="clip0_3363_113">
<rect width="78.7021" height="80" fill="white"/>
</clipPath>
</defs>
</svg>
