<svg width="67" height="68" viewBox="0 0 67 68" fill="none" xmlns="http://www.w3.org/2000/svg">
<path d="M14.9182 67.3254C14.15 66.7438 14.0762 66.4398 14.5071 65.563C14.9102 64.7417 15.3213 63.9244 15.7268 63.1031C16.3259 61.889 17.2908 61.2883 18.6556 61.2947C21.3155 61.3082 23.9722 61.2947 26.6908 61.2947L28.0652 57.2176H27.251C19.3338 57.2176 11.4169 57.2176 3.50021 57.2176C1.12997 57.2176 0 56.0955 0 53.7459C0 39.7847 0 25.8236 0 11.8624C0 9.62228 1.14425 8.46612 3.37008 8.46216C5.37662 8.45898 7.38317 8.45898 9.38971 8.46216C9.56425 8.45615 9.739 8.46252 9.91264 8.4812C10.4911 8.5669 10.8419 8.91526 10.8141 9.49452C10.7863 10.0738 10.4237 10.4118 9.82773 10.4174C8.47875 10.4293 7.12342 10.4237 5.77126 10.4253C4.92061 10.4253 4.06996 10.4166 3.21931 10.4253C2.29565 10.438 1.96475 10.7753 1.96396 11.7021C1.96079 15.4978 1.96079 19.2934 1.96396 23.0891V53.7189C1.96396 54.9886 2.22423 55.2544 3.49148 55.2544H63.4895C64.7908 55.2544 65.0408 54.9997 65.0408 53.6769V11.9973C65.0408 10.6745 64.8027 10.4333 63.4784 10.4333H47.2207V11.1474C48.757 11.2268 50.1988 11.5664 51.4907 12.4218C51.666 12.5385 51.9541 12.5059 52.1898 12.5059C55.3109 12.5107 58.43 12.512 61.5469 12.5099C62.6396 12.5099 62.9419 12.8138 62.9419 13.9105C62.9419 18.3605 62.9419 22.8106 62.9419 27.2606C62.9419 27.3916 62.9491 27.5233 62.9364 27.6534C62.8793 28.2581 62.4722 28.6453 61.9048 28.6056C61.3073 28.5628 60.997 28.2041 60.9819 27.6233C60.9613 26.7948 60.9748 25.9656 60.9748 25.1364V14.5072H53.6641C53.9815 15.4181 54.3981 16.3101 54.6124 17.248C55.5686 21.4314 52.9745 25.6458 48.9181 26.525C48.2039 26.6798 47.4469 26.6885 46.7089 26.6972C44.7045 26.7194 42.7001 26.7044 40.6409 26.7044V28.7675C41.2463 28.7675 41.847 28.7572 42.4477 28.7675C43.2769 28.7858 43.6142 29.1032 43.6158 29.9181C43.6237 33.8889 43.6237 37.8591 43.6158 41.8288C43.6158 42.5946 43.2523 42.9548 42.4882 42.9588C40.2663 42.9715 38.0418 42.9715 35.8147 42.9588C35.1005 42.9588 34.6752 42.5724 34.6728 41.9756C34.6704 41.3789 35.0847 41.0052 35.8091 41.0028C37.7239 40.9957 39.6395 41.0028 41.6066 41.0028V30.7918H25.391V41.0052H26.0877C27.789 41.0052 29.4903 41.0052 31.1909 41.0052C31.9161 41.0052 32.3319 41.3742 32.3311 41.9756C32.3304 42.5771 31.9082 42.9588 31.1917 42.962C28.9698 42.972 26.7453 42.972 24.5182 42.962C23.7508 42.962 23.3898 42.6009 23.3882 41.8352C23.3792 37.8433 23.3792 33.8511 23.3882 29.8586C23.3882 29.1206 23.7342 28.7961 24.4848 28.7723C25.0927 28.7532 25.7013 28.7683 26.3623 28.7683V26.7377C26.1242 26.7266 25.8933 26.706 25.6616 26.706C23.6985 26.706 21.7353 26.706 19.7729 26.706C17.9455 26.6976 16.1826 26.0291 14.8091 24.8236C13.4356 23.6181 12.5441 21.9569 12.2988 20.1459C12.0401 18.2129 12.1837 17.4821 13.4184 14.5119H6.07439V47.0565H60.9796V46.2773C60.9796 41.6527 60.9796 37.0281 60.9796 32.4034C60.9691 32.2074 60.9733 32.0108 60.9923 31.8154C61.0716 31.2973 61.389 30.9846 61.9096 30.956C62.4301 30.9275 62.7769 31.2211 62.9062 31.7234C62.9586 31.9289 62.9404 32.1558 62.9404 32.3733C62.9404 37.4566 62.9404 42.5393 62.9404 47.6215C62.9404 48.7991 62.6547 49.0888 61.4723 49.0888C42.8246 49.0888 24.1769 49.0888 5.52924 49.0888C4.34611 49.0888 4.05964 48.7999 4.05964 47.6239C4.05964 36.4088 4.05964 25.1962 4.05964 13.9858C4.05964 12.7741 4.33817 12.5004 5.57209 12.4996C8.66682 12.4996 11.7663 12.5075 14.8634 12.4877C15.2035 12.4794 15.5362 12.3867 15.8315 12.2179C17.063 11.5037 18.0494 11.2347 20.1125 11.145C20.173 11.0383 20.2276 10.9284 20.276 10.8157C20.312 10.6899 20.3398 10.5619 20.3593 10.4325H19.0794C17.4876 10.4325 15.895 10.4388 14.3032 10.4285C13.5747 10.4237 13.1565 10.0547 13.1558 9.46278C13.155 8.87082 13.5787 8.47961 14.296 8.47485C16.5179 8.46136 18.7461 8.48755 20.9695 8.44946C21.3409 8.42564 21.693 8.27588 21.9678 8.02493C23.5318 6.55216 25.3458 5.74197 27.5129 5.78562C27.8597 5.79276 28.2056 5.81894 28.5524 5.83719C30.8631 1.9299 34.1491 -0.315754 38.7753 0.491255C43.1476 1.24986 45.6075 4.28824 46.9565 8.47009H47.6643C52.8555 8.47009 58.0467 8.51056 63.2363 8.44867C65.0614 8.42724 66.3604 9.01444 67.004 10.7832V54.8902C66.3691 56.6621 65.0805 57.2541 63.2538 57.243C55.4337 57.1953 47.6135 57.2223 39.7926 57.2223H38.9396C39.4157 58.6443 39.8656 59.9711 40.3124 61.2994C43.0651 61.2994 45.744 61.2994 48.4221 61.2994C49.6989 61.2994 50.6337 61.8549 51.2129 62.9952C51.6467 63.8485 52.075 64.7047 52.4976 65.5638C52.9269 66.4367 52.8516 66.7446 52.085 67.3254H14.9182ZM40.6147 24.7412H41.3757C43.273 24.7412 45.1719 24.6944 47.0676 24.7507C51.2217 24.8745 53.5118 20.8553 52.6706 17.5297C51.9319 14.6127 49.9012 13.1376 46.5788 13.128C45.4068 13.128 45.0862 12.7987 45.1727 11.6418C45.2804 10.223 45.0463 8.79902 44.4902 7.4893C43.1214 4.2208 40.2195 2.13146 37.0415 2.29334C33.7928 2.45839 31.5662 4.20413 30.1942 7.09492C29.753 8.02334 29.5054 8.0892 28.5072 7.92177C27.7279 7.79163 26.8781 7.70434 26.1266 7.87813C23.9421 8.3836 22.5963 9.84367 21.9844 11.9814C21.7027 12.9654 21.5155 13.1225 20.4768 13.1328C19.911 13.1384 19.3349 13.105 18.781 13.1971C15.964 13.6692 13.9509 16.3434 14.1667 19.281C14.396 22.4186 16.6933 24.7039 19.6848 24.7364C21.7353 24.7587 23.7849 24.742 25.8354 24.7364C26.0203 24.7364 26.2052 24.7015 26.3909 24.6833C25.9893 19.7087 29.8411 16.6116 33.4778 16.5957C37.2192 16.5814 41.0495 19.7968 40.6147 24.7412ZM16.8091 65.3337H50.1655C50.0361 65.0512 49.906 64.829 49.829 64.5902C49.491 63.5427 48.811 63.2301 47.7008 63.2364C38.8729 63.284 30.0458 63.2626 21.2179 63.2626C20.345 63.2626 19.4722 63.2237 18.6041 63.2832C18.2747 63.3062 17.8542 63.4768 17.6645 63.7244C17.3186 64.1783 17.1138 64.7401 16.8107 65.3337H16.8091ZM38.6222 28.7342C38.6222 27.0519 38.6372 25.4014 38.6222 23.7525C38.5912 20.8268 36.3622 18.5779 33.5111 18.5724C30.66 18.5668 28.4175 20.8196 28.3834 23.7414C28.3667 25.2491 28.3786 26.7496 28.3834 28.2533C28.3928 28.413 28.4113 28.5719 28.4389 28.7294H30.4148C30.4505 28.6501 30.4838 28.6144 30.4838 28.5755C30.4902 26.9845 30.4838 25.3935 30.5005 23.8033C30.5172 22.0424 31.786 20.7276 33.4611 20.7125C35.1807 20.6966 36.4828 22.0036 36.5019 23.789C36.5162 25.2054 36.5019 26.6226 36.5019 28.0391V28.7342H38.6222ZM30.1315 57.2493C29.684 58.5896 29.2404 59.9155 28.7825 61.2804H38.2254L36.8764 57.2493H30.1315ZM32.4906 28.7294H34.5094V26.7567H32.4875L32.4906 28.7294ZM34.5443 24.6976C34.4982 24.0001 34.7736 23.2399 34.0166 22.8407C33.742 22.6963 33.2588 22.6963 32.985 22.8407C32.2399 23.2446 32.4906 23.9953 32.4835 24.6944L34.5443 24.6976Z" fill="#33336A"/>
</svg>
