<svg width="69" height="69" viewBox="0 0 69 69" fill="none" xmlns="http://www.w3.org/2000/svg">
<g clip-path="url(#clip0_545_9188)">
<path d="M29.4754 38.8513V34.3162H28.6441C22.5054 34.3162 16.3668 34.3289 10.2264 34.312C5.35165 34.2976 1.30991 31.0255 0.241175 26.2741C-1.04975 20.5291 2.94468 14.8163 8.7944 14.0365C9.00054 14.0094 9.20415 13.9588 9.38579 13.9224C12.5869 -0.319149 30.2493 -4.45298 39.4201 6.72349C42.5933 4.65531 45.9837 4.17882 49.4881 5.74094C52.968 7.29292 54.8951 10.0953 55.5034 13.9148C56.257 13.9148 57.0047 13.9148 57.7524 13.9148C62.6897 13.941 66.7542 17.2351 67.8061 22.0575C69.1333 28.1589 64.392 34.181 58.1453 34.3077C56.399 34.3432 54.6518 34.3162 52.9072 34.3179H52.1773V43.3848C53.2992 43.3848 54.422 43.3704 55.544 43.3848C57.2261 43.411 58.5753 44.5481 58.8836 46.1956C58.9322 46.5221 58.9511 46.8524 58.9403 47.1823C58.9403 49.6594 58.9403 52.1357 58.9403 54.6905H63.4315V56.9412C63.2566 56.953 63.0563 56.9792 62.8553 56.9792C61.321 56.9826 59.7865 56.9826 58.2517 56.9792C57.0106 56.9792 56.6744 56.6345 56.6735 55.3689C56.6735 52.6541 56.6735 49.9391 56.6735 47.2237C56.6735 45.9827 56.3297 45.6473 55.0683 45.6456H52.1435C52.1435 46.3333 52.1232 46.9847 52.1485 47.6343C52.1891 48.638 51.7768 49.4144 51.0147 50.0295C49.7078 51.083 48.1533 51.5696 46.5472 51.8679C45.0476 52.1467 43.5252 52.3047 41.9766 52.5218V62.5949H51.1263C52.4231 59.8964 54.2319 58.8353 56.6085 59.3845C57.6029 59.6217 58.4877 60.1888 59.1185 60.9933C59.7494 61.7978 60.0891 62.7923 60.0822 63.8147C60.0753 64.837 59.7223 65.8269 59.0808 66.6229C58.4392 67.4189 57.5469 67.9741 56.5493 68.1979C54.2125 68.72 52.3766 67.6285 51.1026 64.9191H50.2966C47.2512 64.9191 44.2056 64.9191 41.1596 64.9191C40.052 64.9191 39.6778 64.5414 39.6769 63.4271C39.6769 60.0511 39.6769 56.675 39.6769 53.299V52.4973L35.1435 51.9709V52.6899C35.1435 57.3647 35.1435 62.0395 35.1435 66.7144C35.1435 67.9749 34.8055 68.3196 33.5602 68.3196C32.2211 68.3196 30.8821 68.3196 29.51 68.3196V66.074H32.8353V51.3162C32.2744 51.0171 31.6619 50.7248 31.0831 50.3742C29.9907 49.716 29.4264 48.7825 29.4619 47.4493C29.5168 45.3752 29.4762 43.2986 29.4762 41.1594C29.2464 41.1442 29.0445 41.1189 28.8426 41.1189C27.3548 41.1189 25.8628 41.1924 24.381 41.0995C21.9258 40.9465 20.3325 42.7131 20.3806 45.0542C20.4761 49.6561 20.411 54.263 20.4085 58.8649C20.4085 62.5442 18.021 64.9157 14.3256 64.9182C12.5354 64.9182 10.7451 64.9182 8.9828 64.9182C7.66399 67.669 5.84166 68.7352 3.46933 68.1852C2.47511 67.9469 1.59094 67.3788 0.961002 66.5735C0.331063 65.7683 -0.00748883 64.7733 0.000547355 63.751C0.00858354 62.7286 0.362734 61.7391 1.00525 60.9439C1.64777 60.1486 2.54076 59.5945 3.53861 59.3718C5.87799 58.8539 7.68596 59.9294 8.97435 62.6337C11.002 62.6337 13.0566 62.7115 15.1012 62.6101C16.8677 62.5256 18.1333 60.9829 18.1376 59.1243C18.1466 54.3312 18.1466 49.5383 18.1376 44.7458C18.1376 43.6585 18.3403 42.6269 18.8979 41.6959C19.992 39.8803 21.6158 38.9079 23.7372 38.8606C25.6237 38.8192 27.5077 38.8513 29.4754 38.8513ZM56.6794 24.1003C56.6794 25.5441 56.6794 26.8883 56.6794 28.2274C56.6794 29.4287 56.3238 29.7802 55.1165 29.7819C54.1356 29.7819 53.1547 29.7819 52.184 29.7819V32.0444C54.1745 32.0444 56.1294 32.09 58.081 32.0351C63.7694 31.8763 67.4648 25.8289 64.9606 20.7192C63.0758 16.8735 59.6119 15.7786 55.4722 16.2677C55.1959 18.1433 54.5428 19.8752 53.2908 21.4154L51.5664 20.0273C54.5868 15.8622 53.2012 11.2181 50.3549 8.90235C47.24 6.36781 42.9093 6.78601 40.8234 8.62524C41.4815 10.2828 42.1287 11.91 42.8155 13.6369L40.5184 14.1379C38.62 6.1642 31.1152 1.60879 23.8191 2.75947C17.8647 3.69894 11.9186 9.29436 11.8223 14.0483C14.2386 14.4902 16.3 15.6054 17.912 17.4818C19.5239 19.3582 20.362 21.5615 20.3933 24.0657H18.1798C18.1198 23.6179 18.0733 23.2208 18.0108 22.8237C17.335 18.4483 13.0414 15.4846 8.61529 16.3387C4.30066 17.1709 1.44593 21.6249 2.48255 25.9074C3.37049 29.5766 6.47868 32.0343 10.3143 32.0444C16.5239 32.0613 22.7335 32.0495 28.9431 32.0444C29.1011 32.0444 29.2591 32.0266 29.4737 32.0131C29.4737 30.6512 29.5244 29.3316 29.4602 28.0187C29.3934 26.6534 29.9671 25.6447 31.111 25.0465C32.1662 24.4948 33.2873 23.993 34.4389 23.721C36.1286 23.3222 37.8689 23.1473 39.6592 22.866C39.6592 22.1479 39.7014 21.3453 39.6448 20.5553C39.6051 20.0045 39.2156 19.6116 38.6648 19.6023C36.6895 19.5677 34.7134 19.5888 32.7686 19.5888C31.6078 22.1757 29.7331 23.3408 27.5196 22.8972C25.3906 22.4748 23.869 20.7361 23.8022 18.6637C23.7338 16.4815 25.116 14.5873 27.1571 14.0644C29.5379 13.4552 31.3425 14.4868 32.7923 17.312C34.6137 17.312 36.4538 17.3077 38.2939 17.312C40.5057 17.3179 41.9267 18.7338 41.9394 20.9372C41.9394 21.6131 41.9394 22.2889 41.9394 22.9733C42.5967 23.0265 43.1619 23.062 43.7254 23.1203C45.8924 23.3442 48.0341 23.6914 49.9925 24.717C51.1161 25.3084 52.0328 26.0882 52.1688 27.4679H54.4077V26.7295C54.4077 25.5247 54.3992 24.3208 54.4077 23.1169C54.4144 22.4233 54.7456 21.9282 55.3294 21.8826C56.1396 21.8201 56.9582 21.8665 57.7684 21.8665V24.1028L56.6794 24.1003ZM31.7421 37.225V39.3439C31.7421 41.6486 31.7877 41.7094 34.0029 42.447C34.1144 42.4842 34.2268 42.5171 34.3409 42.5484C37.9239 43.5478 41.5601 43.6424 45.1971 43.0046C46.5489 42.768 47.8525 42.2383 49.1519 41.7694C49.4484 41.6621 49.8277 41.2676 49.8429 40.9846C49.9181 39.7511 49.8751 38.51 49.8751 37.2368C43.8133 39.4537 37.8233 39.4605 31.7421 37.225ZM31.7421 30.4299V32.4854C31.7421 34.8451 31.8156 34.9456 34.0806 35.6772C34.1482 35.6992 34.2158 35.7169 34.2843 35.7364C37.8892 36.7409 41.5499 36.8473 45.209 36.2027C46.5371 35.9687 47.8212 35.4533 49.1003 34.9971C49.4079 34.8873 49.8193 34.5156 49.837 34.2427C49.9156 32.9889 49.8717 31.7276 49.8717 30.4316C43.7981 32.6628 37.8149 32.6501 31.7421 30.4299ZM49.8759 44.0319C43.7803 46.2674 37.7811 46.253 31.7421 44.0319V46.0942C31.7421 48.4488 31.8148 48.5442 34.0891 49.2801C34.1558 49.3021 34.2251 49.3181 34.2927 49.3375C37.8985 50.3455 41.5584 50.4468 45.2174 49.7988C46.5692 49.5597 47.8736 49.0334 49.1688 48.5544C49.4695 48.4437 49.8244 48.0018 49.8446 47.6918C49.9232 46.498 49.8759 45.295 49.8759 44.0311V44.0319ZM49.9984 27.6284C49.3681 26.7759 48.5782 26.5098 47.8086 26.2547C44.8516 25.2738 41.8042 25.1183 38.7248 25.3295C36.7892 25.4613 34.8816 25.7613 33.088 26.5394C32.5912 26.7548 32.1485 27.0953 31.5326 27.4687C31.9736 27.8066 32.2195 28.066 32.5194 28.2113C33.0864 28.4976 33.6758 28.7372 34.2817 28.9277C37.0976 29.7599 39.9827 29.9128 42.8949 29.7033C44.8051 29.5665 46.6967 29.2809 48.4658 28.5205C48.9837 28.2924 49.4509 27.9494 49.9984 27.6275V27.6284ZM30.6058 18.4424C30.6056 17.9939 30.4722 17.5556 30.2225 17.1831C29.9729 16.8106 29.6182 16.5207 29.2035 16.3501C28.7887 16.1795 28.3327 16.136 27.8932 16.225C27.4537 16.314 27.0505 16.5316 26.7348 16.8501C26.4192 17.1686 26.2053 17.5737 26.1202 18.014C26.0351 18.4543 26.0828 18.9099 26.2571 19.3231C26.4314 19.7363 26.7245 20.0883 27.0993 20.3346C27.474 20.581 27.9135 20.7104 28.3619 20.7065C28.9569 20.6951 29.5241 20.4523 29.9431 20.0296C30.362 19.6068 30.5998 19.0375 30.6058 18.4424ZM6.80394 63.787C6.80427 63.3387 6.67146 62.9004 6.42236 62.5277C6.17326 62.1549 5.81909 61.8646 5.40476 61.6934C4.99043 61.5223 4.5346 61.478 4.09508 61.5662C3.65556 61.6545 3.25214 61.8713 2.93598 62.1891C2.61982 62.5069 2.40517 62.9115 2.31923 63.3514C2.23329 63.7914 2.27995 64.247 2.45328 64.6604C2.62662 65.0739 2.91882 65.4265 3.29283 65.6736C3.66685 65.9208 4.10583 66.0513 4.55412 66.0486C5.15093 66.0424 5.72137 65.8018 6.14229 65.3786C6.56322 64.9555 6.80087 64.3838 6.80394 63.787ZM57.8065 63.7608C57.8019 63.3123 57.6642 62.8754 57.4108 62.5053C57.1575 62.1353 56.7999 61.8489 56.3835 61.6824C55.9671 61.5159 55.5106 61.4769 55.072 61.5702C54.6334 61.6636 54.2324 61.8852 53.9199 62.2068C53.6074 62.5285 53.3975 62.9357 53.3168 63.3768C53.2361 63.818 53.2883 64.2731 53.4668 64.6845C53.6452 65.096 53.9419 65.4451 54.319 65.6877C54.6962 65.9302 55.137 66.0553 55.5854 66.0469C56.1814 66.0332 56.7482 65.7859 57.1637 65.3583C57.5791 64.9307 57.81 64.357 57.8065 63.7608Z" fill="black"/>
<path d="M65.8008 54.7429H67.9661V56.9463H65.8008V54.7429Z" fill="black"/>
<path d="M24.9766 66.0815H27.1596V68.2781H24.9766V66.0815Z" fill="black"/>
<path d="M19.2425 27.5159V29.7294C19.1313 29.7542 19.0183 29.7709 18.9046 29.7792C15.9527 29.7792 13.0008 29.8071 10.0498 29.7699C7.51522 29.737 5.29496 27.9197 4.70441 25.4832C4.08852 22.9436 5.22737 20.3161 7.5507 19.1392C8.3288 18.7455 9.22181 18.5791 10.1604 18.2783V20.6811C9.25391 20.7765 8.43019 21.0697 7.77627 21.7439C6.82075 22.7273 6.52506 24.1525 7.07505 25.4114C7.65884 26.7504 8.71152 27.4855 10.168 27.504C12.9062 27.5395 15.6452 27.515 18.3842 27.5159H19.2425Z" fill="black"/>
<path d="M62.3092 24.086H60.127V21.8894H62.3092V24.086Z" fill="black"/>
</g>
<defs>
<clipPath id="clip0_545_9188">
<rect width="68.0262" height="68" fill="white" transform="translate(0 0.325439)"/>
</clipPath>
</defs>
</svg>
