<svg width="84" height="69" viewBox="0 0 84 69" fill="none" xmlns="http://www.w3.org/2000/svg">
<g clip-path="url(#clip0_545_9216)">
<path d="M49.7015 44.2013C49.7015 45.7525 49.7193 47.2066 49.6965 48.6588C49.6738 50.0921 49.754 51.5473 49.5341 52.9539C49.127 55.563 47.1964 57.3688 44.5654 57.6095C42.7824 57.7719 40.9796 57.6848 39.1847 57.7085C38.7835 57.7085 38.3804 57.6788 37.9822 57.7085C36.9282 57.7908 36.212 58.3544 36.0516 59.3925C35.794 61.0586 35.6127 62.7386 35.4434 64.4166C35.3502 65.3398 35.3502 66.2719 35.3037 67.2001C35.2631 67.9925 34.8857 68.3343 34.0813 68.3155C33.3751 68.2986 32.9679 67.9292 33.0175 67.1912C33.1997 64.4959 33.3384 61.7936 33.6604 59.1142C33.9308 56.8646 35.4889 55.5363 37.7494 55.4422C39.4155 55.3728 41.0876 55.4293 42.7557 55.4065C43.3441 55.3986 43.9444 55.3916 44.5149 55.2629C46.2583 54.8666 47.2092 53.6502 47.2182 51.8533C47.231 49.1273 47.2182 46.4053 47.2182 43.6753C47.2182 42.2172 47.5232 41.9101 48.9546 41.924C49.4826 41.9289 50.0115 41.9567 50.5395 41.9428C51.6162 41.9131 52.1185 41.2672 51.7549 40.2648C51.324 39.0761 50.806 37.9181 50.2978 36.7592C49.6203 35.2119 48.9328 33.6676 48.2176 32.1382C47.763 31.1675 47.6946 30.1759 47.755 29.117C48.0522 23.876 46.8249 19.045 43.5858 14.8529C41.2371 11.8129 38.109 9.78325 34.5251 8.48462C27.4367 5.91709 20.4899 6.26378 13.8224 9.8506C8.64473 12.641 5.33824 17.0361 3.55523 22.5971C1.70487 28.3424 2.11595 33.943 4.60424 39.4297C5.85135 42.1785 7.58384 44.6262 9.18756 47.1561C11.1528 50.2595 12.0186 53.6581 11.659 57.3084C11.3331 60.6257 10.8666 63.9303 10.4436 67.2387C10.3297 68.0876 9.92157 68.3848 9.16973 68.2858C8.45554 68.1867 8.09398 67.6607 8.19205 66.8593C8.52884 64.1145 8.84681 61.3677 9.20737 58.6268C9.75317 54.4664 8.72002 50.7231 6.41696 47.2651C4.88457 44.964 3.35613 42.657 2.25661 40.1023C-0.616017 33.4507 -0.757666 26.7535 1.93963 20.0237C3.77118 15.4532 6.70621 11.7218 10.7556 8.92245C14.4365 6.37572 18.5523 4.93049 23.0098 4.49365C27.9547 4.00828 32.6985 4.79875 37.1957 6.90963C44.7675 10.4628 48.9645 16.4874 49.9818 24.7318C50.1869 26.3959 50.0195 28.0997 50.0809 29.7896C50.1041 30.3573 50.232 30.9157 50.4583 31.4369C51.4716 33.735 52.5385 36.0103 53.5835 38.2936C54.058 39.3307 54.3472 40.3886 54.1025 41.5476C53.7667 43.1424 52.7078 44.0963 51.0754 44.2013C50.6366 44.226 50.1938 44.2013 49.7015 44.2013Z" fill="#C33923"/>
<path d="M12.4277 18.0486C12.7397 16.0189 13.6758 14.3558 15.4856 13.2731C17.2953 12.1904 19.2051 12.1488 21.1526 12.9591C22.365 11.3742 23.8855 10.5085 25.8746 10.7274C27.823 10.9413 29.2554 11.9458 30.1498 13.7367C31.3385 13.3999 32.5054 13.4465 33.6624 13.7535C35.9288 14.3558 37.4067 15.7941 38.1011 18.0288C38.218 18.4062 38.323 18.7004 38.7895 18.8143C41.9791 19.5909 44.0454 22.6359 43.7681 26.1851C43.4709 29.9551 40.9281 32.9783 37.4225 33.7411C36.5855 33.9233 35.7178 33.9709 34.7866 34.0907C34.7866 34.7039 34.7866 35.3111 34.7866 35.9173C34.7946 38.5592 34.7916 41.2 34.8223 43.8418C34.8349 44.1037 34.7902 44.3652 34.6915 44.6081C34.5928 44.851 34.4424 45.0695 34.2508 45.2484C33.1205 46.3588 32.02 47.5 30.8828 48.6015C30.751 48.7175 30.6469 48.8617 30.5783 49.0233C30.5097 49.185 30.4784 49.3601 30.4866 49.5356C30.4959 54.7961 30.4959 60.0573 30.4866 65.3191C30.4903 66.0158 30.4573 66.7121 30.3876 67.4053C30.3153 68.0828 29.9131 68.3522 29.19 68.3037C28.5471 68.2591 28.1895 67.9075 28.1875 67.2438C28.1766 63.6302 28.1796 60.0127 28.1717 56.4041C28.1426 42.8592 28.1126 29.3149 28.0815 15.7713C28.0815 14.5826 27.4179 13.6475 26.3065 13.2672C25.7625 13.0836 25.1752 13.0719 24.6243 13.2335C24.0733 13.3951 23.5855 13.7222 23.2268 14.1706C23.0525 14.409 22.8918 14.657 22.7454 14.9135C22.2145 15.7812 21.5468 15.9615 20.6722 15.4395C19.748 14.8887 18.7772 14.6153 17.7074 14.8907C16.1691 15.2869 14.9992 16.6737 14.7773 18.3577C14.7387 18.6548 14.7308 18.952 14.6931 19.2412C14.5941 20.0168 14.2097 20.3596 13.4361 20.3764C11.2826 20.425 9.68485 21.9197 9.49763 24.0643C9.35598 25.6848 10.2772 27.0934 11.7363 27.2341C12.3049 27.2876 12.9408 26.9696 13.4995 26.717C14.4069 26.3059 15.2003 26.3119 15.8144 27.0142C16.1344 27.3817 16.3097 27.9285 16.4028 28.4218C16.5167 29.0379 16.4306 29.6887 16.5098 30.3147C16.6475 31.4043 17.4013 32.2354 18.4959 32.4206C19.1754 32.5365 19.8827 32.5128 20.5761 32.5148C21.3923 32.5148 21.7895 32.7782 21.8569 33.4122C21.9262 34.068 21.5488 34.5781 20.8247 34.6999C19.2527 34.9604 17.7005 34.9565 16.2889 34.0709C15.0012 33.2626 14.2969 32.0948 14.2543 30.5574C14.2424 30.1374 14.2543 29.7164 14.2543 29.34C13.5074 29.447 12.7942 29.6065 12.0751 29.6431C9.54815 29.7689 7.51849 27.6471 7.2768 25.3163C7.03114 22.9449 7.70967 20.8786 9.6165 19.3344C10.0314 19.0096 10.4853 18.7381 10.9676 18.5261C11.4154 18.3151 11.9166 18.2081 12.4277 18.0486ZM30.5728 27.7432V45.602C31.1146 45.1137 31.6892 44.6481 32.1924 44.1162C32.3905 43.9121 32.4895 43.5565 32.5034 43.2653C32.544 42.2529 32.5272 41.2386 32.5292 40.2243C32.5351 38.1758 32.5292 36.1273 32.546 34.0779C32.5609 32.4494 33.1592 31.8679 34.7718 31.862H34.8352C36.7281 31.8323 38.4071 31.2676 39.7345 29.864C41.4412 28.0622 42.0752 25.6957 40.9182 23.2758C40.2565 21.889 39.1233 21.1233 37.5711 21.0302C36.4577 20.9638 36.3111 20.8093 36.1606 19.687C35.7168 16.3696 32.7778 15.3028 30.5471 16.011V25.671L32.0477 25.5828C32.128 25.3312 32.1785 25.1707 32.231 25.0113C32.6599 23.6928 33.5326 22.8607 34.9134 22.622C36.4914 22.3486 37.6811 22.9747 38.5161 24.2941C39.578 25.9701 38.9401 28.4099 37.2284 29.2984C35.692 30.0988 33.6871 29.5956 32.648 28.1791C32.5143 27.9958 32.2934 27.7828 32.0913 27.7601C31.598 27.7026 31.0938 27.7432 30.5728 27.7432ZM35.5514 24.9132C35.2104 24.9064 34.88 25.0319 34.6295 25.2632C34.3789 25.4946 34.2276 25.8139 34.2072 26.1544C34.1903 26.7863 34.8015 27.3985 35.4691 27.4233C36.1368 27.448 36.7678 26.8507 36.8044 26.1573C36.8391 25.5244 36.2527 24.9479 35.5514 24.9132Z" fill="#C33923"/>
<path d="M64.5739 56.0951L62.0291 55.1045C62.0539 55.0768 61.9836 55.1184 61.9786 55.1669C61.7399 57.6314 60.2293 59.2847 58.368 60.6556C56.059 62.3554 53.4043 63.344 50.6575 64.081C49.6848 64.3425 49.0221 63.8185 49.1558 62.8854C49.6174 59.6561 50.5426 56.5824 52.4247 53.8653C53.3899 52.435 54.7862 51.3499 56.4107 50.7678C56.4896 50.7383 56.565 50.7001 56.6355 50.6539C56.6682 50.6341 56.6861 50.5915 56.7108 50.5549C56.2007 49.2206 56.2007 49.2206 56.3413 48.3984C55.8996 48.3816 55.4706 48.3519 55.0417 48.3509C54.3483 48.3509 53.648 48.3885 52.9516 48.3717C51.8779 48.3459 51.2895 47.4921 51.7006 46.4956C51.9302 45.9505 52.2335 45.4396 52.602 44.977C53.652 43.6546 54.7515 42.3728 55.8233 41.0683C56.5494 40.1847 57.5072 39.737 58.6137 39.6112C59.3467 39.5279 60.0886 39.5121 60.8266 39.4883C61.1733 39.4784 61.3813 39.3685 61.5864 39.0594C63.9399 35.5152 66.8363 32.492 70.4469 30.2206C73.5543 28.2643 76.9391 26.9964 80.614 26.5873C80.8873 26.561 81.1622 26.556 81.4362 26.5724C82.5258 26.6249 83.1954 27.2054 83.0984 28.296C82.928 30.2018 82.7408 32.1265 82.3059 33.9848C80.9429 39.8291 77.9722 44.8066 73.688 48.9848C72.9481 49.7069 72.5608 50.3399 72.6975 51.4176C72.9946 53.6831 71.9833 55.5196 70.4766 57.1193C69.4633 58.1951 68.4292 59.252 67.4 60.3129C67.2368 60.4782 67.0617 60.6311 66.876 60.7705C65.925 61.5016 64.9572 61.1043 64.8354 59.9058C64.7245 58.8161 64.6779 57.7156 64.6036 56.6201C64.5957 56.3992 64.5798 56.1654 64.5739 56.0951ZM66.2301 46.873C65.8765 47.3682 65.5714 47.8704 65.19 48.3063C64.4194 49.1859 63.6051 50.0299 62.8127 50.8887C62.3481 51.3909 62.3432 51.8674 62.7988 52.3745C62.9969 52.5944 63.195 52.8143 63.3991 53.0263C63.7735 53.4107 64.2024 53.4721 64.6512 53.1779C65.0999 52.8837 65.5001 52.5776 65.925 52.2784C66.6392 51.7752 67.3663 51.2879 68.0686 50.7668C68.5698 50.3954 69.0284 49.9744 69.5237 49.5901C70.1181 49.1374 70.8065 48.7837 71.3166 48.2548C72.8114 46.7036 74.422 45.2603 75.6583 43.4634C76.6334 42.0596 77.4946 40.5799 78.2337 39.0386C78.4546 38.574 78.4318 38.1233 78.0208 37.7152C76.733 36.4374 75.477 35.1229 74.1794 33.852C73.6251 33.3133 73.0314 32.8166 72.4033 32.3662C72.229 32.2401 72.0179 32.1753 71.8029 32.1817C71.5879 32.1882 71.381 32.2656 71.2146 32.4019C70.3132 33.1071 69.3722 33.7777 68.5639 34.5811C67.078 36.06 65.4505 37.4141 64.2153 39.1377C63.5219 40.1015 62.7295 41.0049 62.1351 42.0202C61.0762 43.8032 60.1025 45.6377 59.1446 47.4782C58.8891 47.9735 58.8247 48.5609 58.6969 49.0175L60.6671 50.542C61.6745 49.4435 62.6056 48.4311 63.5318 47.4138C63.5833 47.3573 63.5774 47.2523 63.615 47.178C64.3896 45.6754 65.299 45.5337 66.2103 46.7719C66.2212 46.8047 66.2282 46.8386 66.2311 46.873H66.2301ZM51.8174 61.3054C52.0502 61.2817 52.1334 61.2757 52.2137 61.2638C53.4439 61.0964 54.4751 60.4298 55.5509 59.8939C57.2764 59.0341 58.8415 57.9326 59.6419 56.106C59.948 55.4056 59.9876 54.5656 60.0381 53.7831C60.0728 53.2234 59.6865 52.7064 59.1615 52.635C58.4374 52.536 57.6172 52.4914 56.9525 52.7341C55.4815 53.2759 54.4761 54.4844 53.7401 55.7949C53.0646 56.9955 52.6505 58.3476 52.1711 59.6512C51.9938 60.1494 51.9432 60.6962 51.8174 61.3054ZM80.6626 28.815C78.2783 29.1033 76.1258 29.8304 73.9763 30.9784C74.4012 31.4806 74.6786 31.8818 75.0293 32.2037C75.7058 32.8258 76.4418 33.3835 77.1193 34.0056C77.6315 34.4751 78.0693 35.0268 78.5824 35.4964C78.8182 35.7123 79.1549 35.8193 79.5076 36.0085C80.093 33.5806 80.8062 31.338 80.6626 28.815ZM70.5638 51.7366L70.3875 51.5969C69.8536 51.9852 69.3117 52.3626 68.7867 52.7628C68.129 53.264 67.4822 53.7791 66.8383 54.2982C66.7274 54.3873 66.5738 54.5369 66.5847 54.6449C66.6838 55.6424 66.8056 56.6379 66.9225 57.6334L67.1642 57.6572C68.9165 56.0426 70.5945 54.3864 70.5638 51.7366ZM59.8846 41.831C58.3641 41.8914 58.0431 42.0291 57.1338 42.9266C56.5642 43.4892 55.9451 44.0162 55.4498 44.6343C55.1447 45.0156 54.6693 45.397 54.8089 45.9894L56.6732 46.4777C57.2962 46.6402 57.5488 46.448 57.7846 45.8121C57.9827 45.29 58.27 44.8017 58.5335 44.3064C58.9584 43.512 59.3952 42.7294 59.8846 41.83V41.831Z" fill="#C33923"/>
<path d="M60.4144 24.9528L58.1549 24.0316C57.6686 24.4951 57.1891 24.9686 56.6919 25.4183C56.1312 25.9275 55.5508 25.9483 55.0079 25.4183C54.1461 24.5793 53.3042 23.7176 52.4919 22.83C51.9382 22.2238 51.953 21.7216 52.4919 21.0846C52.898 20.6022 53.3487 20.1565 53.8113 19.6612L52.6326 17.3096C52.0759 17.3096 51.5093 17.3225 50.9486 17.3096C50.0502 17.2839 49.6322 16.8708 49.6203 15.9743C49.6057 14.8345 49.6057 13.6937 49.6203 12.552C49.6312 11.81 49.9897 11.4227 50.7436 11.3752C51.3518 11.3365 51.9639 11.3672 52.585 11.3672L53.6984 8.93443L52.589 7.80618C51.7737 6.98005 51.7797 6.33619 52.589 5.52789C53.32 4.79587 54.0253 4.04205 54.7682 3.31696C55.3972 2.70776 55.7964 2.69588 56.4997 3.2179C56.788 3.43087 57.0515 3.67653 57.3219 3.9113C57.5923 4.14606 57.8548 4.38578 58.1143 4.6136C58.8077 4.31644 59.4783 4.0579 60.1172 3.74092C60.2777 3.66167 60.4253 3.4071 60.4451 3.2189C60.4996 2.69489 60.4669 2.16296 60.4986 1.634C60.5491 0.784097 60.984 0.358156 61.823 0.346269C62.8799 0.32943 63.9368 0.323486 64.9928 0.339335C65.9001 0.352212 66.3657 0.840559 66.4063 1.76871C66.4311 2.31649 66.4539 2.86526 66.4776 3.41304C66.487 3.455 66.5 3.49609 66.5163 3.53587L68.8114 4.5928C69.372 4.12625 69.9129 3.65573 70.4755 3.21295C71.1392 2.69192 71.6028 2.70776 72.206 3.30606C73.0157 4.10908 73.8081 4.93025 74.5834 5.76959C75.2272 6.46991 75.2064 6.8592 74.5557 7.57538C74.1168 8.05877 73.6641 8.5283 73.2263 8.99287C73.5364 9.71697 73.8078 10.4014 74.1287 11.0612C74.1981 11.2028 74.4388 11.3266 74.6111 11.3405C75.0935 11.3801 75.5829 11.3336 76.0672 11.3653C76.8963 11.4188 77.2876 11.8397 77.2945 12.653C77.3035 13.7297 77.3064 14.8075 77.2945 15.8852C77.2866 16.8163 76.8646 17.3591 75.9593 17.2611C74.6458 17.1194 73.887 17.583 73.5601 18.846C73.4938 19.1035 73.3135 19.3304 73.1421 19.6523C73.5284 20.0584 73.9098 20.4715 74.3031 20.8727C75.2154 21.8048 75.2253 22.1346 74.313 23.0885C73.613 23.8216 72.9017 24.5443 72.1793 25.2569C71.5592 25.8671 70.9312 25.8938 70.2645 25.3381C69.8436 24.9865 69.4434 24.6091 69.0561 24.2208C68.8262 23.9919 68.6291 23.9513 68.332 24.1118C67.8465 24.3681 67.3482 24.5995 66.8392 24.8052C66.5242 24.935 66.3766 25.1202 66.3915 25.4728C66.4109 25.9374 66.4056 26.4026 66.3756 26.8665C66.3261 27.6174 65.8615 28.0731 65.1077 28.0889C63.9883 28.112 62.8687 28.117 61.7487 28.1038C60.9275 28.0958 60.5303 27.6798 60.5026 26.8398C60.4837 26.2702 60.4837 25.6997 60.4719 25.1301C60.4592 25.0691 60.4399 25.0096 60.4144 24.9528ZM75.2471 15.5147V13.178C74.7577 13.178 74.2971 13.1552 73.8395 13.1829C73.2966 13.2166 72.9678 12.9393 72.739 12.4995C72.316 11.6872 71.8722 10.8829 71.4968 10.0488C70.9153 8.76108 70.7044 9.00278 71.8752 7.88642C71.9673 7.79826 72.0961 7.72297 72.1367 7.615C72.2635 7.28118 72.521 6.87604 72.4259 6.60463C72.2427 6.07765 72.0109 5.46251 71.2987 5.38624C71.1117 5.36356 70.9224 5.40066 70.7578 5.49223C70.3172 5.77322 69.8941 6.08087 69.4909 6.41345C69.1304 6.71062 68.7975 6.67892 68.3944 6.50557C67.4583 6.1044 66.5123 5.71313 65.5515 5.38921C65.0235 5.21388 64.7184 4.9494 64.6451 4.39865C64.555 3.71913 64.447 3.04257 64.3241 2.25409L62.2162 2.3472C62.2162 3.11687 62.2053 3.76568 62.2162 4.41351C62.2261 4.88799 61.9656 5.15445 61.5714 5.32681C60.5808 5.75869 59.5903 6.18794 58.5997 6.61454C58.251 6.76312 57.8895 6.93053 57.5348 6.65317C57.1238 6.33124 56.7127 6.00534 56.3343 5.64874C55.9559 5.29214 55.5805 5.27233 55.1912 5.52987C54.5523 5.95185 54.2293 6.58086 54.4651 6.98699C54.7272 7.43906 55.0356 7.86265 55.3853 8.25094C55.949 8.87004 55.9618 8.90768 55.5884 9.67438C55.1516 10.5659 54.7197 11.4693 54.3423 12.3905C54.1135 12.9492 53.8133 13.2523 53.1675 13.1829C52.6573 13.1304 52.1373 13.173 51.6271 13.173V15.6217C52.2601 15.6217 52.8267 15.6267 53.3933 15.6217C53.9381 15.6148 54.2482 15.8981 54.4067 16.3953C54.4646 16.5708 54.5341 16.7422 54.6147 16.9084C54.9881 17.7009 55.3497 18.4933 55.7499 19.2759C55.9727 19.7097 55.8489 20.0218 55.5626 20.3655C55.2764 20.7092 54.9554 21.0807 54.786 21.4947C54.681 21.7513 54.7692 22.1336 54.8851 22.416C54.9703 22.6309 55.2348 22.7716 55.4101 22.9538C55.7796 23.3372 56.159 23.2857 56.5235 22.9647C56.8207 22.7002 57.096 22.4041 57.3902 22.1317C57.7864 21.7602 58.2173 21.7354 58.7067 21.99C59.6408 22.4853 60.5887 22.9499 61.5357 23.4253C61.9854 23.6522 62.2588 23.9801 62.2291 24.515C62.198 24.8727 62.2017 25.2327 62.24 25.5897C62.2638 25.7532 62.4441 26.0137 62.5689 26.0226C63.1682 26.0682 63.7724 26.0434 64.4509 26.0434C64.4509 25.6799 64.4371 25.4302 64.4509 25.1836C64.5104 24.2673 64.8363 23.5175 65.7476 23.1361C66.226 22.938 66.7094 22.7448 67.172 22.513C68.8787 21.6582 68.8758 21.6532 70.2962 22.9172C70.7103 23.2857 71.1144 23.2877 71.5216 22.9172C71.7078 22.7458 71.8861 22.5645 72.0604 22.3803C72.3249 22.1 72.3715 21.7761 72.1595 21.4581C71.909 21.0741 71.6333 20.7071 71.3343 20.3596C70.9946 19.9742 70.95 19.6473 71.2293 19.1709C71.6395 18.4498 72.0012 17.7023 72.312 16.9332C72.6023 16.2467 73.1609 15.4602 74.1396 15.6138C74.4596 15.6603 74.8033 15.5583 75.251 15.5147H75.2471Z" fill="#C33923"/>
<path d="M17.7715 46.4607C15.9885 45.692 15.1772 44.2369 15.511 42.5292C15.8003 41.0433 17.0464 39.9428 18.5055 39.8705C20.1558 39.7893 21.5713 40.7283 21.9725 42.1676C22.4816 44.0101 21.8387 45.4078 19.9735 46.4389C19.9735 48.0387 19.9735 49.6622 19.9804 51.2857C19.9833 51.4309 20.0357 51.5707 20.129 51.682C21.3494 52.9697 22.5767 54.2508 23.8109 55.5253C23.8298 55.5451 23.8872 55.5253 23.9991 55.5253C23.9991 55.3074 23.9991 55.0865 23.9991 54.8646C23.9707 47.5754 23.9361 40.2859 23.8951 32.996C23.8768 32.6294 23.7339 32.2799 23.49 32.0055C22.4004 30.8287 21.2711 29.6846 20.13 28.5553C19.9217 28.3633 19.7577 28.1281 19.6496 27.8662C19.5415 27.6043 19.4918 27.3219 19.504 27.0388C19.5238 26.28 19.504 25.5203 19.504 24.714C18.4144 24.2553 17.5427 23.5253 17.303 22.3544C17.1524 21.6185 17.1395 20.7765 17.3426 20.0613C17.8042 18.4348 19.3069 17.5572 21.0879 17.6839C22.6728 17.7969 23.8397 18.8726 24.2002 20.5427C24.5717 22.2593 23.7386 23.7125 21.7337 24.7595C21.7337 25.3796 21.703 26.0334 21.7506 26.6812C21.7674 26.9011 21.9487 27.1418 22.1101 27.3142C23.2067 28.4573 24.3112 29.5925 25.4325 30.7138C25.9605 31.2417 26.1754 31.8519 26.1754 32.5958C26.1655 44.0064 26.1622 55.4167 26.1655 66.8266C26.1655 67.9529 25.6128 68.5017 24.7193 68.2778C24.1249 68.1292 23.8823 67.7915 23.8793 67.0436C23.8714 64.4869 23.8644 61.9303 23.8793 59.3737C23.8875 59.1991 23.8571 59.025 23.7904 58.8635C23.7236 58.702 23.6221 58.5573 23.493 58.4396C21.7357 56.6714 20.0062 54.8736 18.2588 53.0995C18.0867 52.9303 17.9528 52.7263 17.866 52.5011C17.7792 52.2759 17.7416 52.0348 17.7556 51.7939C17.7873 50.0208 17.7715 48.2487 17.7715 46.4607ZM22.0111 21.2638C22.0163 21.0898 21.9864 20.9166 21.9232 20.7544C21.86 20.5922 21.7647 20.4444 21.6432 20.3197C21.5216 20.1951 21.3762 20.0963 21.2156 20.0291C21.0551 19.9619 20.8826 19.9277 20.7085 19.9286C20.029 19.9186 19.3504 20.5764 19.3485 21.246C19.3485 22.0018 19.9428 22.5506 20.7551 22.5407C21.5168 22.5317 22.0081 22.0325 22.0111 21.2638ZM19.8437 43.1948C19.8388 42.5728 19.3752 42.0864 18.7888 42.0874C18.2301 42.0874 17.7081 42.6282 17.7091 43.2047C17.708 43.3529 17.7366 43.4999 17.7934 43.6368C17.8501 43.7737 17.9337 43.8979 18.0393 44.0019C18.1449 44.1059 18.2703 44.1876 18.408 44.2423C18.5458 44.297 18.6931 44.3234 18.8413 44.3201C19.4594 44.3231 19.8487 43.8853 19.8437 43.1948Z" fill="#C33923"/>
<path d="M67.4675 40.2124C67.4457 38.782 69.0068 37.1277 70.4233 37.1951C72.2152 37.2803 73.5069 38.571 73.6357 40.2203C73.7437 41.6071 72.1499 43.2801 70.9126 43.3742C68.9147 43.5218 67.3674 42.0102 67.4675 40.2124ZM71.6902 40.3273C71.7051 39.721 71.1583 39.1386 70.5541 39.1069C69.9142 39.0782 69.299 39.6814 69.2891 40.3461C69.2812 40.9761 69.8478 41.5011 70.5392 41.5031C71.1831 41.505 71.6724 41.0048 71.6902 40.3273Z" fill="#C33923"/>
<path d="M63.3386 20.5209C60.0965 20.9548 57.0357 17.4066 57.1209 14.4211C57.2269 10.756 59.9707 8.21421 63.3228 8.11714C67.0017 8.01016 69.7783 10.8967 69.7535 14.5439C69.7347 17.4522 67.1493 20.7101 63.3386 20.5209ZM59.2773 14.3488C59.2308 16.6389 61.0276 18.4933 63.3535 18.5557C65.6229 18.6161 67.5852 16.733 67.6297 14.4498C67.6743 12.1666 65.8031 10.2003 63.5328 10.1656C61.2119 10.13 59.3239 11.9882 59.2734 14.3488H59.2773Z" fill="#C33923"/>
</g>
<defs>
<clipPath id="clip0_545_9216">
<rect width="83.109" height="68" fill="white" transform="translate(0 0.325439)"/>
</clipPath>
</defs>
</svg>
