<svg width="1920" height="796" viewBox="0 0 1920 796" fill="none" xmlns="http://www.w3.org/2000/svg">
<mask id="mask0_491_464" style="mask-type:alpha" maskUnits="userSpaceOnUse" x="0" y="0" width="1920" height="797">
<path d="M0 0.00244141H1920V796.002H0V0.00244141Z" fill="#F4FAFD"/>
</mask>
<g mask="url(#mask0_491_464)">
<path fill-rule="evenodd" clip-rule="evenodd" d="M1646.5 862C1601.16 843.222 1503.5 804.257 1503.5 711C1552 608.5 1632.81 679 1665 581.5C1680.15 535.626 1665 468.5 1681.5 403.5C1688.5 363.124 1705.89 306.5 1778.5 286.784C1902.5 253.113 1859.5 108.861 1937.5 118C1984.87 123.549 2033.77 333.11 2057.71 374.567C2079.91 413.027 2078.07 462.507 2081.66 509.901C2085.28 557.68 2095.85 605.182 2078.8 652.879C2060.72 703.423 2028.67 752.638 1984.66 781.159C1941.59 809.066 1892.54 800.017 1845.18 804.257C1797.45 808.53 1688.59 879.432 1646.5 862Z" fill="url(#paint0_linear_491_464)"/>
<path fill-rule="evenodd" clip-rule="evenodd" d="M449.868 4.37985C470.766 39.3567 453.116 88.3086 448.449 132.416C443.855 175.837 450.297 220.504 422.655 261.571C394.984 302.679 341.775 323.34 299.356 353.915C252.627 387.596 213.931 436.036 159.836 451.007C103.99 466.464 48.9118 455.498 4.20859 435.601C-39.5452 416.126 -66.8264 379.368 -88.7108 340.38C-110.05 302.363 -120.861 259.632 -120.604 213.243C-120.333 164.383 -123.229 110.315 -87.1853 65.2745C-51.3481 20.4916 14.1353 8.97243 66.0681 -20.0261C114.325 -46.9722 156.472 -93.1195 208.263 -99.6997C259.974 -106.27 295.035 -72.4258 336.818 -54.4262C377.125 -37.0625 428.917 -30.6866 449.868 4.37985Z" fill="url(#paint1_linear_491_464)"/>
</g>
<defs>
<linearGradient id="paint0_linear_491_464" x1="2098.07" y1="925.292" x2="1536.16" y2="389.894" gradientUnits="userSpaceOnUse">
<stop stop-color="white" stop-opacity="0"/>
<stop offset="1" stop-color="#F4ECFF"/>
</linearGradient>
<linearGradient id="paint1_linear_491_464" x1="110.852" y1="-241.192" x2="346.355" y2="457.284" gradientUnits="userSpaceOnUse">
<stop stop-color="white" stop-opacity="0"/>
<stop offset="1" stop-color="#F4ECFF"/>
</linearGradient>
</defs>
</svg>
