<svg width="1920" height="901" viewBox="0 0 1920 901" fill="none" xmlns="http://www.w3.org/2000/svg">
<path d="M0 50.5C0 22.8858 22.3858 0.5 50 0.5H1870C1897.61 0.5 1920 22.8858 1920 50.5V900.5H0V50.5Z" fill="url(#paint0_linear_491_111)"/>
<g opacity="0.5">
<g clip-path="url(#clip0_491_111)">
<path d="M479.864 898.499L443 834.495H516.717L479.864 898.499Z" stroke="#BA8F97" stroke-width="2" stroke-miterlimit="10"/>
<path d="M590.424 834.495L627.287 898.499H553.57L590.424 834.495Z" stroke="#BA8F97" stroke-width="2" stroke-miterlimit="10"/>
<path d="M74.4337 834.495L111.297 898.499H37.5801L74.4337 834.495Z" stroke="#BA8F97" stroke-width="2" stroke-miterlimit="10"/>
<path d="M295.576 834.495L332.43 770.491L369.293 834.495H295.576Z" stroke="#BA8F97" stroke-width="2" stroke-miterlimit="10"/>
<path d="M148.15 706.497L185.004 770.491H111.297L148.15 706.497Z" stroke="#BA8F97" stroke-width="2" stroke-miterlimit="10"/>
<path d="M74.4336 834.495L111.297 770.491L148.151 834.495H74.4336Z" stroke="#BA8F97" stroke-width="2" stroke-miterlimit="10"/>
<path d="M443 834.495L479.864 770.491L516.717 834.495H443Z" stroke="#BA8F97" stroke-width="2" stroke-miterlimit="10"/>
<path d="M221.857 834.495L258.721 898.499H185.004L221.857 834.495Z" stroke="#BA8F97" stroke-width="2" stroke-miterlimit="10"/>
<path d="M148.15 834.495L185.004 770.491L221.858 834.495H148.15Z" stroke="#BA8F97" stroke-width="2" stroke-miterlimit="10"/>
<path d="M516.717 834.495L553.57 770.491L590.424 834.495H516.717Z" stroke="#BA8F97" stroke-width="2" stroke-miterlimit="10"/>
<path d="M37.5802 770.491L74.4337 834.495H0.726562L37.5802 770.491Z" stroke="#BA8F97" stroke-width="2" stroke-miterlimit="10"/>
<path d="M553.57 898.499L516.717 834.495H590.424L553.57 898.499Z" stroke="#BA8F97" stroke-width="2" stroke-miterlimit="10"/>
<path d="M74.4337 706.497L37.5802 770.491L0.726562 706.497H74.4337Z" stroke="#BA8F97" stroke-width="2" stroke-miterlimit="10"/>
<path d="M369.293 834.495L406.147 770.491L443 834.495H369.293Z" stroke="#BA8F97" stroke-width="2" stroke-miterlimit="10"/>
<path d="M406.147 770.491L369.293 834.495L332.43 770.491H406.147Z" stroke="#BA8F97" stroke-width="2" stroke-miterlimit="10"/>
<path d="M111.297 642.502L74.4337 706.497L37.5801 642.502H111.297Z" stroke="#BA8F97" stroke-width="2" stroke-miterlimit="10"/>
<path d="M221.857 706.497L258.721 770.491H185.004L221.857 706.497Z" stroke="#BA8F97" stroke-width="2" stroke-miterlimit="10"/>
<path d="M185.004 770.491L148.15 706.497H221.858L185.004 770.491Z" stroke="#BA8F97" stroke-width="2" stroke-miterlimit="10"/>
<path d="M258.721 770.491L221.857 706.497H295.575L258.721 770.491Z" stroke="#BA8F97" stroke-width="2" stroke-miterlimit="10"/>
<path d="M258.721 898.499L221.857 834.495H295.575L258.721 898.499Z" stroke="#BA8F97" stroke-width="2" stroke-miterlimit="10"/>
<path d="M74.4337 706.497L111.297 770.491H37.5801L74.4337 706.497Z" stroke="#BA8F97" stroke-width="2" stroke-miterlimit="10"/>
<path d="M111.297 898.499L74.4336 834.495H148.151L111.297 898.499Z" fill="url(#paint1_linear_491_111)" stroke="#BA8F97" stroke-width="2" stroke-miterlimit="10"/>
<path d="M74.4337 834.495L37.5802 898.499L0.726562 834.495H74.4337Z" stroke="#BA8F97" stroke-width="2" stroke-miterlimit="10"/>
<path d="M627.287 898.499L590.424 834.495H664.141L627.287 898.499Z" fill="url(#paint2_linear_491_111)" stroke="#BA8F97" stroke-width="2" stroke-miterlimit="10"/>
<path d="M332.43 898.499L295.576 834.495H369.293L332.43 898.499Z" fill="url(#paint3_linear_491_111)" stroke="#BA8F97" stroke-width="2" stroke-miterlimit="10"/>
<path d="M74.4336 706.497L111.297 642.502L148.151 706.497H74.4336Z" stroke="#BA8F97" stroke-width="2" stroke-miterlimit="10"/>
<path d="M479.864 770.491L443 834.495L406.146 770.491H479.864Z" stroke="#BA8F97" stroke-width="2" stroke-miterlimit="10"/>
<path d="M148.15 706.497L185.004 642.502L221.858 706.497H148.15Z" fill="url(#paint4_linear_491_111)" stroke="#BA8F97" stroke-width="2" stroke-miterlimit="10"/>
<path d="M332.43 770.491L295.576 834.495L258.723 770.491H332.43Z" stroke="#BA8F97" stroke-width="2" stroke-miterlimit="10"/>
<path d="M111.297 770.491L74.4337 834.495L37.5801 770.491H111.297Z" fill="url(#paint5_linear_491_111)" stroke="#BA8F97" stroke-width="2" stroke-miterlimit="10"/>
<path d="M221.857 834.495L258.721 770.491L295.575 834.495H221.857Z" stroke="#BA8F97" stroke-width="2" stroke-miterlimit="10"/>
<path d="M221.857 706.497L258.721 642.502L295.575 706.497H221.857Z" stroke="#BA8F97" stroke-width="2" stroke-miterlimit="10"/>
<path d="M443 834.495L479.864 898.499H406.146L443 834.495Z" stroke="#BA8F97" stroke-width="2" stroke-miterlimit="10"/>
<path d="M553.57 770.491L516.717 834.495L479.863 770.491H553.57Z" fill="url(#paint6_linear_491_111)" stroke="#BA8F97" stroke-width="2" stroke-miterlimit="10"/>
<path d="M37.5802 642.492L74.4337 706.496H0.726562L37.5802 642.492Z" stroke="#BA8F97" stroke-width="2" stroke-miterlimit="10"/>
<path d="M406.147 898.499L369.293 834.495H443L406.147 898.499Z" stroke="#BA8F97" stroke-width="2" stroke-miterlimit="10"/>
<path d="M111.297 770.491L74.4336 706.497H148.151L111.297 770.491Z" stroke="#BA8F97" stroke-width="2" stroke-miterlimit="10"/>
<path d="M185.004 898.499L148.15 834.495H221.858L185.004 898.499Z" stroke="#BA8F97" stroke-width="2" stroke-miterlimit="10"/>
<path d="M185.004 770.491L148.15 834.495L111.297 770.491H185.004Z" stroke="#BA8F97" stroke-width="2" stroke-miterlimit="10"/>
<path d="M258.721 770.491L221.857 834.495L185.004 770.491H258.721Z" fill="url(#paint7_linear_491_111)" stroke="#BA8F97" stroke-width="2" stroke-miterlimit="10"/>
<path d="M74.4434 578.498L111.297 642.502H37.5898L74.4434 578.498Z" stroke="#BA8F97" stroke-width="2" stroke-miterlimit="10"/>
<path d="M148.15 450.5L185.004 514.494H111.297L148.15 450.5Z" stroke="#BA8F97" stroke-width="2" stroke-miterlimit="10"/>
<path d="M74.4434 578.498L111.297 514.494L148.151 578.498H74.4434Z" stroke="#BA8F97" stroke-width="2" stroke-miterlimit="10"/>
<path d="M37.5901 514.494L74.4437 578.498H0.726562L37.5901 514.494Z" stroke="#BA8F97" stroke-width="2" stroke-miterlimit="10"/>
<path d="M74.4437 450.5L37.5901 514.494L0.726562 450.5H74.4437Z" stroke="#BA8F97" stroke-width="2" stroke-miterlimit="10"/>
<path d="M74.4434 450.5L111.297 514.494H37.5898L74.4434 450.5Z" fill="url(#paint8_linear_491_111)" stroke="#BA8F97" stroke-width="2" stroke-miterlimit="10"/>
<path d="M111.297 642.502L74.4434 578.498H148.151L111.297 642.502Z" stroke="#BA8F97" stroke-width="2" stroke-miterlimit="10"/>
<path d="M74.4437 578.498L37.5901 642.502L0.726562 578.498H74.4437Z" fill="url(#paint9_linear_491_111)" stroke="#BA8F97" stroke-width="2" stroke-miterlimit="10"/>
<path d="M111.297 514.494L74.4434 578.498L37.5898 514.494H111.297Z" stroke="#BA8F97" stroke-width="2" stroke-miterlimit="10"/>
<path d="M185.004 642.502L148.15 578.498H221.868L185.004 642.502Z" stroke="#BA8F97" stroke-width="2" stroke-miterlimit="10"/>
<path d="M185.004 514.494L148.15 578.498L111.297 514.494H185.004Z" stroke="#BA8F97" stroke-width="2" stroke-miterlimit="10"/>
<g opacity="0.4">
<path d="M111.297 386.496L74.4434 450.5L37.5898 386.496H111.297Z" stroke="#A38086" stroke-width="2" stroke-miterlimit="10"/>
<path d="M74.4434 450.5L111.297 386.496L148.151 450.5H74.4434Z" stroke="#A38086" stroke-width="2" stroke-miterlimit="10"/>
<path d="M74.4434 322.502L111.297 386.496H37.5898L74.4434 322.502Z" stroke="#A38086" stroke-width="2" stroke-miterlimit="10"/>
<path d="M148.16 194.503L185.014 258.498H111.297L148.16 194.503Z" stroke="#A38086" stroke-width="2" stroke-miterlimit="10"/>
<path d="M74.4434 322.502L111.297 258.498L148.161 322.502H74.4434Z" stroke="#A38086" stroke-width="2" stroke-miterlimit="10"/>
<path d="M37.5899 258.498L74.4435 322.502H0.736328L37.5899 258.498Z" stroke="#A38086" stroke-width="2" stroke-miterlimit="10"/>
<path d="M74.4435 194.503L37.5899 258.498L0.736328 194.503H74.4435Z" stroke="#A38086" stroke-width="2" stroke-miterlimit="10"/>
<path d="M221.869 194.503L258.733 258.498H185.016L221.869 194.503Z" stroke="#A38086" stroke-width="2" stroke-miterlimit="10"/>
<path d="M74.4434 194.503L111.297 258.498H37.5898L74.4434 194.503Z" stroke="#A38086" stroke-width="2" stroke-miterlimit="10"/>
<path d="M332.44 130.499L295.586 194.503L258.732 130.499H332.44Z" stroke="#A38086" stroke-width="2" stroke-miterlimit="10"/>
<path d="M74.4435 322.502L37.5899 386.496L0.736328 322.502H74.4435Z" fill="url(#paint10_linear_491_111)" stroke="#A38086" stroke-width="2" stroke-miterlimit="10"/>
<path d="M74.4434 194.503L111.297 130.499L148.161 194.503H74.4434Z" stroke="#A38086" stroke-width="2" stroke-miterlimit="10"/>
<path d="M148.162 194.503L185.016 130.499L221.869 194.503H148.162Z" stroke="#A38086" stroke-width="2" stroke-miterlimit="10"/>
<path d="M111.297 258.498L74.4434 322.502L37.5898 258.498H111.297Z" stroke="#A38086" stroke-width="2" stroke-miterlimit="10"/>
<path d="M221.869 194.503L258.733 130.499L295.586 194.503H221.869Z" stroke="#A38086" stroke-width="2" stroke-miterlimit="10"/>
<path d="M37.5899 130.499L74.4435 194.503H0.736328L37.5899 130.499Z" fill="url(#paint11_linear_491_111)" stroke="#A38086" stroke-width="2" stroke-miterlimit="10"/>
<path d="M111.297 258.498L74.4434 194.503H148.161L111.297 258.498Z" stroke="#A38086" stroke-width="2" stroke-miterlimit="10"/>
<path d="M369.293 66.5051L406.157 2.50098L443.01 66.5051H369.293Z" stroke="#A38086" stroke-width="2" stroke-miterlimit="10"/>
<path d="M148.16 66.5049L185.014 130.499H111.297L148.16 66.5049Z" fill="url(#paint12_linear_491_111)" stroke="#A38086" stroke-width="2" stroke-miterlimit="10"/>
<path d="M369.293 66.5049L406.157 130.499H332.439L369.293 66.5049Z" stroke="#A38086" stroke-width="2" stroke-miterlimit="10"/>
<path d="M406.157 130.499L369.293 66.5049H443.01L406.157 130.499Z" stroke="#A38086" stroke-width="2" stroke-miterlimit="10"/>
<path d="M74.4435 66.5049L37.5899 130.499L0.736328 66.5049H74.4435Z" stroke="#A38086" stroke-width="2" stroke-miterlimit="10"/>
<path d="M221.869 66.5049L258.733 130.499H185.016L221.869 66.5049Z" stroke="#A38086" stroke-width="2" stroke-miterlimit="10"/>
<path d="M185.016 130.499L148.162 66.5049H221.869L185.016 130.499Z" stroke="#A38086" stroke-width="2" stroke-miterlimit="10"/>
<path d="M258.733 130.499L221.869 66.5049H295.586L258.733 130.499Z" stroke="#A38086" stroke-width="2" stroke-miterlimit="10"/>
<path d="M74.4434 66.5049L111.297 130.499H37.5898L74.4434 66.5049Z" stroke="#A38086" stroke-width="2" stroke-miterlimit="10"/>
<path d="M74.4434 66.5051L111.297 2.50098L148.161 66.5051H74.4434Z" stroke="#A38086" stroke-width="2" stroke-miterlimit="10"/>
<path d="M148.162 66.5051L185.016 2.50098L221.869 66.5051H148.162Z" fill="url(#paint13_linear_491_111)" stroke="#A38086" stroke-width="2" stroke-miterlimit="10"/>
<path d="M295.586 66.5051L332.44 2.50098L369.293 66.5051H295.586Z" fill="url(#paint14_linear_491_111)" stroke="#A38086" stroke-width="2" stroke-miterlimit="10"/>
<path d="M479.873 2.50098L443.01 66.5051L406.156 2.50098H479.873Z" stroke="#A38086" stroke-width="2" stroke-miterlimit="10"/>
<path d="M332.44 130.499L295.586 66.5049H369.293L332.44 130.499Z" stroke="#A38086" stroke-width="2" stroke-miterlimit="10"/>
<path d="M221.869 66.5051L258.733 2.50098L295.586 66.5051H221.869Z" stroke="#A38086" stroke-width="2" stroke-miterlimit="10"/>
<path d="M37.5899 2.50098L74.4435 66.5051H0.736328L37.5899 2.50098Z" fill="url(#paint15_linear_491_111)" stroke="#A38086" stroke-width="2" stroke-miterlimit="10"/>
<path d="M111.297 130.499L74.4434 66.5049H148.161L111.297 130.499Z" stroke="#A38086" stroke-width="2" stroke-miterlimit="10"/>
<path d="M185.014 258.498L148.16 322.502L111.297 258.498H185.014Z" fill="url(#paint16_linear_491_111)" stroke="#A38086" stroke-width="2" stroke-miterlimit="10"/>
<path d="M111.297 130.499L74.4434 194.503L37.5898 130.499H111.297Z" stroke="#A38086" stroke-width="2" stroke-miterlimit="10"/>
<path d="M111.297 2.50098L74.4434 66.5051L37.5898 2.50098H111.297Z" stroke="#A38086" stroke-width="2" stroke-miterlimit="10"/>
<path d="M332.44 2.50098L295.586 66.5051L258.732 2.50098H332.44Z" stroke="#A38086" stroke-width="2" stroke-miterlimit="10"/>
<path d="M295.586 66.5049L332.44 130.499H258.732L295.586 66.5049Z" stroke="#A38086" stroke-width="2" stroke-miterlimit="10"/>
</g>
<path d="M1732.98 770.491L1696.12 706.497H1769.84L1732.98 770.491Z" stroke="#A38086" stroke-width="2" stroke-miterlimit="10"/>
<path d="M1880.41 898.499L1843.56 834.495H1917.26L1880.41 898.499Z" stroke="#A38086" stroke-width="2" stroke-miterlimit="10"/>
<path d="M1769.84 706.497L1806.69 770.491H1732.98L1769.84 706.497Z" stroke="#A38086" stroke-width="2" stroke-miterlimit="10"/>
<path d="M1438.14 898.499L1401.27 834.495H1474.99L1438.14 898.499Z" stroke="#A38086" stroke-width="2" stroke-miterlimit="10"/>
<path d="M1548.7 834.495L1585.56 898.499H1511.84L1548.7 834.495Z" stroke="#A38086" stroke-width="2" stroke-miterlimit="10"/>
<path d="M1659.28 770.491L1622.41 706.497H1696.12L1659.28 770.491Z" stroke="#A38086" stroke-width="2" stroke-miterlimit="10"/>
<path d="M1253.85 834.495L1290.7 770.491L1327.56 834.495H1253.85Z" stroke="#A38086" stroke-width="2" stroke-miterlimit="10"/>
<path d="M1696.12 706.497L1732.98 642.503L1769.84 706.497H1696.12Z" stroke="#A38086" stroke-width="2" stroke-miterlimit="10"/>
<path d="M1585.56 770.491L1548.7 706.497H1622.41L1585.56 770.491Z" stroke="#A38086" stroke-width="2" stroke-miterlimit="10"/>
<path d="M1401.27 834.495L1438.14 770.491L1474.99 834.495H1401.27Z" stroke="#A38086" stroke-width="2" stroke-miterlimit="10"/>
<path d="M1180.14 834.495L1216.99 898.499H1143.28L1180.14 834.495Z" stroke="#A38086" stroke-width="2" stroke-miterlimit="10"/>
<path d="M1843.56 834.495L1880.41 770.491L1917.26 834.495H1843.56Z" stroke="#A38086" stroke-width="2" stroke-miterlimit="10"/>
<path d="M1474.99 834.495L1511.84 770.491L1548.7 834.495H1474.99Z" stroke="#A38086" stroke-width="2" stroke-miterlimit="10"/>
<path d="M1769.84 834.495L1806.69 770.491L1843.56 834.495H1769.84Z" stroke="#A38086" stroke-width="2" stroke-miterlimit="10"/>
<path d="M1696.12 834.495L1732.98 770.491L1769.84 834.495H1696.12Z" stroke="#A38086" stroke-width="2" stroke-miterlimit="10"/>
<path d="M1806.69 770.491L1769.84 706.497H1843.56L1806.69 770.491Z" stroke="#A38086" stroke-width="2" stroke-miterlimit="10"/>
<path d="M1732.98 898.499L1696.12 834.495H1769.84L1732.98 898.499Z" stroke="#A38086" stroke-width="2" stroke-miterlimit="10"/>
<path d="M1511.84 898.499L1474.99 834.495H1548.7L1511.84 898.499Z" stroke="#A38086" stroke-width="2" stroke-miterlimit="10"/>
<path d="M1327.57 834.495L1364.42 770.491L1401.27 834.495H1327.57Z" stroke="#A38086" stroke-width="2" stroke-miterlimit="10"/>
<path d="M1364.42 770.491L1327.57 834.495L1290.7 770.491H1364.42Z" stroke="#A38086" stroke-width="2" stroke-miterlimit="10"/>
<path d="M1806.69 898.499L1769.84 834.495H1843.56L1806.69 898.499Z" stroke="#A38086" stroke-width="2" stroke-miterlimit="10"/>
<path d="M1806.69 642.503L1769.84 706.497L1732.98 642.503H1806.69Z" fill="url(#paint17_linear_491_111)" stroke="#A38086" stroke-width="2" stroke-miterlimit="10"/>
<path d="M1732.98 770.491L1696.12 834.495L1659.28 770.491H1732.98Z" stroke="#A38086" stroke-width="2" stroke-miterlimit="10"/>
<path d="M1548.7 706.497L1585.56 770.491H1511.84L1548.7 706.497Z" stroke="#A38086" stroke-width="2" stroke-miterlimit="10"/>
<path d="M1216.99 898.499L1180.14 834.495H1253.85L1216.99 898.499Z" stroke="#A38086" stroke-width="2" stroke-miterlimit="10"/>
<path d="M1806.69 770.491L1769.84 834.495L1732.98 770.491H1806.69Z" stroke="#A38086" stroke-width="2" stroke-miterlimit="10"/>
<path d="M1585.56 898.499L1548.7 834.495H1622.41L1585.56 898.499Z" stroke="#A38086" stroke-width="2" stroke-miterlimit="10"/>
<path d="M1696.12 834.495L1732.98 898.499H1659.28L1696.12 834.495Z" fill="url(#paint18_linear_491_111)" stroke="#A38086" stroke-width="2" stroke-miterlimit="10"/>
<path d="M1290.7 898.499L1253.85 834.495H1327.56L1290.7 898.499Z" stroke="#A38086" stroke-width="2" stroke-miterlimit="10"/>
<path d="M1659.28 898.499L1622.41 834.495H1696.12L1659.28 898.499Z" stroke="#A38086" stroke-width="2" stroke-miterlimit="10"/>
<path d="M1548.7 834.495L1585.56 770.491L1622.41 834.495H1548.7Z" stroke="#A38086" stroke-width="2" stroke-miterlimit="10"/>
<path d="M1880.41 770.491L1843.56 834.495L1806.69 770.491H1880.41Z" fill="url(#paint19_linear_491_111)" stroke="#A38086" stroke-width="2" stroke-miterlimit="10"/>
<path d="M1843.56 706.497L1880.41 642.503L1917.26 706.497H1843.56Z" stroke="#A38086" stroke-width="2" stroke-miterlimit="10"/>
<path d="M1843.56 834.495L1880.41 898.499H1806.69L1843.56 834.495Z" stroke="#A38086" stroke-width="2" stroke-miterlimit="10"/>
<path d="M1880.41 770.491L1843.56 706.497H1917.26L1880.41 770.491Z" stroke="#A38086" stroke-width="2" stroke-miterlimit="10"/>
<path d="M1622.41 706.497L1659.28 642.503L1696.12 706.497H1622.41Z" stroke="#A38086" stroke-width="2" stroke-miterlimit="10"/>
<path d="M1622.41 834.495L1659.28 770.491L1696.12 834.495H1622.41Z" stroke="#A38086" stroke-width="2" stroke-miterlimit="10"/>
<path d="M1843.56 706.497L1880.41 770.491H1806.69L1843.56 706.497Z" stroke="#A38086" stroke-width="2" stroke-miterlimit="10"/>
<path d="M1401.27 834.495L1438.14 898.499H1364.42L1401.27 834.495Z" stroke="#A38086" stroke-width="2" stroke-miterlimit="10"/>
<path d="M1585.56 770.491L1548.7 834.495L1511.84 770.491H1585.56Z" fill="url(#paint20_linear_491_111)" stroke="#A38086" stroke-width="2" stroke-miterlimit="10"/>
<path d="M1511.84 770.491L1474.99 834.495L1438.14 770.491H1511.84Z" stroke="#A38086" stroke-width="2" stroke-miterlimit="10"/>
<path d="M1880.41 642.503L1843.56 706.497L1806.69 642.503H1880.41Z" fill="url(#paint21_linear_491_111)" stroke="#A38086" stroke-width="2" stroke-miterlimit="10"/>
<path d="M1659.28 770.491L1622.41 834.495L1585.56 770.491H1659.28Z" stroke="#A38086" stroke-width="2" stroke-miterlimit="10"/>
<path d="M1364.42 898.499L1327.57 834.495H1401.27L1364.42 898.499Z" fill="url(#paint22_linear_491_111)" stroke="#A38086" stroke-width="2" stroke-miterlimit="10"/>
<path d="M1696.12 706.497L1732.98 770.491H1659.28L1696.12 706.497Z" fill="url(#paint23_linear_491_111)" stroke="#A38086" stroke-width="2" stroke-miterlimit="10"/>
<path d="M1880.42 642.503L1843.56 578.499H1917.26L1880.42 642.503Z" stroke="#A38086" stroke-width="2" stroke-miterlimit="10"/>
<path d="M1769.84 450.5L1806.7 514.494H1732.98L1769.84 450.5Z" stroke="#A38086" stroke-width="2" stroke-miterlimit="10"/>
<path d="M1843.56 578.498L1880.42 514.494L1917.26 578.498H1843.56Z" fill="url(#paint24_linear_491_111)" stroke="#A38086" stroke-width="2" stroke-miterlimit="10"/>
<path d="M1769.84 578.498L1806.7 514.494L1843.56 578.498H1769.84Z" stroke="#A38086" stroke-width="2" stroke-miterlimit="10"/>
<path d="M1696.13 578.498L1732.98 514.494L1769.84 578.498H1696.13Z" stroke="#A38086" stroke-width="2" stroke-miterlimit="10"/>
<path d="M1806.7 514.494L1769.84 450.5H1843.56L1806.7 514.494Z" stroke="#A38086" stroke-width="2" stroke-miterlimit="10"/>
<path d="M1732.98 642.503L1696.13 578.499H1769.84L1732.98 642.503Z" stroke="#A38086" stroke-width="2" stroke-miterlimit="10"/>
<path d="M1806.7 642.503L1769.84 578.499H1843.56L1806.7 642.503Z" stroke="#A38086" stroke-width="2" stroke-miterlimit="10"/>
<path d="M1806.7 514.494L1769.84 578.498L1732.98 514.494H1806.7Z" stroke="#A38086" stroke-width="2" stroke-miterlimit="10"/>
<path d="M1880.42 514.494L1843.56 578.498L1806.7 514.494H1880.42Z" stroke="#A38086" stroke-width="2" stroke-miterlimit="10"/>
<path d="M1843.56 450.5L1880.42 386.496L1917.26 450.5H1843.56Z" stroke="#A38086" stroke-width="2" stroke-miterlimit="10"/>
<path d="M1843.56 578.499L1880.42 642.503H1806.7L1843.56 578.499Z" stroke="#A38086" stroke-width="2" stroke-miterlimit="10"/>
<path d="M1880.42 514.494L1843.56 450.5H1917.26L1880.42 514.494Z" stroke="#A38086" stroke-width="2" stroke-miterlimit="10"/>
<path d="M1843.56 450.5L1880.42 514.494H1806.7L1843.56 450.5Z" stroke="#A38086" stroke-width="2" stroke-miterlimit="10"/>
<g opacity="0.3">
<path d="M1880.42 386.496L1843.56 322.502H1917.27L1880.42 386.496Z" stroke="#A38086" stroke-width="2" stroke-miterlimit="10"/>
<path d="M1769.85 194.493L1806.7 258.497H1732.98L1769.85 194.493Z" stroke="#A38086" stroke-width="2" stroke-miterlimit="10"/>
<path d="M1843.56 322.502L1880.42 258.498L1917.27 322.502H1843.56Z" stroke="#A38086" stroke-width="2" stroke-miterlimit="10"/>
<path d="M1769.85 322.502L1806.7 258.498L1843.56 322.502H1769.85Z" stroke="#A38086" stroke-width="2" stroke-miterlimit="10"/>
<path d="M1696.13 322.502L1732.98 258.498L1769.85 322.502H1696.13Z" stroke="#A38086" stroke-width="2" stroke-miterlimit="10"/>
<path d="M1806.7 258.497L1769.85 194.493H1843.56L1806.7 258.497Z" stroke="#A38086" stroke-width="2" stroke-miterlimit="10"/>
<path d="M1806.7 130.499L1769.85 194.493L1732.98 130.499H1806.7Z" stroke="#A38086" stroke-width="2" stroke-miterlimit="10"/>
<path d="M1806.7 258.498L1769.85 322.502L1732.98 258.498H1806.7Z" fill="url(#paint25_linear_491_111)" stroke="#A38086" stroke-width="2" stroke-miterlimit="10"/>
<path d="M1880.42 258.498L1843.56 322.502L1806.7 258.498H1880.42Z" stroke="#A38086" stroke-width="2" stroke-miterlimit="10"/>
<path d="M1843.56 194.493L1880.42 130.499L1917.27 194.493H1843.56Z" stroke="#A38086" stroke-width="2" stroke-miterlimit="10"/>
<path d="M1843.56 322.502L1880.42 386.496H1806.7L1843.56 322.502Z" fill="url(#paint26_linear_491_111)" stroke="#A38086" stroke-width="2" stroke-miterlimit="10"/>
<path d="M1880.42 258.497L1843.56 194.493H1917.27L1880.42 258.497Z" stroke="#A38086" stroke-width="2" stroke-miterlimit="10"/>
<path d="M1622.42 194.493L1659.28 130.499L1696.13 194.493H1622.42Z" stroke="#A38086" stroke-width="2" stroke-miterlimit="10"/>
<path d="M1843.56 194.493L1880.42 258.497H1806.7L1843.56 194.493Z" stroke="#A38086" stroke-width="2" stroke-miterlimit="10"/>
<path d="M1880.42 130.499L1843.56 194.493L1806.7 130.499H1880.42Z" fill="url(#paint27_linear_491_111)" stroke="#A38086" stroke-width="2" stroke-miterlimit="10"/>
<path d="M1732.98 130.499L1696.13 66.5049H1769.85L1732.98 130.499Z" stroke="#A38086" stroke-width="2" stroke-miterlimit="10"/>
<path d="M1474.99 66.5051L1511.85 2.50098L1548.71 66.5051H1474.99Z" stroke="#A38086" stroke-width="2" stroke-miterlimit="10"/>
<path d="M1769.85 66.5049L1806.7 130.499H1732.98L1769.85 66.5049Z" stroke="#A38086" stroke-width="2" stroke-miterlimit="10"/>
<path d="M1659.28 130.499L1622.42 66.5049H1696.13L1659.28 130.499Z" stroke="#A38086" stroke-width="2" stroke-miterlimit="10"/>
<path d="M1696.13 66.5051L1732.98 2.50098L1769.85 66.5051H1696.13Z" stroke="#A38086" stroke-width="2" stroke-miterlimit="10"/>
<path d="M1585.56 130.499L1548.71 66.5049H1622.42L1585.56 130.499Z" stroke="#A38086" stroke-width="2" stroke-miterlimit="10"/>
<path d="M1806.7 130.499L1769.85 66.5049H1843.56L1806.7 130.499Z" stroke="#A38086" stroke-width="2" stroke-miterlimit="10"/>
<path d="M1364.43 130.499L1327.57 66.5049H1401.28L1364.43 130.499Z" stroke="#A38086" stroke-width="2" stroke-miterlimit="10"/>
<path d="M1585.56 2.50098L1548.71 66.5051L1511.85 2.50098H1585.56Z" stroke="#A38086" stroke-width="2" stroke-miterlimit="10"/>
<path d="M1548.71 66.5051L1585.56 2.50098L1622.42 66.5051H1548.71Z" stroke="#A38086" stroke-width="2" stroke-miterlimit="10"/>
<path d="M1806.7 2.50098L1769.85 66.5051L1732.98 2.50098H1806.7Z" fill="url(#paint28_linear_491_111)" stroke="#A38086" stroke-width="2" stroke-miterlimit="10"/>
<path d="M1548.71 66.5049L1585.56 130.499H1511.85L1548.71 66.5049Z" stroke="#A38086" stroke-width="2" stroke-miterlimit="10"/>
<path d="M1401.28 66.5051L1438.14 2.50098L1474.99 66.5051H1401.28Z" fill="url(#paint29_linear_491_111)" stroke="#A38086" stroke-width="2" stroke-miterlimit="10"/>
<path d="M1511.85 130.499L1474.99 66.5049H1548.71L1511.85 130.499Z" stroke="#A38086" stroke-width="2" stroke-miterlimit="10"/>
<path d="M1474.99 66.5049L1511.85 130.499H1438.14L1474.99 66.5049Z" stroke="#A38086" stroke-width="2" stroke-miterlimit="10"/>
<path d="M1438.14 130.499L1401.28 66.5049H1474.99L1438.14 130.499Z" stroke="#A38086" stroke-width="2" stroke-miterlimit="10"/>
<path d="M1843.56 66.5051L1880.42 2.50098L1917.27 66.5051H1843.56Z" stroke="#A38086" stroke-width="2" stroke-miterlimit="10"/>
<path d="M1880.42 130.499L1843.56 66.5049H1917.27L1880.42 130.499Z" stroke="#A38086" stroke-width="2" stroke-miterlimit="10"/>
<path d="M1622.42 66.5051L1659.28 2.50098L1696.13 66.5051H1622.42Z" stroke="#A38086" stroke-width="2" stroke-miterlimit="10"/>
<path d="M1438.14 2.50098L1401.28 66.5051L1364.43 2.50098H1438.14Z" stroke="#A38086" stroke-width="2" stroke-miterlimit="10"/>
<path d="M1843.56 66.5049L1880.42 130.499H1806.7L1843.56 66.5049Z" stroke="#A38086" stroke-width="2" stroke-miterlimit="10"/>
<path d="M1622.42 66.5049L1659.28 130.499H1585.56L1622.42 66.5049Z" stroke="#A38086" stroke-width="2" stroke-miterlimit="10"/>
<path d="M1880.42 2.50098L1843.56 66.5051L1806.7 2.50098H1880.42Z" stroke="#A38086" stroke-width="2" stroke-miterlimit="10"/>
<path d="M1696.13 66.5049L1732.98 130.499H1659.28L1696.13 66.5049Z" fill="url(#paint30_linear_491_111)" stroke="#A38086" stroke-width="2" stroke-miterlimit="10"/>
</g>
</g>
</g>
<defs>
<linearGradient id="paint0_linear_491_111" x1="274.5" y1="-55" x2="1520.5" y2="855.5" gradientUnits="userSpaceOnUse">
<stop stop-color="#F1F9FF"/>
<stop offset="0.34" stop-color="#FDF3FF"/>
<stop offset="0.72" stop-color="#FEFEFF"/>
<stop offset="1" stop-color="#FFF4F5"/>
</linearGradient>
<linearGradient id="paint1_linear_491_111" x1="111.292" y1="834.495" x2="111.292" y2="898.499" gradientUnits="userSpaceOnUse">
<stop stop-color="#EAB3D7"/>
<stop offset="1" stop-color="#DAF0FF"/>
</linearGradient>
<linearGradient id="paint2_linear_491_111" x1="627.282" y1="834.495" x2="627.282" y2="898.499" gradientUnits="userSpaceOnUse">
<stop stop-color="#EAB3D7"/>
<stop offset="1" stop-color="#DAF0FF"/>
</linearGradient>
<linearGradient id="paint3_linear_491_111" x1="332.435" y1="834.495" x2="332.435" y2="898.499" gradientUnits="userSpaceOnUse">
<stop stop-color="#EAB3D7"/>
<stop offset="1" stop-color="#DAF0FF"/>
</linearGradient>
<linearGradient id="paint4_linear_491_111" x1="185.004" y1="642.502" x2="185.004" y2="706.497" gradientUnits="userSpaceOnUse">
<stop stop-color="#EAB3D7"/>
<stop offset="1" stop-color="#DAF0FF"/>
</linearGradient>
<linearGradient id="paint5_linear_491_111" x1="74.4387" y1="770.491" x2="74.4387" y2="834.495" gradientUnits="userSpaceOnUse">
<stop stop-color="#EAB3D7"/>
<stop offset="1" stop-color="#DAF0FF"/>
</linearGradient>
<linearGradient id="paint6_linear_491_111" x1="516.717" y1="770.491" x2="516.717" y2="834.495" gradientUnits="userSpaceOnUse">
<stop stop-color="#EAB3D7"/>
<stop offset="1" stop-color="#DAF0FF"/>
</linearGradient>
<linearGradient id="paint7_linear_491_111" x1="221.862" y1="770.491" x2="221.862" y2="834.495" gradientUnits="userSpaceOnUse">
<stop stop-color="#EAB3D7"/>
<stop offset="1" stop-color="#DAF0FF"/>
</linearGradient>
<linearGradient id="paint8_linear_491_111" x1="74.4434" y1="450.5" x2="74.4434" y2="514.494" gradientUnits="userSpaceOnUse">
<stop stop-color="#EAB3D7"/>
<stop offset="1" stop-color="#DAF0FF"/>
</linearGradient>
<linearGradient id="paint9_linear_491_111" x1="37.5851" y1="578.498" x2="37.5851" y2="642.502" gradientUnits="userSpaceOnUse">
<stop stop-color="#EAB3D7"/>
<stop offset="1" stop-color="#DAF0FF"/>
</linearGradient>
<linearGradient id="paint10_linear_491_111" x1="37.5899" y1="322.502" x2="37.5899" y2="386.496" gradientUnits="userSpaceOnUse">
<stop stop-color="#EAB3D7"/>
<stop offset="1" stop-color="#DAF0FF"/>
</linearGradient>
<linearGradient id="paint11_linear_491_111" x1="37.5899" y1="130.499" x2="37.5899" y2="194.503" gradientUnits="userSpaceOnUse">
<stop stop-color="#EAB3D7"/>
<stop offset="1" stop-color="#DAF0FF"/>
</linearGradient>
<linearGradient id="paint12_linear_491_111" x1="148.155" y1="66.5049" x2="148.155" y2="130.499" gradientUnits="userSpaceOnUse">
<stop stop-color="#EAB3D7"/>
<stop offset="1" stop-color="#DAF0FF"/>
</linearGradient>
<linearGradient id="paint13_linear_491_111" x1="185.016" y1="2.50098" x2="185.016" y2="66.5051" gradientUnits="userSpaceOnUse">
<stop stop-color="#EAB3D7"/>
<stop offset="1" stop-color="#DAF0FF"/>
</linearGradient>
<linearGradient id="paint14_linear_491_111" x1="332.44" y1="2.50098" x2="332.44" y2="66.5051" gradientUnits="userSpaceOnUse">
<stop stop-color="#EAB3D7"/>
<stop offset="1" stop-color="#DAF0FF"/>
</linearGradient>
<linearGradient id="paint15_linear_491_111" x1="37.5899" y1="2.50098" x2="37.5899" y2="66.5051" gradientUnits="userSpaceOnUse">
<stop stop-color="#EAB3D7"/>
<stop offset="1" stop-color="#DAF0FF"/>
</linearGradient>
<linearGradient id="paint16_linear_491_111" x1="148.155" y1="258.498" x2="148.155" y2="322.502" gradientUnits="userSpaceOnUse">
<stop stop-color="#EAB3D7"/>
<stop offset="1" stop-color="#DAF0FF"/>
</linearGradient>
<linearGradient id="paint17_linear_491_111" x1="1769.84" y1="642.503" x2="1769.84" y2="706.497" gradientUnits="userSpaceOnUse">
<stop stop-color="#EAB3D7"/>
<stop offset="1" stop-color="#DAF0FF"/>
</linearGradient>
<linearGradient id="paint18_linear_491_111" x1="1696.13" y1="834.495" x2="1696.13" y2="898.499" gradientUnits="userSpaceOnUse">
<stop stop-color="#EAB3D7"/>
<stop offset="1" stop-color="#DAF0FF"/>
</linearGradient>
<linearGradient id="paint19_linear_491_111" x1="1843.55" y1="770.491" x2="1843.55" y2="834.495" gradientUnits="userSpaceOnUse">
<stop stop-color="#EAB3D7"/>
<stop offset="1" stop-color="#DAF0FF"/>
</linearGradient>
<linearGradient id="paint20_linear_491_111" x1="1548.7" y1="770.491" x2="1548.7" y2="834.495" gradientUnits="userSpaceOnUse">
<stop stop-color="#EAB3D7"/>
<stop offset="1" stop-color="#DAF0FF"/>
</linearGradient>
<linearGradient id="paint21_linear_491_111" x1="1843.55" y1="642.503" x2="1843.55" y2="706.497" gradientUnits="userSpaceOnUse">
<stop stop-color="#EAB3D7"/>
<stop offset="1" stop-color="#DAF0FF"/>
</linearGradient>
<linearGradient id="paint22_linear_491_111" x1="1364.42" y1="834.495" x2="1364.42" y2="898.499" gradientUnits="userSpaceOnUse">
<stop stop-color="#EAB3D7"/>
<stop offset="1" stop-color="#DAF0FF"/>
</linearGradient>
<linearGradient id="paint23_linear_491_111" x1="1696.13" y1="706.497" x2="1696.13" y2="770.491" gradientUnits="userSpaceOnUse">
<stop stop-color="#EAB3D7"/>
<stop offset="1" stop-color="#DAF0FF"/>
</linearGradient>
<linearGradient id="paint24_linear_491_111" x1="1880.41" y1="514.494" x2="1880.41" y2="578.498" gradientUnits="userSpaceOnUse">
<stop stop-color="#EAB3D7"/>
<stop offset="1" stop-color="#DAF0FF"/>
</linearGradient>
<linearGradient id="paint25_linear_491_111" x1="1769.84" y1="258.498" x2="1769.84" y2="322.502" gradientUnits="userSpaceOnUse">
<stop stop-color="#EAB3D7"/>
<stop offset="1" stop-color="#DAF0FF"/>
</linearGradient>
<linearGradient id="paint26_linear_491_111" x1="1843.56" y1="322.502" x2="1843.56" y2="386.496" gradientUnits="userSpaceOnUse">
<stop stop-color="#EAB3D7"/>
<stop offset="1" stop-color="#DAF0FF"/>
</linearGradient>
<linearGradient id="paint27_linear_491_111" x1="1843.56" y1="130.499" x2="1843.56" y2="194.493" gradientUnits="userSpaceOnUse">
<stop stop-color="#EAB3D7"/>
<stop offset="1" stop-color="#DAF0FF"/>
</linearGradient>
<linearGradient id="paint28_linear_491_111" x1="1769.84" y1="2.50098" x2="1769.84" y2="66.5051" gradientUnits="userSpaceOnUse">
<stop stop-color="#EAB3D7"/>
<stop offset="1" stop-color="#DAF0FF"/>
</linearGradient>
<linearGradient id="paint29_linear_491_111" x1="1438.14" y1="2.50098" x2="1438.14" y2="66.5051" gradientUnits="userSpaceOnUse">
<stop stop-color="#EAB3D7"/>
<stop offset="1" stop-color="#DAF0FF"/>
</linearGradient>
<linearGradient id="paint30_linear_491_111" x1="1696.13" y1="66.5049" x2="1696.13" y2="130.499" gradientUnits="userSpaceOnUse">
<stop stop-color="#EAB3D7"/>
<stop offset="1" stop-color="#DAF0FF"/>
</linearGradient>
<clipPath id="clip0_491_111">
<path d="M-1 50.5C-1 22.8858 21.3858 0.5 49 0.5H1869C1896.61 0.5 1919 22.8858 1919 50.5V900.5H-1V50.5Z" fill="white"/>
</clipPath>
</defs>
</svg>
