<svg width="214" height="216" viewBox="0 0 214 216" fill="none" xmlns="http://www.w3.org/2000/svg">
<g filter="url(#filter0_d_545_14)">
<rect x="4" y="0.457031" width="200" height="200" rx="100" fill="url(#paint0_linear_545_14)"/>
</g>
<path d="M43.7 114.557L57.25 100.557C58.0833 99.7237 58.75 98.957 59.25 98.257C59.75 97.557 60.1167 96.907 60.35 96.307C60.5833 95.6737 60.7 95.0404 60.7 94.407C60.7 93.0404 60.25 91.9737 59.35 91.207C58.4833 90.407 57.3333 90.007 55.9 90.007C54.5 90.007 53.2333 90.3904 52.1 91.157C51 91.8904 49.9333 93.107 48.9 94.807L43.65 90.257C45.05 87.8904 46.8333 86.107 49 84.907C51.1667 83.707 53.65 83.107 56.45 83.107C58.8833 83.107 60.9833 83.557 62.75 84.457C64.55 85.357 65.9333 86.6404 66.9 88.307C67.9 89.9737 68.4 91.9237 68.4 94.157C68.4 95.557 68.2167 96.857 67.85 98.057C67.4833 99.2237 66.8833 100.39 66.05 101.557C65.25 102.69 64.1667 103.94 62.8 105.307L53.4 114.657L43.7 114.557ZM43.7 118.957V114.557L50.35 112.257H69.1V118.957H43.7ZM87.4227 119.507C84.5893 119.507 82.0227 118.74 79.7227 117.207C77.4227 115.674 75.606 113.54 74.2727 110.807C72.9727 108.04 72.3227 104.857 72.3227 101.257C72.3227 97.6237 72.9727 94.457 74.2727 91.757C75.5727 89.0237 77.356 86.907 79.6227 85.407C81.8893 83.8737 84.456 83.107 87.3227 83.107C90.2227 83.107 92.806 83.8737 95.0727 85.407C97.3393 86.907 99.1227 89.0237 100.423 91.757C101.756 94.4904 102.423 97.6737 102.423 101.307C102.423 104.94 101.756 108.124 100.423 110.857C99.1227 113.59 97.3393 115.724 95.0727 117.257C92.8393 118.757 90.2893 119.507 87.4227 119.507ZM87.3727 112.557C88.8393 112.557 90.106 112.14 91.1727 111.307C92.2393 110.44 93.056 109.174 93.6227 107.507C94.2227 105.807 94.5227 103.74 94.5227 101.307C94.5227 98.8404 94.2227 96.7737 93.6227 95.107C93.056 93.4404 92.2393 92.1904 91.1727 91.357C90.106 90.4904 88.8227 90.057 87.3227 90.057C85.8893 90.057 84.6227 90.4737 83.5227 91.307C82.456 92.1404 81.6393 93.3904 81.0727 95.057C80.506 96.7237 80.2227 98.7904 80.2227 101.257C80.2227 103.724 80.506 105.79 81.0727 107.457C81.6393 109.124 82.456 110.39 83.5227 111.257C84.6227 112.124 85.906 112.557 87.3727 112.557ZM120.723 119.507C117.89 119.507 115.323 118.74 113.023 117.207C110.723 115.674 108.907 113.54 107.573 110.807C106.273 108.04 105.623 104.857 105.623 101.257C105.623 97.6237 106.273 94.457 107.573 91.757C108.873 89.0237 110.657 86.907 112.923 85.407C115.19 83.8737 117.757 83.107 120.623 83.107C123.523 83.107 126.107 83.8737 128.373 85.407C130.64 86.907 132.423 89.0237 133.723 91.757C135.057 94.4904 135.723 97.6737 135.723 101.307C135.723 104.94 135.057 108.124 133.723 110.857C132.423 113.59 130.64 115.724 128.373 117.257C126.14 118.757 123.59 119.507 120.723 119.507ZM120.673 112.557C122.14 112.557 123.407 112.14 124.473 111.307C125.54 110.44 126.357 109.174 126.923 107.507C127.523 105.807 127.823 103.74 127.823 101.307C127.823 98.8404 127.523 96.7737 126.923 95.107C126.357 93.4404 125.54 92.1904 124.473 91.357C123.407 90.4904 122.123 90.057 120.623 90.057C119.19 90.057 117.923 90.4737 116.823 91.307C115.757 92.1404 114.94 93.3904 114.373 95.057C113.807 96.7237 113.523 98.7904 113.523 101.257C113.523 103.724 113.807 105.79 114.373 107.457C114.94 109.124 115.757 110.39 116.823 111.257C117.923 112.124 119.207 112.557 120.673 112.557ZM139.774 105.407V99.057H163.024V105.407H139.774ZM148.174 90.007H154.674V114.357H148.174V90.007Z" fill="white"/>
<defs>
<filter id="filter0_d_545_14" x="0" y="0.457031" width="214" height="215" filterUnits="userSpaceOnUse" color-interpolation-filters="sRGB">
<feFlood flood-opacity="0" result="BackgroundImageFix"/>
<feColorMatrix in="SourceAlpha" type="matrix" values="0 0 0 0 0 0 0 0 0 0 0 0 0 0 0 0 0 0 127 0" result="hardAlpha"/>
<feOffset dx="3" dy="8"/>
<feGaussianBlur stdDeviation="3.5"/>
<feComposite in2="hardAlpha" operator="out"/>
<feColorMatrix type="matrix" values="0 0 0 0 0 0 0 0 0 0 0 0 0 0 0 0 0 0 0.15 0"/>
<feBlend mode="normal" in2="BackgroundImageFix" result="effect1_dropShadow_545_14"/>
<feBlend mode="normal" in="SourceGraphic" in2="effect1_dropShadow_545_14" result="shape"/>
</filter>
<linearGradient id="paint0_linear_545_14" x1="66.7879" y1="-12.6182" x2="169.731" y2="183.238" gradientUnits="userSpaceOnUse">
<stop stop-color="#29B574"/>
<stop offset="1" stop-color="#15729A"/>
</linearGradient>
</defs>
</svg>
