<svg width="1920" height="787" viewBox="0 0 1920 787" fill="none" xmlns="http://www.w3.org/2000/svg">
<path d="M0.0422363 50.0874C0.0422363 22.4732 22.428 0.0874023 50.0422 0.0874023H1870.04C1897.66 0.0874023 1920.04 22.4732 1920.04 50.0874V786.087H0.0422363V50.0874Z" fill="white"/>
<mask id="mask0_545_11065" style="mask-type:alpha" maskUnits="userSpaceOnUse" x="0" y="0" width="1921" height="787">
<path d="M0.0422363 50.0874C0.0422363 22.4732 22.428 0.0874023 50.0422 0.0874023H1870.04C1897.66 0.0874023 1920.04 22.4732 1920.04 50.0874V786.857H0.0422363V50.0874Z" fill="url(#paint0_linear_545_11065)"/>
</mask>
<g mask="url(#mask0_545_11065)">
<path fill-rule="evenodd" clip-rule="evenodd" d="M1721.83 577.879C1741.7 545.839 1749.86 504.921 1777.73 481.778C1807.13 457.372 1843.75 446.255 1880.18 446.403C1917.57 446.555 1958.38 453.238 1985.32 482.622C2011.47 511.152 2003.55 560.094 2018.69 597.488C2034.92 637.581 2084.98 665.859 2077.01 709.04C2068.99 752.455 2009.86 752.427 1983.95 785.668C1956.5 820.894 1960.74 884.653 1923.68 905.753C1886.96 926.666 1842.56 903.958 1803.88 888.208C1765.64 872.638 1729.86 850.366 1702.94 815.868C1675.03 780.088 1645.11 737.125 1648.88 689.553C1652.62 642.468 1697.85 616.555 1721.83 577.879Z" fill="url(#paint1_linear_545_11065)"/>
<path fill-rule="evenodd" clip-rule="evenodd" d="M1937.64 -91.31C1964.85 -73.4282 1998.23 -68.2871 2018.96 -41.4715C2040.82 -13.1917 2052.62 23.5669 2055.39 61.0339C2058.24 99.4743 2056.13 141.957 2034.76 171.978C2014.01 201.127 1974.22 196.864 1945.51 215.396C1914.72 235.268 1896.07 288.961 1860.89 284.195C1825.52 279.402 1820.85 218.62 1792.2 194.625C1761.83 169.197 1711.16 178.615 1691.34 142.199C1671.69 106.106 1686.34 58.6636 1695.87 17.6538C1705.29 -22.8868 1720.27 -61.4367 1745.74 -91.8418C1772.15 -123.377 1804.14 -157.538 1842.5 -157.432C1880.47 -157.327 1904.79 -112.895 1937.64 -91.31Z" fill="url(#paint2_linear_545_11065)"/>
</g>
<g clip-path="url(#clip0_545_11065)">
<path d="M1698.82 223.921C1697.36 218.239 1695.1 212.874 1692.2 207.942L1698.94 197.795L1689.58 188.435L1680.22 179.074L1670.07 185.821C1665.14 182.913 1659.78 180.661 1654.1 179.193L1651.69 167.258H1638.46H1625.22L1622.82 179.193C1617.13 180.661 1611.77 182.913 1606.84 185.821L1596.69 179.074L1587.33 188.435L1577.97 197.795L1584.72 207.942C1581.81 212.874 1579.56 218.239 1578.09 223.921L1566.15 226.323V239.561V252.799L1578.09 255.201C1579.56 260.882 1581.81 266.247 1584.72 271.18L1577.97 281.327L1587.33 290.687L1596.69 300.048L1606.84 293.301C1611.77 296.209 1617.13 298.46 1622.82 299.928L1625.22 311.864H1638.46H1651.69L1654.1 299.928C1659.78 298.46 1665.14 296.209 1670.07 293.301L1680.22 300.048L1689.58 290.687L1698.94 281.327L1692.2 271.18C1695.1 266.247 1697.36 260.882 1698.82 255.201L1710.76 252.799V239.561V226.323L1698.82 223.921ZM1638.46 285.946C1612.84 285.946 1592.07 265.178 1592.07 239.561C1592.07 213.943 1612.84 193.175 1638.46 193.175C1664.07 193.175 1684.84 213.943 1684.84 239.561C1684.84 265.179 1664.07 285.946 1638.46 285.946Z" fill="url(#paint3_linear_545_11065)"/>
<path d="M1767.16 269.058C1766.55 266.687 1765.61 264.448 1764.4 262.389L1767.21 258.154L1763.3 254.247L1759.4 250.34L1755.16 253.157C1753.1 251.943 1750.87 251.003 1748.49 250.391L1747.49 245.409H1741.97H1736.44L1735.44 250.391C1733.07 251.003 1730.83 251.943 1728.77 253.157L1724.54 250.34L1720.63 254.247L1716.72 258.154L1719.54 262.389C1718.32 264.448 1717.38 266.687 1716.77 269.058L1711.79 270.061V275.586V281.111L1716.77 282.113C1717.38 284.485 1718.32 286.724 1719.54 288.782L1716.72 293.018L1720.63 296.924L1724.54 300.83L1728.77 298.015C1730.83 299.229 1733.07 300.168 1735.44 300.781L1736.44 305.763H1741.97H1747.49L1748.49 300.781C1750.87 300.168 1753.1 299.229 1755.16 298.015L1759.4 300.83L1763.3 296.924L1767.21 293.017L1764.4 288.782C1765.61 286.723 1766.55 284.484 1767.16 282.113L1772.14 281.11V275.585V270.061L1767.16 269.058ZM1741.97 294.946C1731.27 294.946 1722.61 286.278 1722.61 275.586C1722.61 264.893 1731.27 256.226 1741.97 256.226C1752.66 256.226 1761.33 264.893 1761.33 275.586C1761.33 286.278 1752.66 294.946 1741.97 294.946Z" fill="url(#paint4_linear_545_11065)"/>
<path d="M1592.26 389.725H1555.24V416.558H1586.61L1592.26 422.209V389.725Z" fill="#FFC755"/>
<path d="M1330.85 283.954H1278.5V321.899H1322.86L1330.85 329.892V283.954Z" fill="#FAE6DE"/>
<path d="M1379.98 487.957C1379.98 438.689 1383.79 417.697 1391.42 399.095C1399.05 380.495 1414.79 364.286 1438.64 350.448C1445.79 346.155 1454.61 341.27 1465.11 335.782C1475.6 330.305 1485.86 323.743 1495.87 316.108C1505.89 308.484 1514.35 299.541 1521.27 289.279C1528.18 279.029 1531.64 267.225 1531.64 253.866C1531.64 243.851 1529.73 235.031 1525.92 227.396C1522.1 219.773 1517.09 213.334 1510.9 208.08C1504.69 202.837 1497.42 198.902 1489.08 196.275C1480.73 193.66 1472.26 192.341 1463.68 192.341C1453.18 192.341 1443.65 194.129 1435.06 197.706C1426.48 201.284 1418.72 205.822 1411.81 211.299C1404.89 216.788 1398.69 222.992 1393.21 229.9C1387.72 236.819 1383.07 243.381 1379.26 249.574L1317.02 206.649C1323.21 191.871 1331.44 178.748 1341.7 167.301C1351.95 155.855 1363.63 146.197 1376.76 138.327C1389.87 130.457 1404.05 124.499 1419.32 120.442C1434.58 116.395 1450.32 114.361 1466.54 114.361C1484.66 114.361 1502.55 116.988 1520.2 122.23C1537.84 127.484 1553.7 135.823 1567.77 147.27C1581.83 158.716 1593.28 173.382 1602.11 191.268C1610.93 209.153 1615.35 230.504 1615.35 255.297C1615.35 270.567 1613.56 284.037 1609.98 295.718C1606.41 307.411 1601.27 318.019 1594.6 327.554C1587.92 337.101 1580.05 345.685 1570.99 353.309C1561.93 360.944 1551.68 368.333 1540.23 375.486C1530.68 381.21 1521.15 386.698 1511.61 391.941C1502.07 397.195 1493.37 403.03 1485.5 409.469C1477.63 415.907 1471.19 423.308 1466.18 431.647C1461.18 439.997 1458.67 450.136 1458.67 487.957H1379.98V487.957ZM1381.41 628.744V530.017H1460.82V628.744H1381.41Z" fill="url(#paint5_linear_545_11065)"/>
<path d="M1346.87 369.69H1228.87C1228.53 369.69 1228.26 369.418 1228.26 369.083V363.285C1228.26 362.949 1228.53 362.677 1228.87 362.677H1346.87C1347.21 362.677 1347.48 362.949 1347.48 363.285V369.083C1347.48 369.418 1347.21 369.69 1346.87 369.69Z" fill="#E3E3E3"/>
<path d="M1310.55 429.383H1228.87C1228.53 429.383 1228.26 429.111 1228.26 428.776V422.978C1228.26 422.642 1228.53 422.37 1228.87 422.37H1310.55C1310.89 422.37 1311.16 422.642 1311.16 422.978V428.776C1311.16 429.112 1310.89 429.383 1310.55 429.383Z" fill="#E3E3E3"/>
<path d="M1296.7 384.614H1228.87C1228.53 384.614 1228.26 384.342 1228.26 384.007V378.208C1228.26 377.873 1228.53 377.601 1228.87 377.601H1296.7C1297.04 377.601 1297.31 377.873 1297.31 378.208V384.006C1297.31 384.342 1297.04 384.614 1296.7 384.614Z" fill="#E3E3E3"/>
<path d="M1321.7 399.537H1228.87C1228.53 399.537 1228.26 399.265 1228.26 398.93V393.131C1228.26 392.796 1228.53 392.524 1228.87 392.524H1321.7C1322.04 392.524 1322.31 392.796 1322.31 393.131V398.93C1322.31 399.265 1322.03 399.537 1321.7 399.537Z" fill="#E3E3E3"/>
<path d="M1267.75 414.46H1228.87C1228.53 414.46 1228.26 414.188 1228.26 413.853V408.055C1228.26 407.719 1228.53 407.447 1228.87 407.447H1267.75C1268.09 407.447 1268.36 407.719 1268.36 408.055V413.853C1268.36 414.188 1268.09 414.46 1267.75 414.46Z" fill="#E3E3E3"/>
<path d="M1267.75 354.94H1228.87C1228.53 354.94 1228.26 354.668 1228.26 354.333V348.534C1228.26 348.199 1228.53 347.927 1228.87 347.927H1267.75C1268.09 347.927 1268.36 348.199 1268.36 348.534V354.332C1268.36 354.668 1268.09 354.94 1267.75 354.94Z" fill="#F2C138"/>
<path d="M1663.55 459.171C1663.55 459.171 1665.51 457.352 1665.12 455.989C1664.79 454.829 1665.29 453.53 1665.41 452.995C1665.58 452.279 1665.65 449.964 1666.18 450.092C1667.08 450.309 1666.87 454.006 1666.98 454.794C1667.09 455.581 1669.48 452.944 1670.29 452.805C1671.11 452.667 1675.25 456.864 1673.4 458.485C1671.56 460.105 1669.01 460.762 1668.74 461.112C1668.48 461.462 1667.21 462.422 1667.21 462.422L1663.55 459.171Z" fill="#EEA987"/>
<path d="M1669.77 453.081C1669.77 453.081 1675.75 448.497 1676.41 448.525C1677.06 448.553 1677.29 448.892 1676.75 449.344C1676.21 449.795 1671.1 453.941 1671.1 453.941C1671.1 453.941 1679.09 449.704 1679.63 449.61C1679.95 449.554 1680.19 450.159 1679.92 450.428C1679.65 450.697 1672.22 455.374 1672.22 455.374C1672.22 455.374 1679.68 451.431 1680.16 451.488C1680.58 451.537 1680.88 452.226 1680.34 452.557C1679.81 452.887 1673.08 456.938 1673.08 456.938C1673.08 456.938 1678.7 454.41 1679.07 454.695C1679.3 454.87 1679.63 455.253 1678.16 455.86C1676.69 456.467 1673.49 458.404 1673.49 458.404L1669.77 453.081Z" fill="#EEA987"/>
<path d="M1621.99 403.87C1621.99 403.87 1636.3 402.68 1635.91 417.733C1635.52 432.785 1633.13 435.049 1635.92 445.686C1638.7 456.323 1621.97 439.646 1621.97 439.646L1621.99 403.87Z" fill="#FCCCA2"/>
<path d="M1578.41 629.148C1578.41 629.148 1573.09 636.612 1573.82 637.795C1574.55 638.978 1580.14 639.147 1583.54 637.795C1586.94 636.442 1587.02 627.695 1588.56 623.937C1589.2 622.363 1587.83 617.719 1585.89 617.382C1583.95 617.044 1581.84 618.034 1581.84 618.034C1581.84 618.034 1583.85 623.328 1578.41 629.148Z" fill="#363A5E"/>
<path d="M1581.81 617.974C1581.81 617.974 1580.69 621.153 1580.28 624.187C1579.94 626.705 1576.49 632.048 1576.66 632.725C1576.82 633.401 1581.19 634.013 1582.97 632.27C1584.75 630.528 1585.9 625.459 1586.29 622.428C1586.66 619.604 1587.12 618.209 1587.12 618.209C1587.12 618.209 1583.51 616.115 1581.81 617.974Z" fill="#EEA886"/>
<path d="M1624.65 629.271C1624.65 629.271 1619.53 636.611 1620.26 637.794C1620.99 638.977 1626.58 639.146 1629.98 637.794C1633.38 636.442 1633.46 627.694 1635 623.936C1635.64 622.363 1634.26 617.718 1632.33 617.381C1630.39 617.044 1628.12 618.105 1628.12 618.105C1628.12 618.105 1630.1 623.452 1624.65 629.271Z" fill="#363A5E"/>
<path d="M1628.12 618.106C1628.12 618.106 1627.71 621.571 1627.06 624.021C1626.41 626.471 1622.93 632.048 1623.09 632.724C1623.26 633.4 1627.63 634.012 1629.41 632.27C1631.19 630.527 1632.57 625.482 1632.73 622.427C1632.89 619.373 1632.33 617.381 1632.33 617.381C1632.33 617.381 1629.82 616.247 1628.12 618.106Z" fill="#EEA886"/>
<path d="M1602.52 496.589C1602.52 496.589 1597.96 518.722 1596.92 524.295C1595.87 529.868 1592.94 556.856 1592.62 561.445C1592.31 566.034 1587.86 583.326 1588.07 584.965C1588.28 586.604 1580.86 619.09 1580.86 619.09C1580.86 619.09 1586.12 619.658 1588.22 618.781C1589.65 618.181 1601.17 588.88 1601.17 580.686C1601.17 569.359 1607.49 554.57 1608.41 551.991C1617.44 526.611 1619.09 520.589 1620.35 519.06C1620.35 519.06 1620.54 521.13 1620.97 524.569C1621.46 528.524 1623.62 556.769 1624.56 560.484C1625.5 564.199 1624.77 576.765 1625.29 583.102C1625.82 589.439 1626.79 618.348 1626.79 618.348C1626.79 618.348 1631.51 618.553 1633.6 617.312C1634.3 616.895 1636.7 586.249 1636.81 578.709C1636.91 571.17 1637.03 560.772 1637.23 557.512C1639.17 526.269 1643.94 521.807 1636.43 499.696C1622.37 458.296 1602.52 496.589 1602.52 496.589Z" fill="#313657"/>
<path d="M1588.7 623.28V631.094H1587.73V625.054L1588.7 623.28Z" fill="#363A5E"/>
<path d="M1635.14 623.28V631.094H1634.17V625.054L1635.14 623.28Z" fill="#363A5E"/>
<path d="M1616.04 443.922C1616.04 443.922 1617.3 440.965 1618.23 437.647C1618.28 437.49 1618.32 437.331 1618.36 437.172C1618.47 436.739 1618.57 436.303 1618.66 435.868C1618.72 435.621 1618.77 435.376 1618.81 435.13C1619.14 433.301 1619.23 431.552 1618.81 430.306C1617.42 426.208 1627.51 429.045 1627.51 429.045C1627.51 429.045 1625.56 439.886 1627.51 443.543C1629.47 447.199 1616.04 443.922 1616.04 443.922Z" fill="#EEA886"/>
<path d="M1633.15 443.743C1634.27 442.336 1626.37 441.846 1626.37 441.846L1617.16 441.051C1617.16 441.051 1610.82 442.106 1605.9 443.809C1600.99 445.511 1594.54 454.826 1594.54 454.826C1594.54 454.826 1603.43 475.691 1605.13 481.679C1606.83 487.667 1603.2 502.905 1603.2 502.905C1613.86 508.704 1634.9 503.524 1634.9 503.524C1634.9 503.524 1626.51 452.053 1633.15 443.743Z" fill="#EDDAD3"/>
<path d="M1636.91 468.892C1636.91 468.892 1636.49 469.766 1635.35 473.21C1634.2 463.538 1634.8 458.503 1634.8 458.503C1634.93 463.672 1636.91 468.892 1636.91 468.892Z" fill="#CFBEB8"/>
<path d="M1626.88 441.524L1616.04 450.365L1617.16 441.051C1617.16 441.051 1623.48 439.686 1626.88 441.524Z" fill="#EEA886"/>
<path d="M1634.04 478.779C1632.55 484.965 1640.1 504.328 1640.1 504.328L1627.36 508.64C1625.78 509.174 1624.1 508.182 1623.81 506.545C1622.38 498.49 1618.65 476.894 1618.23 467.318C1617.71 455.423 1626.37 441.389 1626.37 441.389C1641.76 444.03 1637.54 467.318 1637.54 467.318C1637.54 467.318 1636.99 468.786 1636.24 471.079C1636.24 471.079 1636.24 471.079 1636.24 471.08C1636.05 471.656 1635.85 472.284 1635.64 472.955C1635.12 474.676 1634.55 476.675 1634.04 478.779Z" fill="#494F80"/>
<path d="M1616.07 441.56L1616.26 441.051C1616.26 441.051 1608.37 442.25 1604.36 444.251C1600.36 446.252 1592.69 456.59 1592.69 456.59L1602.72 469.835C1602.73 480.013 1599.18 503.894 1599.18 503.894L1606.15 506.746C1607.24 507.19 1608.43 506.404 1608.45 505.231C1608.56 497.962 1608.9 476.433 1609.07 468.032C1609.28 457.852 1616.54 441.389 1616.54 441.389C1616.38 441.444 1616.22 441.501 1616.07 441.56Z" fill="#494F80"/>
<path d="M1601.77 489.285C1601.77 489.285 1609.34 489.579 1610.51 489.285C1611.69 488.991 1619.54 485.588 1620.01 482.225C1620.48 478.863 1601.77 485.239 1601.77 485.239V489.285Z" fill="#EEA886"/>
<path d="M1625.24 478.779L1594.54 475.187L1608.41 486.47L1625.24 478.779Z" fill="#2A3C57"/>
<path d="M1608.41 486.47L1625.24 480.734V478.78L1607.84 484.361L1608.41 486.47Z" fill="#6EA2E8"/>
<path d="M1617.72 439.333L1611.89 448.586L1609.07 450.365L1615.64 441.15L1617.72 439.333Z" fill="#FAE6DE"/>
<path d="M1611.89 448.586L1616.04 450.365L1617.16 441.051L1617.72 439.333L1611.89 448.586Z" fill="#D6C5BE"/>
<path d="M1602.7 484.957C1602.7 484.957 1602.38 488.865 1602.7 489.684C1602.7 489.684 1583.77 487.793 1582 485.146C1580.24 482.498 1580.3 479.283 1580.3 479.283L1602.7 484.957Z" fill="#494F80"/>
<path d="M1608.41 486.47L1599.46 453.187L1565.42 449.594L1574.75 480.229L1608.41 486.47Z" fill="#6EA2E8"/>
<path d="M1652.53 467.443C1654.24 466.035 1655.24 465.519 1657.3 463.746C1660.5 460.99 1664.59 457.501 1664.59 457.501L1668.48 463.213C1668.48 463.213 1659.07 471.483 1654.08 476.392V476.393C1654.08 476.393 1647.75 483.187 1646.33 482.586C1644.92 481.985 1639.87 474.671 1635.84 467.641C1631.82 460.611 1630.01 456.122 1629.81 453.061C1629.61 449.999 1639.74 448.524 1639.74 448.524L1647.68 465.856C1647.68 465.856 1649.09 468.335 1649.81 469.083C1649.81 469.084 1651.59 468.07 1652.53 467.443Z" fill="#494F80"/>
<path d="M1623.39 405.394C1619.85 404.814 1611.73 405.703 1609.43 415.015C1609.43 415.015 1609.43 417.596 1609.82 419.669C1610.2 421.742 1607.74 427.439 1608.17 427.784C1608.61 428.128 1610.5 428.722 1610.5 428.722C1610.5 428.722 1611.84 435.409 1614.11 435.612C1616.38 435.816 1625.15 435.027 1630.11 427.465C1635.06 419.905 1637.72 407.739 1623.39 405.394Z" fill="#EEA886"/>
<path d="M1609.43 415.016C1609.43 415.016 1614.77 419.625 1620.43 421.079C1626.08 422.533 1629.07 428.885 1629.07 428.885C1629.07 428.885 1639.08 418.906 1633.04 409.222C1627 399.537 1609.44 403.857 1609.43 415.016Z" fill="#FCCCA2"/>
<path d="M1621.46 421.412C1621.46 421.412 1627.38 436.945 1626.69 440.688C1626.69 440.688 1629.62 440.179 1635.07 441.847C1635.07 441.847 1632.43 414.1 1621.46 421.412Z" fill="#FCCCA2"/>
<path d="M1619.17 448.864L1616.04 450.365L1626.69 439.805L1619.17 448.864Z" fill="#D6C5BE"/>
<path d="M1626.69 439.805L1619.17 448.864L1623.29 452.533L1627.73 441.688L1626.69 439.805Z" fill="#FAE6DE"/>
<path d="M1624.63 432.767C1624.58 432.845 1622.95 435.38 1618.36 437.172C1618.47 436.739 1618.57 436.303 1618.67 435.868C1618.72 435.621 1618.77 435.376 1618.81 435.131C1618.81 435.131 1622.61 434.202 1624.63 432.767Z" fill="#A77860"/>
<path d="M1587.99 467.102C1588.94 468.884 1588.92 470.744 1587.96 471.258C1586.99 471.771 1585.44 470.743 1584.49 468.962C1583.55 467.18 1583.56 465.319 1584.53 464.806C1585.49 464.293 1587.05 465.321 1587.99 467.102Z" fill="#6696D6"/>
<path d="M1627.73 441.688C1627.73 441.688 1637.64 440.342 1640.53 450.722C1640.53 450.722 1627.92 449.366 1627.73 441.688Z" fill="#494F80"/>
<path d="M1272.08 509.955C1276.86 509.955 1280.74 506.077 1280.74 501.295C1280.74 500.003 1280.46 498.779 1279.95 497.679C1278.58 494.702 1275.57 492.635 1272.08 492.635C1267.3 492.635 1263.42 496.512 1263.42 501.295C1263.42 502.937 1263.88 504.473 1264.67 505.781C1266.19 508.282 1268.94 509.955 1272.08 509.955Z" fill="#36572B"/>
<path d="M1280.88 509.178C1284.22 509.178 1286.94 506.464 1286.94 503.118C1286.94 502.925 1286.93 502.734 1286.91 502.545C1286.62 499.467 1284.03 497.058 1280.88 497.058C1277.53 497.058 1274.82 499.771 1274.82 503.118C1274.82 505.239 1275.91 507.107 1277.56 508.189C1278.51 508.815 1279.65 509.178 1280.88 509.178Z" fill="#45613C"/>
<path d="M1271.94 501.75C1271.94 501.75 1271.46 505.772 1271.3 511.242C1271.14 516.712 1275.48 516.712 1275.48 516.712V536.748H1278.49C1278.49 536.748 1278.42 516.311 1279.92 514.666C1281.43 513.021 1281.43 505.228 1281.43 505.228L1280.57 504.727C1280.57 504.727 1281.86 513.951 1275.99 515.31C1270.13 516.668 1272.35 502.153 1272.35 502.153L1271.94 501.75Z" fill="#925E2E"/>
<path d="M1269.94 502.689C1274.91 501.76 1278.18 499.611 1279.95 497.679C1278.58 494.701 1275.57 492.634 1272.08 492.634C1267.3 492.634 1263.42 496.512 1263.42 501.294C1263.42 502.937 1263.88 504.472 1264.67 505.781C1264.91 504.603 1266.2 503.386 1269.94 502.689Z" fill="#48753A"/>
<path d="M1282.65 504.78C1284.65 504.201 1286.02 503.406 1286.91 502.545C1286.62 499.467 1284.03 497.058 1280.88 497.058C1277.53 497.058 1274.82 499.771 1274.82 503.118C1274.82 505.239 1275.91 507.107 1277.56 508.189C1278.17 507.029 1279.56 505.669 1282.65 504.78Z" fill="#538742"/>
<path d="M1286.06 527.434H1265.68L1266.73 531.215H1284.8L1286.06 527.434Z" fill="#877670"/>
<path d="M1283.51 531.216H1268.39L1270.49 539.77H1282.04L1283.51 531.216Z" fill="#876455"/>
<path d="M1281.43 497.819L1281.95 497.98C1281.95 497.98 1282.77 495.745 1282.82 495.442C1282.88 495.137 1281.43 497.819 1281.43 497.819Z" fill="#538742"/>
<path d="M1286.36 497.98L1283.77 498.766C1283.77 498.766 1283.79 498.999 1284.13 498.999C1284.47 498.999 1286.36 497.98 1286.36 497.98Z" fill="#538742"/>
<path d="M1285.47 503.414H1284.81C1284.81 503.414 1284.93 504.398 1285.47 505.023C1286.01 505.649 1285.47 503.414 1285.47 503.414Z" fill="#538742"/>
<path d="M1269.56 491.008C1269.29 491.204 1270.51 494.172 1270.51 494.172H1271.12C1271.12 494.172 1269.83 490.811 1269.56 491.008Z" fill="#48753A"/>
<path d="M1272.39 493.439C1272.49 492.635 1271.87 491.276 1271.87 491.276V493.314C1271.87 493.314 1272.28 494.243 1272.39 493.439Z" fill="#48753A"/>
<path d="M1267.59 505.134C1267.97 504.826 1267.99 502.127 1267.99 502.127L1267.4 502.341C1267.4 502.341 1267.22 505.441 1267.59 505.134Z" fill="#48753A"/>
<path d="M1278.5 531.216H1268.39L1270.49 539.771H1273.8C1271.93 532.886 1278.5 531.216 1278.5 531.216Z" fill="#715346"/>
<path d="M1271.02 539.77C1271.85 539.425 1273.19 535.506 1273.83 533.478C1274.06 532.758 1274.21 532.275 1274.21 532.275H1266.62C1267.27 536.96 1268.87 539.77 1268.87 539.77H1271.02Z" fill="#9E633A"/>
<path d="M1271.63 529.942C1271.63 529.669 1272.85 528.528 1273.46 527.783C1274.06 527.038 1273.22 525.624 1273.22 525.624C1270.5 526.748 1270.97 529.942 1270.97 529.942C1270.97 529.942 1271.63 530.214 1271.63 529.942Z" fill="#97A43C"/>
<path d="M1270.08 530.063H1270.41C1270.41 530.063 1270.65 524.547 1268.63 523.797C1266.62 523.048 1266.62 521.549 1266.62 521.549C1266.62 521.549 1266.01 523.61 1266.99 524.687C1267.97 525.764 1269.1 527.029 1268.91 528.06C1268.72 529.09 1270.08 530.063 1270.08 530.063Z" fill="#97A43C"/>
<path d="M1273.83 533.478C1274.06 532.758 1274.21 532.275 1274.21 532.275H1266.62C1267.27 536.96 1268.87 539.77 1268.87 539.77H1269.36C1269.27 535.384 1272.16 533.944 1273.83 533.478Z" fill="#82522F"/>
<path d="M1274.2 529.942H1266.56L1266.12 532.276H1274.51L1274.2 529.942Z" fill="#C67B47"/>
<path d="M1478.13 627.505C1478.13 627.505 1476.39 630.756 1475.25 632.046C1474.12 633.336 1469.76 635.642 1469.73 639.473C1469.71 643.627 1477.08 642.474 1479.96 642.323C1482.85 642.171 1483.07 639.951 1484.28 637.599C1485.49 635.247 1486.72 635.645 1486.95 633.748C1487.17 631.851 1485.77 627.505 1485.77 627.505H1478.13Z" fill="#202338"/>
<path d="M1522.03 627.127C1522.03 627.127 1525.58 631.094 1529.19 631.925C1532.8 632.756 1535.32 633.816 1535.35 636.093C1535.37 638.369 1524.97 639.869 1520.84 637.574C1514.68 634.149 1514.05 635.182 1513.37 633.47C1512.68 631.758 1514.19 627.179 1514.14 626.635C1514.09 625.962 1522.03 627.127 1522.03 627.127Z" fill="#202338"/>
<path d="M1521.63 625.229C1521.63 625.229 1522.1 627.088 1522.03 627.127C1521.96 627.166 1513.9 628.127 1514.14 626.635C1514.34 625.426 1514.62 624.111 1514.62 624.111L1521.63 625.229Z" fill="#81807E"/>
<path d="M1485.67 626.251C1485.67 626.251 1486.01 628.024 1485.94 628.067C1485.88 628.109 1477.77 629.558 1477.81 628.085C1477.85 626.916 1478.56 625.553 1478.56 625.553L1485.67 626.251Z" fill="#81807E"/>
<path d="M1514.3 513.973C1514.3 513.973 1517.23 542.436 1518.76 552.18C1520.54 563.574 1521.14 572.987 1521.64 578.884C1522.27 586.301 1522.39 622.785 1522.82 624.954C1523.26 627.122 1513.12 625.553 1513.12 625.553C1513.12 625.553 1508.12 577.882 1506.26 569.983C1504.53 562.628 1498.09 530.963 1496.51 532.971C1494.93 534.979 1492.97 569.924 1491.8 575.724C1490.63 581.525 1487.06 626.938 1487.06 626.938C1487.06 626.938 1478.99 628.546 1476.84 626.728C1476.84 626.728 1475.86 587.591 1476.61 576.716C1476.89 572.571 1471.75 527.021 1478.34 508.684C1481.83 498.993 1514.3 513.973 1514.3 513.973Z" fill="#292C47"/>
<path d="M1487.99 507.663C1487.99 507.663 1489.95 504.706 1492.02 504.326C1494.09 503.947 1463.49 489.155 1463.57 483.871C1463.63 479.584 1474.59 472.474 1474.59 472.474C1474.59 472.474 1474.59 472.48 1474.59 472.492C1474.6 472.496 1474.6 472.502 1474.6 472.505C1474.6 472.511 1474.6 472.518 1474.6 472.523C1474.83 473.371 1478 485.114 1478.11 490.756C1478.22 496.612 1477.76 516.756 1477.76 516.756L1485.6 518.857L1510.65 519.091L1516.37 516.756C1516.37 516.756 1515.75 510.28 1515.51 505.73C1515.37 502.839 1514.81 497.661 1514.95 492.619C1514.95 492.619 1514.86 487.303 1515.39 485.014C1515.44 474.91 1516.06 464.903 1516.06 464.903C1516.39 460.322 1516.63 456.04 1516.77 452.043C1515.66 451.459 1514.33 450.774 1513.27 450.269C1509.98 448.702 1505.39 446.592 1502.45 445.242C1500.73 444.451 1499.04 443.873 1499.04 443.873C1499.04 443.873 1487.28 442.746 1486.33 442.805C1486.03 442.824 1484.56 443.336 1482.63 444.071C1478.46 445.653 1470.42 448.874 1469.14 449.795C1467.26 451.138 1454.97 483.654 1454.79 485.89C1454.47 489.918 1487.99 507.663 1487.99 507.663Z" fill="#DBD8E3"/>
<path d="M1515.61 514.618C1515.61 514.618 1498.41 516.083 1483.34 514.618V519.564C1483.34 519.564 1505.78 521.707 1516.37 518.62L1515.61 514.618Z" fill="#1D2033"/>
<path d="M1500.94 444.591C1500.94 444.591 1503.74 451.168 1505.84 465.865C1506.64 471.511 1508.14 481.014 1509.23 490.713V490.716C1510.08 498.361 1512.04 506.208 1512.66 512.06C1513.31 518.123 1515.25 535.986 1515.25 535.986L1519.95 533.019C1520.62 532.397 1521.57 531.59 1521.29 530.717C1520 526.538 1517.52 512.723 1516.06 500.682C1516.06 500.672 1516.06 500.666 1516.06 500.657C1515.99 500.076 1515.92 499.501 1515.85 498.93C1515.85 498.901 1515.85 498.87 1515.84 498.839C1515.57 496.43 1515.34 494.123 1515.17 492.009C1515.05 490.389 1515.16 488.807 1515.38 487.259C1516.04 476.45 1516.37 465.055 1516.37 465.055C1516.71 460.39 1516.91 456.032 1517.04 451.968C1517.04 451.968 1502.28 444.99 1500.94 444.591Z" fill="#323657"/>
<path d="M1467.08 482.378C1465.04 486.852 1485.81 494.828 1485.34 495.932C1484.22 498.581 1479.64 503.975 1479.64 503.975C1479.64 503.975 1452.29 490.45 1452.6 487.382C1452.82 485.149 1465.63 451.393 1467.51 450.048C1468.59 449.27 1476.62 446.423 1480.56 444.869C1481.29 444.585 1483.74 443.661 1484.39 443.416C1485.23 444.346 1490.99 450.705 1493.02 474.731C1493.37 478.78 1492.28 487.356 1491.56 494.355C1490.79 501.821 1489.93 507.65 1489.31 513.894C1488.07 526.197 1487.21 535.986 1487.21 535.986L1474.97 530.535C1472.98 529.543 1469.56 526.957 1470.3 524.87C1473.13 516.942 1477.38 501.916 1477.38 494.96C1477.38 494.96 1475.38 475.763 1474.3 472.018C1474.3 472.018 1469.37 477.374 1467.08 482.378Z" fill="#323657"/>
<path d="M1487.41 444.055C1487.41 444.055 1487.33 440.018 1485.78 431.852C1485.36 429.666 1498.47 437.604 1498.47 437.604C1498.47 437.604 1498.43 438.37 1498.4 439.404C1498.39 439.95 1498.38 440.57 1498.38 441.191C1498.38 441.411 1498.39 441.628 1498.39 441.844C1498.4 442.422 1498.43 442.975 1498.48 443.446C1498.53 443.93 1498.81 444.786 1498.92 445.02C1499.46 446.268 1491.83 447.214 1487.41 444.055Z" fill="#EEA987"/>
<path d="M1495.6 448.285L1497.77 451.204C1497.77 451.204 1496.49 452.909 1494.23 451.65L1495.6 448.285Z" fill="#E8734D"/>
<path d="M1497.19 451.323C1497.19 451.323 1505.43 483.05 1503.73 507.747L1500.96 512.633L1498.36 507.514C1498.36 507.514 1497.65 463.339 1495.39 451.245L1497.19 451.323Z" fill="#E8734D"/>
<path d="M1497.92 445.563L1495.6 448.285C1495.6 448.285 1491.86 447.562 1490.77 445.611C1489.67 443.661 1497.92 445.563 1497.92 445.563Z" fill="#EEA987"/>
<path d="M1498.46 443.181C1498.46 443.181 1498.18 445.256 1495.59 448.285L1498.42 452.083L1499.95 444.204L1498.46 443.181Z" fill="#C4C1CC"/>
<path d="M1487.16 440.874C1487.16 440.874 1491.82 446.793 1495.59 448.286L1493.84 452.628L1485.82 442.931L1487.16 440.874Z" fill="#C4C1CC"/>
<path d="M1564.94 484.762C1564.94 484.762 1573.57 485.769 1574.06 486.322C1574.54 486.874 1574.43 487.343 1573.61 487.282C1572.8 487.222 1565.23 486.553 1565.23 486.553C1565.23 486.553 1575.13 489.476 1575.63 489.835C1575.92 490.045 1575.75 490.961 1575.31 490.969C1574.87 490.977 1564.86 488.652 1564.86 488.652C1564.86 488.652 1574.09 491.398 1574.41 491.831C1574.7 492.209 1574.33 493.025 1573.63 492.869C1572.93 492.714 1564.18 490.659 1564.18 490.659C1564.18 490.659 1570.74 493.089 1570.79 493.631C1570.81 493.961 1570.7 494.757 1569.03 494.076C1567.36 493.395 1563.22 492.213 1563.22 492.213L1564.94 484.762Z" fill="#EEA886"/>
<path d="M1554.73 485.17C1554.73 485.17 1557.61 485.319 1558.48 483.865C1559.23 482.629 1561.06 481.509 1561.62 481.163C1562.37 480.7 1564.2 478.458 1564.73 479.359C1565.26 480.259 1561.88 483.188 1561.28 483.935C1560.69 484.682 1564.83 484.408 1565.59 484.952C1566.34 485.495 1565.93 492.351 1563.09 492.211C1560.25 492.071 1557.43 490.04 1556.92 490.115C1556.41 490.19 1554.84 490.095 1554.84 490.095L1554.73 485.17Z" fill="#EEA886"/>
<path d="M1555.93 491.947C1555.93 491.947 1534.75 488.982 1530.06 487.826C1527.88 487.291 1525.02 484.292 1522.3 480.766C1521.4 479.605 1520.53 478.386 1519.69 477.18C1519.69 477.177 1519.69 477.175 1519.69 477.175C1516.35 472.358 1513.74 467.74 1513.74 467.74C1513.74 467.74 1503.87 456.183 1511.79 451.031C1511.79 451.031 1515.18 450.958 1517.04 451.968C1518.95 453.007 1523.03 461.522 1523.72 463.03C1524.42 464.536 1531.91 478.543 1532.41 478.857C1532.91 479.172 1540.39 480.797 1543.73 481.492C1548.56 482.5 1557.63 484.383 1557.63 484.383L1555.93 491.947Z" fill="#323657"/>
<path d="M1502.93 514.881H1494.88V520.986H1502.93V514.881Z" fill="#3A4066"/>
<path d="M1489.48 508.027C1489.48 508.027 1488.48 507.987 1488.05 507.756C1488.05 507.756 1487.3 507.275 1486.75 506.966C1486.57 506.869 1486.42 506.788 1486.31 506.746C1485.87 506.57 1484.85 506.317 1483.91 505.598C1482.96 504.881 1479.89 502.007 1479.89 502.007L1481.88 498.955L1482.79 495.932C1482.79 495.932 1489.96 496.644 1490.91 497.212C1491 497.268 1491.09 497.327 1491.17 497.389C1491.94 497.948 1492.27 498.684 1492.64 499.023C1492.77 499.148 1494.02 500.483 1493.95 501.025C1493.85 501.777 1493.48 502.259 1493.01 502.487C1493.01 502.487 1492.76 503.952 1492 504.606C1492 504.606 1491.81 505.963 1490.64 506.509C1490.64 506.509 1490.29 507.865 1489.48 508.027Z" fill="#EFAA88"/>
<path d="M1479.64 503.975C1479.64 503.975 1483.62 500.707 1485.78 495.932L1473.55 489.239L1469.02 498.475L1479.64 503.975Z" fill="#323657"/>
<path d="M1505.37 417.509C1505.37 417.509 1508.25 422.848 1506.82 423.678C1505.64 424.364 1508.2 429.603 1508.54 430.459C1508.88 431.315 1506.4 431.937 1505.88 432.488C1505.35 433.039 1503.8 439.817 1501.76 440.022C1499.73 440.227 1490.56 437.037 1488.06 434.441C1485.56 431.845 1483.51 420.117 1485.18 415.17C1486.85 410.224 1500.29 408.182 1505.37 417.509Z" fill="#EEA886"/>
<path d="M1505.95 418.665C1505.95 418.665 1508.88 412.9 1503.55 408.623C1498.21 404.346 1488.36 411.852 1487.25 412.138C1486.14 412.425 1479.85 412.857 1483.02 423.911C1485.75 433.404 1486.14 433.803 1486.14 433.803C1486.14 433.803 1488.17 428.304 1489.33 427.466C1491.13 426.157 1495.08 426.472 1495.08 426.472C1495.08 426.472 1493.2 421.471 1496.14 420.763C1499.09 420.055 1502.97 417.56 1505.95 418.665Z" fill="#E8734D"/>
<path d="M1491.95 423.608C1491.69 422.922 1490.85 419.974 1488.32 421.705C1485.79 423.437 1489.89 428.993 1490.34 429.065C1490.78 429.136 1494.13 429.38 1491.95 423.608Z" fill="#EEA886"/>
<path d="M1498.38 441.192C1498.38 441.411 1498.39 441.629 1498.39 441.845C1490.89 439.329 1489.44 435.541 1489.44 435.541C1491.78 437.195 1498.4 439.404 1498.4 439.404C1498.39 439.95 1498.38 440.57 1498.38 441.192Z" fill="#A77860"/>
<path d="M1451.22 213.645H1481.15V211.41H1451.22V213.645Z" fill="#FFDC7D"/>
<path d="M1451.22 220.675H1481.15V214.622H1451.22V220.675Z" fill="#FFDC7D"/>
<path d="M1278.85 150.733H1303.59V148.999H1278.85V150.733Z" fill="#FFD887"/>
<path d="M1278.85 159.561H1303.59V152.268H1278.85V159.561Z" fill="#FFD887"/>
<path d="M1307.66 160.083H1308.75V139.649H1307.66V160.083Z" fill="#FFD989"/>
<path d="M1723.16 162.861H1730.14L1728 158.426H1721.02L1723.16 162.861Z" fill="#FFDC7D"/>
<path d="M1719.89 162.861H1721.55L1719.41 158.426H1717.75L1719.89 162.861Z" fill="#FFDC7D"/>
<path d="M1695.75 157.579H1724.04L1723.1 155.362H1694.81L1695.75 157.579Z" fill="#FFDC7D"/>
<path d="M1332.66 539.729H1367.58V537.656H1332.66V539.729Z" fill="#E2D2CA"/>
<path d="M1362.9 545.124H1359.84V639.407H1362.9V545.124Z" fill="#706865"/>
<path d="M1313.85 540.029H1338.12V537.068H1313.85V540.029Z" fill="#CCBDB7"/>
<path d="M1321.39 539.729H1330.58V511.808H1321.39V539.729Z" fill="#FFAA55"/>
<path d="M1245.61 545.124H1380.11V539.763H1245.61V545.124Z" fill="#B59074"/>
<path d="M1405.92 507.316C1405.92 507.316 1407.39 527.946 1403.36 530.415C1400.84 531.962 1390.77 537.179 1391.07 538.157C1391.37 539.135 1396.75 546.861 1396.75 546.861C1396.75 546.861 1416.09 534.126 1416.72 530.113C1417.33 526.192 1415.76 499.907 1413.11 498.696C1411.12 497.789 1410.06 498.539 1407.56 500.402C1404.03 503.016 1405.92 507.316 1405.92 507.316Z" fill="#D44040"/>
<path d="M1370.68 513.207L1368.97 512.576C1368.97 512.576 1371.1 507.586 1372.03 507.707C1373.1 507.848 1374.43 508.2 1374.43 508.2L1370.68 513.207Z" fill="#EAD8CF"/>
<path d="M1370.29 514.067C1370.51 513.905 1373.91 507.372 1373.91 507.372L1381.19 508.361L1377.26 516.099L1370.29 514.067Z" fill="#DA9B5B"/>
<path d="M1382.13 626.534C1382.13 626.534 1382.73 630.708 1382.81 631.335C1382.88 631.962 1389.5 630.966 1389.5 630.966L1390.03 625.996C1390.03 625.996 1382.96 625.945 1382.13 626.534Z" fill="#424773"/>
<path d="M1382.74 630.804C1382.74 630.804 1380.64 633.32 1378.61 634.416C1376.59 635.512 1373.4 635.947 1372.2 637.082C1371.34 637.901 1369.05 641.427 1377.47 641.356C1385.89 641.285 1389.95 641.854 1390.85 640.502C1391.75 639.15 1389.54 630.522 1389.54 630.522C1389.54 630.522 1387.55 631.239 1382.74 630.804Z" fill="#292C47"/>
<path d="M1339.75 626.573C1339.75 626.573 1340.35 630.748 1340.43 631.375C1340.5 632.002 1347.12 631.005 1347.12 631.005L1347.65 626.036C1347.65 626.036 1340.58 625.984 1339.75 626.573Z" fill="#424773"/>
<path d="M1340.36 630.844C1340.36 630.844 1338.26 633.359 1336.23 634.455C1334.21 635.552 1326.75 636.452 1325.55 637.587C1324.68 638.406 1323.25 641.704 1335.09 641.395C1343.51 641.176 1347.57 641.894 1348.47 640.542C1349.37 639.19 1347.16 630.562 1347.16 630.562C1347.16 630.562 1345.29 631.327 1340.36 630.844Z" fill="#292C47"/>
<path d="M1403.46 554.43C1403.46 554.43 1379.42 558.499 1373.99 559.352C1368.55 560.205 1339.1 567.533 1335.42 569.766C1332.49 571.544 1336.96 614.234 1338 630.521H1349.6L1350.44 581.664C1364.36 582.012 1374.3 578.408 1384.43 579.948C1394.57 581.487 1403.02 583.675 1409.46 575.035C1409.46 575.035 1409.7 556.317 1403.46 554.43Z" fill="#292C47"/>
<path d="M1379.76 630.561L1391.07 629.862L1392.17 581.664C1398.16 581.814 1400.21 581.434 1405.06 580.846L1414.19 559.631C1406.19 561.23 1380.56 567.693 1377.15 569.766C1374.21 571.544 1378.72 614.273 1379.76 630.561Z" fill="#292C47"/>
<path d="M1392.39 464.287C1392.39 464.287 1383.58 461.851 1380.22 468.695C1376.85 475.538 1378.38 488.512 1382.82 489.733C1387.26 490.953 1393.65 489.548 1395.5 485.288C1397.34 481.029 1398.81 474.976 1398.37 471.057C1397.93 467.137 1394.74 465.224 1392.39 464.287Z" fill="#EEA886"/>
<path d="M1385.12 488.367C1385.12 488.367 1385.22 493.572 1384.65 494.681C1384.07 495.79 1396.92 495.512 1396.92 495.512C1396.92 495.512 1394.9 489.262 1396.05 483.938C1397.18 478.667 1385.12 488.367 1385.12 488.367Z" fill="#EEA886"/>
<path d="M1396.74 481.967C1396.74 481.967 1396.05 483.364 1392.73 483.138C1389.4 482.912 1385.01 478.9 1383.6 478.542C1382.19 478.183 1382.1 477.38 1382.1 477.38L1381.36 478.708L1379.91 478.928C1379.91 478.928 1380.89 474.907 1378.75 473.491C1376.61 472.074 1379.72 460.67 1390.56 463.421C1390.56 463.421 1398.84 464.937 1398.95 469.559C1399.06 474.18 1398.34 479.519 1396.74 481.967Z" fill="#3A3F47"/>
<path d="M1383.97 494.547C1383.97 494.547 1384.01 492.427 1384.97 492.224C1385.93 492.021 1395.07 490.763 1396.25 491.227L1396.75 494.026C1396.75 494.026 1394.48 495.425 1383.97 494.547Z" fill="#E2D2CA"/>
<path d="M1381.33 476.432C1381.57 474.694 1383.55 472.698 1384.68 475.405C1385.81 478.111 1383.92 482.053 1382.65 481.841C1381.38 481.63 1380.99 478.789 1381.33 476.432Z" fill="#EEA886"/>
<path d="M1345.69 519.595C1345.7 519.593 1345.7 519.592 1345.71 519.594C1345.64 519.623 1345.63 519.626 1345.69 519.595Z" fill="#323657"/>
<path d="M1394.97 465.528C1394.97 465.528 1405.71 465.023 1396.84 481.802L1394.97 465.528Z" fill="#3A3F47"/>
<path d="M1418.91 636.278L1418.12 638.527L1384.33 628.059L1385.95 623.505L1418.91 636.278Z" fill="#918783"/>
<path d="M1383.17 626.457H1387.01V589.726H1383.17V626.457Z" fill="#918783"/>
<path d="M1373.77 589.939H1396.42V587.775H1373.77V589.939Z" fill="#5E5854"/>
<path d="M1350.97 636.278L1351.77 638.527L1385.56 628.059L1384.07 623.219L1350.97 636.278Z" fill="#918783"/>
<path d="M1374.78 638.287V640.903L1385.56 628.059L1384.07 623.219L1374.78 638.287Z" fill="#918783"/>
<path d="M1353.2 641.636C1354.43 640.403 1354.43 638.404 1353.2 637.171C1351.97 635.938 1349.97 635.938 1348.73 637.171C1347.5 638.404 1347.5 640.403 1348.73 641.636C1349.97 642.869 1351.97 642.869 1353.2 641.636Z" fill="#BFB2AC"/>
<path d="M1379.89 641.637C1381.13 640.404 1381.13 638.404 1379.89 637.171C1378.66 635.938 1376.66 635.938 1375.43 637.171C1374.19 638.404 1374.19 640.404 1375.43 641.637C1376.66 642.87 1378.66 642.87 1379.89 641.637Z" fill="#BFB2AC"/>
<path d="M1415.76 639.407C1415.76 641.151 1417.17 642.564 1418.91 642.564C1420.66 642.564 1422.07 641.151 1422.07 639.407C1422.07 637.663 1420.66 636.249 1418.91 636.249C1417.17 636.249 1415.76 637.663 1415.76 639.407Z" fill="#BFB2AC"/>
<path d="M1361 587.774H1408.89C1410.48 587.774 1411.77 586.482 1411.77 584.888V582.461C1411.77 580.868 1410.48 579.576 1408.89 579.576H1361C1359.41 579.576 1358.12 580.868 1358.12 582.461V584.888C1358.12 586.482 1359.41 587.774 1361 587.774Z" fill="#F7F7F7"/>
<path d="M1262.82 639.406H1265.88V545.124H1262.82V639.406Z" fill="#706865"/>
<path d="M1289.17 525.257H1362.8C1364.39 525.257 1365.67 523.969 1365.67 522.379V472.138C1365.67 470.549 1364.39 469.26 1362.8 469.26H1289.17C1287.58 469.26 1286.3 470.549 1286.3 472.138V522.379C1286.3 523.969 1287.58 525.257 1289.17 525.257Z" fill="url(#paint6_linear_545_11065)"/>
<path d="M1289.4 516.482H1362.57V472.287H1289.4V516.482Z" fill="#F5F7FF"/>
<path d="M1309.55 539.835V538.839C1309.55 538.839 1310.95 532.64 1320.86 532.64C1330.77 532.64 1330.57 539.835 1330.57 539.835H1309.55V539.835Z" fill="#FFC655"/>
<path d="M1330.69 533.561C1330.69 533.561 1328.54 533.394 1327.75 532.918C1326.96 532.442 1322.24 529.269 1321.13 529.777C1320.03 530.285 1312.65 532.544 1312.91 533.623C1313.16 534.702 1313.84 534.598 1314.36 534.407C1314.89 534.216 1320.24 533.092 1320.71 533.281C1320.71 533.281 1315.45 535.201 1315.43 536.601C1315.41 538.001 1316.53 538.342 1317.03 538.872C1317.53 539.401 1318.13 540.717 1319.49 540.817C1320.84 540.918 1327.46 538.616 1328.82 538.511C1330.18 538.407 1332.7 538.596 1332.87 538.374C1333.04 538.153 1330.69 533.561 1330.69 533.561Z" fill="#EEA886"/>
<path d="M1369.88 497.485C1376.75 496.279 1383.97 494.547 1383.97 494.547L1396.75 494.026C1396.75 494.026 1408.49 496.609 1413.11 498.696C1413.54 498.893 1413.55 509.162 1414.75 511.855L1410.92 519.936C1410.92 519.936 1408.71 535.945 1408.25 543.064C1408.04 546.332 1408.84 574.652 1408.84 574.652C1408.84 574.652 1407.69 575.219 1398.97 576.18C1390.25 577.142 1368.45 575.833 1368.31 574.802C1368.17 573.772 1372.53 536.433 1372.72 534.499C1373.02 531.531 1371.87 517.818 1371.87 517.818C1370.22 520.026 1366.03 529.997 1361.67 534.741C1359.1 537.533 1346.37 539.243 1343.98 539.323C1338.76 539.497 1329.23 540.537 1328.95 540.029C1328.73 539.724 1328.12 531.576 1328.72 531.377C1329.24 531.203 1346.93 530.185 1351.46 527.781C1353.11 526.902 1358.07 516.098 1358.07 516.098C1358.07 516.098 1366.1 499.187 1369.88 497.485Z" fill="#D44040"/>
<path d="M1392.84 573.834H1418.76C1421.82 573.834 1424.31 571.353 1424.31 568.293V528.127C1424.31 525.067 1421.82 522.586 1418.76 522.586H1392.84C1389.78 522.586 1387.3 525.067 1387.3 528.127V568.293C1387.3 571.353 1389.78 573.834 1392.84 573.834Z" fill="#F7F7F7"/>
<path d="M1393.86 585.733C1399.31 585.733 1403.74 583.901 1407.01 580.288C1414.41 572.121 1413.08 557.766 1413.02 557.159C1412.91 556.027 1411.9 555.2 1410.77 555.313C1409.64 555.426 1408.81 556.433 1408.92 557.563C1408.94 557.727 1410.12 570.74 1403.95 577.532C1401.46 580.28 1398.16 581.616 1393.86 581.616C1392.72 581.616 1391.8 582.538 1391.8 583.675C1391.8 584.811 1392.72 585.733 1393.86 585.733Z" fill="#F7F7F7"/>
<path d="M1336.36 478.142H1356.97C1357.19 478.142 1357.38 477.957 1357.38 477.73V476.22C1357.38 475.992 1357.19 475.807 1356.97 475.807H1336.36C1336.13 475.807 1335.95 475.992 1335.95 476.22V477.73C1335.95 477.957 1336.13 478.142 1336.36 478.142Z" fill="#DFE1E8"/>
<path d="M1336.36 483.15H1356.97C1357.19 483.15 1357.38 482.966 1357.38 482.738V481.228C1357.38 481 1357.19 480.816 1356.97 480.816H1336.36C1336.13 480.816 1335.95 481 1335.95 481.228V482.738C1335.95 482.966 1336.13 483.15 1336.36 483.15Z" fill="#DFE1E8"/>
<path d="M1337.34 512.962H1355.99C1356.76 512.962 1357.38 512.341 1357.38 511.574V487.946C1357.38 487.18 1356.76 486.559 1355.99 486.559H1337.34C1336.57 486.559 1335.95 487.18 1335.95 487.946V511.574C1335.95 512.341 1336.57 512.962 1337.34 512.962Z" fill="#DFE1E8"/>
<path d="M1295.65 512.962H1329.42C1330.64 512.962 1331.62 511.978 1331.62 510.765V478.003C1331.62 476.79 1330.64 475.807 1329.42 475.807H1295.65C1294.44 475.807 1293.46 476.79 1293.46 478.003V510.765C1293.46 511.978 1294.44 512.962 1295.65 512.962Z" fill="#DFE1E8"/>
</g>
<defs>
<linearGradient id="paint0_linear_545_11065" x1="547.068" y1="-204.927" x2="1287.99" y2="1152.32" gradientUnits="userSpaceOnUse">
<stop stop-color="white"/>
<stop offset="1" stop-color="#E3FEFF"/>
</linearGradient>
<linearGradient id="paint1_linear_545_11065" x1="2151.72" y1="911.916" x2="1594.16" y2="516.342" gradientUnits="userSpaceOnUse">
<stop stop-color="white"/>
<stop offset="1" stop-color="#B4F3EE"/>
</linearGradient>
<linearGradient id="paint2_linear_545_11065" x1="1704.5" y1="377.092" x2="2095.12" y2="-137.581" gradientUnits="userSpaceOnUse">
<stop stop-color="#B4F3EE"/>
<stop offset="1" stop-color="white"/>
</linearGradient>
<linearGradient id="paint3_linear_545_11065" x1="1566.15" y1="239.561" x2="1710.76" y2="239.561" gradientUnits="userSpaceOnUse">
<stop stop-color="#FF9F55"/>
<stop offset="1" stop-color="#FFD255"/>
</linearGradient>
<linearGradient id="paint4_linear_545_11065" x1="1711.79" y1="275.586" x2="1772.14" y2="275.586" gradientUnits="userSpaceOnUse">
<stop stop-color="#FF9F55"/>
<stop offset="1" stop-color="#FFD255"/>
</linearGradient>
<linearGradient id="paint5_linear_545_11065" x1="1466.18" y1="203.304" x2="1466.18" y2="468.727" gradientUnits="userSpaceOnUse">
<stop stop-color="#2C96FF"/>
<stop offset="0.9948" stop-color="#1137A9"/>
</linearGradient>
<linearGradient id="paint6_linear_545_11065" x1="1286.3" y1="497.259" x2="1365.67" y2="497.259" gradientUnits="userSpaceOnUse">
<stop stop-color="#FF9F55"/>
<stop offset="1" stop-color="#FFD255"/>
</linearGradient>
<clipPath id="clip0_545_11065">
<rect width="543.882" height="528.223" fill="white" transform="translate(1228.26 114.361)"/>
</clipPath>
</defs>
</svg>
