<svg width="62" height="64" viewBox="0 0 62 64" fill="none" xmlns="http://www.w3.org/2000/svg">
<g clip-path="url(#clip0_545_11732)">
<path d="M39.75 50.6875H55.0625V55.0625H39.75V50.6875ZM44.125 59.4375H50.6875V63.8125H44.125V59.4375ZM55.0625 46.3125H50.6875C50.6875 43.9062 51.5625 41.9375 53.3125 40.1875L54.4063 39.0938C56.1563 37.3438 57.25 34.7188 57.25 32.0938C57.25 26.625 52.875 22.25 47.4062 22.25C41.9375 22.25 37.5625 26.625 37.5625 32.0938C37.5625 34.7188 38.6562 37.125 40.4062 39.0938L41.5 40.1875C43.25 41.9375 44.125 43.9062 44.125 46.3125H39.75C39.75 45.2188 39.3125 44.125 38.4375 43.25L37.3437 42.1563C34.7187 39.5313 33.1875 35.8125 33.1875 32.0938C33.1875 24.2188 39.5313 17.875 47.4062 17.875C55.2812 17.875 61.625 24.2188 61.625 32.0938C61.625 35.8125 60.0938 39.5313 57.4688 42.1563L56.375 43.25C55.5 44.125 55.0625 45.2188 55.0625 46.3125ZM9.125 44.125H26.625V48.5H9.125V44.125Z" fill="#F24E1E"/>
<path d="M22.25 39.75C23.4581 39.75 24.4375 38.7706 24.4375 37.5625C24.4375 36.3544 23.4581 35.375 22.25 35.375C21.0419 35.375 20.0625 36.3544 20.0625 37.5625C20.0625 38.7706 21.0419 39.75 22.25 39.75Z" fill="#F24E1E"/>
<path d="M9.125 35.375H15.6875V39.75H9.125V35.375ZM9.125 26.625H24.4375V31H9.125V26.625ZM17.875 17.875H33.1875V22.25H17.875V17.875Z" fill="#F24E1E"/>
<path d="M11.3125 22.25C12.5206 22.25 13.5 21.2706 13.5 20.0625C13.5 18.8544 12.5206 17.875 11.3125 17.875C10.1044 17.875 9.125 18.8544 9.125 20.0625C9.125 21.2706 10.1044 22.25 11.3125 22.25Z" fill="#F24E1E"/>
<path d="M31 9.125H39.75V13.5H31V9.125Z" fill="#F24E1E"/>
<path d="M24.4375 13.5C25.6456 13.5 26.625 12.5206 26.625 11.3125C26.625 10.1044 25.6456 9.125 24.4375 9.125C23.2294 9.125 22.25 10.1044 22.25 11.3125C22.25 12.5206 23.2294 13.5 24.4375 13.5Z" fill="#F24E1E"/>
<path d="M9.125 9.125H17.875V13.5H9.125V9.125Z" fill="#F24E1E"/>
<path d="M35.375 57.25H4.75V4.75H44.125V13.5H48.5V4.75C48.5 2.34375 46.5313 0.375 44.125 0.375H4.75C2.34375 0.375 0.375 2.34375 0.375 4.75V57.25C0.375 59.6563 2.34375 61.625 4.75 61.625H35.375V57.25Z" fill="#F24E1E"/>
</g>
<defs>
<clipPath id="clip0_545_11732">
<rect width="62" height="64" fill="white"/>
</clipPath>
</defs>
</svg>
