<svg width="70" height="55" viewBox="0 0 70 55" fill="none" xmlns="http://www.w3.org/2000/svg">
<g clip-path="url(#clip0_545_11747)">
<path d="M26.8614 51.6098H17.7169C13.0033 51.6098 8.85529 50.0386 5.49289 46.6762C2.1305 43.3767 0.433594 39.3229 0.433594 34.5779C0.433594 30.4927 1.65914 26.8475 4.11023 23.6423C6.50098 20.5092 9.93432 18.3355 13.7889 17.5145C15.1087 12.7066 17.7169 8.81002 21.6449 5.82472C25.573 2.90227 30.0352 1.33105 35.0002 1.33105C41.128 1.33105 46.3444 3.4679 50.5867 7.7416C54.8603 11.9839 56.9972 17.2003 56.9972 23.328C60.611 23.7365 63.6277 25.3077 65.9845 28.0416C67.9957 30.3356 69.1269 32.9438 69.4412 35.8977H63.1563C62.8421 34.3265 62.1508 33.0381 60.9881 31.9068C59.4797 30.367 57.6257 29.6129 55.426 29.6129H50.7124V23.328C50.7124 18.9915 49.1411 15.2834 46.1244 12.2038C43.0763 9.18711 39.3682 7.6159 35.0002 7.6159C30.6637 7.6159 26.9556 9.18711 23.8761 12.2038C20.8593 15.2834 19.2881 18.9915 19.2881 23.328H17.7169C14.6688 23.328 12.092 24.3964 9.95513 26.5647C7.78686 28.7016 6.71844 31.2783 6.71844 34.3265C6.71844 37.3746 7.78686 39.9828 9.95513 42.1825C12.092 44.288 14.6688 45.325 17.7169 45.325H25.573C25.573 47.5875 26.0443 49.6929 26.8614 51.6098ZM69.5669 42.1825V48.4674H63.282V54.7522H56.9972V48.4674H50.0839C48.8269 52.2383 45.3702 54.7522 41.2851 54.7522C35.943 54.7522 31.8578 50.6671 31.8578 45.325C31.8578 39.9828 35.943 35.8977 41.2851 35.8977C45.3702 35.8977 48.8269 38.4116 50.0839 42.1825H69.5669ZM44.4275 45.325C44.4275 43.7538 43.1705 42.1825 41.2851 42.1825C39.3996 42.1825 38.1427 43.7538 38.1427 45.325C38.1427 46.8962 39.3996 48.4674 41.2851 48.4674C43.1705 48.4674 44.4275 46.8962 44.4275 45.325Z" fill="#F24E1E"/>
</g>
<defs>
<clipPath id="clip0_545_11747">
<rect width="70" height="54.4444" fill="white" transform="translate(0 0.495117)"/>
</clipPath>
</defs>
</svg>
